<svg width="40" height="41" viewBox="0 0 40 41" fill="none" xmlns="http://www.w3.org/2000/svg">
<path d="M13.7498 12.2363C10.9928 12.2363 8.74976 14.4788 8.74976 17.2363C8.74976 19.9939 10.9928 22.2363 13.7498 22.2363C16.5067 22.2363 18.7498 19.9939 18.7498 17.2363C18.7498 14.4788 16.5067 12.2363 13.7498 12.2363ZM11.8748 20.8215V13.6511L17.2532 17.2363L11.8748 20.8215ZM33.7498 3.48633H6.24976C3.4928 3.48633 1.24976 5.72876 1.24976 8.48633V25.9863C1.24976 28.7439 3.4928 30.9863 6.24976 30.9863H33.7498C36.5067 30.9863 38.7498 28.7439 38.7498 25.9863V8.48633C38.7498 5.72876 36.5067 3.48633 33.7498 3.48633V3.48633ZM13.7498 24.7363C9.61401 24.7363 6.24976 21.3721 6.24976 17.2363C6.24976 13.1006 9.61401 9.73633 13.7498 9.73633C17.8855 9.73633 21.2498 13.1006 21.2498 17.2363C21.2498 21.3721 17.8855 24.7363 13.7498 24.7363ZM33.7498 23.4863H23.7498V20.9863H33.7498V23.4863ZM33.7498 18.4863H23.7498V15.9863H33.7498V18.4863ZM33.7498 13.4863H23.7498V10.9863H33.7498V13.4863ZM23.7498 35.9863V33.4863H16.2498V35.9863H11.2498V38.4863H28.7498V35.9863H23.7498Z" fill="#0067E5"/>
</svg>
