<svg width="40" height="41" viewBox="0 0 40 41" fill="none" xmlns="http://www.w3.org/2000/svg">
<path d="M37.3499 12.6543H28.3333V3.63763L37.3499 12.6543ZM38.3333 17.6543V30.9876C38.3333 32.082 38.1177 33.1656 37.6989 34.1767C37.2801 35.1877 36.6663 36.1064 35.8925 36.8802C35.1187 37.654 34.2 38.2678 33.189 38.6866C32.1779 39.1054 31.0943 39.321 29.9999 39.321H14.9999C12.0692 39.3158 9.22176 38.3451 6.89808 36.5591C4.5744 34.773 2.90392 32.2711 2.14499 29.4403C1.38606 26.6095 1.58097 23.6075 2.69957 20.8986C3.81818 18.1897 5.79815 15.9249 8.33327 14.4543V10.9876C8.33327 8.77749 9.21124 6.65788 10.774 5.09507C12.3368 3.53227 14.4565 2.6543 16.6666 2.6543H23.3333C23.7753 2.6543 24.1992 2.82989 24.5118 3.14245C24.8243 3.45501 24.9999 3.87894 24.9999 4.32096V12.6543C24.9999 13.5384 25.3511 14.3862 25.9762 15.0113C26.6014 15.6364 27.4492 15.9876 28.3333 15.9876H36.6666C37.1086 15.9876 37.5326 16.1632 37.8451 16.4758C38.1577 16.7883 38.3333 17.2123 38.3333 17.6543ZM14.9999 35.9876C16.9777 35.9876 18.9111 35.4011 20.5556 34.3023C22.2001 33.2035 23.4819 31.6417 24.2387 29.8145C24.9956 27.9872 25.1936 25.9765 24.8078 24.0367C24.4219 22.0969 23.4695 20.3151 22.071 18.9166C20.6725 17.518 18.8906 16.5656 16.9508 16.1798C15.011 15.7939 13.0004 15.992 11.1731 16.7488C9.34584 17.5057 7.78405 18.7874 6.68524 20.4319C5.58642 22.0764 4.99994 24.0098 4.99994 25.9876C4.99994 28.6398 6.0535 31.1833 7.92887 33.0587C9.80423 34.9341 12.3478 35.9876 14.9999 35.9876ZM16.6666 32.6543C17.7717 32.5438 18.7876 31.9988 19.4908 31.1393C20.1941 30.2797 20.5271 29.176 20.4166 28.071C20.3061 26.9659 19.7611 25.95 18.9016 25.2467C18.042 24.5435 16.9383 24.2105 15.8333 24.321H14.1666C13.9456 24.321 13.7336 24.2332 13.5773 24.0769C13.4211 23.9206 13.3333 23.7086 13.3333 23.4876C13.3333 23.2666 13.4211 23.0547 13.5773 22.8984C13.7336 22.7421 13.9456 22.6543 14.1666 22.6543H18.3333C18.7753 22.6543 19.1992 22.4787 19.5118 22.1661C19.8243 21.8536 19.9999 21.4297 19.9999 20.9876C19.9999 20.5456 19.8243 20.1217 19.5118 19.8091C19.1992 19.4966 18.7753 19.321 18.3333 19.321H16.6666C16.6666 18.8789 16.491 18.455 16.1784 18.1425C15.8659 17.8299 15.442 17.6543 14.9999 17.6543C14.5579 17.6543 14.134 17.8299 13.8214 18.1425C13.5089 18.455 13.3333 18.8789 13.3333 19.321V19.4043C12.3206 19.6099 11.4205 20.1845 10.8077 21.0164C10.1949 21.8483 9.913 22.8783 10.0168 23.9064C10.1207 24.9344 10.6028 25.8872 11.3697 26.5798C12.1365 27.2724 13.1333 27.6553 14.1666 27.6543H15.8333C16.0543 27.6543 16.2662 27.7421 16.4225 27.8984C16.5788 28.0547 16.6666 28.2666 16.6666 28.4876C16.6666 28.7086 16.5788 28.9206 16.4225 29.0769C16.2662 29.2332 16.0543 29.321 15.8333 29.321H11.6666C11.2246 29.321 10.8007 29.4966 10.4881 29.8091C10.1755 30.1217 9.99994 30.5456 9.99994 30.9876C9.99994 31.4297 10.1755 31.8536 10.4881 32.1661C10.8007 32.4787 11.2246 32.6543 11.6666 32.6543H13.3333C13.3333 33.0963 13.5089 33.5203 13.8214 33.8328C14.134 34.1454 14.5579 34.321 14.9999 34.321C15.442 34.321 15.8659 34.1454 16.1784 33.8328C16.491 33.5203 16.6666 33.0963 16.6666 32.6543Z" fill="#0067E5"/>
</svg>
