<svg width="40" height="41" viewBox="0 0 40 41" fill="none" xmlns="http://www.w3.org/2000/svg">
<path d="M37.4524 31.2031H2.54778C1.67402 31.2031 1.02455 32.0119 1.20755 32.8681L2.15219 35.5172C2.39425 36.6272 3.38019 37.4242 4.51966 37.4242H35.4803C36.6198 37.4242 37.6058 36.6272 37.8478 35.5172L38.7925 32.8681C38.9756 32.012 38.3261 31.2031 37.4524 31.2031ZM20.0001 35.9907C19.1558 35.9907 18.4768 35.3058 18.4768 34.4675C18.4768 33.6232 19.1558 32.9443 20.0001 32.9443C20.8384 32.9443 21.5233 33.6233 21.5233 34.4675C21.5233 35.3058 20.8384 35.9907 20.0001 35.9907Z" fill="#0C46CC"/>
<path d="M33.1662 4.55469H6.8343C4.92142 4.55469 3.36865 6.10151 3.36865 8.02033V30.0204H36.6318V8.02033C36.6318 6.10151 35.085 4.55469 33.1662 4.55469ZM33.0894 26.4781H6.91106V8.0971H33.0895L33.0894 26.4781Z" fill="#0C46CC"/>
<path d="M14.9884 11.1094H10.708C10.277 11.1094 9.92749 11.4589 9.92749 11.8898V17.432C9.92749 17.8624 10.277 18.2118 10.708 18.2118H14.9884C15.4194 18.2118 15.7683 17.8623 15.7683 17.432V16.1774V13.5654V11.8898C15.7683 11.4589 15.4194 11.1094 14.9884 11.1094V11.1094Z" fill="#0C46CC"/>
<path d="M30.0735 12.216H19.6861C19.3601 12.216 19.0957 11.9519 19.0957 11.6256C19.0957 11.2992 19.3601 11.0352 19.6861 11.0352H30.0735C30.3995 11.0352 30.6639 11.2992 30.6639 11.6256C30.6639 11.9519 30.3996 12.216 30.0735 12.216V12.216Z" fill="#0C46CC"/>
<path d="M30.0735 15.5089H19.6861C19.3601 15.5089 19.0957 15.2449 19.0957 14.9185C19.0957 14.5922 19.3601 14.3281 19.6861 14.3281H30.0735C30.3995 14.3281 30.6639 14.5922 30.6639 14.9185C30.6639 15.2449 30.3996 15.5089 30.0735 15.5089V15.5089Z" fill="#0C46CC"/>
<path d="M30.0735 18.8039H19.6861C19.3601 18.8039 19.0957 18.5398 19.0957 18.2135C19.0957 17.8871 19.3601 17.623 19.6861 17.623H30.0735C30.3995 17.623 30.6639 17.8871 30.6639 18.2135C30.6639 18.5398 30.3996 18.8039 30.0735 18.8039V18.8039Z" fill="#0C46CC"/>
<path d="M30.0735 22.0968H9.92781C9.60176 22.0968 9.3374 21.8328 9.3374 21.5064C9.3374 21.1801 9.60176 20.916 9.92781 20.916H30.0735C30.3996 20.916 30.6639 21.1801 30.6639 21.5064C30.6639 21.8328 30.3996 22.0968 30.0735 22.0968Z" fill="#0C46CC"/>
</svg>
