<svg width="40" height="41" viewBox="0 0 40 41" fill="none" xmlns="http://www.w3.org/2000/svg">
<path d="M13.8241 21.9968C13.8241 25.3114 16.594 28.0079 19.9987 28.0079C23.4037 28.0079 26.1739 25.3114 26.1739 21.9968C26.1739 18.6826 23.4037 15.9863 19.9987 15.9863C16.594 15.9863 13.8241 18.6825 13.8241 21.9968Z" fill="#0C46CC"/>
<path d="M16.1738 40.9863H23.8247C27.2294 40.9863 29.9993 38.2901 29.9993 34.9758C29.9993 31.6616 27.2294 28.9653 23.8247 28.9653H16.1738C12.7692 28.9653 9.99927 31.6616 9.99927 34.9758C9.99927 38.2901 12.7691 40.9863 16.1738 40.9863Z" fill="#0C46CC"/>
<path d="M1.75216 12.7398L3.77606 14.4559C3.91361 14.5726 3.97647 14.7417 3.9439 14.9074L3.46518 17.3521C3.4451 17.4482 3.48952 17.5459 3.57938 17.6033C3.66925 17.6607 3.78859 17.6676 3.88623 17.621L6.40096 16.4642C6.56773 16.3898 6.76482 16.3898 6.93159 16.4642L9.44633 17.621C9.54396 17.6676 9.6633 17.6607 9.75317 17.6033C9.84303 17.5459 9.88745 17.4482 9.86737 17.3521L9.38288 14.9115C9.35326 14.7451 9.41786 14.5765 9.55591 14.4599L11.5804 12.7398C11.6576 12.6725 11.6852 12.5727 11.6518 12.4817C11.6184 12.3907 11.5297 12.3239 11.4224 12.309L8.61577 11.9538C8.42892 11.9311 8.26695 11.8285 8.18319 11.6798L6.92582 9.46148C6.87764 9.37395 6.77682 9.31836 6.66628 9.31836C6.55573 9.31836 6.45491 9.37395 6.40673 9.46148L5.14936 11.6788C5.0656 11.8275 4.90363 11.9301 4.71678 11.9528L1.9102 12.308C1.80234 12.3227 1.71311 12.3896 1.67966 12.481C1.64621 12.5724 1.67427 12.6726 1.75216 12.7398V12.7398Z" fill="#0C46CC"/>
<path d="M28.4043 12.7398L30.0909 14.4559C30.2055 14.5726 30.2579 14.7417 30.2307 14.9074L29.8318 17.3521C29.815 17.4482 29.8521 17.5459 29.927 17.6033C30.0018 17.6607 30.1013 17.6676 30.1827 17.621L32.2783 16.4642C32.4172 16.3898 32.5815 16.3898 32.7205 16.4642L34.8161 17.621C34.8974 17.6676 34.9969 17.6607 35.0718 17.6033C35.1467 17.5459 35.1837 17.4482 35.1669 17.3521L34.7632 14.9115C34.7385 14.7451 34.7924 14.5765 34.9074 14.4599L36.5945 12.7398C36.6588 12.6725 36.6818 12.5727 36.654 12.4817C36.6262 12.3907 36.5522 12.3239 36.4628 12.309L34.1239 11.9538C33.9682 11.9311 33.8333 11.8285 33.7635 11.6798L32.7157 9.46148C32.6755 9.37395 32.5915 9.31836 32.4994 9.31836C32.4072 9.31836 32.3232 9.37395 32.2831 9.46148L31.2353 11.6788C31.1655 11.8275 31.0305 11.9301 30.8748 11.9528L28.536 12.308C28.4461 12.3227 28.3717 12.3896 28.3438 12.481C28.316 12.5724 28.3394 12.6726 28.4043 12.7398V12.7398Z" fill="#0C46CC"/>
<path d="M11.8098 6.46066L15.1829 9.20632C15.4122 9.39314 15.5169 9.66375 15.4627 9.92886L14.6648 13.8403C14.6313 13.9941 14.7054 14.1504 14.8551 14.2422C15.0049 14.3341 15.2038 14.3451 15.3665 14.2706L19.5578 12.4196C19.8357 12.3006 20.1642 12.3006 20.4421 12.4196L24.6334 14.2706C24.7961 14.3451 24.995 14.3341 25.1448 14.2422C25.2945 14.1504 25.3686 13.9941 25.3351 13.8403L24.5276 9.93536C24.4783 9.66919 24.5859 9.39943 24.816 9.21281L28.1901 6.46066C28.3188 6.35295 28.3648 6.19329 28.3092 6.04768C28.2536 5.90207 28.1057 5.79526 27.9267 5.7714L23.2491 5.20311C22.9377 5.16676 22.6677 5.00261 22.5281 4.76471L20.4325 1.21531C20.3522 1.07527 20.1842 0.986328 19.9999 0.986328C19.8157 0.986328 19.6477 1.07527 19.5674 1.21531L17.4718 4.76308C17.3322 5.00098 17.0622 5.16513 16.7508 5.20148L12.0732 5.76977C11.8934 5.79319 11.7447 5.90032 11.6889 6.04654C11.6332 6.19277 11.6799 6.35305 11.8098 6.46066Z" fill="#0C46CC"/>
</svg>
