<svg width="40" height="41" viewBox="0 0 40 41" fill="none" xmlns="http://www.w3.org/2000/svg">
<path fill-rule="evenodd" clip-rule="evenodd" d="M9.06217 39.3171C8.98422 39.3171 8.90662 39.3155 8.82941 39.3124H8.3937C8.31405 39.3124 8.23733 39.2895 8.17185 39.248C5.43408 38.819 3.33301 36.4442 3.33301 33.5879V8.37956C3.33301 5.22049 5.90311 2.65039 9.06217 2.65039H26.6714C29.8305 2.65039 32.4006 5.22049 32.4006 8.37956V17.1882C32.4006 17.3 32.3878 17.4089 32.3635 17.5133V22.8033L21.818 31.8942L20.9535 38.9485C20.9281 39.1563 20.7517 39.3124 20.5423 39.3124H13.9689C13.9304 39.3155 13.8916 39.3171 13.8524 39.3171H9.06217ZM25.2393 16.9748C26.0303 16.9748 26.6716 17.616 26.6716 18.4071C26.6716 19.1981 26.0303 19.8394 25.2393 19.8394H10.4867C9.69562 19.8394 9.05438 19.1981 9.05438 18.4071C9.05438 17.616 9.69562 16.9748 10.4867 16.9748H25.2393ZM10.4867 22.7036C9.69562 22.7036 9.05438 23.3448 9.05438 24.1359C9.05438 24.9269 9.69562 25.5682 10.4867 25.5682H19.4464C20.2375 25.5682 20.8787 24.9269 20.8787 24.1359C20.8787 23.3448 20.2375 22.7036 19.4464 22.7036H10.4867ZM10.4867 11.246H25.2393C26.0303 11.246 26.6716 11.8872 26.6716 12.6783C26.6716 13.4693 26.0303 14.1106 25.2393 14.1106H10.4867C9.69562 14.1106 9.05438 13.4693 9.05438 12.6783C9.05438 11.8872 9.69562 11.246 10.4867 11.246Z" fill="#603CF0"/>
<path d="M34.9377 23.3914C33.2624 21.7161 30.5364 21.716 28.8622 23.3903L20.9987 31.2364C20.8317 31.403 20.7085 31.6083 20.6399 31.834L18.9274 37.4719C18.7755 37.9717 18.9078 38.5145 19.2726 38.8884C19.5459 39.1685 19.9171 39.3205 20.2979 39.3205C20.4253 39.3205 20.5539 39.3035 20.6802 39.2685L26.4613 37.6671C26.6992 37.6012 26.916 37.4749 27.0908 37.3005L34.9378 29.4682C36.6131 27.7929 36.6131 25.0669 34.9377 23.3914ZM25.3336 35.007L22.4252 35.8127L23.2764 33.0105L28.5822 27.7164L30.6082 29.7424L25.3336 35.007ZM32.9132 27.4418L32.6357 27.7188L30.6101 25.6931L30.8867 25.4171C31.4451 24.8587 32.3538 24.8587 32.9122 25.4171C33.4707 25.9756 33.4707 26.8842 32.9132 27.4418Z" fill="#603CF0"/>
</svg>
