<svg width="41" height="41" viewBox="0 0 41 41" fill="none" xmlns="http://www.w3.org/2000/svg">
<path d="M5.92572 10.2023C5.92572 15.2847 10.0599 19.4194 15.1418 19.4194C20.2241 19.4194 24.3588 15.2847 24.3588 10.2023C24.3588 5.12055 20.2241 0.986328 15.1418 0.986328C10.06 0.986328 5.92572 5.12046 5.92572 10.2023Z" fill="#0DA07D"/>
<path d="M9.43289 39.3197H20.8524C25.9343 39.3197 30.0685 35.1854 30.0685 30.1036C30.0685 25.0217 25.9343 20.8875 20.8524 20.8875H9.43289C4.35112 20.8875 0.216797 25.0217 0.216797 30.1036C0.216797 35.1854 4.35102 39.3197 9.43289 39.3197Z" fill="#0DA07D"/>
<path d="M39.6317 25.8234C39.6317 31.2282 35.2502 35.6098 29.8453 35.6098C24.4404 35.6098 20.0589 31.2282 20.0589 25.8234C20.0589 20.4185 24.4404 16.0369 29.8453 16.0369C35.2502 16.0369 39.6317 20.4185 39.6317 25.8234Z" fill="white" stroke="#0DA07D" stroke-width="1.19107"/>
<path fill-rule="evenodd" clip-rule="evenodd" d="M34.4036 23.7575C34.8733 23.192 34.7955 22.3529 34.23 21.8832C33.6645 21.4136 32.8253 21.4914 32.3557 22.0569L28.2066 27.0533L25.8935 25.127C25.3286 24.6566 24.4894 24.7331 24.019 25.298C23.5485 25.8628 23.6251 26.7021 24.19 27.1725L27.1708 29.655C27.933 30.2897 29.0656 30.1856 29.6993 29.4225L34.4036 23.7575Z" fill="#0DA07D"/>
</svg>
