<svg width="40" height="41" viewBox="0 0 40 41" fill="none" xmlns="http://www.w3.org/2000/svg">
<g clip-path="url(#clip0_611_10051)">
<path d="M6.11864 5.70703C6.11756 5.70703 6.11635 5.70703 6.11527 5.70703C5.73696 5.70703 5.38113 5.85451 5.11244 6.12252C4.84079 6.3935 4.69116 6.75431 4.69116 7.13842V28.6018C4.69116 29.3889 5.33399 30.0307 6.1243 30.0328C9.45603 30.0407 15.038 30.7351 18.8888 34.7649V12.3029C18.8888 12.0361 18.8206 11.7854 18.692 11.578C15.5315 6.48818 9.45791 5.71484 6.11864 5.70703Z" fill="#0DA07D"/>
<path d="M35.3088 28.6019V7.13842C35.3088 6.75431 35.1592 6.3935 34.8875 6.12252C34.6188 5.85451 34.2628 5.70703 33.8848 5.70703C33.8836 5.70703 33.8824 5.70703 33.8813 5.70703C30.5422 5.71498 24.4686 6.48831 21.308 11.5782C21.1793 11.7856 21.1113 12.0362 21.1113 12.303V34.7649C24.9621 30.7351 30.5441 30.0407 33.8758 30.0328C34.666 30.0307 35.3088 29.3889 35.3088 28.6019Z" fill="#0DA07D"/>
<path d="M38.5693 10.6562H37.5314V28.6012C37.5314 30.6108 35.8941 32.2495 33.8815 32.2544C31.0555 32.2612 26.3958 32.8138 23.0957 35.9371C28.8032 34.5397 34.8199 35.4481 38.2489 36.2295C38.677 36.327 39.1195 36.2263 39.4625 35.9529C39.8043 35.6802 40.0004 35.2725 40.0004 34.8349V12.0874C40.0005 11.2983 39.3584 10.6562 38.5693 10.6562Z" fill="#0DA07D"/>
<path d="M2.46896 28.6032V10.6582H1.43112C0.642157 10.6582 0 11.3002 0 12.0893V34.8365C0 35.2742 0.196095 35.6817 0.537914 35.9544C0.880676 36.2277 1.3227 36.3289 1.75152 36.2311C5.18049 35.4495 11.1973 34.5412 16.9046 35.9387C13.6046 32.8154 8.94495 32.263 6.11894 32.2563C4.10641 32.2514 2.46896 30.6127 2.46896 28.6032Z" fill="#0DA07D"/>
</g>
<defs>
<clipPath id="clip0_611_10051">
<rect width="40" height="40" fill="white" transform="translate(0 0.986328)"/>
</clipPath>
</defs>
</svg>
