<svg width="40" height="41" viewBox="0 0 40 41" fill="none" xmlns="http://www.w3.org/2000/svg">
<g clip-path="url(#clip0_611_10071)">
<path d="M2.85716 20.9871C2.85313 16.9311 4.37163 13.0213 7.11223 10.0313C9.85282 7.04124 13.6159 5.18878 17.6569 4.84037C21.6979 4.49197 25.7225 5.673 28.9344 8.14982C32.1463 10.6266 34.3116 14.2188 35.0019 18.2156C35.7981 18.7212 36.478 19.39 36.9968 20.1776C37.5155 20.9653 37.8613 21.854 38.0114 22.7852C38.0686 22.1928 38.0952 21.5928 38.0952 20.9871C38.0952 10.4671 29.5676 1.93945 19.0476 1.93945C8.52763 1.93945 1.346e-05 10.4671 1.346e-05 20.9871C-0.00296169 23.4861 0.487304 25.9612 1.44271 28.2705C2.39811 30.5797 3.79987 32.6777 5.56763 34.4442C5.83694 34.7046 6.19773 34.8487 6.5723 34.8456C6.94687 34.8426 7.30525 34.6925 7.57024 34.4277C7.83524 34.163 7.98565 33.8048 7.98908 33.4302C7.99251 33.0556 7.84868 32.6947 7.58858 32.4252C6.08586 30.9239 4.89435 29.1407 4.08242 27.1779C3.27048 25.215 2.8541 23.1112 2.85716 20.9871ZM30.8381 17.2042C30.2647 15.4209 29.2941 13.7909 27.9995 12.4371C26.7048 11.0832 25.1199 10.0408 23.3639 9.38832C21.608 8.73583 19.7269 8.4903 17.8623 8.67021C15.9978 8.85011 14.1983 9.45077 12.5995 10.4269C11.0007 11.4031 9.64431 12.7293 8.63239 14.3057C7.62047 15.8821 6.97944 17.6676 6.7576 19.5277C6.53575 21.3877 6.73887 23.2739 7.35165 25.044C7.96443 26.8142 8.9709 28.4223 10.2952 29.7471C10.4281 29.8798 10.5857 29.985 10.7592 30.0568C10.9327 30.1285 11.1186 30.1654 11.3064 30.1653C11.4941 30.1652 11.68 30.1282 11.8535 30.0562C12.0269 29.9843 12.1845 29.8789 12.3172 29.7461C12.4499 29.6133 12.5551 29.4556 12.6269 29.2821C12.6986 29.1086 12.7355 28.9227 12.7354 28.735C12.7353 28.5472 12.6983 28.3613 12.6263 28.1879C12.5544 28.0145 12.449 27.8569 12.3162 27.7242C11.2977 26.7057 10.5236 25.4695 10.0519 24.1086C9.58028 22.7476 9.42346 21.2975 9.59326 19.8672C9.76307 18.4369 10.2551 17.0637 11.0322 15.8511C11.8094 14.6384 12.8515 13.6178 14.0801 12.8661C15.3088 12.1144 16.6919 11.6511 18.1254 11.5112C19.5589 11.3713 21.0055 11.5583 22.3563 12.0582C23.7071 12.5582 24.9269 13.358 25.9239 14.3974C26.9209 15.4369 27.6692 16.689 28.1124 18.0594C28.9483 17.5785 29.8792 17.286 30.84 17.2023L30.8381 17.2042ZM14.2857 20.9871C14.2857 19.7241 14.7874 18.5129 15.6805 17.6199C16.5735 16.7269 17.7847 16.2252 19.0476 16.2252C20.3106 16.2252 21.5218 16.7269 22.4148 17.6199C23.3078 18.5129 23.8095 19.7241 23.8095 20.9871C23.8095 22.25 23.3078 23.4612 22.4148 24.3542C21.5218 25.2473 20.3106 25.749 19.0476 25.749C17.7847 25.749 16.5735 25.2473 15.6805 24.3542C14.7874 23.4612 14.2857 22.25 14.2857 20.9871ZM19.0476 19.0823C18.5425 19.0823 18.058 19.283 17.7008 19.6402C17.3435 19.9974 17.1429 20.4819 17.1429 20.9871C17.1429 21.4922 17.3435 21.9767 17.7008 22.3339C18.058 22.6911 18.5425 22.8918 19.0476 22.8918C19.5528 22.8918 20.0373 22.6911 20.3945 22.3339C20.7517 21.9767 20.9524 21.4922 20.9524 20.9871C20.9524 20.4819 20.7517 19.9974 20.3945 19.6402C20.0373 19.283 19.5528 19.0823 19.0476 19.0823ZM36.1905 23.8442C36.1905 25.1071 35.6888 26.3183 34.7957 27.2114C33.9027 28.1044 32.6915 28.6061 31.4286 28.6061C30.1656 28.6061 28.9544 28.1044 28.0614 27.2114C27.1684 26.3183 26.6667 25.1071 26.6667 23.8442C26.6667 22.5813 27.1684 21.3701 28.0614 20.477C28.9544 19.584 30.1656 19.0823 31.4286 19.0823C32.6915 19.0823 33.9027 19.584 34.7957 20.477C35.6888 21.3701 36.1905 22.5813 36.1905 23.8442ZM40 34.0823C40 37.0461 37.5505 40.0347 31.4286 40.0347C25.3067 40.0347 22.8571 37.0575 22.8571 34.0823V33.8861C22.8571 32.0194 24.3695 30.5109 26.2343 30.5109H36.6229C38.4895 30.5109 40 32.0213 40 33.8861V34.0823Z" fill="#F16920"/>
</g>
<defs>
<clipPath id="clip0_611_10071">
<rect width="40" height="40" fill="white" transform="translate(0 0.986328)"/>
</clipPath>
</defs>
</svg>
