<svg width="40" height="41" viewBox="0 0 40 41" fill="none" xmlns="http://www.w3.org/2000/svg">
<g clip-path="url(#clip0_611_10196)">
<path d="M26.6667 7.653H25V2.65299C25 1.73633 24.25 0.986328 23.3333 0.986328H5C3.63333 0.986328 2.36667 1.55299 1.46667 2.45299C0.566667 3.35299 0 4.60299 0 5.98633V32.653C0 35.403 2.25 37.653 5 37.653H17.15C15.7833 35.4863 15 32.903 15 30.153C15 22.6197 20.9 16.4363 28.3333 16.003V9.31966C28.3333 8.403 27.5833 7.653 26.6667 7.653ZM21.6667 7.653H5C4.08333 7.653 3.33333 6.903 3.33333 5.98633C3.33333 5.06966 4.08333 4.31966 5 4.31966H21.6667V7.653Z" fill="#F16920"/>
<path fill-rule="evenodd" clip-rule="evenodd" d="M37.9687 30.1536C37.9687 32.4881 37.0413 34.7269 35.3906 36.3777C33.7399 38.0284 31.501 38.9557 29.1666 38.9557C26.8321 38.9557 24.5933 38.0284 22.9426 36.3777C21.2919 34.7269 20.3645 32.4881 20.3645 30.1536C20.3645 27.8192 21.2919 25.5803 22.9426 23.9296C24.5933 22.2789 26.8321 21.3516 29.1666 21.3516C31.501 21.3516 33.7399 22.2789 35.3906 23.9296C37.0413 25.5803 37.9687 27.8192 37.9687 30.1536ZM39.9999 30.1536C39.9999 33.0268 38.8586 35.7823 36.8269 37.814C34.7953 39.8456 32.0398 40.987 29.1666 40.987C26.2934 40.987 23.5379 39.8456 21.5063 37.814C19.4746 35.7823 18.3333 33.0268 18.3333 30.1536C18.3333 27.2805 19.4746 24.525 21.5063 22.4933C23.5379 20.4617 26.2934 19.3203 29.1666 19.3203C32.0398 19.3203 34.7953 20.4617 36.8269 22.4933C38.8586 24.525 39.9999 27.2805 39.9999 30.1536ZM25.0052 26.0776C24.6193 26.6585 24.427 27.2327 24.427 27.7974C24.427 28.0723 24.5489 28.3282 24.7926 28.5639C25.0364 28.7995 25.3343 28.9159 25.6877 28.9159C26.2876 28.9159 26.6952 28.5801 26.9105 27.9057C27.138 27.2625 27.4156 26.775 27.7447 26.4432C28.0738 26.1128 28.5843 25.9476 29.2803 25.9476C29.8748 25.9476 30.3596 26.1101 30.7361 26.4392C31.1112 26.7669 31.2994 27.1704 31.2994 27.6471C31.301 27.8862 31.2374 28.1213 31.1152 28.3269C30.991 28.5365 30.8379 28.7275 30.6602 28.8943C30.3753 29.1548 30.0827 29.4068 29.7827 29.6499C29.3223 30.0318 28.9553 30.3608 28.6831 30.6384C28.4123 30.916 28.1929 31.2383 28.0291 31.604C27.593 33.2899 29.8572 33.4253 30.3799 32.2215C30.4436 32.105 30.5397 31.9777 30.6684 31.8369C30.7984 31.6974 30.9703 31.5349 31.1856 31.3494C31.7335 30.893 32.2726 30.4262 32.8025 29.9492C33.1018 29.6729 33.3604 29.3425 33.5785 28.9606C33.8032 28.5531 33.9163 28.0934 33.9062 27.6281C33.9062 26.9849 33.7152 26.3891 33.332 25.8406C32.9501 25.2908 32.4085 24.8575 31.707 24.5379C31.0055 24.2197 30.1971 24.0599 29.2803 24.0599C28.2945 24.0599 27.4319 24.2495 26.6925 24.6327C25.9531 25.0146 25.3912 25.4967 25.0052 26.0776ZM27.9031 35.6651C27.9031 36.0243 28.0458 36.3687 28.2998 36.6226C28.5537 36.8766 28.8982 37.0193 29.2573 37.0193C29.6165 37.0193 29.9609 36.8766 30.2149 36.6226C30.4688 36.3687 30.6115 36.0243 30.6115 35.6651C30.6115 35.306 30.4688 34.9615 30.2149 34.7076C29.9609 34.4536 29.6165 34.3109 29.2573 34.3109C28.8982 34.3109 28.5537 34.4536 28.2998 34.7076C28.0458 34.9615 27.9031 35.306 27.9031 35.6651Z" fill="#F16920"/>
</g>
<defs>
<clipPath id="clip0_611_10196">
<rect width="40" height="40" fill="white" transform="translate(0 0.986328)"/>
</clipPath>
</defs>
</svg>
