<svg width="40" height="41" viewBox="0 0 40 41" fill="none" xmlns="http://www.w3.org/2000/svg">
<path d="M25.4225 32.1186C25.3074 32.318 25.1417 32.4836 24.9421 32.5985C24.7425 32.7135 24.5162 32.7738 24.2859 32.7733C24.0584 32.7737 23.8348 32.7141 23.6377 32.6005C23.3363 32.4282 23.1157 32.1432 23.0243 31.8082C22.933 31.4733 22.9784 31.1158 23.1505 30.8143L32.143 15.0751V13.1305H26.9049C25.5157 13.1305 24.1834 12.5786 23.201 11.5963C22.2187 10.614 21.6668 9.28162 21.6668 7.89239V2.6543H9.88112C8.14458 2.6543 6.47917 3.34413 5.25125 4.57205C4.02333 5.79997 3.3335 7.46538 3.3335 9.20192V32.7733C3.3335 34.5099 4.02333 36.1753 5.25125 37.4032C6.47917 38.6311 8.14458 39.321 9.88112 39.321H25.5954C27.3319 39.321 28.9974 38.6311 30.2253 37.4032C31.4532 36.1753 32.143 34.5099 32.143 32.7733V20.3525L25.4225 32.1186ZM9.88112 10.5114H17.7383C18.0856 10.5114 18.4186 10.6494 18.6642 10.895C18.9098 11.1406 19.0478 11.4737 19.0478 11.821C19.0478 12.1683 18.9098 12.5014 18.6642 12.7469C18.4186 12.9925 18.0856 13.1305 17.7383 13.1305H9.88112C9.53381 13.1305 9.20073 12.9925 8.95514 12.7469C8.70956 12.5014 8.57159 12.1683 8.57159 11.821C8.57159 11.4737 8.70956 11.1406 8.95514 10.895C9.20073 10.6494 9.53381 10.5114 9.88112 10.5114V10.5114ZM9.88112 15.7495H22.9764C23.3237 15.7495 23.6567 15.8875 23.9023 16.1331C24.1479 16.3787 24.2859 16.7118 24.2859 17.0591C24.2859 17.4064 24.1479 17.7394 23.9023 17.985C23.6567 18.2306 23.3237 18.3686 22.9764 18.3686H9.88112C9.53381 18.3686 9.20073 18.2306 8.95514 17.985C8.70956 17.7394 8.57159 17.4064 8.57159 17.0591C8.57159 16.7118 8.70956 16.3787 8.95514 16.1331C9.20073 15.8875 9.53381 15.7495 9.88112 15.7495V15.7495ZM19.9736 31.0801C19.0273 32.0431 17.7725 32.6425 16.4287 32.7733C15.6121 32.6941 14.8576 32.3023 14.323 31.6799C14.0821 31.4612 13.5779 31.0003 13.4142 31.0251C13.4142 31.0251 13.0214 31.0867 12.2802 32.188C12.1847 32.3311 12.062 32.4539 11.9191 32.5496C11.7762 32.6453 11.6158 32.7118 11.4471 32.7455C11.2785 32.7792 11.1048 32.7793 10.9361 32.7459C10.7674 32.7125 10.6069 32.6462 10.4639 32.5507C10.3208 32.4553 10.1979 32.3326 10.1022 32.1897C10.0066 32.0467 9.94 31.8864 9.90631 31.7177C9.87263 31.549 9.8725 31.3754 9.90592 31.2067C9.93935 31.038 10.0057 30.8775 10.1011 30.7344C10.4018 30.155 10.8253 29.6482 11.3421 29.2494C11.859 28.8506 12.4566 28.5695 13.0934 28.4257C13.6577 28.408 14.2189 28.5164 14.7361 28.7429C15.2532 28.9695 15.7134 29.3085 16.083 29.7352C16.2258 29.8662 16.4287 30.0482 16.5544 30.1373C17.1485 29.9722 17.6898 29.6565 18.1259 29.2206C18.3734 28.9825 18.7044 28.8512 19.0478 28.8549C19.3912 28.8586 19.7194 28.997 19.9617 29.2403C20.204 29.4837 20.341 29.8124 20.3432 30.1558C20.3455 30.4992 20.2127 30.8297 19.9736 31.0762V31.0801ZM9.88112 23.6067C9.53381 23.6067 9.20073 23.4687 8.95514 23.2231C8.70956 22.9775 8.57159 22.6445 8.57159 22.2972C8.57159 21.9498 8.70956 21.6168 8.95514 21.3712C9.20073 21.1256 9.53381 20.9876 9.88112 20.9876H22.9764C23.3237 20.9876 23.6567 21.1256 23.9023 21.3712C24.1479 21.6168 24.2859 21.9498 24.2859 22.2972C24.2859 22.6445 24.1479 22.9775 23.9023 23.2231C23.6567 23.4687 23.3237 23.6067 22.9764 23.6067H9.88112Z" fill="#0DA07D"/>
<path d="M31.9715 10.5118C31.7935 9.87358 31.4565 9.29099 30.992 8.81855L25.9791 3.8057C25.5067 3.34119 24.9241 3.00417 24.2859 2.82617V7.89272C24.2859 8.58733 24.5618 9.2535 25.053 9.74467C25.5442 10.2358 26.2103 10.5118 26.9049 10.5118H31.9715Z" fill="#0DA07D"/>
<path d="M35.4166 11.9946C35.1151 11.8225 34.7576 11.7771 34.4227 11.8684C34.0877 11.9598 33.8028 12.1804 33.6304 12.4818L32.1428 15.0759V20.3533L35.8985 13.7861C35.9848 13.6369 36.0408 13.4721 36.0633 13.3012C36.0857 13.1304 36.0743 12.9567 36.0295 12.7903C35.9847 12.6239 35.9075 12.4679 35.8024 12.3314C35.6972 12.1948 35.5661 12.0804 35.4166 11.9946Z" fill="#0DA07D"/>
</svg>
