<svg width="41" height="41" viewBox="0 0 41 41" fill="none" xmlns="http://www.w3.org/2000/svg">
<path d="M12.4169 6.4529L18.7622 2.64047L18.1263 1.58305C17.9577 1.30362 17.6854 1.10231 17.3689 1.02317C17.0523 0.944033 16.7173 0.993504 16.4371 1.16076L12.2066 3.7021C11.9272 3.87061 11.7258 4.14294 11.6467 4.4595C11.5676 4.77606 11.617 5.11108 11.7843 5.39126L12.4169 6.4529Z" fill="#0DA07D"/>
<path d="M37.9409 29.7773C37.8569 29.6388 37.7463 29.5182 37.6156 29.4224C37.485 29.3266 37.3367 29.2575 37.1793 29.2189C37.0219 29.1804 36.8584 29.1733 36.6983 29.198C36.5381 29.2226 36.3844 29.2786 36.2459 29.3627L29.3608 33.545C29.6941 34.3453 29.9032 35.1917 29.9808 36.0551L37.5262 31.4716C37.6647 31.3876 37.7853 31.2772 37.8811 31.1465C37.9769 31.0159 38.0461 30.8677 38.0846 30.7104C38.1231 30.5531 38.1302 30.3897 38.1056 30.2296C38.0809 30.0695 38.025 29.9158 37.9409 29.7773Z" fill="#0DA07D"/>
<path d="M31.252 38.5219H27.5511V34.7348C27.5511 33.0988 26.9012 31.5299 25.7444 30.3731C24.5876 29.2163 23.0187 28.5664 21.3827 28.5664C19.7468 28.5664 18.1778 29.2163 17.021 30.3731C15.8642 31.5299 15.2143 33.0988 15.2143 34.7348V38.5185H11.5108C11.3461 38.5142 11.1822 38.5429 11.0288 38.603C10.8754 38.663 10.7356 38.7532 10.6175 38.8682C10.4995 38.9831 10.4057 39.1206 10.3417 39.2724C10.2776 39.4242 10.2446 39.5873 10.2446 39.752C10.2446 39.9168 10.2776 40.0799 10.3417 40.2317C10.4057 40.3835 10.4995 40.5209 10.6175 40.6359C10.7356 40.7509 10.8754 40.841 11.0288 40.9011C11.1822 40.9611 11.3461 40.9898 11.5108 40.9855H31.2504C31.4151 40.9898 31.579 40.9611 31.7324 40.9011C31.8858 40.841 32.0256 40.7509 32.1437 40.6359C32.2617 40.5209 32.3555 40.3835 32.4195 40.2317C32.4836 40.0799 32.5166 39.9168 32.5166 39.752C32.5166 39.5873 32.4836 39.4242 32.4195 39.2724C32.3555 39.1206 32.2617 38.9831 32.1437 38.8682C32.0256 38.7532 31.8858 38.663 31.7324 38.603C31.579 38.5429 31.4151 38.5142 31.2504 38.5185L31.252 38.5219ZM21.3823 35.9721C21.1382 35.9721 20.8997 35.8997 20.6968 35.7641C20.4938 35.6286 20.3357 35.4359 20.2423 35.2104C20.1489 34.9849 20.1245 34.7368 20.1721 34.4975C20.2197 34.2581 20.3372 34.0382 20.5098 33.8656C20.6823 33.6931 20.9022 33.5756 21.1416 33.528C21.3809 33.4803 21.629 33.5048 21.8545 33.5982C22.08 33.6916 22.2727 33.8497 22.4083 34.0526C22.5439 34.2556 22.6162 34.4941 22.6162 34.7382C22.6163 34.9003 22.5845 35.0608 22.5225 35.2106C22.4606 35.3604 22.3697 35.4966 22.2551 35.6113C22.1405 35.7259 22.0044 35.8169 21.8547 35.8789C21.7049 35.941 21.5444 35.9729 21.3823 35.9729V35.9721Z" fill="#0DA07D"/>
<path d="M12.2082 10.8967L13.5097 13.063L16.1415 11.4719C16.8799 11.0079 17.7035 10.6958 18.5639 10.5538C19.4244 10.4118 20.3046 10.4428 21.153 10.645C22.0013 10.8472 22.8009 11.2165 23.5048 11.7314C24.2088 12.2462 24.803 12.8962 25.2528 13.6434C25.7026 14.3906 25.9989 15.2199 26.1244 16.083C26.2498 16.946 26.202 17.8255 25.9836 18.6698C25.7652 19.5141 25.3807 20.3065 24.8525 21.0004C24.3243 21.6944 23.663 22.2761 22.9074 22.7115L20.2639 24.2993L21.1084 25.7022C21.1919 25.8416 21.302 25.9631 21.4326 26.0598C21.5631 26.1565 21.7115 26.2265 21.8691 26.2657C22.0268 26.305 22.1906 26.3127 22.3512 26.2884C22.5119 26.2642 22.6661 26.2085 22.8052 26.1245L23.8803 25.4784L25.773 28.6286C25.9415 28.9081 26.2139 29.1094 26.5304 29.1885C26.847 29.2677 27.182 29.2182 27.4622 29.0509L31.6919 26.5096C31.9713 26.3411 32.1726 26.0688 32.2517 25.7522C32.3309 25.4356 32.2814 25.1006 32.1141 24.8204L30.2214 21.6702L31.2577 21.0477C31.5372 20.8792 31.7385 20.6069 31.8176 20.2903C31.8968 19.9737 31.8473 19.6387 31.68 19.3585C31.6505 19.3096 22.7765 4.53786 22.7435 4.49395C22.5656 4.23508 22.2956 4.05382 21.9887 3.98712C21.6817 3.92043 21.3609 3.97331 21.0915 4.135L12.6314 9.21852C12.352 9.38703 12.1507 9.65936 12.0715 9.97592C11.9924 10.2925 12.0418 10.6275 12.2091 10.9077L12.2082 10.8967Z" fill="#0DA07D"/>
<path d="M12.7459 36.8458C12.746 35.6968 12.976 34.5593 13.4223 33.5005C13.8686 32.4417 14.5222 31.4828 15.3447 30.6804H13.9798C12.9983 30.6804 12.0569 30.2905 11.3629 29.5964C10.6688 28.9023 10.2789 27.961 10.2789 26.9794C10.2789 25.9979 10.6688 25.0565 11.3629 24.3625C12.0569 23.6684 12.9983 23.2785 13.9798 23.2785H16.8269C17.0503 23.2784 17.2696 23.2177 17.4612 23.1028L21.6402 20.6003C22.1022 20.3238 22.5051 19.9588 22.8259 19.5263C23.1466 19.0937 23.3789 18.6022 23.5093 18.0798C23.6398 17.5574 23.666 17.0143 23.5862 16.4818C23.5065 15.9492 23.3225 15.4377 23.0448 14.9764C22.7671 14.515 22.401 14.1131 21.9677 13.7934C21.5344 13.4738 21.0422 13.2428 20.5195 13.1136C19.9967 12.9845 19.4537 12.9597 18.9213 13.0408C18.389 13.1219 17.8779 13.3072 17.4173 13.5861L13.6251 15.8791C10.82 15.9701 8.15332 17.1198 6.16151 19.0971C4.16971 21.0745 3.00053 23.7327 2.88913 26.5371C2.77773 29.3415 3.73239 32.084 5.56107 34.2131C7.38976 36.3422 9.95682 37.6999 12.7459 38.013V36.8458Z" fill="#0DA07D"/>
</svg>
