<svg width="40" height="41" viewBox="0 0 40 41" fill="none" xmlns="http://www.w3.org/2000/svg">
<g clip-path="url(#clip0_611_10011)">
<path d="M32.9937 18.7006C27.9682 17.3947 23.4782 18.2852 19.8027 21.7904C16.1302 25.2927 15.2346 29.5687 16.5876 34.3218C12.0753 34.3218 7.55185 34.3218 3.00103 34.3218C3.03653 35.0143 3.31949 35.5484 3.92296 35.9222C4.31445 36.1647 4.74752 36.2274 5.20189 36.2274C9.18678 36.2265 13.1707 36.2284 17.1555 36.2216C17.3736 36.2216 17.4994 36.2699 17.6059 36.465C18.0907 37.3537 18.7144 38.1524 19.4274 38.8875C19.4781 38.9396 19.5258 38.9956 19.5988 39.0768C19.5004 39.0835 19.4315 39.0932 19.3615 39.0932C14.6088 39.0942 9.85617 39.098 5.10352 39.0922C2.59939 39.0893 0.629771 37.5777 0.0932461 35.2519C0.016165 34.9187 0.00500852 34.5661 0.00500852 34.2223C-6.26065e-05 24.7682 -0.00310528 15.3142 0.00500852 5.86016C0.00602274 3.78641 1.02126 2.2922 2.98074 1.39586C3.65013 1.08968 4.37632 0.986328 5.11974 0.986328C10.6158 0.98826 16.1109 0.987294 21.607 0.987294C23.7095 0.987294 25.8109 0.985362 27.9134 0.987294C30.1518 0.989226 32.0322 2.25067 32.735 4.27129C32.9014 4.75036 32.9815 5.27773 32.9835 5.78289C33.0028 10.0357 32.9947 14.2884 32.9947 18.5412C32.9937 18.5885 32.9937 18.6359 32.9937 18.7006ZM16.0166 6.70627C13.3999 6.70627 10.7822 6.7169 8.16546 6.70144C7.02141 6.69468 6.16642 7.35631 6.05891 8.23719C5.96155 9.03018 6.02037 9.84055 6.01632 10.6422C6.0153 10.7533 6.0366 10.8673 6.06804 10.9735C6.33478 11.8911 7.0914 12.4195 8.13605 12.4204C13.3694 12.4214 18.6039 12.4204 23.8373 12.4204C23.888 12.4204 23.9387 12.4214 23.9894 12.4195C25.0198 12.3914 25.8637 11.7269 25.956 10.7523C26.031 9.96418 26.0016 9.1625 25.961 8.36952C25.9326 7.82476 25.6274 7.38625 25.1547 7.06461C24.746 6.78644 24.2855 6.70241 23.7926 6.70337C21.1993 6.7082 18.6079 6.70627 16.0166 6.70627Z" fill="#FFB431"/>
<path d="M39.9999 30.5151C39.9847 36.3152 35.0505 41.0017 28.9743 40.9852C22.8788 40.9688 17.975 36.265 17.9922 30.4523C18.0095 24.6908 22.966 20.0256 29.0524 20.043C35.086 20.0594 40.0151 24.7749 39.9999 30.5151ZM25.9955 30.4967C25.9955 31.6703 25.9955 32.8438 25.9955 34.0174C25.9955 34.5051 26.1933 34.8925 26.6497 35.1349C27.1111 35.3802 27.5412 35.2788 27.9529 35.0103C29.7562 33.8348 31.5605 32.6622 33.3618 31.4839C33.4987 31.394 33.6366 31.2897 33.733 31.1632C34.2026 30.5421 34.0403 29.8264 33.3303 29.3802C32.1833 28.6587 31.0301 27.9449 29.88 27.2272C29.2096 26.809 28.5381 26.3927 27.8688 25.9726C27.5503 25.7726 27.2176 25.6818 26.8403 25.8084C26.3383 25.9764 25.9985 26.4217 25.9965 26.9529C25.9935 28.1332 25.9955 29.3155 25.9955 30.4967Z" fill="#FFB431"/>
</g>
<defs>
<clipPath id="clip0_611_10011">
<rect width="40" height="40" fill="white" transform="translate(0 0.986328)"/>
</clipPath>
</defs>
</svg>
