<svg width="40" height="41" viewBox="0 0 40 41" fill="none" xmlns="http://www.w3.org/2000/svg">
<path d="M38.2979 17.9891L33.2358 15.1942C32.4705 14.7725 31.5691 14.6718 30.7295 14.914C29.89 15.1563 29.1808 15.7217 28.7577 16.4862L23.8665 25.3442L18.0528 35.8733C17.9361 36.0846 17.8766 36.3226 17.88 36.564C17.8835 36.8053 17.9498 37.0416 18.0725 37.2494C18.1952 37.4573 18.3699 37.6295 18.5795 37.7492C18.7891 37.8689 19.0263 37.9319 19.2677 37.9318H19.2699L30.2439 37.9142C30.4916 37.9138 30.7347 37.8471 30.9479 37.721C31.1611 37.5949 31.3367 37.4141 31.4565 37.1972L39.5899 22.4675C40.0114 21.702 40.1121 20.8007 39.8699 19.9611C39.6276 19.1216 39.0623 18.4124 38.2979 17.9891V17.9891ZM29.4219 35.14L21.6213 35.1525L25.626 27.9007L31.5987 31.1987L29.4219 35.14ZM11.68 13.6657L12.6281 15.562H10.7319L11.68 13.6657ZM18.0056 4.04297H5.35435C3.93482 4.04467 2.57392 4.60932 1.57016 5.61307C0.566393 6.61682 0.00172089 7.97771 0 9.39724V22.0485C0.00169991 23.468 0.566363 24.829 1.57013 25.8327C2.5739 26.8365 3.93481 27.4011 5.35435 27.4028H18.0056C19.4251 27.4011 20.786 26.8365 21.7898 25.8327C22.7935 24.829 23.3582 23.4681 23.3599 22.0486V9.39724C23.3582 7.97773 22.7935 6.61685 21.7898 5.6131C20.786 4.60935 19.4251 4.04469 18.0056 4.04297V4.04297ZM17.461 22.1245C17.298 22.206 17.1205 22.2546 16.9387 22.2675C16.7569 22.2804 16.5744 22.2574 16.4015 22.1998C16.2286 22.1422 16.0687 22.051 15.931 21.9316C15.7934 21.8122 15.6806 21.6669 15.5991 21.5039L14.0159 18.3375H9.34408L7.76091 21.5039C7.5963 21.8331 7.30766 22.0834 6.95848 22.1998C6.6093 22.3162 6.22819 22.2891 5.89899 22.1245C5.56979 21.9599 5.31946 21.6712 5.20307 21.322C5.08668 20.9729 5.11377 20.5918 5.27838 20.2626L10.4387 9.94188C10.554 9.71147 10.7311 9.5177 10.9503 9.38228C11.1695 9.24686 11.4221 9.17513 11.6797 9.17513C11.9374 9.17513 12.19 9.24686 12.4091 9.38228C12.6283 9.5177 12.8055 9.71147 12.9208 9.94188L18.0813 20.2626C18.246 20.5917 18.2731 20.9728 18.1568 21.322C18.0404 21.6712 17.7901 21.9598 17.461 22.1245V22.1245ZM15.7012 36.5441C15.7012 36.9121 15.555 37.2651 15.2947 37.5254C15.0345 37.7856 14.6815 37.9318 14.3134 37.9318H1.38777C1.01971 37.9318 0.666728 37.7856 0.40647 37.5254C0.146211 37.2651 0 36.9121 0 36.5441C0 36.176 0.146211 35.823 0.40647 35.5628C0.666728 35.3025 1.01971 35.1563 1.38777 35.1563H14.3134C14.6815 35.1563 15.0345 35.3025 15.2947 35.5628C15.555 35.823 15.7012 36.176 15.7012 36.5441V36.5441Z" fill="#E62A42"/>
</svg>
