<svg width="40" height="41" viewBox="0 0 40 41" fill="none" xmlns="http://www.w3.org/2000/svg">
<path fill-rule="evenodd" clip-rule="evenodd" d="M20.9915 7.93456H26.6198C33.3847 7.93456 36.6847 11.5462 36.6664 18.9528V22.1102C35.151 21.3904 33.4559 20.9876 31.6667 20.9876C25.2233 20.9876 20 26.211 20 32.6543C20 35.133 20.773 37.4312 22.0911 39.321H11.4399C4.38163 39.321 0 34.9577 0 27.8627V14.0945C0 6.50458 3.3733 2.65461 10.0282 2.65461H12.9249C14.6317 2.63628 16.2249 3.4246 17.2699 4.76293L18.8832 6.90791C19.3965 7.54957 20.1665 7.93456 20.9915 7.93456ZM14.0625 11.5085H7.8125C6.94953 11.5085 6.25 10.8089 6.25 9.94596C6.25 9.083 6.94953 8.38346 7.8125 8.38346H14.0625C14.9255 8.38346 15.625 9.083 15.625 9.94596C15.625 10.8089 14.9255 11.5085 14.0625 11.5085ZM16.5317 21.7925L16.8639 22.6655C16.9082 22.7731 16.9604 22.898 17.0205 23.0404C17.0837 23.1795 17.1422 23.2839 17.196 23.3535C17.2498 23.42 17.3162 23.4721 17.3953 23.5101C17.4744 23.5512 17.5693 23.5718 17.68 23.5718C17.8698 23.5718 18.0311 23.5054 18.1639 23.3725C18.3 23.2365 18.368 23.0878 18.368 22.9265C18.368 22.7715 18.2968 22.5232 18.1544 22.1816L16.3372 17.6931C16.2518 17.4685 16.1806 17.2898 16.1237 17.1569C16.0699 17.0209 16.0019 16.8944 15.9197 16.7773C15.8406 16.6603 15.7346 16.5654 15.6018 16.4926C15.4721 16.4167 15.3092 16.3788 15.1131 16.3788C14.9201 16.3788 14.7572 16.4167 14.6244 16.4926C14.4947 16.5654 14.3887 16.6619 14.3065 16.7821C14.2274 16.9023 14.1515 17.0541 14.0787 17.2376C14.0091 17.4179 13.949 17.5729 13.8984 17.7025L12.1191 22.2195C12.0464 22.3998 11.9942 22.5406 11.9626 22.6418C11.9309 22.743 11.9151 22.8411 11.9151 22.936C11.9151 23.1005 11.9831 23.2476 12.1191 23.3772C12.2552 23.5069 12.4117 23.5718 12.5889 23.5718C12.7976 23.5718 12.9479 23.5117 13.0396 23.3915C13.1314 23.2681 13.2421 23.0325 13.3718 22.6845L13.7039 21.7925H16.5317ZM16.1522 20.7344H14.074L15.1036 17.8639L16.1522 20.7344ZM20.7072 19.8282L19.1509 22.1009C18.92 22.4394 18.8045 22.7256 18.8045 22.9597C18.8045 23.159 18.8599 23.3108 18.9706 23.4152C19.0845 23.5196 19.2268 23.5718 19.3976 23.5718C19.5083 23.5718 19.6048 23.5544 19.6871 23.5196C19.7693 23.4848 19.8405 23.4373 19.9006 23.3772C19.9607 23.3171 20.0113 23.2555 20.0524 23.1922C20.0967 23.1289 20.1694 23.0182 20.2707 22.8601L21.5707 20.8768L22.7949 22.8031C22.9499 23.0404 23.0558 23.2001 23.1128 23.2824C23.1697 23.3646 23.244 23.4326 23.3358 23.4864C23.4275 23.5433 23.5398 23.5718 23.6726 23.5718C23.796 23.5718 23.9067 23.5449 24.0048 23.4911C24.1028 23.4373 24.1787 23.3646 24.2325 23.2729C24.2863 23.1811 24.3132 23.0799 24.3132 22.9692C24.3132 22.8522 24.2831 22.7288 24.223 22.5991C24.1629 22.4663 24.0665 22.3002 23.9336 22.1009L22.458 19.8282L23.8292 17.7785C24.0728 17.4147 24.1946 17.1269 24.1946 16.9149C24.1946 16.7694 24.1376 16.6445 24.0237 16.5401C23.913 16.4325 23.7691 16.3788 23.592 16.3788C23.4939 16.3788 23.4069 16.3962 23.331 16.431C23.2583 16.4626 23.1918 16.5116 23.1317 16.578C23.0716 16.6445 23.0084 16.7283 22.9419 16.8295C22.8787 16.9307 22.8012 17.0525 22.7095 17.1949L21.5944 18.884L20.5506 17.1949C20.3577 16.8817 20.2058 16.6682 20.0951 16.5543C19.9876 16.4373 19.8357 16.3788 19.6396 16.3788C19.4688 16.3788 19.3233 16.4325 19.2031 16.5401C19.0861 16.6445 19.0275 16.7631 19.0275 16.8959C19.0275 17.0256 19.0576 17.1616 19.1177 17.304C19.181 17.4432 19.2743 17.6108 19.3976 17.8069L20.7072 19.8282ZM11.4739 17.6597H9.93661V22.7129C9.93661 23.0039 9.87176 23.2206 9.74207 23.3629C9.61238 23.5021 9.44474 23.5717 9.23913 23.5717C9.03036 23.5717 8.85955 23.5005 8.7267 23.3582C8.59701 23.2158 8.53217 23.0007 8.53217 22.7129V17.6597H6.99487C6.75447 17.6597 6.57575 17.6075 6.45872 17.5032C6.34168 17.3956 6.28316 17.2549 6.28316 17.0809C6.28316 16.9006 6.34326 16.7582 6.46346 16.6539C6.58682 16.5495 6.76396 16.4973 6.99487 16.4973H11.4739C11.7175 16.4973 11.8978 16.5511 12.0148 16.6586C12.135 16.7661 12.1951 16.9069 12.1951 17.0809C12.1951 17.2549 12.135 17.3956 12.0148 17.5032C11.8946 17.6075 11.7143 17.6597 11.4739 17.6597Z" fill="#E62A42"/>
<path d="M31.3331 40.153C35.9283 40.153 39.6664 36.4149 39.6664 31.8197C39.6664 27.2244 35.9283 23.4863 31.3331 23.4863C26.7378 23.4863 22.9998 27.2244 22.9998 31.8197C22.9998 36.4149 26.7378 40.153 31.3331 40.153ZM31.6108 32.3752H31.0553C29.9832 32.3752 29.1108 31.5028 29.1108 30.4308C29.1108 29.4538 29.8376 28.6506 30.7775 28.5145V27.9308C30.7775 27.6237 31.026 27.3752 31.3331 27.3752C31.6402 27.3752 31.8887 27.6237 31.8887 27.9308V28.4863H32.9998C33.3068 28.4863 33.5553 28.7348 33.5553 29.0419C33.5553 29.349 33.3068 29.5975 32.9998 29.5975H31.0553C30.5958 29.5975 30.222 29.9713 30.222 30.4308C30.222 30.8903 30.5958 31.2641 31.0553 31.2641H31.6109C32.6829 31.2641 33.5553 32.1365 33.5553 33.2086C33.5553 34.1855 32.8286 34.9888 31.8887 35.1249V35.7086C31.8887 36.0157 31.6402 36.2641 31.3331 36.2641C31.026 36.2641 30.7775 36.0157 30.7775 35.7086V35.153H29.6664C29.3593 35.153 29.1108 34.9045 29.1108 34.5974C29.1108 34.2903 29.3593 34.0418 29.6664 34.0418H31.6108C32.0704 34.0418 32.4442 33.668 32.4442 33.2085C32.4442 32.749 32.0704 32.3752 31.6108 32.3752Z" fill="#E62A42"/>
</svg>
