<svg width="40" height="41" viewBox="0 0 40 41" fill="none" xmlns="http://www.w3.org/2000/svg">
<g clip-path="url(#clip0_611_10056)">
<path fill-rule="evenodd" clip-rule="evenodd" d="M11.3525 1.09372C12.1196 0.78688 12.9902 1.16 13.297 1.9271C13.6039 2.69421 13.2307 3.56482 12.4636 3.87166L12.1301 4.00508C9.52541 5.04695 7.44768 7.09035 6.36256 9.6773L6.20937 10.0425C5.88979 10.8044 5.01309 11.163 4.2512 10.8434C3.48931 10.5238 3.13075 9.64709 3.45033 8.88521L3.60352 8.52C4.99867 5.19392 7.67004 2.56669 11.0189 1.22714L11.3525 1.09372ZM29.4565 1.18111C28.6894 0.874268 27.8188 1.24739 27.5119 2.01449C27.2051 2.7816 27.5782 3.6522 28.3453 3.95905L28.6789 4.09247C31.2836 5.13434 33.3613 7.17773 34.4464 9.76469L34.5996 10.1299C34.9192 10.8918 35.7959 11.2503 36.5578 10.9308C37.3196 10.6112 37.6782 9.73448 37.3586 8.97259L37.2054 8.60739C35.8103 5.2813 33.1389 2.65408 29.7901 1.31453L29.4565 1.18111ZM8.88117 33.0087H31.9277C35.5747 33.0087 37.6564 29.3403 35.4682 26.7697C34.4995 25.6317 33.9026 24.282 33.7419 22.8665L32.8499 15.0076C32.369 10.7699 29.2054 7.29242 24.9321 5.82931V5.62243C24.9321 3.12186 22.905 1.09475 20.4045 1.09475C17.9039 1.09475 15.8768 3.12186 15.8768 5.62243V5.8293C11.6035 7.29242 8.43992 10.7699 7.95896 15.0076L7.06699 22.8665C6.90634 24.282 6.30936 25.6317 5.34066 26.7697C3.15251 29.3403 5.23425 33.0087 8.88117 33.0087ZM26.3328 37.1404C25.4205 39.3897 23.1103 40.987 20.4046 40.987C17.6988 40.987 15.3887 39.3897 14.4764 37.1404C14.4383 37.0466 14.4207 36.9459 14.4207 36.8447C14.4207 36.3781 14.7989 35.9999 15.2654 35.9999H25.5437C26.0102 35.9999 26.3884 36.3781 26.3884 36.8447C26.3884 36.9459 26.3708 37.0466 26.3328 37.1404Z" fill="#FFB431"/>
</g>
<defs>
<clipPath id="clip0_611_10056">
<rect width="40" height="40" fill="white" transform="translate(0 0.986328)"/>
</clipPath>
</defs>
</svg>
