<svg width="40" height="41" viewBox="0 0 40 41" fill="none" xmlns="http://www.w3.org/2000/svg">
<g clip-path="url(#clip0_611_10251)">
<path d="M36.4158 25.7138V6.19914C36.4158 6.07272 36.391 5.94752 36.3426 5.83071C36.2943 5.7139 36.2234 5.60776 36.134 5.51835C36.0446 5.42894 35.9385 5.35801 35.8217 5.30962C35.7049 5.26123 35.5797 5.23633 35.4533 5.23633H12.4086V8.95914C12.3274 8.9482 12.012 8.94445 11.9711 8.94445C11.7595 8.94933 11.5484 8.91999 11.3461 8.85758L11.2452 8.8157C11.0228 8.69591 10.8238 8.53714 10.6577 8.34695C10.4776 8.15461 10.26 8.00128 10.0183 7.89646C9.77661 7.79163 9.51596 7.73754 9.25251 7.73754C8.98906 7.73754 8.72841 7.79163 8.4867 7.89646C8.245 8.00128 8.02739 8.15461 7.84735 8.34695C7.68129 8.53712 7.4824 8.6959 7.26017 8.8157L7.15892 8.85758C6.95662 8.92001 6.74557 8.94935 6.53392 8.94445C6.49298 8.94445 6.36517 8.94102 6.34173 8.94102C6.25975 8.94157 6.1779 8.94762 6.09673 8.95914V5.23633H1.7811C1.65468 5.23633 1.52949 5.26123 1.4127 5.30962C1.2959 5.35801 1.18978 5.42894 1.1004 5.51835C1.01102 5.60776 0.940132 5.7139 0.89178 5.83071C0.843428 5.94752 0.818563 6.07272 0.818604 6.19914V31.6863C0.818604 31.9416 0.92001 32.1864 1.10051 32.3669C1.28102 32.5474 1.52583 32.6488 1.7811 32.6488H27.7374C27.9478 33.7005 28.4252 34.6804 29.1238 35.4942C29.8224 36.308 30.7186 36.9284 31.7263 37.2957C32.734 37.6631 33.8192 37.765 34.8776 37.5917C35.9361 37.4183 36.9321 36.9756 37.77 36.3061C38.6079 35.6366 39.2594 34.7627 39.6619 33.7686C40.0645 32.7745 40.2045 31.6935 40.0685 30.6296C39.9325 29.5658 39.5251 28.5548 38.8855 27.6939C38.2458 26.833 37.3955 26.1511 36.4161 25.7138H36.4158ZM20.0274 11.1595C20.0274 10.8859 20.136 10.6236 20.3294 10.4302C20.5228 10.2369 20.7851 10.1282 21.0586 10.1282H21.9799C22.0239 10.1281 22.0661 10.1106 22.0972 10.0794C22.1283 10.0482 22.1458 10.006 22.1458 9.96195V9.0432C22.1458 8.7697 22.2544 8.5074 22.4478 8.314C22.6412 8.1206 22.9035 8.01195 23.177 8.01195H25.2445C25.518 8.01195 25.7803 8.1206 25.9737 8.314C26.1671 8.5074 26.2758 8.7697 26.2758 9.0432V9.96195C26.2758 10.006 26.2933 10.0482 26.3244 10.0794C26.3555 10.1106 26.3977 10.1281 26.4417 10.1282H27.3608C27.6343 10.1282 27.8966 10.2369 28.09 10.4302C28.2834 10.6236 28.392 10.8859 28.392 11.1595V13.2295C28.392 13.503 28.2834 13.7653 28.09 13.9587C27.8966 14.1521 27.6343 14.2607 27.3608 14.2607H26.4392C26.4174 14.2607 26.3958 14.2651 26.3756 14.2735C26.3555 14.2819 26.3372 14.2942 26.3218 14.3096C26.3064 14.3251 26.2941 14.3434 26.2858 14.3636C26.2775 14.3838 26.2732 14.4054 26.2733 14.4273V15.346C26.2733 15.6195 26.1646 15.8818 25.9712 16.0752C25.7778 16.2686 25.5155 16.3773 25.242 16.3773H23.1752C22.9017 16.3773 22.6394 16.2686 22.446 16.0752C22.2526 15.8818 22.1439 15.6195 22.1439 15.346V14.4273C22.144 14.4054 22.1397 14.3838 22.1314 14.3636C22.1231 14.3434 22.1109 14.3251 22.0954 14.3096C22.08 14.2942 22.0617 14.2819 22.0416 14.2735C22.0214 14.2651 21.9998 14.2607 21.978 14.2607H21.0577C20.7842 14.2607 20.5219 14.1521 20.3285 13.9587C20.1351 13.7653 20.0264 13.503 20.0264 13.2295L20.0274 11.1595ZM16.8524 18.381H31.5624C31.6867 18.381 31.8059 18.4304 31.8938 18.5183C31.9817 18.6062 32.0311 18.7254 32.0311 18.8498C32.0311 18.9741 31.9817 19.0933 31.8938 19.1812C31.8059 19.2691 31.6867 19.3185 31.5624 19.3185H16.8524C16.728 19.3185 16.6088 19.2691 16.5209 19.1812C16.433 19.0933 16.3836 18.9741 16.3836 18.8498C16.3836 18.7254 16.433 18.6062 16.5209 18.5183C16.6088 18.4304 16.728 18.381 16.8524 18.381V18.381ZM16.8524 21.6423H31.5624C31.6867 21.6423 31.8059 21.6917 31.8938 21.7796C31.9817 21.8675 32.0311 21.9867 32.0311 22.111C32.0311 22.2353 31.9817 22.3546 31.8938 22.4425C31.8059 22.5304 31.6867 22.5798 31.5624 22.5798H16.8524C16.728 22.5798 16.6088 22.5304 16.5209 22.4425C16.433 22.3546 16.3836 22.2353 16.3836 22.111C16.3836 21.9867 16.433 21.8675 16.5209 21.7796C16.6088 21.6917 16.728 21.6423 16.8524 21.6423V21.6423ZM12.4086 25.4598C12.4086 25.5737 12.3782 25.6856 12.3206 25.7839C12.263 25.8822 12.1803 25.9634 12.0809 26.0192C11.9816 26.075 11.8691 26.1033 11.7552 26.1013C11.6413 26.0992 11.53 26.0669 11.4327 26.0076L9.92173 25.0857C9.72049 24.9626 9.48918 24.8975 9.25329 24.8975C9.0174 24.8975 8.7861 24.9626 8.58485 25.0857L7.0736 26.0076C6.97633 26.0669 6.86502 26.0993 6.7511 26.1013C6.63719 26.1034 6.52478 26.075 6.42543 26.0193C6.32609 25.9635 6.24339 25.8822 6.18584 25.7839C6.12829 25.6856 6.09796 25.5737 6.09798 25.4598V18.5782C6.17892 18.5891 6.49423 18.5929 6.53548 18.5929C6.74713 18.588 6.95818 18.6173 7.16048 18.6798L7.26173 18.7216C7.48396 18.8414 7.68285 19.0002 7.84892 19.1904C8.02895 19.3827 8.24656 19.5361 8.48827 19.6409C8.72997 19.7457 8.99062 19.7998 9.25407 19.7998C9.51753 19.7998 9.77818 19.7457 10.0199 19.6409C10.2616 19.5361 10.4792 19.3827 10.6592 19.1904C10.8254 19.0002 11.0244 18.8414 11.2467 18.7216L11.3477 18.6798C11.55 18.6174 11.761 18.588 11.9727 18.5929C12.0136 18.5929 12.3289 18.5891 12.4102 18.5782L12.4086 25.4598ZM14.0361 14.4866C13.7523 14.7385 13.519 15.042 13.3486 15.381L13.2889 15.5251C13.1695 15.8851 13.1197 16.2646 13.1424 16.6432C13.1461 16.7746 13.1237 16.9054 13.0763 17.028C13.0288 17.1505 12.9574 17.2624 12.8662 17.357C12.775 17.4516 12.6658 17.5271 12.5451 17.579C12.4243 17.6309 12.2944 17.6581 12.163 17.6591C12.1511 17.6591 12.0233 17.6557 11.9705 17.6557C11.6437 17.6498 11.3185 17.7003 11.0089 17.8051L10.8649 17.8648C10.5258 18.0352 10.2223 18.2685 9.97048 18.5523C9.87818 18.6503 9.7668 18.7284 9.6432 18.7818C9.51959 18.8352 9.38637 18.8627 9.25173 18.8627C9.11708 18.8627 8.98386 18.8352 8.86026 18.7818C8.73665 18.7284 8.62528 18.6503 8.53298 18.5523C8.28131 18.2684 7.97788 18.0351 7.63892 17.8648L7.49454 17.8051C7.18501 17.7003 6.85971 17.6498 6.53298 17.6557C6.48048 17.6557 6.35267 17.6591 6.34048 17.6591C6.20907 17.6581 6.07919 17.6309 5.95845 17.579C5.83771 17.5271 5.72855 17.4516 5.63736 17.357C5.54617 17.2624 5.47479 17.1505 5.4274 17.0279C5.38002 16.9054 5.35758 16.7746 5.36142 16.6432C5.38379 16.2646 5.33394 15.8851 5.21454 15.5251L5.15485 15.381C4.98466 15.0419 4.75132 14.7383 4.46735 14.4866C4.36958 14.3944 4.29168 14.2831 4.23843 14.1597C4.18519 14.0363 4.15773 13.9033 4.15773 13.7688C4.15773 13.6344 4.18519 13.5014 4.23843 13.378C4.29168 13.2545 4.36958 13.1433 4.46735 13.051C4.75132 12.7993 4.98466 12.4958 5.15485 12.1566L5.21454 12.0126C5.33394 11.6526 5.38379 11.2731 5.36142 10.8945C5.35758 10.7628 5.38011 10.6318 5.42769 10.509C5.47527 10.3862 5.54693 10.2742 5.63845 10.1795C5.72997 10.0849 5.83951 10.0095 5.96061 9.95777C6.08171 9.90607 6.21193 9.87913 6.3436 9.87852C6.35579 9.87852 6.4836 9.88195 6.5361 9.88195C6.86284 9.8879 7.18814 9.83737 7.49767 9.73258L7.64204 9.67289C7.98101 9.50257 8.28444 9.26924 8.5361 8.98539C8.6284 8.88736 8.73978 8.80924 8.86338 8.75585C8.98699 8.70246 9.12021 8.67491 9.25485 8.67491C9.3895 8.67491 9.52272 8.70246 9.64632 8.75585C9.76993 8.80924 9.88131 8.88736 9.9736 8.98539C10.2255 9.26918 10.529 9.50249 10.868 9.67289L11.012 9.73258C11.3216 9.83734 11.6469 9.88788 11.9736 9.88195C12.0264 9.88195 12.2189 9.87945 12.2449 9.88195C12.4957 9.90437 12.7286 10.0216 12.8959 10.2098C13.0633 10.3981 13.1525 10.643 13.1455 10.8948C13.1228 11.2734 13.1726 11.6529 13.292 12.0129L13.3517 12.157C13.5221 12.496 13.7554 12.7995 14.0392 13.0513C14.1368 13.1438 14.2144 13.2552 14.2673 13.3787C14.3203 13.5022 14.3474 13.6353 14.3471 13.7697C14.3468 13.904 14.3191 14.037 14.2656 14.1602C14.2121 14.2835 14.134 14.3946 14.0361 14.4866ZM16.3836 25.3726C16.3836 25.2483 16.433 25.129 16.5209 25.0411C16.6088 24.9532 16.728 24.9038 16.8524 24.9038H31.5624C31.6867 24.9038 31.8059 24.9532 31.8938 25.0411C31.9817 25.129 32.0311 25.2483 32.0311 25.3726C32.0305 25.396 32.0281 25.4193 32.0239 25.4423C31.6892 25.5477 31.364 25.6811 31.0517 25.8413H16.8524C16.728 25.8413 16.6088 25.7919 16.5209 25.704C16.433 25.6161 16.3836 25.4969 16.3836 25.3726ZM28.088 29.0357C28.0839 29.0357 28.0802 29.0357 28.0761 29.0357H19.4939C19.3696 29.0357 19.2504 28.9863 19.1625 28.8984C19.0746 28.8105 19.0252 28.6913 19.0252 28.567C19.0252 28.4426 19.0746 28.3234 19.1625 28.2355C19.2504 28.1476 19.3696 28.0982 19.4939 28.0982H28.0761C28.1506 28.0984 28.224 28.1164 28.2902 28.1506C28.3564 28.1848 28.4135 28.2344 28.4567 28.2951C28.3176 28.5335 28.1944 28.7809 28.088 29.0357V29.0357ZM33.8664 36.7326C32.8152 36.7326 31.7876 36.4209 30.9136 35.8368C30.0395 35.2528 29.3583 34.4227 28.956 33.4515C28.5537 32.4803 28.4485 31.4117 28.6535 30.3807C28.8586 29.3497 29.3648 28.4026 30.1081 27.6593C30.8515 26.916 31.7985 26.4098 32.8295 26.2047C33.8605 25.9996 34.9292 26.1049 35.9004 26.5072C36.8716 26.9094 37.7017 27.5907 38.2857 28.4647C38.8697 29.3388 39.1814 30.3664 39.1814 31.4176C39.1814 32.8272 38.6214 34.1791 37.6247 35.1759C36.6279 36.1726 35.276 36.7326 33.8664 36.7326V36.7326Z" fill="#0DA07D"/>
<path d="M37.5342 29.2502C37.4929 29.2045 37.443 29.1674 37.3874 29.141C37.3318 29.1146 37.2715 29.0994 37.21 29.0963C37.1485 29.0932 37.087 29.1022 37.029 29.1229C36.971 29.1436 36.9177 29.1755 36.872 29.2168L33.6248 32.1511C33.5183 32.2572 33.3741 32.3168 33.2237 32.3168C33.0734 32.3168 32.9292 32.2572 32.8226 32.1511L32.3123 31.6405C32.2244 31.5526 32.1052 31.5032 31.9809 31.5031C31.8565 31.5031 31.7373 31.5525 31.6493 31.6404C31.5614 31.7282 31.512 31.8475 31.512 31.9718C31.5119 32.0961 31.5613 32.2154 31.6492 32.3033L32.1608 32.8149C32.3013 32.9553 32.4681 33.0666 32.6517 33.1424C32.8353 33.2182 33.0321 33.2571 33.2308 33.2568C33.4237 33.2578 33.6149 33.2207 33.7935 33.1477C33.9721 33.0746 34.1345 32.9671 34.2714 32.8311L37.4998 29.9124C37.5456 29.8712 37.5827 29.8213 37.6092 29.7658C37.6357 29.7102 37.651 29.6499 37.6542 29.5884C37.6574 29.5269 37.6484 29.4654 37.6278 29.4074C37.6072 29.3493 37.5754 29.2959 37.5342 29.2502V29.2502Z" fill="#0DA07D"/>
</g>
<defs>
<clipPath id="clip0_611_10251">
<rect width="40" height="40" fill="white" transform="translate(0 0.986328)"/>
</clipPath>
</defs>
</svg>
