<svg width="40" height="41" viewBox="0 0 40 41" fill="none" xmlns="http://www.w3.org/2000/svg">
<g clip-path="url(#clip0_611_9986)">
<path d="M36.4844 29.0312H3.51562C1.57813 29.0312 0 30.6094 0 32.5469C0 34.4844 1.57813 36.0625 3.51562 36.0625H16.0938V40.5938C16.0938 40.7422 16.1562 40.875 16.2891 40.9453C16.4219 41.0156 16.5703 41 16.6875 40.9141L18.4453 39.6328L20.2031 40.9141C20.2734 40.9609 20.3516 40.9922 20.4297 40.9922C20.4922 40.9922 20.5313 40.9766 20.5859 40.9531C20.7188 40.8828 20.7812 40.75 20.7812 40.6016V36.0703H36.4844C38.4219 36.0703 40 34.4922 40 32.5547C40 30.6172 38.4219 29.0312 36.4844 29.0312ZM18.2187 29.8125C17.4219 30.4375 16.9062 31.4453 16.9062 32.5469C16.9062 33.4844 17.2734 34.3672 17.9375 35.0312C18.0234 35.1172 18.1172 35.2031 18.2109 35.2812H16.4375C14.9297 35.2812 13.7031 34.0547 13.7031 32.5469C13.7031 31.0391 14.9297 29.8125 16.4375 29.8125H18.2187ZM20 39.8281L18.6484 38.8359C18.5781 38.7891 18.5078 38.7578 18.4297 38.7578C18.3516 38.7578 18.2891 38.7813 18.2266 38.8359L16.875 39.8281V36.0625H20V39.8281ZM36.4844 35.2812C34.9766 35.2812 33.75 34.0547 33.75 32.5469C33.75 31.0391 34.9766 29.8125 36.4844 29.8125C37.9922 29.8125 39.2188 31.0391 39.2188 32.5469C39.2188 34.0547 37.9922 35.2812 36.4844 35.2812Z" fill="#F16920"/>
<path d="M33.75 19.75C32.9297 19.9297 32.3203 20.6562 32.3203 21.5312C32.3203 22.0703 32.5547 22.5469 32.9219 22.8828C32.1172 23.3125 31.5703 24.1562 31.5703 25.125V27.625C31.5703 27.8437 31.7734 28.0156 31.9844 28.0156H36.3047C36.5234 28.0156 36.7187 27.8437 36.7187 27.625V25.125C36.7187 24.1562 36.1641 23.3125 35.3672 22.8828C35.7344 22.5469 35.9687 22.0703 35.9687 21.5312C35.9687 20.6562 35.3516 19.9297 34.5391 19.75V13.6094L33.7578 13.9844V19.75H33.75Z" fill="#F16920"/>
<path d="M0.21875 11.1016L9.60938 15.5938V23.875C9.60938 25.0547 10.7422 26.125 12.7891 26.8906C14.7187 27.6172 17.2813 28.0156 20 28.0156C22.7187 28.0156 25.2734 27.6172 27.2109 26.8906C29.2656 26.1172 30.3906 25.0469 30.3906 23.875V15.5938L33.75 13.9844V13.6875L19.9297 11.1328L20.0703 10.3672L34.0859 12.9609L34.2109 12.9844C34.3984 13.0156 34.5312 13.1797 34.5312 13.3672V13.6172L39.7813 11.1094C39.9141 11.0469 40 10.9062 40 10.7578C40 10.6094 39.9141 10.4687 39.7813 10.4062L20.1719 1.03125C20.0625 0.984375 19.9453 0.984375 19.8359 1.03125L0.226563 10.4062C0.0859375 10.4609 0 10.6016 0 10.75C0 10.8984 0.0859375 11.0391 0.21875 11.1016V11.1016ZM29.6094 20.125C29.6094 20.9375 28.6328 21.7734 26.9297 22.4141C25.0859 23.1094 22.6172 23.4922 19.9922 23.4922C17.3672 23.4922 14.9063 23.1094 13.0547 22.4141C11.3516 21.7734 10.375 20.9453 10.375 20.125V15.9609L19.8125 20.4766C19.8672 20.5 19.9219 20.5156 19.9844 20.5156C20.0469 20.5156 20.1016 20.5 20.1562 20.4766L29.6094 15.9609V20.125Z" fill="#F16920"/>
</g>
<defs>
<clipPath id="clip0_611_9986">
<rect width="40" height="40" fill="white" transform="translate(0 0.986328)"/>
</clipPath>
</defs>
</svg>
