<svg width="40" height="41" viewBox="0 0 40 41" fill="none" xmlns="http://www.w3.org/2000/svg">
<g clip-path="url(#clip0_611_9981)">
<path fill-rule="evenodd" clip-rule="evenodd" d="M26.6818 22.6625C26.6818 23.5777 25.9399 24.3197 25.0247 24.3197H14.9744C14.0592 24.3197 13.3172 23.5777 13.3172 22.6625V17.0195C13.3172 15.9206 14.2381 15.0271 15.3706 15.0271H16.2962C17.4259 15.6339 18.701 15.9543 19.9995 15.9543C21.2981 15.9543 22.5727 15.6339 23.7029 15.0271H24.6285C25.761 15.0271 26.6819 15.9206 26.6819 17.0195L26.6818 22.6625ZM19.9995 14.4106C17.9458 14.4106 16.2742 12.7888 16.2742 10.7959C16.2742 8.80285 17.9458 7.18097 19.9995 7.18097C22.0533 7.18097 23.7249 8.80285 23.7249 10.7959C23.7249 12.7888 22.0533 14.4106 19.9995 14.4106ZM24.6285 13.4833C26.6383 13.4833 28.2727 15.0696 28.2727 17.0196V17.3727H33.3429C34.2581 17.3727 35 16.6308 35 15.7156V2.64347C35 1.72825 34.2581 0.986328 33.3429 0.986328H6.65714C5.74193 0.986328 5 1.72826 5 2.64347V15.7156C5 16.6308 5.74193 17.3727 6.65714 17.3727H11.7264V17.0196C11.7264 15.0697 13.3609 13.4833 15.3706 13.4833H15.4631C14.9686 12.7003 14.6832 11.7799 14.6832 10.796C14.6832 7.95102 17.0676 5.63733 19.9995 5.63733C22.9315 5.63733 25.3158 7.95102 25.3158 10.796C25.3158 11.78 25.0305 12.7003 24.536 13.4833H24.6285Z" fill="#E62A42"/>
<path d="M4.07899 40.6475H15.2177C15.9662 40.6475 16.6548 40.3182 17.1037 39.7343C17.5679 39.1654 17.7477 38.4169 17.5828 37.7132C17.149 35.8269 16.1007 34.24 14.6786 33.1172C13.6307 34.7789 11.7593 35.8718 9.6635 35.8718C7.55236 35.8718 5.69597 34.7789 4.61811 33.1172C3.19593 34.225 2.16266 35.8269 1.72881 37.6983C1.56397 38.4169 1.72881 39.1654 2.19263 39.7343C2.65682 40.3182 3.34542 40.6475 4.07899 40.6475V40.6475Z" fill="#E62A42"/>
<path d="M9.64875 33.6261C11.7158 33.6261 13.3915 31.9504 13.3915 29.8834C13.3915 27.8163 11.7158 26.1406 9.64875 26.1406C7.58169 26.1406 5.90601 27.8163 5.90601 29.8834C5.90601 31.9504 7.58169 33.6261 9.64875 33.6261Z" fill="#E62A42"/>
<path d="M24.1045 40.647H35.3609C36.1174 40.647 36.8132 40.3143 37.2668 39.7242C37.7359 39.1493 37.9176 38.3928 37.7511 37.6817C37.3126 35.7755 36.2533 34.1718 34.8161 33.0371C33.7571 34.7164 31.866 35.8208 29.748 35.8208C27.6146 35.8208 25.7386 34.7164 24.6493 33.0371C23.2121 34.1567 22.1679 35.7755 21.7295 37.6666C21.5629 38.3928 21.7295 39.1493 22.1982 39.7242C22.6673 40.3143 23.3632 40.647 24.1045 40.647V40.647Z" fill="#E62A42"/>
<path d="M29.7327 33.5509C31.8216 33.5509 33.515 31.8575 33.515 29.7686C33.515 27.6797 31.8216 25.9863 29.7327 25.9863C27.6438 25.9863 25.9504 27.6797 25.9504 29.7686C25.9504 31.8575 27.6438 33.5509 29.7327 33.5509Z" fill="#E62A42"/>
</g>
<defs>
<clipPath id="clip0_611_9981">
<rect width="40" height="40" fill="white" transform="translate(0 0.986328)"/>
</clipPath>
</defs>
</svg>
