<svg width="40" height="41" viewBox="0 0 40 41" fill="none" xmlns="http://www.w3.org/2000/svg">
<g clip-path="url(#clip0_611_10101)">
<path d="M17.5 25.9863C24.3929 25.9863 30 20.3792 30 13.4863C30 6.59344 24.3929 0.986328 17.5 0.986328C10.6071 0.986328 5 6.59344 5 13.4863C5 20.3792 10.6071 25.9863 17.5 25.9863ZM17.9166 14.3197H17.0833C15.4752 14.3197 14.1666 13.0111 14.1666 11.403C14.1666 9.93758 15.2568 8.73273 16.6666 8.52852V7.65297C16.6666 7.19234 17.0394 6.81961 17.5 6.81961C17.9606 6.81961 18.3334 7.19234 18.3334 7.65297V8.48633H20C20.4606 8.48633 20.8334 8.85906 20.8334 9.31969C20.8334 9.78031 20.4606 10.153 20 10.153H17.0834C16.3941 10.153 15.8334 10.7137 15.8334 11.403C15.8334 12.0923 16.3941 12.653 17.0834 12.653H17.9167C19.5248 12.653 20.8334 13.9616 20.8334 15.5697C20.8334 17.0352 19.7432 18.24 18.3334 18.4442V19.3197C18.3334 19.7803 17.9606 20.153 17.5 20.153C17.0394 20.153 16.6666 19.7803 16.6666 19.3197V18.4863H15C14.5394 18.4863 14.1666 18.1136 14.1666 17.653C14.1666 17.1923 14.5394 16.8196 15 16.8196H17.9166C18.6059 16.8196 19.1666 16.2589 19.1666 15.5696C19.1666 14.8804 18.6059 14.3197 17.9166 14.3197Z" fill="#FFB431"/>
<path d="M33.3333 24.3203H28.3333C27.4121 24.3203 26.6667 25.0666 26.6667 25.987C26.6667 26.9073 27.4122 27.6536 28.3333 27.6536H29.0887L21.5527 34.6515L15.9994 30.4873C15.3662 30.0112 14.4776 30.0478 13.8851 30.5816L5.5517 38.0816C4.8681 38.6969 4.81279 39.7508 5.42802 40.4352C6.0449 41.118 7.0963 41.1749 7.78154 40.5588L15.096 33.976L20.6673 38.1533C21.307 38.6375 22.2054 38.5911 22.8012 38.0418L31.6667 29.8095V30.987C31.6667 31.9073 32.4122 32.6536 33.3333 32.6536C34.2545 32.6536 35 31.9074 35 30.987V25.987C35 25.0666 34.2545 24.3203 33.3333 24.3203Z" fill="#FFB431"/>
</g>
<defs>
<clipPath id="clip0_611_10101">
<rect width="40" height="40" fill="white" transform="translate(0 0.986328)"/>
</clipPath>
</defs>
</svg>
