<svg width="40" height="41" viewBox="0 0 40 41" fill="none" xmlns="http://www.w3.org/2000/svg">
<path d="M19.7476 5.47701C15.0887 5.4086 8.61701 5.50861 7.28459 9.08786L4.01094 16.7696C3.86575 16.6035 3.67533 16.4832 3.46294 16.4236L2.14492 16.0528C1.99999 16.0117 1.84837 15.9996 1.69877 16.0173C1.54916 16.0349 1.40452 16.0819 1.27313 16.1556C1.14175 16.2293 1.02622 16.3283 0.933166 16.4467C0.840114 16.5652 0.771375 16.7009 0.730895 16.846L0.0432849 19.2876C0.00225066 19.4325 -0.00976955 19.5841 0.00791386 19.7337C0.0255973 19.8832 0.0726363 20.0278 0.146332 20.1591C0.220028 20.2905 0.318931 20.406 0.437366 20.499C0.555802 20.592 0.691439 20.6607 0.836497 20.7012L2.15492 21.0724C2.19892 21.0844 2.24292 21.0884 2.28692 21.0956C2.03491 21.7236 1.87811 22.4141 1.87811 22.8249V31.753C1.87811 32.2106 2.07012 32.4226 2.37492 32.5218V34.9002C2.37445 35.1114 2.41568 35.3205 2.49627 35.5157C2.57685 35.7109 2.69519 35.8882 2.84449 36.0375C2.99379 36.1868 3.17111 36.3051 3.36628 36.3857C3.56144 36.4663 3.7706 36.5075 3.98174 36.5071H8.29261C8.50375 36.5075 8.71291 36.4663 8.90807 36.3857C9.10324 36.3051 9.28056 36.1868 9.42986 36.0375C9.57917 35.8882 9.69751 35.7109 9.77809 35.5157C9.85867 35.3205 9.89991 35.1114 9.89943 34.9002V32.609H30.1009V34.9002C30.1006 35.1114 30.1419 35.3205 30.2225 35.5157C30.3032 35.7108 30.4216 35.8881 30.5709 36.0374C30.7202 36.1867 30.8975 36.305 31.0927 36.3856C31.2879 36.4662 31.497 36.5075 31.7082 36.5071H36.0182C36.2294 36.5075 36.4386 36.4663 36.6338 36.3857C36.829 36.3052 37.0064 36.1868 37.1558 36.0375C37.3051 35.8883 37.4235 35.7109 37.5042 35.5158C37.5849 35.3206 37.6262 35.1114 37.6259 34.9002V32.5222C37.9311 32.423 38.1219 32.211 38.1219 31.7534V22.8253C38.1219 22.4145 37.9647 21.724 37.7131 21.096C37.7571 21.0892 37.8011 21.0852 37.8451 21.0728L39.1639 20.7016C39.3089 20.6611 39.4445 20.5924 39.5629 20.4993C39.6813 20.4063 39.7801 20.2908 39.8538 20.1594C39.9274 20.0281 39.9745 19.8835 39.9921 19.734C40.0098 19.5844 39.9977 19.4329 39.9567 19.288L39.2699 16.8464C39.2294 16.7013 39.1606 16.5656 39.0675 16.4471C38.9744 16.3286 38.8588 16.2297 38.7274 16.156C38.596 16.0823 38.4513 16.0353 38.3017 16.0176C38.1521 16 38.0004 16.0121 37.8555 16.0532L36.5374 16.424C36.325 16.4839 36.1346 16.6041 35.989 16.77L32.7154 9.08826C31.2874 5.45461 24.4061 5.54581 19.7472 5.47741L19.7476 5.47701ZM33.0906 17.2548C33.1682 17.4852 32.9362 17.6388 32.6934 17.6528C32.6934 17.6528 31.8998 17.72 30.8053 17.8084C29.9725 15.8628 28.0373 14.4915 25.7953 14.4915C23.3348 14.4915 21.246 16.1436 20.576 18.3932C20.3904 18.3956 20.1748 18.4036 20.0024 18.4036C15.7635 18.4036 7.30659 17.6528 7.30659 17.6528C7.06419 17.6384 6.83179 17.4848 6.90939 17.2548C10.1662 7.32623 10.2634 8.07264 19.82 8.17705C29.3761 8.28105 29.4317 7.57184 33.0906 17.2548ZM25.7953 16.368C26.3853 16.3659 26.9665 16.5108 27.4866 16.7895C28.0066 17.0682 28.4491 17.472 28.7741 17.9644C26.8601 18.1064 24.6573 18.2516 22.6044 18.336C22.8998 17.743 23.3552 17.2445 23.919 16.8967C24.4829 16.5489 25.1328 16.3658 25.7953 16.368ZM3.76254 19.59C3.79134 19.6328 3.81934 19.6756 3.85134 19.7168H3.72734L3.76254 19.59ZM5.88017 22.0837C6.71859 22.0701 11.2195 23.5849 11.2195 23.5849C11.7815 23.7433 12.2763 24.8057 12.2735 25.3897C12.2651 27.3565 7.18979 26.6737 5.12936 26.6817C4.99091 26.682 4.85376 26.6549 4.72579 26.6021C4.59782 26.5492 4.48154 26.4716 4.38361 26.3737C4.28569 26.2759 4.20806 26.1596 4.15516 26.0316C4.10226 25.9037 4.07513 25.7666 4.07535 25.6281V23.1381C4.07535 22.5541 5.04176 22.0981 5.88017 22.0837ZM34.1198 22.0837C34.9582 22.0977 35.9246 22.5541 35.9246 23.1381V25.6281C35.9249 25.7666 35.8978 25.9038 35.8449 26.0318C35.7921 26.1598 35.7144 26.2761 35.6165 26.374C35.5186 26.4719 35.4023 26.5496 35.2743 26.6024C35.1463 26.6553 35.0091 26.6824 34.8706 26.6821C32.8106 26.6741 27.7349 27.3565 27.7265 25.3897C27.7237 24.8057 28.2185 23.7433 28.7805 23.5849C28.7805 23.5849 33.2814 22.0701 34.1198 22.0837Z" fill="#0C46CC"/>
</svg>
