<svg width="40" height="41" viewBox="0 0 40 41" fill="none" xmlns="http://www.w3.org/2000/svg">
<path d="M23.3034 13.3984H16.6948V15.5469H23.3034V13.3984Z" fill="#603CF0"/>
<path d="M37.2685 37.1745H34.0458V5.87891C34.0458 4.10186 32.6002 2.65625 30.8232 2.65625H9.17553C7.39849 2.65625 5.95287 4.10186 5.95287 5.87891V37.1745H2.73022C1.31418 37.1745 1.30838 39.3229 2.73022 39.3229C9.95821 39.3229 23.3742 39.3229 37.2684 39.3229C38.6845 39.3229 38.6903 37.1745 37.2685 37.1745ZM14.5466 16.6211V12.3242C14.5466 11.7305 15.0271 11.25 15.6208 11.25H24.3779C24.9716 11.25 25.4521 11.7305 25.4521 12.3242V16.6211C25.4521 17.2149 24.9716 17.6953 24.3779 17.6953H15.6208C15.0271 17.6953 14.5466 17.2149 14.5466 16.6211ZM25.129 23.9607C24.7421 24.3917 24.0126 24.3917 23.6257 23.9607C23.1982 23.577 23.1947 22.8443 23.6257 22.4575C24.0118 22.0494 24.743 22.0494 25.129 22.4575C25.5599 22.8443 25.5599 23.5739 25.129 23.9607ZM31.8974 37.1745H29.749V8.02734C29.749 7.43359 29.2685 6.95313 28.6747 6.95313H11.324C10.7302 6.95313 10.2497 7.43359 10.2497 8.02734V37.1745H8.10131V5.87891C8.10131 5.28622 8.58285 4.80469 9.17553 4.80469H30.8232C31.4159 4.80469 31.8974 5.28622 31.8974 5.87891V37.1745Z" fill="#603CF0"/>
</svg>
