<svg width="40" height="41" viewBox="0 0 40 41" fill="none" xmlns="http://www.w3.org/2000/svg">
<g clip-path="url(#clip0_611_10126)">
<path d="M29.1665 30.1523C30.5472 30.1523 31.6665 29.033 31.6665 27.6523C31.6665 26.2717 30.5472 25.1523 29.1665 25.1523C27.7858 25.1523 26.6665 26.2717 26.6665 27.6523C26.6665 29.033 27.7858 30.1523 29.1665 30.1523Z" fill="#E62A42"/>
<path d="M19.9999 39.3197C19.9999 35.8197 21.8333 32.9863 24.6666 31.3197C23.8333 30.3197 23.3333 28.9863 23.3333 27.653C23.3333 24.4863 25.9999 21.8197 29.1666 21.8197C30.8332 21.8197 32.3332 22.4863 33.3332 23.653V7.65299C33.3332 3.98633 30.3332 0.986328 26.6666 0.986328H9.99992C6.33325 0.986328 3.33325 3.98633 3.33325 7.65299V34.3197C3.33325 37.9863 6.33325 40.9863 9.99992 40.9863H19.9999V39.3197ZM9.99992 22.653C9.99992 21.653 10.6666 20.9863 11.6666 20.9863H18.3333C19.3333 20.9863 19.9999 21.653 19.9999 22.653C19.9999 23.653 19.3333 24.3197 18.3333 24.3197H11.6666C10.6666 24.3197 9.99992 23.653 9.99992 22.653ZM24.9999 17.653H11.6666C10.6666 17.653 9.99992 16.9863 9.99992 15.9863C9.99992 14.9863 10.6666 14.3197 11.6666 14.3197H24.9999C25.9999 14.3197 26.6666 14.9863 26.6666 15.9863C26.6666 16.9863 25.9999 17.653 24.9999 17.653ZM24.9999 10.9863H11.6666C10.6666 10.9863 9.99992 10.3197 9.99992 9.31966C9.99992 8.31966 10.6666 7.65299 11.6666 7.65299H24.9999C25.9999 7.65299 26.6666 8.31966 26.6666 9.31966C26.6666 10.3197 25.9999 10.9863 24.9999 10.9863Z" fill="#E62A42"/>
<path d="M29.1666 33.4863C25.9999 33.4863 23.3333 36.153 23.3333 39.3197V40.9863H34.9999V39.3197C34.9999 36.153 32.3333 33.4863 29.1666 33.4863Z" fill="#E62A42"/>
</g>
<defs>
<clipPath id="clip0_611_10126">
<rect width="40" height="40" fill="white" transform="translate(0 0.986328)"/>
</clipPath>
</defs>
</svg>
