<svg width="40" height="41" viewBox="0 0 40 41" fill="none" xmlns="http://www.w3.org/2000/svg">
<g clip-path="url(#clip0_611_10216)">
<path d="M3.33641 32.5117C1.73581 33.7754 0.55604 35.5614 0.0677588 37.6843C-0.117763 38.4763 0.0846246 39.3188 0.589772 39.959C1.1122 40.6162 1.88719 40.9868 2.72965 40.9868H15.2654C16.0914 40.9868 16.8664 40.6162 17.3888 39.959C17.9108 39.3188 18.0963 38.4763 17.9108 37.6843C17.4225 35.5782 16.2596 33.7754 14.659 32.5285C13.4628 34.382 11.3735 35.6119 9.01437 35.6119C6.63878 35.6119 4.5495 34.382 3.33641 32.5117V32.5117Z" fill="#E62A42"/>
<path d="M35.8725 16.9593V5.24912C35.8725 2.90716 33.9683 0.986328 31.6096 0.986328H7.85201C5.49329 0.986328 3.58911 2.90716 3.58911 5.24912V16.9593C3.58911 19.3183 5.49329 21.2222 7.85201 21.2222H31.6096C33.9683 21.2222 35.8725 19.3183 35.8725 16.9593V16.9593ZM24.4486 12.7808H15.0298C14.103 12.7808 13.3449 12.0225 13.3449 11.0959C13.3449 10.1692 14.103 9.41093 15.0298 9.41093H24.4486C25.375 9.41093 26.1336 10.1692 26.1336 11.0959C26.1336 12.0225 25.375 12.7808 24.4486 12.7808V12.7808Z" fill="#E62A42"/>
<path d="M24.1946 40.9868H36.7308C37.5732 40.9868 38.3482 40.6162 38.8534 39.959C39.3758 39.3188 39.5782 38.4763 39.3927 37.6843C38.9044 35.5614 37.7246 33.7754 36.124 32.5117C34.9447 34.382 32.8385 35.6119 30.4798 35.6119C28.1038 35.6119 26.0145 34.382 24.8014 32.5117C23.2008 33.7585 22.0379 35.5614 21.5496 37.6676C21.3641 38.4763 21.5496 39.3188 22.0716 39.959C22.594 40.6162 23.369 40.9868 24.1946 40.9868V40.9868Z" fill="#E62A42"/>
<path d="M30.464 33.0848C32.7904 33.0848 34.6763 31.1988 34.6763 28.8725C34.6763 26.5461 32.7904 24.6602 30.464 24.6602C28.1376 24.6602 26.2517 26.5461 26.2517 28.8725C26.2517 31.1988 28.1376 33.0848 30.464 33.0848Z" fill="#E62A42"/>
<path d="M8.9977 33.0828C11.3241 33.0828 13.21 31.1969 13.21 28.8705C13.21 26.5441 11.3241 24.6582 8.9977 24.6582C6.67131 24.6582 4.7854 26.5441 4.7854 28.8705C4.7854 31.1969 6.67131 33.0828 8.9977 33.0828Z" fill="#E62A42"/>
</g>
<defs>
<clipPath id="clip0_611_10216">
<rect width="40" height="40" fill="white" transform="translate(0 0.986328)"/>
</clipPath>
</defs>
</svg>
