<svg width="40" height="41" viewBox="0 0 40 41" fill="none" xmlns="http://www.w3.org/2000/svg">
<path d="M9.9999 8.12919C9.9999 8.50807 9.84939 8.87143 9.58148 9.13934C9.31357 9.40725 8.9502 9.55776 8.57132 9.55776C8.19244 9.55776 7.82908 9.40725 7.56117 9.13934C7.29326 8.87143 7.14275 8.50807 7.14275 8.12919C7.14275 7.7503 7.29326 7.38694 7.56117 7.11903C7.82908 6.85112 8.19244 6.70061 8.57132 6.70061C8.9502 6.70061 9.31357 6.85112 9.58148 7.11903C9.84939 7.38694 9.9999 7.7503 9.9999 8.12919ZM8.57132 16.7006C8.9502 16.7006 9.31357 16.5501 9.58148 16.2822C9.84939 16.0143 9.9999 15.6509 9.9999 15.272C9.9999 14.8932 9.84939 14.5298 9.58148 14.2619C9.31357 13.994 8.9502 13.8435 8.57132 13.8435C8.19244 13.8435 7.82908 13.994 7.56117 14.2619C7.29326 14.5298 7.14275 14.8932 7.14275 15.272C7.14275 15.6509 7.29326 16.0143 7.56117 16.2822C7.82908 16.5501 8.19244 16.7006 8.57132 16.7006ZM9.9999 22.4149C9.9999 22.7938 9.84939 23.1571 9.58148 23.4251C9.31357 23.693 8.9502 23.8435 8.57132 23.8435C8.19244 23.8435 7.82908 23.693 7.56117 23.4251C7.29326 23.1571 7.14275 22.7938 7.14275 22.4149C7.14275 22.036 7.29326 21.6727 7.56117 21.4047C7.82908 21.1368 8.19244 20.9863 8.57132 20.9863C8.9502 20.9863 9.31357 21.1368 9.58148 21.4047C9.84939 21.6727 9.9999 22.036 9.9999 22.4149ZM14.2856 9.55776C14.6645 9.55776 15.0279 9.40725 15.2958 9.13934C15.5637 8.87143 15.7142 8.50807 15.7142 8.12919C15.7142 7.7503 15.5637 7.38694 15.2958 7.11903C15.0279 6.85112 14.6645 6.70061 14.2856 6.70061C13.9067 6.70061 13.5434 6.85112 13.2755 7.11903C13.0075 7.38694 12.857 7.7503 12.857 8.12919C12.857 8.50807 13.0075 8.87143 13.2755 9.13934C13.5434 9.40725 13.9067 9.55776 14.2856 9.55776ZM15.7142 15.272C15.7142 15.6509 15.5637 16.0143 15.2958 16.2822C15.0279 16.5501 14.6645 16.7006 14.2856 16.7006C13.9067 16.7006 13.5434 16.5501 13.2755 16.2822C13.0075 16.0143 12.857 15.6509 12.857 15.272C12.857 14.8932 13.0075 14.5298 13.2755 14.2619C13.5434 13.994 13.9067 13.8435 14.2856 13.8435C14.6645 13.8435 15.0279 13.994 15.2958 14.2619C15.5637 14.5298 15.7142 14.8932 15.7142 15.272ZM18.5713 15.272V5.27204C18.5713 4.89316 18.4208 4.5298 18.1529 4.26189C17.885 3.99398 17.5216 3.84347 17.1428 3.84347H5.71418C5.3353 3.84347 4.97194 3.99398 4.70403 4.26189C4.43612 4.5298 4.28561 4.89316 4.28561 5.27204V32.4149H10.417C10.0765 33.3266 9.93992 34.3019 10.017 35.272H2.85704C2.47816 35.272 2.1148 35.1215 1.84689 34.8536C1.57898 34.5857 1.42847 34.2224 1.42847 33.8435V5.27204C1.42847 4.1354 1.88 3.04531 2.68372 2.24158C3.48745 1.43786 4.57754 0.986328 5.71418 0.986328H17.1428C18.2794 0.986328 19.3695 1.43786 20.1732 2.24158C20.9769 3.04531 21.4285 4.1354 21.4285 5.27204V15.272H18.5713ZM25.7142 23.1292C25.7142 24.4553 25.1874 25.727 24.2497 26.6647C23.312 27.6024 22.0403 28.1292 20.7142 28.1292C19.3881 28.1292 18.1163 27.6024 17.1786 26.6647C16.241 25.727 15.7142 24.4553 15.7142 23.1292C15.7142 21.8031 16.241 20.5313 17.1786 19.5937C18.1163 18.656 19.3881 18.1292 20.7142 18.1292C22.0403 18.1292 23.312 18.656 24.2497 19.5937C25.1874 20.5313 25.7142 21.8031 25.7142 23.1292ZM29.9999 34.7378C29.9999 37.852 27.5513 40.9863 21.4285 40.9863C15.3056 40.9863 12.857 37.8606 12.857 34.7349C12.857 32.6663 14.5028 30.9863 16.5313 30.9863H26.3256C28.3542 30.9863 29.9999 32.6663 29.9999 34.7378ZM31.3628 39.5578H31.4285C36.5313 39.5578 38.5713 36.8692 38.5713 34.2006C38.5713 32.4263 37.1999 30.9863 35.5113 30.9863H31.7028C32.4342 32.0578 32.857 33.3549 32.857 34.7378C32.857 36.4006 32.3828 38.0892 31.3628 39.5578ZM35.7142 24.5578C35.7142 25.505 35.3379 26.4134 34.6681 27.0831C33.9984 27.7529 33.09 28.1292 32.1428 28.1292C31.1956 28.1292 30.2871 27.7529 29.6174 27.0831C28.9476 26.4134 28.5713 25.505 28.5713 24.5578C28.5713 23.6106 28.9476 22.7021 29.6174 22.0324C30.2871 21.3626 31.1956 20.9863 32.1428 20.9863C33.09 20.9863 33.9984 21.3626 34.6681 22.0324C35.3379 22.7021 35.7142 23.6106 35.7142 24.5578Z" fill="#603CF0"/>
</svg>
