<svg width="40" height="41" viewBox="0 0 40 41" fill="none" xmlns="http://www.w3.org/2000/svg">
<path d="M36.6611 6.76367H3.33752C1.56791 6.76367 0.133301 8.19828 0.133301 9.96789V32.0088C0.133301 33.7784 1.56791 35.213 3.33752 35.213H36.6611C38.4307 35.213 39.8653 33.7784 39.8653 32.0088V9.96781C39.8653 8.1982 38.4307 6.76367 36.6611 6.76367V6.76367ZM5.26002 21.8659V13.8127C5.26002 12.7509 6.12072 11.8902 7.18252 11.8902H15.3742C16.436 11.8902 17.2967 12.7509 17.2967 13.8127V21.8659C17.2967 22.9276 16.436 23.7884 15.3742 23.7884H14.5346C14.5346 21.9879 13.0858 20.532 11.2783 20.532C9.48486 20.532 8.02205 21.9879 8.02205 23.7884H7.18252C6.1208 23.7884 5.26002 22.9276 5.26002 21.8659V21.8659ZM8.26908 27.8874C7.91486 27.8874 7.62822 27.6008 7.62822 27.2466C7.62822 26.8923 7.91486 26.6057 8.26908 26.6057H14.2876C14.6418 26.6057 14.9285 26.8923 14.9285 27.2466C14.9285 27.6008 14.6418 27.8874 14.2876 27.8874H8.26908ZM34.7387 30.7273H15.1387C14.7845 30.7273 14.4978 30.4407 14.4978 30.0865C14.4978 29.7323 14.7845 29.4456 15.1387 29.4456H34.7387C35.0929 29.4456 35.3795 29.7323 35.3795 30.0865C35.3795 30.4407 35.0929 30.7273 34.7387 30.7273ZM34.7387 26.1783H21.4406C21.0864 26.1783 20.7998 25.8916 20.7998 25.5374C20.7998 25.1832 21.0864 24.8966 21.4406 24.8966H34.7387C35.0929 24.8966 35.3795 25.1832 35.3795 25.5374C35.3795 25.8916 35.0929 26.1783 34.7387 26.1783ZM34.7387 21.6292H21.4406C21.0864 21.6292 20.7998 21.3426 20.7998 20.9884C20.7998 20.6341 21.0864 20.3475 21.4406 20.3475H34.7387C35.0929 20.3475 35.3795 20.6341 35.3795 20.9884C35.3795 21.3426 35.0929 21.6292 34.7387 21.6292ZM34.7387 17.0802H21.4406C21.0864 17.0802 20.7998 16.7935 20.7998 16.4393C20.7998 16.0851 21.0864 15.7984 21.4406 15.7984H34.7387C35.0929 15.7984 35.3795 16.0851 35.3795 16.4393C35.3795 16.7935 35.0929 17.0802 34.7387 17.0802ZM34.7387 12.5311H21.4406C21.0864 12.5311 20.7998 12.2445 20.7998 11.8902C20.7998 11.536 21.0864 11.2494 21.4406 11.2494H34.7387C35.0929 11.2494 35.3795 11.536 35.3795 11.8902C35.3795 12.2445 35.0929 12.5311 34.7387 12.5311Z" fill="#F16920"/>
<path d="M11.2783 18.4563C12.3333 18.4563 13.1842 17.6053 13.1842 16.5504C13.1842 15.4955 12.3332 14.6445 11.2783 14.6445C10.2304 14.6445 9.37231 15.4955 9.37231 16.5504C9.37231 17.6054 10.2304 18.4563 11.2783 18.4563Z" fill="#F16920"/>
</svg>
