<svg width="40" height="41" viewBox="0 0 40 41" fill="none" xmlns="http://www.w3.org/2000/svg">
<path d="M28.4547 36.1005C28.4547 34.9875 28.4504 36.9687 28.4504 7.18822C28.4504 4.68815 26.4165 2.6543 23.9164 2.6543H6.20042C3.70036 2.6543 1.6665 4.68815 1.6665 7.18822V31.8723C1.6665 35.9794 5.00804 39.321 9.11514 39.321H29.5303C28.855 38.4229 28.4547 37.3079 28.4547 36.1005ZM12.4803 23.7806H7.0376C6.44463 23.7806 5.96338 23.2993 5.96338 22.7064C5.96338 22.1134 6.44463 21.6322 7.0376 21.6322H12.4803C13.0733 21.6322 13.5545 22.1134 13.5545 22.7064C13.5545 23.2993 13.0733 23.7806 12.4803 23.7806ZM12.4803 19.1973H7.0376C6.44463 19.1973 5.96338 18.716 5.96338 18.123C5.96338 17.5301 6.44463 17.0488 7.0376 17.0488H12.4803C13.0733 17.0488 13.5545 17.5301 13.5545 18.123C13.5545 18.716 13.0733 19.1973 12.4803 19.1973ZM20.7504 32.1409V32.8835C20.7504 33.4772 20.2698 33.9577 19.6761 33.9577C19.0832 33.9577 18.6019 33.4772 18.6019 32.8835V32.2404C17.7182 32.1588 17.0135 31.9153 16.046 31.2822C15.5497 30.9571 15.4101 30.2918 15.7352 29.7948C16.0596 29.2985 16.7256 29.1596 17.2219 29.484C17.7819 29.8507 18.1364 30.0125 18.6019 30.0813V25.6483C17.9302 25.3396 17.4274 25.0424 17.0149 24.7188C15.0813 23.202 15.6908 19.4959 18.6019 18.7311V18.0851C18.6019 17.4914 19.0832 17.0109 19.6761 17.0109C20.2698 17.0109 20.7504 17.4914 20.7504 18.0851V18.6559C21.942 18.8965 22.7871 19.5962 22.7656 19.6198C23.4452 20.2908 22.9668 21.456 22.0115 21.456C21.4414 21.456 21.397 21.1352 20.7504 20.8838V24.2074C20.9344 24.2755 21.1177 24.3413 21.2982 24.4051C25.2449 25.8001 24.5073 31.187 20.7504 32.1409ZM23.0793 14.6139H7.0376C6.44463 14.6139 5.96338 14.1327 5.96338 13.5397C5.96338 12.9467 6.44463 12.4655 7.0376 12.4655H23.0793C23.6722 12.4655 24.1535 12.9467 24.1535 13.5397C24.1535 14.1327 23.6722 14.6139 23.0793 14.6139ZM23.0793 10.6035H7.0376C6.44463 10.6035 5.96338 10.1223 5.96338 9.5293C5.96338 8.93633 6.44463 8.45508 7.0376 8.45508H23.0793C23.6722 8.45508 24.1535 8.93633 24.1535 9.5293C24.1535 10.1223 23.6722 10.6035 23.0793 10.6035Z" fill="#FFB431"/>
<path d="M18.3401 23.0283C18.4203 23.0913 18.5084 23.1529 18.6015 23.2137V21.0703C17.9505 21.5981 17.8825 22.6695 18.3401 23.0283V23.0283Z" fill="#FFB431"/>
<path d="M20.7493 26.498V29.8396C21.9424 29.1335 22.3169 27.1784 20.7493 26.498V26.498Z" fill="#FFB431"/>
<path d="M34.6905 19.9141H30.5991C30.5991 38.7516 30.6036 35.1203 30.6036 36.1013C30.6036 37.8769 32.0483 39.3216 33.8241 39.3216C35.5998 39.3216 37.0444 37.8769 37.0444 36.1013C37.0444 35.6435 37.0444 22.8112 37.0444 22.268C37.0444 20.9704 35.9881 19.9141 34.6905 19.9141Z" fill="#FFB431"/>
</svg>
