<svg width="40" height="41" viewBox="0 0 40 41" fill="none" xmlns="http://www.w3.org/2000/svg">
<path fill-rule="evenodd" clip-rule="evenodd" d="M12.1516 2.6543H27.5167C33.1799 2.6543 36.3332 5.91763 36.3332 11.5093V30.4476C36.3332 36.131 33.1799 39.321 27.5167 39.321H12.1516C6.57825 39.321 3.33325 36.131 3.33325 30.4476V11.5093C3.33325 5.91763 6.57825 2.6543 12.1516 2.6543ZM12.6468 11.1984V11.18H18.1267C18.9168 11.18 19.5585 11.8217 19.5585 12.6082C19.5585 13.4167 18.9168 14.0584 18.1267 14.0584H12.6468C11.8567 14.0584 11.2168 13.4167 11.2168 12.6284C11.2168 11.84 11.8567 11.1984 12.6468 11.1984ZM12.6468 22.3454H27.0201C27.8085 22.3454 28.4502 21.7037 28.4502 20.9154C28.4502 20.127 27.8085 19.4835 27.0201 19.4835H12.6468C11.8567 19.4835 11.2168 20.127 11.2168 20.9154C11.2168 21.7037 11.8567 22.3454 12.6468 22.3454ZM12.6465 30.7229H27.0199C27.7514 30.6496 28.3032 30.0244 28.3032 29.2929C28.3032 28.5412 27.7514 27.9179 27.0199 27.8446H12.6465C12.0965 27.7896 11.5649 28.0462 11.2715 28.5229C10.9782 28.9812 10.9782 29.5862 11.2715 30.0629C11.5649 30.5212 12.0965 30.7962 12.6465 30.7229Z" fill="#F16920"/>
</svg>
