<svg width="38" height="38" viewBox="0 0 38 38" fill="none" xmlns="http://www.w3.org/2000/svg">
<path fill-rule="evenodd" clip-rule="evenodd" d="M19.0001 37.319C29.1253 37.319 37.3334 29.1109 37.3334 18.9857C37.3334 8.86046 29.1253 0.652344 19.0001 0.652344C8.87486 0.652344 0.666748 8.86046 0.666748 18.9857C0.666748 29.1109 8.87486 37.319 19.0001 37.319ZM17.9796 12.4956C17.2764 12.0268 16.3722 11.983 15.6271 12.3818C14.8819 12.7806 14.4167 13.5572 14.4167 14.4023V23.569C14.4167 24.4142 14.8819 25.1907 15.6271 25.5895C16.3722 25.9883 17.2764 25.9446 17.9796 25.4758L24.8546 20.8925C25.4921 20.4674 25.8751 19.7519 25.8751 18.9857C25.8751 18.2195 25.4921 17.5039 24.8546 17.0789L17.9796 12.4956Z" fill="#603CF0"/>
</svg>
