<svg width="40" height="41" viewBox="0 0 40 41" fill="none" xmlns="http://www.w3.org/2000/svg">
<path fill-rule="evenodd" clip-rule="evenodd" d="M4.97143 2.6543C2.22578 2.6543 0 4.88008 0 7.62573V33.6829C0 36.4285 2.22578 38.6543 4.97143 38.6543H35.0286C37.7742 38.6543 40 36.4285 40 33.6829V7.62573C40 4.88008 37.7742 2.6543 35.0286 2.6543H4.97143ZM27.71 23.1667C27.7818 22.9164 27.9091 22.6856 28.0825 22.4914L30.0686 20.5053C31.2406 19.3333 30.8618 18.1514 29.2269 17.8789L26.6787 17.4542C26.4424 17.4009 26.2197 17.299 26.0248 17.155C25.8299 17.0111 25.667 16.8282 25.5465 16.6181L24.1369 13.7989C23.374 12.273 22.1256 12.273 21.3627 13.7989L19.9531 16.6181C19.8325 16.8282 19.6697 17.0111 19.4748 17.155C19.2799 17.299 19.0572 17.4009 18.8209 17.4542L16.2727 17.8789C14.6378 18.1514 14.259 19.3333 15.4311 20.5053L17.4172 22.4914C17.5906 22.6856 17.7179 22.9164 17.7896 23.1667C17.8614 23.417 17.8758 23.6802 17.8317 23.9368L17.2642 26.3957C16.8164 28.3363 17.852 29.0937 19.5657 28.0789L21.9595 26.6612C22.2037 26.5343 22.4747 26.4681 22.7498 26.4681C23.0249 26.4681 23.296 26.5343 23.5401 26.6612L25.934 28.0789C27.6476 29.0937 28.6832 28.3363 28.2354 26.3957L27.668 23.9368C27.6239 23.6802 27.6382 23.417 27.71 23.1667ZM16.7499 14.3421H10.7499C10.551 14.3421 10.3603 14.2631 10.2196 14.1225C10.079 13.9818 9.99996 13.7911 9.99996 13.5921C9.99996 13.3932 10.079 13.2025 10.2196 13.0618C10.3603 12.9212 10.551 12.8422 10.7499 12.8422H16.7499C16.9488 12.8422 17.1396 12.9212 17.2802 13.0618C17.4209 13.2025 17.4999 13.3932 17.4999 13.5921C17.4999 13.7911 17.4209 13.9818 17.2802 14.1225C17.1396 14.2631 16.9488 14.3421 16.7499 14.3421ZM10.7499 26.842H13.7499C13.9488 26.842 14.1396 26.921 14.2802 27.0617C14.4209 27.2023 14.4999 27.3931 14.4999 27.592C14.4999 27.7909 14.4209 27.9817 14.2802 28.1223C14.1396 28.263 13.9488 28.342 13.7499 28.342H10.7499C10.551 28.342 10.3603 28.263 10.2196 28.1223C10.079 27.9817 9.99996 27.7909 9.99996 27.592C9.99996 27.3931 10.079 27.2023 10.2196 27.0617C10.3603 26.921 10.551 26.842 10.7499 26.842ZM11.7499 21.3421H5.2954C5.09649 21.3421 4.90573 21.263 4.76508 21.1224C4.62443 20.9817 4.54541 20.791 4.54541 20.5921C4.54541 20.3932 4.62443 20.2024 4.76508 20.0618C4.90573 19.9211 5.09649 19.8421 5.2954 19.8421H11.7499C11.9488 19.8421 12.1396 19.9211 12.2803 20.0618C12.4209 20.2024 12.4999 20.3932 12.4999 20.5921C12.4999 20.791 12.4209 20.9817 12.2803 21.1224C12.1396 21.263 11.9488 21.3421 11.7499 21.3421Z" fill="#0DA07D"/>
</svg>
