<svg width="40" height="41" viewBox="0 0 40 41" fill="none" xmlns="http://www.w3.org/2000/svg">
<path d="M33.7371 4.31836H6.26318C4.64769 4.31836 3.3335 5.63255 3.3335 7.24805V26.9095C3.3335 28.525 4.64769 29.8392 6.26318 29.8392H15.0522V31.7923H24.883V29.8392H33.7371C35.3526 29.8392 36.6668 28.525 36.6668 26.9095V7.24805C36.6668 5.63255 35.3526 4.31836 33.7371 4.31836ZM14.7662 21.6755L10.8599 25.5817C10.4785 25.9632 9.86045 25.9632 9.479 25.5817L7.52588 23.6286C7.14437 23.2471 7.14437 22.6292 7.52588 22.2477C7.90732 21.8663 8.52536 21.8663 8.9068 22.2477L10.1694 23.5104L13.3853 20.2945C13.7667 19.9131 14.3847 19.9131 14.7662 20.2945C15.1476 20.676 15.1476 21.294 14.7662 21.6755ZM14.7662 15.8161L10.8599 19.7223C10.4785 20.1038 9.86045 20.1038 9.479 19.7223L7.52588 17.7692C7.14437 17.3878 7.14437 16.7698 7.52588 16.3883C7.90732 16.0069 8.52536 16.0069 8.9068 16.3883L10.1694 17.651L13.3853 14.4352C13.7667 14.0537 14.3847 14.0537 14.7662 14.4352C15.1476 14.8166 15.1476 15.4346 14.7662 15.8161ZM14.7662 9.95671L10.8599 13.863C10.4785 14.2444 9.86045 14.2444 9.479 13.863L7.52588 11.9098C7.14437 11.5284 7.14437 10.9104 7.52588 10.529C7.90732 10.1475 8.52536 10.1475 8.9068 10.529L10.1694 11.7916L13.3853 8.57578C13.7667 8.19434 14.3847 8.19434 14.7662 8.57578C15.1476 8.95723 15.1476 9.57526 14.7662 9.95671ZM31.784 23.9147H17.9819C17.4422 23.9147 17.0054 23.4779 17.0054 22.9382C17.0054 22.3984 17.4422 21.9616 17.9819 21.9616H31.784C32.3238 21.9616 32.7606 22.3984 32.7606 22.9382C32.7606 23.4779 32.3238 23.9147 31.784 23.9147ZM31.784 18.0553H17.9819C17.4422 18.0553 17.0054 17.6186 17.0054 17.0788C17.0054 16.539 17.4422 16.1022 17.9819 16.1022H31.784C32.3238 16.1022 32.7606 16.539 32.7606 17.0788C32.7606 17.6186 32.3238 18.0553 31.784 18.0553ZM31.784 12.196H17.9819C17.4422 12.196 17.0054 11.7592 17.0054 11.2194C17.0054 10.6796 17.4422 10.2428 17.9819 10.2428H31.784C32.3238 10.2428 32.7606 10.6796 32.7606 11.2194C32.7606 11.7592 32.3238 12.196 31.784 12.196Z" fill="#0C46CC"/>
<path d="M26.8357 33.7441H13.1638C11.0095 33.7441 9.25757 35.496 9.25757 37.6504H30.7419C30.7419 35.496 28.9901 33.7441 26.8357 33.7441Z" fill="#0C46CC"/>
</svg>
