<svg width="40" height="41" viewBox="0 0 40 41" fill="none" xmlns="http://www.w3.org/2000/svg">
<g clip-path="url(#clip0_611_10021)">
<path d="M2.34375 4.50195C2.34375 6.44043 3.9209 8.01758 5.85937 8.01758C7.79785 8.01758 9.375 6.44043 9.375 4.50195C9.375 2.56348 7.79785 0.986328 5.85937 0.986328C3.9209 0.986328 2.34375 2.56348 2.34375 4.50195Z" fill="#E62A42"/>
<path d="M38.8281 0.986328H15.2344C14.5868 0.986328 14.0625 1.51062 14.0625 2.1582V8.01758H18.75C20.7242 8.01758 22.4088 9.24744 23.0984 10.9784L33.5382 5.79742C34.1187 5.51147 34.8199 5.74249 35.1108 6.32141C35.4004 6.90063 35.1657 7.60437 34.5868 7.89398L23.3603 13.468C22.9935 15.6894 21.0739 17.3926 18.75 17.3926H14.0625V19.2415C14.0625 19.8891 14.5868 20.4134 15.2344 20.4134H38.8281C39.4757 20.4134 40 19.8891 40 19.2415V2.1582C40 1.51062 39.4757 0.986328 38.8281 0.986328Z" fill="#E62A42"/>
<path d="M11.7188 29.1895C11.7188 27.8973 10.6671 26.8457 9.375 26.8457C8.08289 26.8457 7.03125 27.8973 7.03125 29.1895C7.03125 30.4816 8.08289 31.5332 9.375 31.5332C10.6671 31.5332 11.7188 30.4816 11.7188 29.1895Z" fill="#E62A42"/>
<path d="M14.0625 38.5645C14.0625 35.9793 11.9601 33.877 9.375 33.877C6.78986 33.877 4.6875 35.9793 4.6875 38.5645V40.9863H14.0625V38.5645Z" fill="#E62A42"/>
<path d="M1.17188 40.9863H2.34375V38.5645C2.34375 35.9149 3.83392 33.631 6.00403 32.4326C5.19287 31.5897 4.6875 30.4495 4.6875 29.1895C4.6875 26.6043 6.78986 24.502 9.375 24.502V15.0488H18.75C20.0421 15.0488 21.0938 13.9972 21.0938 12.7051C21.0938 11.413 20.0421 10.3613 18.75 10.3613H4.6875C2.09869 10.3613 0 12.46 0 15.0488V39.7363C0 40.3836 0.524597 40.9863 1.17188 40.9863Z" fill="#E62A42"/>
<path fill-rule="evenodd" clip-rule="evenodd" d="M20 31.821C20 26.7584 24.1041 22.6543 29.1667 22.6543C34.2293 22.6543 38.3333 26.7584 38.3333 31.821C38.3333 36.8836 34.2293 40.9876 29.1667 40.9876C24.1041 40.9876 20 36.8836 20 31.821ZM29.1667 27.5574C29.1667 27.0865 28.7849 26.7047 28.314 26.7047C27.843 26.7047 27.4612 27.0865 27.4612 27.5574V33.014C27.4612 33.4416 27.675 33.841 28.0308 34.0782L32.1045 36.794C32.4964 37.0553 33.0258 36.9494 33.287 36.5575C33.5483 36.1657 33.4424 35.6363 33.0505 35.375L29.1667 32.7858V27.5574Z" fill="#E62A42"/>
</g>
<defs>
<clipPath id="clip0_611_10021">
<rect width="40" height="40" fill="white" transform="translate(0 0.986328)"/>
</clipPath>
</defs>
</svg>
