<svg width="40" height="41" viewBox="0 0 40 41" fill="none" xmlns="http://www.w3.org/2000/svg">
<path d="M37.9273 21.896C36.6126 20.3477 34.7484 19.37 32.7273 19.1687C32.7273 15.6232 31.4909 12.6232 29.0182 10.1505C26.5455 7.67777 23.5455 6.44141 20 6.44141C17.1273 6.44141 14.5455 7.29595 12.2727 9.04141C10 10.7869 8.49091 13.0232 7.72727 15.805C5.45455 16.3141 3.56364 17.496 2.12727 19.3505C0.690909 21.205 0 23.3141 0 25.6778C0 28.4232 0.981818 30.7687 2.92727 32.6778C4.89091 34.6232 7.27273 35.5323 10 35.5323H31.8182C34.0909 35.5323 36.0182 34.7323 37.6182 33.1505C39.2 31.5505 40 29.6232 40 27.3505C40 25.2596 39.3091 23.4414 37.9273 21.896ZM27.2727 22.805H20L23.2182 19.5869C22.5633 18.9318 21.724 18.4924 20.8125 18.3275C19.901 18.1627 18.9609 18.2802 18.118 18.6644C17.2752 19.0487 16.5699 19.6812 16.0965 20.4774C15.6231 21.2735 15.4042 22.1953 15.4692 23.1193C15.5342 24.0433 15.88 24.9254 16.4601 25.6475C17.0403 26.3695 17.8272 26.8971 18.7156 27.1596C19.6039 27.422 20.5512 27.4068 21.4306 27.116C22.3101 26.8252 23.0797 26.2726 23.6364 25.5323H26.7455C26.2038 26.8771 25.2718 28.0289 24.0695 28.839C22.8672 29.6492 21.4498 30.0807 20 30.0778C15.9818 30.0778 12.7273 26.8232 12.7273 22.805C12.7273 18.7869 15.9818 15.5323 20 15.5323C22.0182 15.5323 23.8364 16.3505 25.1455 17.6596L27.2727 15.5323V22.805Z" fill="#0067E5"/>
</svg>
