<svg width="40" height="41" viewBox="0 0 40 41" fill="none" xmlns="http://www.w3.org/2000/svg">
<path fill-rule="evenodd" clip-rule="evenodd" d="M0 9.31966C0 4.71729 3.73096 0.986328 8.33333 0.986328H31.6667C36.269 0.986328 40 4.71729 40 9.31966V32.653C40 37.2554 36.269 40.9863 31.6667 40.9863H8.33333C3.73096 40.9863 0 37.2554 0 32.653V9.31966ZM34.4889 21.943C35.0172 21.3049 34.9283 20.3593 34.2902 19.831C33.6521 19.3026 32.7065 19.3916 32.1782 20.0297L24.8155 28.9219C24.7591 28.99 24.6595 29.0023 24.5884 28.9499L17.3762 23.6485C16.0209 22.6522 14.123 22.8895 13.0547 24.1888L5.50823 33.367C4.98209 34.0069 5.07432 34.9522 5.71422 35.4783C6.35412 36.0044 7.29938 35.9122 7.82552 35.2723L15.372 26.0941C15.4282 26.0257 15.5281 26.0132 15.5994 26.0657L22.8115 31.3671C24.1635 32.361 26.0561 32.1276 27.1262 30.8352L34.4889 21.943ZM7.62127 19.6757C7.82471 19.755 8.03637 19.7926 8.24434 19.7926C8.85591 19.7926 9.43788 19.4687 9.69516 18.9277L10.1074 18.0598H15.3501L15.7866 18.9456C16.1421 19.6664 17.075 19.99 17.8712 19.6679C18.6673 19.3458 19.024 18.5002 18.6689 17.7794L14.0945 8.49978C13.8388 7.98147 13.2671 7.64748 12.6424 7.65306C12.0161 7.65716 11.4514 7.99637 11.2035 8.51765L6.79557 17.7972C6.45115 18.5226 6.82064 19.3637 7.62127 19.6757ZM12.6802 12.6436L13.9404 15.2001H11.4657L12.6802 12.6436ZM21.5088 13.6217H20.4393C19.5373 13.6217 18.8063 12.8903 18.8063 11.9884C18.8063 11.0869 19.5373 10.3554 20.4393 10.3554H21.5088V9.28594C21.5088 8.38399 22.2402 7.65299 23.1417 7.65299C24.0436 7.65299 24.7746 8.38399 24.7746 9.28594V10.3559H25.8446C26.7465 10.3559 27.4775 11.0869 27.4775 11.9888C27.4775 12.8903 26.7465 13.6217 25.8446 13.6217H24.7746V14.6912C24.7746 15.5932 24.0436 16.3242 23.1417 16.3242C22.2402 16.3242 21.5088 15.5932 21.5088 14.6912V13.6217Z" fill="#0067E5"/>
</svg>
