<svg width="40" height="41" viewBox="0 0 40 41" fill="none" xmlns="http://www.w3.org/2000/svg">
<path d="M12.4988 2.23828C11.4709 2.23828 10.6262 3.08405 10.6262 4.11201V4.73457H25.0025C26.7193 4.73457 28.1262 6.15008 28.1262 7.86322V14.7419H30.6262V4.11201C30.6262 3.08405 29.7767 2.23828 28.7488 2.23828H12.4988ZM8.74758 5.98459C7.71964 5.98459 6.87503 6.83529 6.87503 7.86322V14.7419H9.37381V12.8303C9.37381 12.5332 9.63211 12.2346 10.0183 12.2346C11.7185 12.2098 13.0665 10.8835 13.1201 9.21337C13.1063 8.74424 13.3991 8.48823 13.7476 8.48823H19.9988C20.3547 8.48866 20.6384 8.78575 20.6226 9.14136C20.6384 10.8066 21.9387 12.1452 23.5865 12.2273C24.0046 12.2273 24.3927 12.4389 24.3726 12.862V14.7419H26.875V7.86322C26.875 6.83529 26.0304 5.98459 25.0025 5.98459H8.74758ZM5.00247 9.7358C2.93946 9.7358 1.25725 11.4144 1.25125 13.4761C1.25121 13.48 1.25121 13.4839 1.25125 13.4879V35.9891C1.25125 38.0558 2.93577 39.7391 5.00247 39.7391H35C36.028 39.7391 36.8726 38.8896 36.8726 37.8616V33.4878H28.1262C25.0361 33.4878 22.5025 30.9542 22.5025 27.864C22.5025 24.7739 25.0361 22.2403 28.1262 22.2403H36.8726V17.8616C36.8726 16.8336 36.028 15.9878 35 15.9878H5.00247C3.60665 15.9878 2.50125 14.8837 2.50125 13.4879C2.50125 12.0921 3.60665 10.9866 5.00247 10.9866H5.62503V9.73659L5.00247 9.7358ZM31.875 9.7358V10.9858H32.4988C32.8559 10.9858 33.1252 11.2564 33.1275 11.6181V14.737H34.3775V11.6133C34.3775 11.6117 34.3775 11.6101 34.3775 11.6085C34.3711 10.5853 33.5268 9.73595 32.4988 9.73595L31.875 9.7358ZM14.3274 9.74056C14.0504 11.6477 12.5311 13.1688 10.6238 13.4453V14.743H23.1226V13.4441C21.2136 13.1691 19.6925 11.6489 19.4153 9.74056H14.3274ZM28.1262 23.4906C25.7133 23.4906 23.7525 25.4514 23.7525 27.8643C23.7525 30.2772 25.7133 32.2381 28.1262 32.2381H36.8726C37.9005 32.2381 38.7512 31.3922 38.7512 30.3643V25.363C38.7512 24.335 37.9005 23.4904 36.8726 23.4904L28.1262 23.4906ZM28.1262 25.9856C29.1542 25.9856 29.9988 26.8364 29.9988 27.8643C29.9988 28.8923 29.1542 29.7368 28.1262 29.7368C27.0983 29.7368 26.2476 28.8923 26.2476 27.8643C26.2476 26.8364 27.0983 25.9856 28.1262 25.9856Z" fill="#F16920"/>
</svg>
