<svg width="40" height="41" viewBox="0 0 40 41" fill="none" xmlns="http://www.w3.org/2000/svg">
<g clip-path="url(#clip0_611_10031)">
<path d="M39.2969 35.6307H37.0249V15.5555C37.0249 13.4952 35.3504 11.8206 33.2899 11.8206H30.1526V4.46906C30.1526 2.59539 28.6275 1.07031 26.7476 1.07031H13.2521C11.3784 1.07031 9.85337 2.59539 9.85337 4.46906V11.8206H6.71603C4.65564 11.8206 2.9811 13.4951 2.9811 15.5555V35.6307H0.702822C0.360479 35.6307 0.0803223 35.9046 0.0803223 36.2532C0.0803223 38.8178 2.17189 40.9094 4.73657 40.9094H35.2695C37.8341 40.9094 39.9194 38.8178 39.9194 36.2532C39.9194 35.9046 39.6455 35.6307 39.2969 35.6307ZM11.0983 4.46906C11.0983 3.28008 12.0631 2.31523 13.2521 2.31523H26.7476C27.9427 2.31523 28.9076 3.28008 28.9076 4.46906V26.0444C28.9076 27.2334 27.9427 28.2045 26.7476 28.2045H13.2521C12.0631 28.2045 11.0983 27.2334 11.0983 26.0444V4.46906ZM4.2261 15.5555C4.2261 14.1798 5.34032 13.0656 6.71603 13.0656H9.85337V14.933H6.71603C6.37368 14.933 6.09353 15.2132 6.09353 15.5555V33.1408C6.09353 33.4831 6.37368 33.7633 6.71603 33.7633H33.2899C33.6323 33.7633 33.9124 33.4831 33.9124 33.1408V15.5555C33.9124 15.2132 33.6323 14.933 33.2899 14.933H30.1526V13.0656H33.2899C34.6656 13.0656 35.7799 14.1798 35.7799 15.5555V35.6307H4.2261V15.5555ZM35.2695 39.6644H4.73649C3.06821 39.6644 1.68009 38.4567 1.38751 36.8756H38.6184C38.3259 38.4568 36.9377 39.6644 35.2695 39.6644Z" fill="#0C46CC"/>
<path d="M17.6034 6.77781C17.6034 7.9357 16.6572 8.87562 15.4994 8.87562C14.3416 8.87562 13.4016 7.9357 13.4016 6.77781C13.4016 5.61375 14.3415 4.67383 15.4994 4.67383C16.6573 4.67383 17.6034 5.61375 17.6034 6.77781Z" fill="#0C46CC"/>
<path d="M19.2751 7.3993H25.9826C26.3267 7.3993 26.6051 7.12086 26.6051 6.7768C26.6051 6.43273 26.3267 6.1543 25.9826 6.1543H19.2751C18.931 6.1543 18.6526 6.43273 18.6526 6.7768C18.6526 7.12086 18.931 7.3993 19.2751 7.3993V7.3993Z" fill="#0C46CC"/>
<path d="M17.6034 12.4364C17.6034 13.588 16.6572 14.5342 15.4994 14.5342C14.3416 14.5342 13.4016 13.588 13.4016 12.4364C13.4016 11.2723 14.3415 10.3262 15.4994 10.3262C16.6573 10.3262 17.6034 11.2724 17.6034 12.4364Z" fill="#0C46CC"/>
<path d="M19.2751 13.0536H25.9826C26.3267 13.0536 26.6051 12.7752 26.6051 12.4311C26.6051 12.087 26.3267 11.8086 25.9826 11.8086H19.2751C18.931 11.8086 18.6526 12.087 18.6526 12.4311C18.6526 12.7752 18.931 13.0536 19.2751 13.0536V13.0536Z" fill="#0C46CC"/>
<path d="M17.6034 18.0884C17.6034 19.2462 16.6572 20.1862 15.4994 20.1862C14.3416 20.1862 13.4016 19.2462 13.4016 18.0884C13.4016 16.9305 14.3415 15.9844 15.4994 15.9844C16.6573 15.9844 17.6034 16.9305 17.6034 18.0884Z" fill="#0C46CC"/>
<path d="M19.2751 18.7079H25.9826C26.3267 18.7079 26.6051 18.4295 26.6051 18.0854C26.6051 17.7413 26.3267 17.4629 25.9826 17.4629H19.2751C18.931 17.4629 18.6526 17.7413 18.6526 18.0854C18.6526 18.4295 18.931 18.7079 19.2751 18.7079V18.7079Z" fill="#0C46CC"/>
<path d="M17.6034 23.747C17.6034 24.8986 16.6572 25.8448 15.4994 25.8448C14.3416 25.8448 13.4016 24.8986 13.4016 23.747C13.4016 22.5829 14.3415 21.6367 15.4994 21.6367C16.6573 21.6367 17.6034 22.583 17.6034 23.747Z" fill="#0C46CC"/>
<path d="M19.2751 24.3641H25.9826C26.3267 24.3641 26.6051 24.0857 26.6051 23.7416C26.6051 23.3976 26.3267 23.1191 25.9826 23.1191H19.2751C18.931 23.1191 18.6526 23.3976 18.6526 23.7416C18.6526 24.0857 18.931 24.3641 19.2751 24.3641V24.3641Z" fill="#0C46CC"/>
</g>
<defs>
<clipPath id="clip0_611_10031">
<rect width="40" height="40" fill="white" transform="translate(0 0.986328)"/>
</clipPath>
</defs>
</svg>
