<svg width="40" height="41" viewBox="0 0 40 41" fill="none" xmlns="http://www.w3.org/2000/svg">
<path fill-rule="evenodd" clip-rule="evenodd" d="M11.4382 2.6543H28.5597C34.7948 2.6543 38.3148 6.1908 38.3332 12.426V29.5493C38.3332 35.7826 34.7948 39.321 28.5597 39.321H11.4382C5.203 39.321 1.6665 35.7826 1.6665 29.5493V12.426C1.6665 6.1908 5.203 2.6543 11.4382 2.6543ZM20.0894 31.7304C20.8796 31.7304 21.5377 31.1438 21.6111 30.3554V11.6738C21.6844 11.1054 21.4112 10.5353 20.9162 10.2254C20.4011 9.91377 19.7777 9.91377 19.2846 10.2254C18.7877 10.5353 18.5146 11.1054 18.5677 11.6738V30.3554C18.6612 31.1438 19.3194 31.7304 20.0894 31.7304ZM28.5246 31.7318C29.2946 31.7318 29.9528 31.1451 30.0463 30.3568V24.3435C30.0994 23.755 29.8263 23.2068 29.3294 22.8951C28.8363 22.5835 28.2129 22.5835 27.6996 22.8951C27.2028 23.2068 26.9296 23.755 27.0029 24.3435V30.3568C27.0763 31.1451 27.7344 31.7318 28.5246 31.7318ZM13.0679 30.3557C12.9945 31.1441 12.3364 31.7307 11.5462 31.7307C10.7579 31.7307 10.0979 31.1441 10.0264 30.3557V17.6874C9.97135 17.1172 10.2445 16.5507 10.7414 16.2391C11.2345 15.9274 11.8597 15.9274 12.3547 16.2391C12.8479 16.5507 13.1247 17.1172 13.0679 17.6874V30.3557Z" fill="#0067E5"/>
</svg>
