<svg width="40" height="41" viewBox="0 0 40 41" fill="none" xmlns="http://www.w3.org/2000/svg">
<path fill-rule="evenodd" clip-rule="evenodd" d="M19.9999 37.6536C29.2047 37.6536 36.6666 30.1917 36.6666 20.987C36.6666 11.7822 29.2047 4.32031 19.9999 4.32031C10.7952 4.32031 3.33325 11.7822 3.33325 20.987C3.33325 30.1917 10.7952 37.6536 19.9999 37.6536ZM20.5033 12.0125C20.5033 11.0263 19.7038 10.2268 18.7176 10.2268C17.7314 10.2268 16.9319 11.0263 16.9319 12.0125V22.6469C16.9319 23.3578 17.3049 24.0166 17.9145 24.3823L25.4912 28.9283C26.3368 29.4357 27.4337 29.1615 27.9411 28.3158C28.4486 27.4702 28.1743 26.3733 27.3286 25.8659L20.5033 21.7707V12.0125Z" fill="#E62A42"/>
</svg>
