<svg width="40" height="41" viewBox="0 0 40 41" fill="none" xmlns="http://www.w3.org/2000/svg">
<path d="M33.678 10.5025L26.3213 3.14583C26.1799 3.00634 26.0145 2.89343 25.833 2.8125V8.49083C25.833 9.15387 26.0964 9.78976 26.5652 10.2586C27.0341 10.7274 27.67 10.9908 28.333 10.9908H34.0113C33.9304 10.8094 33.8175 10.644 33.678 10.5025V10.5025Z" fill="#0C46CC"/>
<path d="M13.333 9.51953L12.8755 10.4337H13.7905L13.333 9.51953Z" fill="#0067E5"/>
<path d="M28.333 12.6563C27.2283 12.6549 26.1693 12.2155 25.3882 11.4344C24.6071 10.6533 24.1677 9.59425 24.1663 8.48958V2.65625H9.99967C8.89461 2.65625 7.8348 3.09524 7.0534 3.87664C6.27199 4.65804 5.83301 5.71785 5.83301 6.82292V35.1563C5.83301 36.2613 6.27199 37.3211 7.0534 38.1025C7.8348 38.8839 8.89461 39.3229 9.99967 39.3229H29.9997C30.5468 39.3229 31.0887 39.2151 31.5942 39.0057C32.0997 38.7964 32.559 38.4894 32.946 38.1025C33.3329 37.7156 33.6398 37.2563 33.8492 36.7508C34.0586 36.2452 34.1663 35.7034 34.1663 35.1563V12.6563H28.333ZM17.083 8.90625H17.4997V8.48958C17.4997 8.26857 17.5875 8.05661 17.7438 7.90033C17.9 7.74405 18.112 7.65625 18.333 7.65625C18.554 7.65625 18.766 7.74405 18.9223 7.90033C19.0785 8.05661 19.1663 8.26857 19.1663 8.48958V8.90625H19.583C19.804 8.90625 20.016 8.99405 20.1723 9.15033C20.3285 9.30661 20.4163 9.51857 20.4163 9.73958C20.4163 9.9606 20.3285 10.1726 20.1723 10.3288C20.016 10.4851 19.804 10.5729 19.583 10.5729H19.1663V10.9896C19.1663 11.2106 19.0785 11.4226 18.9223 11.5788C18.766 11.7351 18.554 11.8229 18.333 11.8229C18.112 11.8229 17.9 11.7351 17.7438 11.5788C17.5875 11.4226 17.4997 11.2106 17.4997 10.9896V10.5729H17.083C16.862 10.5729 16.65 10.4851 16.4938 10.3288C16.3375 10.1726 16.2497 9.9606 16.2497 9.73958C16.2497 9.51857 16.3375 9.30661 16.4938 9.15033C16.65 8.99405 16.862 8.90625 17.083 8.90625ZM10.4605 13.4063C10.3625 13.3574 10.2751 13.2897 10.2034 13.207C10.1316 13.1243 10.0768 13.0283 10.0421 12.9244C10.0074 12.8206 9.99356 12.7109 10.0013 12.6017C10.009 12.4925 10.0382 12.3859 10.0872 12.2879L12.5872 7.28792C12.6642 7.15877 12.7734 7.05183 12.9041 6.97757C13.0349 6.9033 13.1826 6.86426 13.333 6.86426C13.4834 6.86426 13.6311 6.9033 13.7619 6.97757C13.8926 7.05183 14.0018 7.15877 14.0788 7.28792L16.5788 12.2879C16.6776 12.4857 16.6938 12.7147 16.6238 12.9244C16.5538 13.1341 16.4033 13.3075 16.2055 13.4063C16.0077 13.505 15.7787 13.5212 15.569 13.4512C15.3593 13.3812 15.186 13.2307 15.0872 13.0329L14.6238 12.1046H12.0405L11.583 13.0288C11.5345 13.1276 11.4669 13.2159 11.3841 13.2885C11.3012 13.361 11.2049 13.4165 11.1005 13.4516C10.9961 13.4867 10.8858 13.5008 10.776 13.493C10.6661 13.4852 10.5589 13.4557 10.4605 13.4063V13.4063ZM24.1663 34.3229H11.6663C11.4453 34.3229 11.2334 34.2351 11.0771 34.0788C10.9208 33.9226 10.833 33.7106 10.833 33.4896C10.833 33.2686 10.9208 33.0566 11.0771 32.9003C11.2334 32.744 11.4453 32.6563 11.6663 32.6563H24.1663C24.3874 32.6563 24.5993 32.744 24.7556 32.9003C24.9119 33.0566 24.9997 33.2686 24.9997 33.4896C24.9997 33.7106 24.9119 33.9226 24.7556 34.0788C24.5993 34.2351 24.3874 34.3229 24.1663 34.3229ZM28.333 30.1563H11.6663C11.4453 30.1563 11.2334 30.0685 11.0771 29.9122C10.9208 29.7559 10.833 29.5439 10.833 29.3229C10.833 29.1019 10.9208 28.8899 11.0771 28.7337C11.2334 28.5774 11.4453 28.4896 11.6663 28.4896H28.333C28.554 28.4896 28.766 28.5774 28.9223 28.7337C29.0785 28.8899 29.1663 29.1019 29.1663 29.3229C29.1663 29.5439 29.0785 29.7559 28.9223 29.9122C28.766 30.0685 28.554 30.1563 28.333 30.1563ZM28.333 25.9896H11.6663C11.4453 25.9896 11.2334 25.9018 11.0771 25.7455C10.9208 25.5892 10.833 25.3773 10.833 25.1563C10.833 24.9352 10.9208 24.7233 11.0771 24.567C11.2334 24.4107 11.4453 24.3229 11.6663 24.3229H28.333C28.554 24.3229 28.766 24.4107 28.9223 24.567C29.0785 24.7233 29.1663 24.9352 29.1663 25.1563C29.1663 25.3773 29.0785 25.5892 28.9223 25.7455C28.766 25.9018 28.554 25.9896 28.333 25.9896ZM28.333 21.8229H11.6663C11.4453 21.8229 11.2334 21.7351 11.0771 21.5788C10.9208 21.4226 10.833 21.2106 10.833 20.9896C10.833 20.7686 10.9208 20.5566 11.0771 20.4003C11.2334 20.244 11.4453 20.1563 11.6663 20.1563H28.333C28.554 20.1563 28.766 20.244 28.9223 20.4003C29.0785 20.5566 29.1663 20.7686 29.1663 20.9896C29.1663 21.2106 29.0785 21.4226 28.9223 21.5788C28.766 21.7351 28.554 21.8229 28.333 21.8229ZM28.333 17.6563H14.1663C13.9453 17.6563 13.7334 17.5685 13.5771 17.4122C13.4208 17.2559 13.333 17.0439 13.333 16.8229C13.333 16.6019 13.4208 16.3899 13.5771 16.2337C13.7334 16.0774 13.9453 15.9896 14.1663 15.9896H28.333C28.554 15.9896 28.766 16.0774 28.9223 16.2337C29.0785 16.3899 29.1663 16.6019 29.1663 16.8229C29.1663 17.0439 29.0785 17.2559 28.9223 17.4122C28.766 17.5685 28.554 17.6563 28.333 17.6563Z" fill="#0067E5"/>
</svg>
