<svg width="40" height="41" viewBox="0 0 40 41" fill="none" xmlns="http://www.w3.org/2000/svg">
<path fill-rule="evenodd" clip-rule="evenodd" d="M0 6.78633C0 3.58308 2.59675 0.986328 5.8 0.986328H34.2C37.4033 0.986328 40 3.58308 40 6.78633V35.1863C40 38.3896 37.4033 40.9863 34.2 40.9863H5.8C2.59675 40.9863 0 38.3896 0 35.1863V6.78633ZM19.7574 15.387C22.8137 15.387 25.2912 12.9095 25.2912 9.85325C25.2912 6.79703 22.8137 4.31948 19.7574 4.31948C16.7012 4.31948 14.2237 6.79703 14.2237 9.85325C14.2237 12.9095 16.7012 15.387 19.7574 15.387ZM19.7578 17.3398C21.2559 17.3398 22.6524 16.8972 23.8241 16.1363C25.1193 16.6312 26.3202 17.3616 27.3644 18.2988L19.7578 21.1513L12.1512 18.2988C13.1954 17.3616 14.3963 16.6313 15.6915 16.1363C16.8632 16.8972 18.2597 17.3398 19.7578 17.3398ZM31.4762 24.5013H30.8251C30.2858 24.5013 29.8486 24.9386 29.8486 25.4779V28.082C29.8486 28.6213 30.2858 29.0586 30.8251 29.0586H31.4762C32.7346 29.0586 33.7548 28.0384 33.7548 26.78C33.7548 25.5215 32.7346 24.5013 31.4762 24.5013ZM8.3644 20.3755C8.3644 20.0552 8.52143 19.7553 8.7847 19.5728C9.04792 19.3903 9.38391 19.3485 9.68384 19.4611L18.7809 22.8725V37.6535L8.99805 33.985C8.61693 33.8421 8.3644 33.4777 8.3644 33.0706V31.013H8.68991C10.3053 31.013 11.6196 29.6988 11.6196 28.0834V25.4792C11.6196 23.8638 10.3053 22.5496 8.68991 22.5496H8.3644V20.3755ZM27.8955 28.0834V25.4792C27.8955 23.8638 29.2097 22.5496 30.8251 22.5496H31.1506V20.3755C31.1506 20.0552 30.9936 19.7553 30.7303 19.5728C30.467 19.3903 30.131 19.3485 29.8312 19.4611L20.7341 22.8725V37.6535L30.517 33.985C30.8981 33.8421 31.1506 33.4777 31.1506 33.0706V31.013H30.8251C29.2097 31.013 27.8955 29.6988 27.8955 28.0834ZM9.66654 25.4779V28.082C9.66654 28.6213 9.22931 29.0586 8.68999 29.0586H8.03896C6.78051 29.0586 5.76034 28.0384 5.76034 26.78C5.76034 25.5215 6.78051 24.5013 8.03896 24.5013H8.68999C9.22931 24.5013 9.66654 24.9386 9.66654 25.4779Z" fill="#E62A42"/>
</svg>
