<svg width="40" height="41" viewBox="0 0 40 41" fill="none" xmlns="http://www.w3.org/2000/svg">
<path d="M7.49878 0.986328C5.50966 0.986328 3.602 1.7765 2.19548 3.18303C0.788956 4.58955 -0.0012207 6.4972 -0.0012207 8.48633V28.4863C-0.0012207 30.4755 0.788956 32.3831 2.19548 33.7896C3.602 35.1962 5.50966 35.9863 7.49878 35.9863H15.1263C15.0412 35.5751 14.9984 35.1563 14.9988 34.7363V33.4863H7.49878C6.1727 33.4863 4.90093 32.9595 3.96324 32.0219C3.02556 31.0842 2.49878 29.8124 2.49878 28.4863V8.48633C2.49878 7.16025 3.02556 5.88848 3.96324 4.95079C4.90093 4.01311 6.1727 3.48633 7.49878 3.48633H27.4988C28.8249 3.48633 30.0966 4.01311 31.0343 4.95079C31.972 5.88848 32.4988 7.16025 32.4988 8.48633V11.3013C33.3663 11.4513 34.2038 11.6513 34.9988 11.8988V8.48633C34.9988 6.4972 34.2086 4.58955 32.8021 3.18303C31.3956 1.7765 29.4879 0.986328 27.4988 0.986328H7.49878ZM34.9988 14.5388C34.1856 14.2393 33.3495 14.0061 32.4988 13.8413C31.2631 13.6024 30.0073 13.4835 28.7488 13.4863C22.5363 13.4863 17.4988 16.2863 17.4988 19.7363C17.4988 23.1863 22.5363 25.9863 28.7488 25.9863C34.9613 25.9863 39.9988 23.1863 39.9988 19.7363C39.9988 17.5688 38.0138 15.6613 34.9988 14.5388ZM14.9988 21.6113C14.8345 21.6108 14.6717 21.6427 14.5198 21.7054C14.3679 21.768 14.2299 21.8601 14.1138 21.9763L10.5838 25.5063L9.59128 24.6013C9.34468 24.3905 9.02579 24.2839 8.702 24.3039C8.37821 24.3239 8.07488 24.469 7.85611 24.7086C7.63734 24.9481 7.52027 25.2633 7.52963 25.5876C7.53899 25.9119 7.67406 26.2198 7.90628 26.4463L9.78128 28.1588C10.0185 28.3755 10.3301 28.4924 10.6513 28.4854C10.9725 28.4784 11.2787 28.3481 11.5063 28.1213L14.9988 24.6288V21.6113ZM15.8838 11.2463C16.1185 11.0116 16.2504 10.6933 16.2504 10.3613C16.2504 10.0294 16.1185 9.71104 15.8838 9.47633C15.6491 9.24161 15.3307 9.10975 14.9988 9.10975C14.6668 9.10975 14.3485 9.24161 14.1138 9.47633L10.5838 13.0063L9.59128 12.1013C9.34468 11.8905 9.02579 11.7839 8.702 11.8039C8.37821 11.8239 8.07488 11.969 7.85611 12.2086C7.63734 12.4481 7.52027 12.7633 7.52963 13.0876C7.53899 13.4119 7.67406 13.7198 7.90628 13.9463L9.78128 15.6588C10.0189 15.8751 10.3306 15.9916 10.6518 15.9842C10.973 15.9767 11.279 15.8459 11.5063 15.6188L15.8813 11.2438L15.8838 11.2463ZM28.7488 28.4863C32.1988 28.4863 35.4438 27.7138 37.9188 26.3413C38.6513 25.9338 39.3638 25.4413 40.0013 24.8663L39.9988 34.7363C39.9988 38.1888 34.9613 40.9863 28.7488 40.9863C22.5363 40.9863 17.4988 38.1863 17.4988 34.7363V24.8738C18.1363 25.4488 18.8488 25.9363 19.5788 26.3438C22.0538 27.7188 25.2988 28.4888 28.7488 28.4888V28.4863Z" fill="#F16920"/>
</svg>
