<svg width="40" height="41" viewBox="0 0 40 41" fill="none" xmlns="http://www.w3.org/2000/svg">
<path fill-rule="evenodd" clip-rule="evenodd" d="M17.6245 5.44135C16.3956 5.44135 15.35 6.29535 15.0566 7.4464H24.9248C24.6313 6.29535 23.5858 5.44135 22.3569 5.44135H17.6245ZM27.7129 7.4461H31.3447C35.1966 7.4461 38.3332 10.6208 38.3332 14.5195C38.3332 14.5195 38.2231 16.1699 38.1864 18.4683C38.1828 18.6503 38.0947 18.8285 37.9498 18.9362C37.0675 19.5878 36.2605 20.1262 36.1871 20.1633C33.1422 22.2055 29.604 23.6425 25.8346 24.3572C25.5888 24.4055 25.3467 24.2774 25.2219 24.0583C24.1654 22.2278 22.1918 21.0359 19.9907 21.0359C17.8042 21.0359 15.8122 22.2148 14.7245 24.0472C14.598 24.2626 14.3595 24.3869 14.1156 24.3405C10.3774 23.6239 6.83909 22.1888 3.81258 20.1819L2.0517 18.9566C1.90496 18.8638 1.81324 18.6967 1.81324 18.511C1.75822 17.5642 1.6665 14.5195 1.6665 14.5195C1.6665 10.6208 4.80307 7.4461 8.655 7.4461H12.2685C12.617 4.75413 14.8731 2.65625 17.6245 2.65625H22.3568C25.1082 2.65625 27.3644 4.75413 27.7129 7.4461ZM37.71 22.4835L37.6366 22.5206C33.9315 25.0084 29.4742 26.6607 24.7969 27.3476C24.1366 27.4404 23.4762 27.0134 23.2928 26.3451C22.8893 24.8227 21.587 23.8202 20.0278 23.8202H20.0095H19.9728C18.4137 23.8202 17.1114 24.8227 16.7079 26.3451C16.5244 27.0134 15.8641 27.4404 15.2038 27.3476C10.5264 26.6607 6.0692 25.0084 2.36402 22.5206C2.34567 22.502 2.16225 22.3906 2.01551 22.4835C1.85043 22.5763 1.85043 22.7991 1.85043 22.7991L1.97882 32.2674C1.97882 36.1661 5.09705 39.3222 8.94897 39.3222H31.0333C34.8853 39.3222 38.0035 36.1661 38.0035 32.2674L38.1502 22.7991C38.1502 22.7991 38.1502 22.5763 37.9852 22.4835C37.8934 22.4278 37.7834 22.4463 37.71 22.4835ZM21.3668 30.2623C21.3668 31.042 20.7615 31.6547 19.9911 31.6547C19.2391 31.6547 18.6154 31.042 18.6154 30.2623V27.8673C18.6154 27.1062 19.2391 26.4749 19.9911 26.4749C20.7615 26.4749 21.3668 27.1062 21.3668 27.8673V30.2623Z" fill="#0067E5"/>
</svg>
