<svg width="40" height="41" viewBox="0 0 40 41" fill="none" xmlns="http://www.w3.org/2000/svg">
<path d="M2.14546 3.94799V17.5031V17.3817V38.0221V3.94799ZM8.58185 20.985H14.5677C14.7965 20.5776 15.0397 20.2034 15.2972 19.8627C15.5546 19.522 15.8264 19.1862 16.1124 18.8554H8.58185C8.2772 18.8554 8.0226 18.9576 7.81807 19.1621C7.6121 19.3665 7.50912 19.6199 7.50912 19.9223C7.50912 20.2247 7.6121 20.4775 7.81807 20.6805C8.02403 20.8835 8.27863 20.985 8.58185 20.985ZM8.58185 29.5035H12.8277C12.7748 29.1486 12.7419 28.7937 12.729 28.4387C12.7147 28.0838 12.7197 27.7288 12.744 27.3739H8.58185C8.2772 27.3739 8.0226 27.4761 7.81807 27.6806C7.6121 27.885 7.50912 28.1384 7.50912 28.4409C7.50912 28.7433 7.6121 28.996 7.81807 29.199C8.02403 29.402 8.27863 29.5035 8.58185 29.5035ZM3.47136 40.1517C2.48016 40.1517 1.65415 39.8237 0.993349 39.1678C0.332546 38.5119 0.00143031 37.6934 0 36.7123V5.25771C0 4.27808 0.331116 3.4603 0.993349 2.80438C1.65415 2.14703 2.47801 1.81836 3.46492 1.81836H18.9423C19.4157 1.81836 19.8677 1.91064 20.2982 2.09521C20.7273 2.28262 21.0978 2.53037 21.4096 2.83845L29.0067 10.3795C29.317 10.6876 29.5659 11.0553 29.7533 11.4826C29.9407 11.9085 30.0343 12.3572 30.0343 12.8285V17.8545C29.6853 17.7508 29.3385 17.6727 28.9938 17.6202C28.6505 17.5691 28.2822 17.5293 27.8889 17.501V12.4665H21.0234C20.5371 12.4665 20.1294 12.3032 19.8005 11.9767C19.4715 11.6501 19.3077 11.2455 19.3092 10.7628V3.94799H3.46492C3.13595 3.94799 2.83344 4.08428 2.55739 4.35688C2.28277 4.63089 2.14546 4.93117 2.14546 5.25771V36.7123C2.14546 37.0389 2.28277 37.3392 2.55739 37.6132C2.83344 37.8858 3.13595 38.0221 3.46492 38.0221H14.6921C14.921 38.4295 15.1713 38.8036 15.443 39.1444C15.7134 39.4851 16.0052 39.8209 16.3184 40.1517H3.47136Z" fill="#0067E5"/>
<path d="M12.1725 26.6495L18.7414 30.2357V36.8469C18.7414 37.7886 19.5338 38.6431 20.9656 39.2543C22.3155 39.8343 24.108 40.1524 26.0098 40.1524C27.9116 40.1524 29.6986 39.8343 31.0539 39.2543C32.4912 38.6369 33.2781 37.7824 33.2781 36.8469V30.2357L35.6281 28.9509V28.7139L25.9606 26.6744L26.059 26.0632L35.8631 28.1339L35.9505 28.1526C36.0817 28.1775 36.1746 28.3085 36.1746 28.4582V28.6578L39.847 26.6557C39.9399 26.6058 40 26.4936 40 26.3751C40 26.2566 39.9399 26.1443 39.847 26.0944L26.13 18.6101C26.0535 18.5727 25.9715 18.5727 25.895 18.6101L12.178 26.0944C12.0796 26.1381 12.0195 26.2503 12.0195 26.3688C12.0195 26.4873 12.0796 26.5996 12.1725 26.6495V26.6495ZM32.7316 33.8531C32.7316 34.5018 32.0485 35.1691 30.8572 35.6806C29.5674 36.2356 27.8405 36.5412 26.0043 36.5412C24.1681 36.5412 22.4466 36.2356 21.1514 35.6806C19.9601 35.1691 19.277 34.508 19.277 33.8531V30.5289L25.8786 34.1338C25.9169 34.1525 25.9551 34.165 25.9988 34.165C26.0426 34.165 26.0808 34.1525 26.1191 34.1338L32.7316 30.5289V33.8531Z" fill="#0067E5"/>
</svg>
