<svg width="40" height="41" viewBox="0 0 40 41" fill="none" xmlns="http://www.w3.org/2000/svg">
<path d="M2.14546 3.94799V17.5031V17.3817V38.0221V3.94799ZM8.58185 20.985H14.5677C14.7965 20.5776 15.0397 20.2034 15.2972 19.8627C15.5546 19.522 15.8264 19.1862 16.1124 18.8554H8.58185C8.2772 18.8554 8.0226 18.9576 7.81807 19.1621C7.6121 19.3665 7.50912 19.6199 7.50912 19.9223C7.50912 20.2247 7.6121 20.4775 7.81807 20.6805C8.02403 20.8835 8.27863 20.985 8.58185 20.985ZM8.58185 29.5035H12.8277C12.7748 29.1486 12.7419 28.7937 12.729 28.4387C12.7147 28.0838 12.7197 27.7288 12.744 27.3739H8.58185C8.2772 27.3739 8.0226 27.4761 7.81807 27.6806C7.6121 27.885 7.50912 28.1384 7.50912 28.4409C7.50912 28.7433 7.6121 28.996 7.81807 29.199C8.02403 29.402 8.27863 29.5035 8.58185 29.5035ZM3.47136 40.1517C2.48016 40.1517 1.65415 39.8237 0.993349 39.1678C0.332546 38.5119 0.00143031 37.6934 0 36.7123V5.25771C0 4.27808 0.331116 3.4603 0.993349 2.80438C1.65415 2.14703 2.47801 1.81836 3.46492 1.81836H18.9423C19.4157 1.81836 19.8677 1.91064 20.2982 2.09521C20.7273 2.28262 21.0978 2.53037 21.4096 2.83845L29.0067 10.3795C29.317 10.6876 29.5659 11.0553 29.7533 11.4826C29.9407 11.9085 30.0343 12.3572 30.0343 12.8285V17.8545C29.6853 17.7508 29.3385 17.6727 28.9938 17.6202C28.6505 17.5691 28.2822 17.5293 27.8889 17.501V12.4665H21.0234C20.5371 12.4665 20.1294 12.3032 19.8005 11.9767C19.4715 11.6501 19.3077 11.2455 19.3092 10.7628V3.94799H3.46492C3.13595 3.94799 2.83344 4.08428 2.55739 4.35688C2.28277 4.63089 2.14546 4.93117 2.14546 5.25771V36.7123C2.14546 37.0389 2.28277 37.3392 2.55739 37.6132C2.83344 37.8858 3.13595 38.0221 3.46492 38.0221H14.6921C14.921 38.4295 15.1713 38.8036 15.443 39.1444C15.7134 39.4851 16.0052 39.8209 16.3184 40.1517H3.47136Z" fill="#0C46CC"/>
<path fill-rule="evenodd" clip-rule="evenodd" d="M27.7634 22.6516C27.0372 22.6516 26.4194 23.0927 26.246 23.6873H32.0772C31.9038 23.0927 31.286 22.6516 30.5598 22.6516H27.7634ZM33.7245 23.6872H35.8706C38.1467 23.6872 40.0002 25.3272 40.0002 27.3412C40.0002 27.3412 39.9351 28.1938 39.9135 29.3811C39.9113 29.4751 39.8593 29.5671 39.7736 29.6228C39.2523 29.9594 38.7754 30.2375 38.732 30.2567C36.9328 31.3116 34.842 32.0539 32.6146 32.4232C32.4694 32.4481 32.3263 32.3819 32.2526 32.2688C31.6283 31.3231 30.4621 30.7074 29.1614 30.7074C27.8694 30.7074 26.6923 31.3164 26.0496 32.263C25.9748 32.3743 25.8339 32.4385 25.6898 32.4145C23.4808 32.0444 21.39 31.303 19.6016 30.2663L18.5611 29.6333C18.4744 29.5854 18.4202 29.499 18.4202 29.4031C18.3877 28.914 18.3335 27.3412 18.3335 27.3412C18.3335 25.3272 20.1869 23.6872 22.4631 23.6872H24.5983C24.8042 22.2966 26.1374 21.2129 27.7632 21.2129H30.5596C32.1854 21.2129 33.5186 22.2966 33.7245 23.6872ZM39.6319 31.456L39.5885 31.4752C37.3991 32.7603 34.7653 33.6139 32.0014 33.9687C31.6112 34.0167 31.221 33.7961 31.1126 33.4508C30.8742 32.6644 30.1046 32.1465 29.1833 32.1465H29.1725H29.1508C28.2295 32.1465 27.46 32.6644 27.2215 33.4508C27.1131 33.7961 26.7229 34.0167 26.3327 33.9687C23.5688 33.6139 20.935 32.7603 18.7456 31.4752C18.7348 31.4656 18.6264 31.4081 18.5397 31.456C18.4421 31.504 18.4421 31.6191 18.4421 31.6191L18.518 36.5102C18.518 38.5242 20.3606 40.1546 22.6367 40.1546H35.6866C37.9627 40.1546 39.8053 38.5242 39.8053 36.5102L39.892 31.6191C39.892 31.6191 39.892 31.504 39.7944 31.456C39.7403 31.4272 39.6752 31.4368 39.6319 31.456ZM29.9746 35.4748C29.9746 35.8776 29.6169 36.194 29.1617 36.194C28.7173 36.194 28.3488 35.8776 28.3488 35.4748V34.2376C28.3488 33.8444 28.7173 33.5183 29.1617 33.5183C29.6169 33.5183 29.9746 33.8444 29.9746 34.2376V35.4748Z" fill="#0C46CC"/>
</svg>
