<svg width="40" height="41" viewBox="0 0 40 41" fill="none" xmlns="http://www.w3.org/2000/svg">
<path d="M3.19966 3.94994V17.505V17.3836V38.024V3.94994ZM9.63605 20.987H15.6219C15.8507 20.5795 16.0939 20.2054 16.3514 19.8647C16.6088 19.5239 16.8806 19.1881 17.1666 18.8573H9.63605C9.3314 18.8573 9.0768 18.9596 8.87227 19.164C8.6663 19.3685 8.56332 19.6219 8.56332 19.9243C8.56332 20.2267 8.6663 20.4794 8.87227 20.6824C9.07823 20.8855 9.33283 20.987 9.63605 20.987ZM9.63605 29.5055H13.8819C13.829 29.1506 13.7961 28.7956 13.7832 28.4407C13.7689 28.0857 13.7739 27.7308 13.7982 27.3759H9.63605C9.3314 27.3759 9.0768 27.4781 8.87227 27.6825C8.6663 27.887 8.56332 28.1404 8.56332 28.4428C8.56332 28.7452 8.6663 28.9979 8.87227 29.201C9.07823 29.404 9.33283 29.5055 9.63605 29.5055ZM4.52556 40.1536C3.53435 40.1536 2.70835 39.8257 2.04755 39.1698C1.38675 38.5138 1.05563 37.6953 1.0542 36.7143V5.25966C1.0542 4.28003 1.38532 3.46226 2.04755 2.80633C2.70835 2.14899 3.53221 1.82031 4.51912 1.82031H19.9965C20.4699 1.82031 20.9219 1.9126 21.3524 2.09716C21.7815 2.28457 22.152 2.53232 22.4638 2.84041L30.0609 10.3814C30.3712 10.6895 30.6201 11.0572 30.8075 11.4846C30.9949 11.9105 31.0885 12.3591 31.0885 12.8305V17.8564C30.7395 17.7528 30.3927 17.6747 30.048 17.6222C29.7047 17.5711 29.3364 17.5313 28.9431 17.5029V12.4685H22.0776C21.5913 12.4685 21.1837 12.3052 20.8547 11.9786C20.5257 11.6521 20.3619 11.2475 20.3634 10.7648V3.94994H4.51912C4.19015 3.94994 3.88764 4.08624 3.61159 4.35883C3.33697 4.63284 3.19966 4.93312 3.19966 5.25966V36.7143C3.19966 37.0408 3.33697 37.3411 3.61159 37.6151C3.88764 37.8877 4.19015 38.024 4.51912 38.024H15.7463C15.9752 38.4315 16.2255 38.8056 16.4972 39.1463C16.7676 39.4871 17.0594 39.8228 17.3726 40.1536H4.52556Z" fill="#F16920"/>
<path d="M36.9898 33.8C36.9898 43.3826 21.3435 43.3826 21.3435 33.8H25.2551C25.2551 38.6003 33.0782 38.6003 33.0782 33.8M30.1445 21.2148C30.6922 21.2148 31.1224 21.6104 31.1224 22.1138V27.5074H33.0782V23.0127C34.4624 23.6016 35.622 24.5592 36.4067 25.7615C37.1914 26.9637 37.5649 28.355 37.4788 29.7548C37.4788 29.7548 38.8478 30.0065 38.9456 32.0021H19.3877C19.3877 30.0065 20.8545 29.7548 20.8545 29.7548C20.7684 28.355 21.1419 26.9637 21.9266 25.7615C22.7113 24.5592 23.8709 23.6016 25.2551 23.0127V27.5074H27.2109V22.1138C27.2109 21.6104 27.6411 21.2148 28.1888 21.2148" fill="#F16920"/>
</svg>
