<svg width="40" height="43" viewBox="0 0 40 43" fill="none" xmlns="http://www.w3.org/2000/svg">
<path d="M3.45625 3.94994V17.505V17.3836V38.024V3.94994ZM9.89264 20.987H15.8785C16.1073 20.5795 16.3505 20.2054 16.6079 19.8647C16.8654 19.5239 17.1372 19.1881 17.4232 18.8573H9.89264C9.58799 18.8573 9.33339 18.9596 9.12886 19.164C8.92289 19.3685 8.81991 19.6219 8.81991 19.9243C8.81991 20.2267 8.92289 20.4794 9.12886 20.6824C9.33482 20.8855 9.58942 20.987 9.89264 20.987ZM9.89264 29.5055H14.1385C14.0856 29.1506 14.0527 28.7956 14.0398 28.4407C14.0255 28.0857 14.0305 27.7308 14.0548 27.3759H9.89264C9.58799 27.3759 9.33339 27.4781 9.12886 27.6825C8.92289 27.887 8.81991 28.1404 8.81991 28.4428C8.81991 28.7452 8.92289 28.9979 9.12886 29.201C9.33482 29.404 9.58942 29.5055 9.89264 29.5055ZM4.78215 40.1536C3.79095 40.1536 2.96494 39.8257 2.30414 39.1698C1.64334 38.5138 1.31222 37.6953 1.31079 36.7143V5.25966C1.31079 4.28003 1.64191 3.46226 2.30414 2.80633C2.96494 2.14899 3.7888 1.82031 4.77571 1.82031H20.2531C20.7265 1.82031 21.1785 1.9126 21.609 2.09716C22.0381 2.28457 22.4086 2.53232 22.7204 2.84041L30.3175 10.3814C30.6278 10.6895 30.8767 11.0572 31.0641 11.4846C31.2514 11.9105 31.3451 12.3591 31.3451 12.8305V17.8564C30.9961 17.7528 30.6493 17.6747 30.3046 17.6222C29.9613 17.5711 29.593 17.5313 29.1997 17.5029V12.4685H22.3342C21.8479 12.4685 21.4402 12.3052 21.1113 11.9786C20.7823 11.6521 20.6185 11.2475 20.62 10.7648V3.94994H4.77571C4.44674 3.94994 4.14423 4.08624 3.86818 4.35883C3.59356 4.63284 3.45625 4.93312 3.45625 5.25966V36.7143C3.45625 37.0408 3.59356 37.3411 3.86818 37.6151C4.14423 37.8877 4.44674 38.024 4.77571 38.024H16.0029C16.2318 38.4315 16.4821 38.8056 16.7538 39.1463C17.0242 39.4871 17.3159 39.8228 17.6292 40.1536H4.78215Z" fill="#0DA07D"/>
<path d="M38.689 31.1402C38.5554 31.8785 38.3515 32.5886 37.8663 33.1863C37.789 33.2847 37.6976 33.3761 37.6132 33.4745C37.325 33.1441 37.0648 32.8066 36.7695 32.5183C36.0031 31.773 35.061 31.527 34.0274 31.7098C33.2048 31.8574 32.3962 32.0894 31.5806 32.2511C30.9267 32.3847 30.1252 32.2371 29.851 31.4426C29.7104 31.0348 29.3096 30.8098 28.8737 30.8239C28.4518 30.8379 27.9948 30.866 27.6151 31.0207C26.8136 31.3512 26.0472 31.773 25.2386 32.1668C25.4636 32.5605 25.6464 32.8839 25.8363 33.2144C25.8785 33.1933 25.9207 33.1722 25.9628 33.1511C25.8152 32.8769 25.6746 32.6027 25.534 32.3355C26.1949 31.8574 26.1949 31.8644 26.8066 32.3144C27.0878 32.5254 27.3831 32.7222 27.6714 32.9261C27.6925 32.891 27.7206 32.8628 27.7417 32.8277C27.3198 32.4902 26.905 32.1527 26.3847 31.7379C26.9683 31.4988 27.4886 31.2809 28.0159 31.077C28.0721 31.0559 28.1846 31.1332 28.255 31.1895C29.0565 31.8152 29.844 32.448 30.6455 33.0738C30.7228 33.1371 30.8283 33.1652 30.9267 33.2074C30.9478 33.1792 30.9619 33.1441 30.983 33.116C30.1252 32.434 29.2674 31.759 28.3885 31.0629C28.9862 30.8942 29.5768 31.0699 29.7385 31.541C30.069 32.4902 30.9338 32.5324 31.7423 32.434C31.89 32.4129 32.0376 32.3707 32.2556 32.3144C32.1361 32.5254 32.0447 32.6871 31.9462 32.8628C32.1431 32.905 32.3189 32.9402 32.4947 32.9824C32.5017 33.0035 32.5087 33.0316 32.5157 33.0527C31.3767 33.3691 30.2377 33.6784 29.1127 33.9878C29.0846 34.1425 29.0705 34.269 29.0495 34.3956C28.7401 33.7558 28.1846 33.4605 27.6433 33.1511C27.2636 32.9402 26.23 33.13 25.9769 33.4745C25.8574 33.6292 25.8644 33.8753 25.8152 34.0862C26.3355 34.1987 26.3636 34.2339 26.3003 34.6276C26.1808 34.48 26.0824 34.3534 25.9207 34.1495C25.8785 34.3112 25.8503 34.3604 25.8574 34.3956C25.8855 34.5714 25.7379 34.8315 26.0261 34.9018C26.3285 34.9792 26.4831 34.7542 26.5675 34.5151C26.6448 34.2901 26.6659 34.0511 26.7081 33.812C26.912 33.8823 27.1019 33.9527 27.369 34.0441C27.2073 34.1284 27.1089 34.1776 26.9612 34.248C27.1019 34.4729 27.2214 34.719 27.3901 34.9159C27.5659 35.1057 27.7979 35.2464 27.9386 35.3659C27.7839 35.5135 27.6222 35.6331 27.5026 35.7807C27.2003 36.1604 26.7784 36.308 26.3495 36.4627C26.2441 36.4979 26.0753 36.6455 26.0894 36.7018C26.1386 36.8986 26.3074 36.9127 26.4761 36.8213C26.8487 36.6174 27.2214 36.4135 27.594 36.2096C27.6433 36.1815 27.6854 36.1534 27.7487 36.1182C27.6573 36.9619 28.2971 37.4611 28.5854 38.115C28.7963 38.5931 29.0916 39.029 29.394 39.5775C28.8807 39.6337 28.4237 39.697 27.9667 39.7321C27.8964 39.7392 27.805 39.6478 27.7347 39.5915C25.7941 38.0728 23.8606 36.5471 21.92 35.0354C21.681 34.8526 21.6528 34.6136 21.6247 34.3604C21.5755 33.8542 21.5403 33.348 21.6669 32.8066C22.7075 33.5659 23.6356 34.3886 24.641 35.0987C24.6691 35.0635 24.6973 35.0214 24.7324 34.9862C24.3738 34.6979 24.0223 34.4097 23.6637 34.1284C23.0731 33.6644 22.4825 33.2144 21.8989 32.7503C21.8145 32.68 21.7161 32.5324 21.7372 32.448C21.8567 31.9629 22.0184 31.4848 22.1802 30.9434C23.0942 31.6676 23.9309 32.3215 24.7605 32.9753C24.7816 32.9542 24.8027 32.9261 24.8309 32.905C24.5566 32.6519 24.2895 32.3847 24.0012 32.1527C23.5231 31.759 23.0309 31.3863 22.5387 31.0137C22.37 30.8871 22.3137 30.7606 22.4473 30.5778C22.5247 30.4723 22.5739 30.3457 22.6653 30.2614C22.9958 29.945 22.9606 29.6637 22.7356 29.27C21.2872 26.7529 19.874 24.2358 18.4608 21.7257C18.4467 21.6976 18.4326 21.6484 18.4115 21.6343C17.7647 21.2687 18.053 20.657 17.9826 20.0312C18.3342 20.2281 18.6857 20.3406 18.8826 20.5726C19.0725 20.8047 19.1076 21.1632 19.2201 21.4726C19.6912 21.2476 20.1552 21.0086 20.6404 20.8047C21.1044 20.6148 21.5896 20.4461 22.0958 20.5726C22.2997 20.6219 22.5317 20.7344 22.6512 20.889C22.9958 21.332 23.4457 21.4375 23.9309 21.2968C24.5355 21.1281 25.1121 20.875 25.6957 20.65C26.4902 20.3476 27.2776 20.0453 28.1565 20.0594C28.7049 20.0664 29.1409 20.2703 29.4362 20.7203C29.8721 21.3671 30.4908 21.5078 31.1869 21.3742C32.0658 21.2125 32.9306 20.9453 33.8095 20.8187C35.1313 20.6359 36.3828 20.8961 37.5078 21.6624C37.6132 21.7328 37.7187 21.8101 37.8804 21.9226C37.4304 22.1616 37.0718 22.3304 36.7343 22.5343C35.8203 23.0686 35.5953 23.7085 36.0805 24.6436C36.4461 25.3537 36.8961 26.0287 37.3531 26.6896C38.0421 27.6951 38.5343 28.7708 38.6468 30.0012C38.6538 30.0434 38.6749 30.0856 38.689 30.1348C38.689 30.4864 38.689 30.8098 38.689 31.1402ZM32.2837 29.4809C31.7564 28.6935 31.2923 27.9622 30.7931 27.2521C30.6385 27.0271 30.6736 26.9076 30.8775 26.7388C31.3627 26.331 31.8267 25.8951 32.354 25.424C32.1642 25.417 32.0517 25.4029 31.9392 25.4029C31.2361 25.3959 30.533 25.4029 29.8299 25.3818C29.6822 25.3748 29.4994 25.2764 29.4151 25.1639C29.1479 24.8264 28.9299 24.4538 28.6838 24.0952C28.4378 23.7296 28.1846 23.371 27.9034 22.9702C27.8612 23.8139 27.8261 24.5944 27.7909 25.417C26.8839 25.417 26.0191 25.417 25.1543 25.417C25.9488 25.9373 26.7433 26.3943 27.5448 26.8373C27.7487 26.9498 27.8261 27.0763 27.812 27.3083C27.7839 27.8568 27.7698 28.4052 27.7558 28.9606C27.7487 29.1153 27.7558 29.27 27.7558 29.5091C28.3956 28.9536 28.9581 28.4685 29.5346 27.9693C30.4275 28.4544 31.3205 28.9466 32.2837 29.4809ZM27.2003 35.0917C26.7714 35.7385 26.0613 35.6823 25.4215 35.837C25.4285 36.1041 25.541 36.2729 25.7941 36.2518C26.3144 36.2026 26.8206 36.083 27.2355 35.7174C27.4534 35.5206 27.4886 35.3378 27.2003 35.0917ZM26.7363 34.719C26.5534 35.0425 26.2863 35.176 25.9417 35.155C25.6816 35.1409 25.4215 35.0917 25.1613 35.0987C25.0699 35.0987 24.9855 35.2182 24.9012 35.2885C24.9926 35.387 25.0699 35.5346 25.1824 35.5698C25.316 35.612 25.4847 35.5838 25.6324 35.5417C26.005 35.4432 26.3847 35.3448 26.7363 35.1901C26.9683 35.0987 26.9964 34.9018 26.7363 34.719ZM25.5832 34.1636C25.5339 34.1355 25.4918 34.1003 25.4425 34.0722C25.2457 34.2058 25.0418 34.3183 24.866 34.48C24.8379 34.5081 24.9223 34.7682 24.9996 34.7893C25.1543 34.8456 25.4566 34.8667 25.4847 34.8034C25.5761 34.6206 25.5621 34.3815 25.5832 34.1636Z" fill="#0DA07D"/>
<path d="M27.0876 42.4596C26.2861 42.2839 25.4494 42.1925 24.6901 41.9042C21.5402 40.723 19.5574 38.459 18.9457 35.1474C18.4114 32.2436 19.2762 29.6843 21.3081 27.5328C21.3292 27.5117 21.3644 27.4977 21.3925 27.4766C21.512 27.6664 21.5191 27.6734 21.2871 27.9125C20.4926 28.7492 19.9019 29.7054 19.5363 30.7882C18.5098 33.8396 19.0231 36.6239 21.0621 39.1129C22.4612 40.8214 24.3034 41.8128 26.4619 42.1292C29.0071 42.5018 31.3133 41.8479 33.3241 40.2238C34.5405 39.2394 35.4053 37.995 35.9608 36.5395C36.003 36.427 36.1014 36.3427 36.1787 36.2442C36.2279 36.2724 36.2701 36.3005 36.3194 36.3216C36.0733 36.863 35.8694 37.4254 35.567 37.9317C34.1679 40.3222 32.0797 41.7706 29.3727 42.319C29.0563 42.3823 28.7329 42.4104 28.4095 42.4526C27.9806 42.4596 27.5376 42.4596 27.0876 42.4596Z" fill="#0DA07D"/>
<path d="M31.8337 38.2905C31.004 37.6507 30.2517 37.0671 29.4923 36.4836C29.4642 36.4625 29.408 36.4836 29.2462 36.4836C30.0829 37.1515 30.8493 37.7491 31.686 38.4171C31.1868 38.6983 30.7509 38.9515 30.3079 39.1835C30.2447 39.2186 30.1251 39.1975 30.0618 39.1554C29.654 38.846 29.19 38.5788 28.8666 38.1991C28.515 37.7773 28.29 37.2499 28.0088 36.7648C28.4869 36.4273 28.972 36.2305 29.5275 36.1812C30.9759 36.0406 32.4172 35.8648 33.8586 35.7031C33.8797 35.7031 33.9008 35.7172 33.9148 35.7172C33.5914 36.0898 33.261 36.4625 32.9094 36.8703C32.6422 36.6804 32.3188 36.4484 31.9954 36.2164C31.9672 36.2515 31.9391 36.2937 31.918 36.3289C32.2204 36.575 32.5227 36.8211 32.8813 37.1093C32.5297 37.5101 32.1852 37.8968 31.8337 38.2905Z" fill="#0DA07D"/>
<path d="M32.4243 32.7075C32.6212 32.1239 33.0782 31.906 33.6688 32.1099C34.8852 32.5247 35.6797 33.3614 36.0523 34.5778C36.2351 35.1824 36.0242 35.773 35.6867 36.2652C35.5883 36.4129 35.2016 36.3566 34.9063 36.3496C35.293 35.8926 35.4406 35.4074 35.2297 34.7676C35.1805 34.9223 35.1313 35.0137 35.1313 35.1051C35.1523 35.6887 34.7727 36.0121 34.3508 36.3004C34.1399 36.441 34.0063 36.3215 33.9079 36.1457C33.9149 36.1105 33.9149 36.0824 33.929 36.0683C34.2032 35.773 34.6321 35.527 34.5617 35.077C34.4352 34.2825 34.168 33.5231 33.3805 33.1153C33.0712 32.9606 32.7477 32.8481 32.4243 32.7075Z" fill="#0DA07D"/>
<path d="M21.8708 35.1973C23.7481 36.6808 25.6324 38.1573 27.5449 39.669C25.4285 39.8096 22.5247 38.1081 21.8708 35.1973Z" fill="#0DA07D"/>
<path d="M34.2454 32.0182C34.9906 31.6737 35.6797 31.969 36.3406 32.3979C36.4883 32.4893 36.6148 32.6159 36.7343 32.7424C37.1843 33.1854 37.3953 33.7057 37.2195 34.3525C37.121 34.7181 37.0578 35.0978 36.9523 35.4634C36.8117 35.9415 36.7132 35.9978 36.1719 35.9978C36.1859 35.8993 36.1789 35.7939 36.214 35.7095C36.6078 34.683 36.1578 33.8604 35.525 33.1291C35.1664 32.7073 34.6813 32.3909 34.2454 32.0182Z" fill="#0DA07D"/>
<path d="M33.69 36.308C33.6619 36.4205 33.6549 36.54 33.5986 36.6384C32.6705 38.361 31.2503 39.4719 29.366 39.9289C27.0176 40.4985 24.9153 39.9289 23.1576 38.2837C22.0326 37.2361 21.3858 35.9142 21.217 34.3604C21.0272 32.6237 21.4842 31.091 22.5318 29.7129C22.5599 29.6777 22.5951 29.6426 22.6232 29.6074C22.6584 29.6215 22.6935 29.6285 22.7216 29.6426C22.6865 29.748 22.6865 29.8746 22.6232 29.9519C21.9482 30.8519 21.5334 31.8644 21.4279 32.9682C21.2662 34.6346 21.6951 36.1603 22.7427 37.4822C23.7411 38.7407 25.0489 39.5141 26.6168 39.7954C28.48 40.1328 30.1745 39.6899 31.6862 38.5509C32.4385 37.9884 33.008 37.2712 33.4439 36.4416C33.4721 36.3853 33.5142 36.3291 33.5564 36.2728C33.6057 36.2939 33.6478 36.3009 33.69 36.308Z" fill="#0DA07D"/>
<path d="M29.2112 38.7188C29.4432 38.9016 29.6682 39.0914 29.9002 39.2742C29.5416 39.6468 29.4643 39.3797 29.2112 38.7188Z" fill="#0DA07D"/>
</svg>
