<svg width="40" height="41" viewBox="0 0 40 41" fill="none" xmlns="http://www.w3.org/2000/svg">
<path d="M3.65279 3.94994V17.505V17.3836V38.024V3.94994ZM10.0892 20.987H21.075C21.3039 20.5795 21.547 20.2054 21.8045 19.8647C22.0619 19.5239 22.3337 19.1881 22.6197 18.8573H10.0892C9.78452 18.8573 9.52992 18.9596 9.32539 19.164C9.11943 19.3685 9.01644 19.6219 9.01644 19.9243C9.01644 20.2267 9.11943 20.4794 9.32539 20.6824C9.53135 20.8855 9.78595 20.987 10.0892 20.987ZM10.0892 29.5055H17.6684C17.6155 29.1506 17.5826 28.7956 17.5697 28.4407C17.5554 28.0857 17.5604 27.7308 17.5847 27.3759H10.0892C9.78452 27.3759 9.52992 27.4781 9.32539 27.6825C9.11943 27.887 9.01644 28.1404 9.01644 28.4428C9.01644 28.7452 9.11943 28.9979 9.32539 29.201C9.53135 29.404 9.78595 29.5055 10.0892 29.5055ZM4.97868 40.1536C3.98748 40.1536 3.16148 39.8257 2.50067 39.1697C1.83987 38.5138 1.50875 37.6953 1.50732 36.7143V5.25966C1.50732 4.28003 1.83844 3.46226 2.50067 2.80633C3.16148 2.14899 3.98533 1.82031 4.97225 1.82031H20.4496C20.923 1.82031 21.375 1.9126 21.8055 2.09716C22.2346 2.28457 22.6051 2.53232 22.9169 2.84041L30.514 10.3814C30.8244 10.6895 31.0732 11.0572 31.2606 11.4846C31.448 11.9105 31.5417 12.3591 31.5417 12.8305V17.8564C31.1927 17.7528 30.8458 17.6747 30.5011 17.6222C30.1578 17.571 29.7895 17.5313 29.3962 17.5029V12.4685H22.5307C22.0444 12.4685 21.6368 12.3052 21.3078 11.9786C20.9788 11.6521 20.8151 11.2475 20.8165 10.7648V3.94994H4.97225C4.64328 3.94994 4.34077 4.08624 4.06472 4.35883C3.7901 4.63284 3.65279 4.93312 3.65279 5.25966V36.7143C3.65279 37.0408 3.7901 37.3411 4.06472 37.6151C4.34077 37.8877 4.64328 38.024 4.97225 38.024H16.1995C16.4283 38.4315 16.6786 38.8056 16.9504 39.1463C17.2207 39.4871 17.5125 39.8228 17.8257 40.1536H4.97868Z" fill="#E62A42"/>
<path d="M18.55 35.9036C18.8919 35.5807 19.2528 35.2673 19.5851 34.9349C20.4778 34.0518 21.3514 33.1687 22.2346 32.2855C22.6809 31.8392 22.6714 31.8487 23.1177 32.276C25.0265 34.1088 27.2676 35.1249 29.955 35.0299C30.8477 35.0014 31.6928 34.7545 32.424 34.3747C30.5343 32.4849 28.654 30.6047 26.7073 28.6674C26.3844 29.0093 25.9666 29.4366 25.5678 29.883C25.3304 30.1489 25.1309 30.1773 24.865 29.902C24.2383 29.2467 23.602 28.6105 22.9563 27.9837C22.7094 27.7463 22.6904 27.5564 22.9468 27.3095C24.2098 26.0845 25.4538 24.85 26.7168 23.6344C26.8213 23.53 27.0207 23.4635 27.1821 23.4635C28.0368 23.492 28.825 23.2546 29.6321 23.0077C30.4298 22.7608 30.6292 23.6629 31.0851 24.0428C31.3889 24.2897 30.9996 24.5081 30.8287 24.679C30.3064 25.2013 29.7556 25.7046 29.2618 26.1699C31.1515 28.0597 33.0128 29.9209 34.931 31.8392C35.064 31.4308 35.2539 30.994 35.3489 30.5287C35.7952 28.3636 35.2159 26.3884 34.1238 24.5366C33.3072 23.1406 32.2151 21.9916 30.8761 21.08C30.7717 21.004 30.6767 20.909 30.6197 20.7096C30.8002 20.7096 30.9711 20.6906 31.1515 20.7096C34.9595 21.2604 38.0363 24.5271 38.4256 28.3921C38.6251 30.3008 38.2737 32.0766 37.3241 33.7289C37.1341 34.0613 37.1436 34.2892 37.438 34.5456C37.7419 34.802 37.9983 35.1059 38.2832 35.3813C38.5396 35.6187 38.5776 35.8371 38.3022 36.103C37.7324 36.6538 37.1721 37.214 36.6214 37.7838C36.4219 37.9927 36.2605 37.9832 36.0706 37.7743C35.7667 37.4514 35.4343 37.1571 35.1399 36.8247C34.9215 36.5873 34.7601 36.5588 34.4657 36.7392C31.5219 38.5435 28.4926 38.6195 25.4443 37.0621C24.6181 36.6348 23.9059 35.9795 23.0703 35.3813C22.8139 35.6377 22.491 35.951 22.1776 36.2739C21.7218 36.7297 21.2565 37.195 20.8007 37.6509C20.3733 38.0782 20.3543 38.0687 19.927 37.6604C19.4712 37.2235 19.0154 36.7962 18.5595 36.3594C18.5501 36.2169 18.55 36.065 18.55 35.9036Z" fill="#E62A42"/>
</svg>
