<svg width="38" height="31" viewBox="0 0 38 31" fill="none" xmlns="http://www.w3.org/2000/svg">
<path d="M6.49976 23.4883H7.74976C7.74976 20.0422 10.5537 17.2383 13.9998 17.2383C11.9319 17.2383 10.2498 15.5562 10.2498 13.4883C10.2498 11.4204 11.9319 9.73828 13.9998 9.73828C16.0676 9.73828 17.7498 11.4204 17.7498 13.4883C17.7498 15.5562 16.0676 17.2383 13.9998 17.2383C17.4458 17.2383 20.2498 20.0422 20.2498 23.4883H21.4998V8.48828H6.49976V23.4883ZM37.7498 4.73828V27.2383C37.7498 29.3062 36.0676 30.9883 33.9998 30.9883H3.99976C1.93188 30.9883 0.249756 29.3062 0.249756 27.2383V4.73828C0.249756 2.67041 1.93188 0.988281 3.99976 0.988281H33.9998C36.0676 0.988281 37.7498 2.67041 37.7498 4.73828ZM23.9998 7.23828C23.9998 6.54736 23.4401 5.98828 22.7498 5.98828H5.24976C4.55945 5.98828 3.99976 6.54736 3.99976 7.23828V24.7383C3.99976 25.4292 4.55945 25.9883 5.24976 25.9883H22.7498C23.4401 25.9883 23.9998 25.4292 23.9998 24.7383V7.23828ZM33.9998 20.9883C33.9998 20.2974 33.4401 19.7383 32.7498 19.7383H28.9998C28.3094 19.7383 27.7498 20.2974 27.7498 20.9883C27.7498 21.6792 28.3094 22.2383 28.9998 22.2383H32.7498C33.4401 22.2383 33.9998 21.6792 33.9998 20.9883ZM33.9998 15.9883C33.9998 15.2974 33.4401 14.7383 32.7498 14.7383H28.9998C28.3094 14.7383 27.7498 15.2974 27.7498 15.9883C27.7498 16.6792 28.3094 17.2383 28.9998 17.2383H32.7498C33.4401 17.2383 33.9998 16.6792 33.9998 15.9883ZM33.9998 10.9883C33.9998 10.2974 33.4401 9.73828 32.7498 9.73828H28.9998C28.3094 9.73828 27.7498 10.2974 27.7498 10.9883C27.7498 11.6792 28.3094 12.2383 28.9998 12.2383H32.7498C33.4401 12.2383 33.9998 11.6792 33.9998 10.9883Z" fill="#0DA07D"/>
</svg>
