<svg width="40" height="41" viewBox="0 0 40 41" fill="none" xmlns="http://www.w3.org/2000/svg">
<path d="M30.6283 12.1048C32.0085 12.1188 33.9273 12.1248 35.5551 12.1188C36.3887 12.1168 36.8125 11.1108 36.2343 10.5048C34.1432 8.30883 30.4026 4.37883 28.262 2.13083C27.6699 1.50883 26.6343 1.93683 26.6343 2.79883V8.07083C26.6343 10.2828 28.4382 12.1048 30.6283 12.1048" fill="#603CF0"/>
<path fill-rule="evenodd" clip-rule="evenodd" d="M14.1846 16.7858H20.8777C21.6895 16.7858 22.3628 17.4658 22.3628 18.2858C22.3628 19.1058 21.6895 19.7658 20.8777 19.7658H14.1846C13.3727 19.7658 12.6994 19.1058 12.6994 18.2858C12.6994 17.4658 13.3727 16.7858 14.1846 16.7858ZM35.0095 15.0375H35.0094C34.6142 15.0421 34.2488 15.0463 33.9669 15.0463C33.5684 15.0463 33.1168 15.0425 32.6088 15.0382L32.6086 15.0382L32.6084 15.0382C31.9555 15.0327 31.2093 15.0263 30.363 15.0263C26.7392 15.0063 23.7491 12.0063 23.7491 8.34633V1.90633C23.7491 1.40633 23.3531 0.986328 22.8382 0.986328H12.2639C7.33325 0.986328 3.33325 5.04633 3.33325 10.0063V31.5663C3.33325 36.7663 7.53127 40.9863 12.6798 40.9863H25.6533C22.2656 38.9447 20 35.2303 20 30.9868C20 24.5434 25.2233 19.3201 31.6666 19.3201C33.7232 19.3201 35.6554 19.8522 37.3333 20.7863V15.9263C37.3333 15.4263 36.9372 15.0263 36.4422 15.0263C35.9817 15.0263 35.4749 15.0322 35.0095 15.0375Z" fill="#603CF0"/>
<path fill-rule="evenodd" clip-rule="evenodd" d="M29.1799 22.0873C29.8694 21.9128 30.5908 21.8203 31.3331 21.8203C32.0754 21.8203 32.7969 21.9129 33.4864 22.0874C34.0492 22.2298 34.3397 22.7157 34.4332 23.1197C34.5439 23.5982 34.8442 24.0293 35.3021 24.2936C35.723 24.5367 36.1989 24.5938 36.6379 24.4903C37.0413 24.3952 37.6046 24.4405 37.9815 24.8804C38.6824 25.6983 39.2352 26.6476 39.598 27.6867C39.8145 28.307 39.479 28.8656 39.1247 29.1575C38.7158 29.4945 38.4567 30.0028 38.4567 30.5722C38.4567 31.1416 38.7158 31.6499 39.1247 31.9869C39.479 32.2788 39.8145 32.8374 39.598 33.4577C39.2353 34.4967 38.6825 35.4459 37.9817 36.2638C37.6048 36.7038 37.0414 36.7491 36.638 36.6539C36.199 36.5504 35.723 36.6075 35.302 36.8505C34.8441 37.1149 34.5438 37.546 34.4331 38.0246C34.3397 38.4287 34.0491 38.9147 33.4863 39.0571C32.7968 39.2316 32.0753 39.3241 31.3331 39.3241C30.5909 39.3241 29.8694 39.2316 29.1799 39.0571C28.6172 38.9147 28.3266 38.4287 28.2331 38.0246C28.1224 37.546 27.8221 37.1149 27.3642 36.8505C26.9432 36.6075 26.4672 36.5504 26.0283 36.6539C25.6248 36.7491 25.0614 36.7038 24.6845 36.2638C23.9837 35.4459 23.4309 34.4967 23.0682 33.4578C22.8516 32.8374 23.1872 32.2788 23.5415 31.9869C23.9504 31.6499 24.2095 31.1416 24.2095 30.5722C24.2095 30.0028 23.9504 29.4945 23.5415 29.1575C23.1872 28.8656 22.8516 28.307 23.0682 27.6867C23.431 26.6476 23.9838 25.6983 24.6847 24.8804C25.0617 24.4404 25.6249 24.3951 26.0284 24.4903C26.4673 24.5938 26.9433 24.5367 27.3642 24.2936C27.8221 24.0293 28.1224 23.5982 28.2331 23.1197C28.3266 22.7157 28.6171 22.2297 29.1799 22.0873ZM31.3341 33.0132C29.9852 33.0132 28.8917 31.9197 28.8917 30.5709C28.8917 29.222 29.9852 28.1285 31.3341 28.1285C32.6829 28.1285 33.7764 29.222 33.7764 30.5709C33.7764 31.9197 32.6829 33.0132 31.3341 33.0132Z" fill="#603CF0"/>
</svg>
