<svg width="40" height="41" viewBox="0 0 40 41" fill="none" xmlns="http://www.w3.org/2000/svg">
<g clip-path="url(#clip0_611_10061)">
<path d="M26.6667 7.653H25V2.65299C25 1.73633 24.25 0.986328 23.3333 0.986328H5C3.63333 0.986328 2.36667 1.55299 1.46667 2.45299C0.566667 3.35299 0 4.60299 0 5.98633V32.653C0 35.403 2.25 37.653 5 37.653H17.15C15.7833 35.4863 15 32.903 15 30.153C15 22.6197 20.9 16.4363 28.3333 16.003V9.31966C28.3333 8.403 27.5833 7.653 26.6667 7.653ZM21.6667 7.653H5C4.08333 7.653 3.33333 6.903 3.33333 5.98633C3.33333 5.06966 4.08333 4.31966 5 4.31966H21.6667V7.653Z" fill="#E62A42"/>
<path d="M28.3869 29.2087V25.5352H30.4861V29.2087H34.1596V31.3078H30.4861L30.4855 34.9813H28.3864V31.3078H24.7129V29.2087H28.3869Z" fill="#E62A42"/>
<path fill-rule="evenodd" clip-rule="evenodd" d="M24.0958 37.0742C25.3805 38.2345 26.7879 39.1927 28.377 39.9484C29.2282 40.3525 30.2379 40.3158 31.0539 39.8503C32.4304 39.0652 33.6285 38.1201 34.7867 37.0742C37.2417 34.8564 38.6733 31.8048 38.7672 28.5863L38.8769 24.8335C38.8895 24.3969 38.8774 23.4345 38.8774 23.4345C38.3261 23.3475 37.7728 23.2729 37.2181 23.2109C35.502 23.0052 33.7933 22.801 32.294 21.8842L31.225 21.2309C30.771 20.9559 30.2504 20.8105 29.7197 20.8105C29.1889 20.8105 28.6683 20.9559 28.2143 21.2309L27.1904 21.8569C25.476 22.9044 23.3868 23.1028 21.3648 23.2949C20.9067 23.3384 20.4517 23.382 20.0056 23.4345C20.0056 23.4345 19.993 24.4027 20.0056 24.8456L20.1153 28.5863C20.2092 31.8048 21.6403 34.8564 24.0958 37.0742ZM21.0499 24.3796C21.0499 24.5475 21.0515 24.7023 21.0552 24.8152L21.1643 28.5558C21.2499 31.4789 22.5498 34.2634 24.799 36.2954C26.0123 37.3906 27.3353 38.2906 28.8278 39.0001C29.0965 39.1269 29.3916 39.1875 29.6885 39.1768C29.9855 39.1661 30.2755 39.0845 30.5344 38.9387C31.8227 38.204 32.9584 37.3114 34.0835 36.2954C36.3327 34.2634 37.6326 31.4794 37.7182 28.5558L37.8279 24.8026C37.831 24.6855 37.8331 24.5202 37.8331 24.3439C37.5875 24.3124 37.3377 24.2825 37.0827 24.2515L37.0543 24.2484C36.4714 24.183 35.8901 24.1034 35.311 24.0096C34.1334 23.8102 32.9012 23.4854 31.7466 22.78L30.6777 22.1262C30.3885 21.9519 30.0573 21.8598 29.7197 21.8598C29.382 21.8598 29.0508 21.9519 28.7617 22.1262L27.7378 22.7522C26.5203 23.4959 25.1768 23.8485 23.8822 24.0569C23.0793 24.186 22.2144 24.2683 21.4047 24.346L21.0499 24.3801V24.3796Z" fill="#E62A42"/>
</g>
<defs>
<clipPath id="clip0_611_10061">
<rect width="40" height="40" fill="white" transform="translate(0 0.986328)"/>
</clipPath>
</defs>
</svg>
