<svg width="40" height="41" viewBox="0 0 40 41" fill="none" xmlns="http://www.w3.org/2000/svg">
<g id="arrow">
<rect x="40" y="40.6182" width="40" height="40" rx="20" transform="rotate(-180 40 40.6182)" fill="white"/>
<path id="Union" fill-rule="evenodd" clip-rule="evenodd" d="M24.6458 25.5863C24.3941 25.8381 23.9859 25.8381 23.7342 25.5863C23.4825 25.3346 23.4825 24.9264 23.7342 24.6747L27.1461 21.2628L11.8561 21.2627C11.1916 21.2627 10.6528 20.9741 10.6528 20.6181C10.6528 20.2621 11.1916 19.9735 11.8561 19.9735L27.1461 19.9735L23.7342 16.5615C23.4825 16.3098 23.4825 15.9016 23.7342 15.6499C23.9859 15.3982 24.3941 15.3982 24.6458 15.6499L29.1582 20.1623C29.41 20.414 29.41 20.8222 29.1582 21.0739L24.6458 25.5863Z" fill="#0063E2"/>
</g>
</svg>
