<svg xmlns="http://www.w3.org/2000/svg" width="16" height="14" viewBox="0 0 16 14" fill="none">
    <g clip-path="url(#clip0_7655_1680)">
        <path d="M11.2586 2.27501L13.725 4.74142C13.8289 4.84532 13.8289 5.01486 13.725 5.11876L7.75312 11.0906L5.21563 11.3723C4.87656 11.4106 4.58945 11.1234 4.62773 10.7844L4.90937 8.24689L10.8812 2.27501C10.9852 2.17111 11.1547 2.17111 11.2586 2.27501ZM15.6883 1.64884L14.3539 0.314465C13.9383 -0.10116 13.2629 -0.10116 12.8445 0.314465L11.8766 1.28243C11.7727 1.38634 11.7727 1.55587 11.8766 1.65978L14.343 4.12618C14.4469 4.23009 14.6164 4.23009 14.7203 4.12618L15.6883 3.15822C16.1039 2.73986 16.1039 2.06447 15.6883 1.64884ZM10.75 9.46642V12.25H2V3.50001H8.28359C8.37109 3.50001 8.45312 3.46447 8.51602 3.40431L9.60977 2.31056C9.81758 2.10275 9.66992 1.75001 9.37734 1.75001H1.5625C0.837891 1.75001 0.25 2.3379 0.25 3.06251V12.6875C0.25 13.4121 0.837891 14 1.5625 14H11.1875C11.9121 14 12.5 13.4121 12.5 12.6875V8.37267C12.5 8.08009 12.1473 7.93517 11.9395 8.14025L10.8457 9.234C10.7855 9.29689 10.75 9.37892 10.75 9.46642Z" fill="white"/>
    </g>
    <defs>
        <clipPath id="clip0_7655_1680">
            <rect width="15.75" height="14" fill="white" transform="translate(0.25)"/>
        </clipPath>
    </defs>
</svg>
