<svg width="221" height="207" viewBox="0 0 221 207" fill="none" xmlns="http://www.w3.org/2000/svg">
<g id="empty">
<g id="Group 427319241">
<path id="Vector" d="M180.993 38.4183C180.642 37.8237 179.735 36.1045 180.101 33.968C180.543 31.3874 182.663 29.247 185.504 28.4903C186.831 28.2368 191.28 27.5583 195.972 30.0418C200.056 32.2031 204.392 39.6991 201.399 44.0389C199.786 46.3775 198.854 46.6596 198.854 46.6596C192.4 44.3229 187.449 40.7569 180.993 38.4183Z" fill="#607683"/>
<path id="Vector_2" d="M187.953 53.1511C192.739 53.8697 197.198 50.5686 197.917 45.7828L198.623 41.0599C199.342 36.2722 196.042 31.8104 191.259 31.0919C186.473 30.3733 182.013 33.6744 181.295 38.4602L180.588 43.1831C179.87 47.9708 183.168 52.4326 187.953 53.1511Z" fill="#FFC5BB"/>
<path id="Vector_3" d="M196.322 42.7012C194.059 42.1809 193.67 38.836 194.339 37.3131C193.384 37.3551 191.041 37.3303 188.629 35.8856C186.802 34.7916 185.759 33.3755 185.256 32.5788L185.536 29.4512L197.595 31.603L200.951 38.0107L199.604 42.6783L196.322 42.7012Z" fill="#607683"/>
<path id="Vector_4" d="M190.536 39.0665C190.485 38.9826 190.262 38.6414 189.807 38.5061C189.346 38.3689 188.968 38.5366 188.881 38.5786" stroke="#607683" stroke-width="0.779971" stroke-miterlimit="10" stroke-linecap="round" stroke-linejoin="round"/>
<path id="Vector_5" d="M182.639 40.1038C182.711 39.5951 182.537 39.15 182.25 39.1094C181.964 39.0689 181.673 39.4484 181.601 39.957C181.529 40.4656 181.703 40.9108 181.99 40.9513C182.276 40.9918 182.567 40.6124 182.639 40.1038Z" fill="#607683"/>
<path id="Vector_6" d="M189.402 41.1599C189.474 40.6513 189.3 40.2061 189.013 40.1656C188.727 40.1251 188.436 40.5045 188.364 41.0131C188.292 41.5218 188.466 41.9669 188.753 42.0075C189.039 42.048 189.33 41.6685 189.402 41.1599Z" fill="#607683"/>
<path id="Vector_7" d="M181.907 37.8467C181.979 37.7819 182.288 37.515 182.764 37.5093C183.246 37.5055 183.56 37.7704 183.633 37.8352" stroke="#607683" stroke-width="0.779971" stroke-miterlimit="10" stroke-linecap="round" stroke-linejoin="round"/>
<path id="Vector_8" d="M185.458 40.2861C185.273 41.5974 184.423 42.4303 183.762 42.8934C183.442 43.1164 183.488 43.6025 183.839 43.7683L184.894 44.2657" stroke="#FD9C90" stroke-width="0.779971" stroke-miterlimit="10" stroke-linecap="round" stroke-linejoin="round"/>
<path id="Vector_9" d="M186.498 46.9682C186.553 46.8291 186.835 46.1639 187.587 45.8247C188.399 45.4587 189.136 45.7504 189.26 45.8018" stroke="#FD9C90" stroke-width="0.779971" stroke-miterlimit="10" stroke-linecap="round" stroke-linejoin="round"/>
<path id="Vector_10" d="M198.364 47.8562C200.011 47.8562 201.346 46.5208 201.346 44.8734C201.346 43.2261 200.011 41.8906 198.364 41.8906C196.718 41.8906 195.383 43.2261 195.383 44.8734C195.383 46.5208 196.718 47.8562 198.364 47.8562Z" fill="#FFC5BB"/>
<path id="Vector_11" d="M198.364 46.1297C199.058 46.1297 199.62 45.5674 199.62 44.8737C199.62 44.18 199.058 43.6177 198.364 43.6177C197.671 43.6177 197.109 44.18 197.109 44.8737C197.109 45.5674 197.671 46.1297 198.364 46.1297Z" fill="#FD9C90"/>
</g>
<g id="Group">
<path id="Vector_12" d="M220.867 92.4191C220.867 95.2749 219.994 98.0809 218.339 100.453C215.231 104.901 209.84 107.159 204.494 106.25L130.097 89.8518L127.063 70.9022C127.305 71.5801 128.632 71.0813 130.443 69.8614C133.856 67.5625 138.993 62.6979 141.841 58.3173L145.606 74.7641C150.253 68.9664 163.276 53.582 172.068 51.7969C180.426 50.0981 209.282 54.8069 213.249 61.0355C216.089 65.4907 219.145 81.3425 220.658 90.0059C220.797 90.8064 220.867 91.6136 220.867 92.4191Z" fill="#6FB9F5"/>
<path id="Vector_13" d="M202.279 55.3818C199.903 61.753 193.852 65.1574 188.761 65.1574C187.44 65.1574 186.161 64.9485 184.962 64.5325C179.813 62.7508 176.349 57.3774 176.236 51.4487C176.715 51.4421 177.214 51.4454 177.727 51.457C184.158 51.5945 193.35 52.9255 200.833 54.9691C201.323 55.1033 201.807 55.2409 202.279 55.3818Z" fill="white"/>
<path id="Vector_14" d="M200.833 54.9728C198.26 61.6821 191.052 65.0599 185.452 63.1191C181.077 61.6025 177.842 56.907 177.727 51.459C184.157 51.5966 193.35 52.9275 200.833 54.9728Z" fill="#FFC5BB"/>
<path id="Vector_15" d="M146.565 78.9475L145.604 74.7675C145.604 74.7675 145.604 74.7675 145.604 74.7642" stroke="#10A4FD" stroke-width="2.1106" stroke-miterlimit="10" stroke-linecap="round" stroke-linejoin="round"/>
<path id="Vector_16" d="M130.443 69.8616C128.632 71.0815 127.305 71.5804 127.063 70.9025C126.732 69.966 128.22 68.06 129.992 66.2202L130.443 69.8616Z" fill="#10A4FD"/>
<path id="Vector_17" d="M202.28 76.8555L204.644 91.6697" stroke="#10A4FD" stroke-width="2.1106" stroke-miterlimit="10" stroke-linecap="round" stroke-linejoin="round"/>
</g>
<g id="Group_2">
<path id="Vector_18" d="M140.689 53.2797C138.812 49.5206 135.288 47.3328 133.578 45.4085C133.063 44.8284 132.198 44.7141 131.539 45.1235C130.861 45.5428 130.593 46.3914 130.903 47.124C131.701 49.0118 133.388 52.393 135.543 53.2797H140.689Z" fill="#FFC5BB"/>
<path id="Vector_19" d="M128.429 52.9863C124.591 52.9863 119.587 50.8565 117.275 49.7642C116.533 49.4145 116.15 48.5824 116.369 47.7902C116.639 46.8123 117.699 46.2968 118.638 46.6797C120.626 47.4918 124.16 48.6338 128.429 48.6918V52.9863Z" fill="#FFC5BB"/>
<path id="Vector_20" d="M128.429 52.9867C123.506 52.9867 120.529 49.1 119.233 46.889C118.761 46.0835 119.011 45.0509 119.798 44.5504L119.868 44.5056C120.623 44.0266 121.61 44.2089 122.165 44.9117C123.166 46.178 125.119 47.9978 128.427 48.694V52.9867H128.429Z" fill="#FFC5BB"/>
<path id="Vector_21" d="M141.841 58.3169C138.994 62.6975 133.856 67.5604 130.444 69.861L129.993 66.2196L128.431 53.6214C125.787 52.3982 123.141 49.307 121.69 47.406C121.407 47.038 121.269 46.6021 121.269 46.1679C121.269 45.5844 121.518 45.0043 121.993 44.5983C122.845 43.869 124.123 43.9519 124.867 44.7922C126.295 46.4098 128.636 48.7054 130.402 48.7054H134.953C137.7 48.7054 140.079 50.6015 140.69 53.2799L141.841 58.3169Z" fill="#FFC5BB"/>
<path id="Vector_22" d="M130.399 48.7051H134.95C137.697 48.7051 140.075 50.6012 140.687 53.2796" stroke="#FD9C90" stroke-width="2.1106" stroke-miterlimit="10" stroke-linecap="round" stroke-linejoin="round"/>
<path id="Vector_23" d="M128.429 52.9864C123.505 52.9864 120.528 49.0997 119.233 46.8887" stroke="#FD9C90" stroke-width="2.1106" stroke-miterlimit="10" stroke-linecap="round" stroke-linejoin="round"/>
<path id="Vector_24" d="M128.429 53.6212C125.785 52.398 123.139 49.3068 121.688 47.4058" stroke="#FD9C90" stroke-width="2.1106" stroke-miterlimit="10" stroke-linecap="round" stroke-linejoin="round"/>
</g>
<g id="Group_3">
<path id="Vector_25" d="M115.83 20.9482C116.347 19.6305 117.197 18.1073 118.377 16.3836C119.243 15.1206 119.854 14.0881 120.21 13.2809C120.567 12.4754 120.643 11.64 120.437 10.7748C120.146 9.54501 119.422 8.69143 118.267 8.21243C117.112 7.73509 115.716 7.69199 114.077 8.08646C112.505 8.46436 111.188 9.12402 110.121 10.0638C109.664 10.4665 109.253 10.9091 108.89 11.3914C107.984 12.5914 106.468 13.1566 105.029 12.7223L104.959 12.7008C102.552 11.9748 101.674 9.01297 103.299 7.09531C103.891 6.39753 104.557 5.7445 105.296 5.13622C107.409 3.39923 110.103 2.13626 113.378 1.34898C117.222 0.425782 120.499 0.500364 123.207 1.56941C125.916 2.64012 127.614 4.62241 128.3 7.51465C128.623 8.87872 128.683 10.1284 128.476 11.2671C128.268 12.4058 127.924 13.4118 127.442 14.282C126.96 15.1538 126.31 16.1797 125.495 17.3582C124.518 18.7521 123.835 19.8924 123.444 20.7758C123.279 21.1504 123.171 21.5432 123.12 21.9493C122.98 23.0797 122.087 23.973 120.979 24.2399L119.168 24.6758C116.987 25.1995 115.005 23.0797 115.812 20.9863C115.82 20.9747 115.825 20.9615 115.83 20.9482ZM118.7 36.6243C117.571 35.9646 116.857 35.0033 116.557 33.7387C116.258 32.4757 116.46 31.3122 117.161 30.2464C117.861 29.1824 118.913 28.4813 120.318 28.1431C121.721 27.8067 122.975 27.9525 124.079 28.584C125.182 29.2155 125.884 30.1619 126.183 31.4249C126.483 32.6878 126.277 33.8713 125.566 34.9718C124.856 36.074 123.815 36.79 122.445 37.1182C121.077 37.4513 119.828 37.2856 118.7 36.6243Z" fill="#10A4FD"/>
<path id="Vector_26" d="M141.709 27.6991C142.521 27.4803 143.55 27.3493 144.79 27.3046C145.7 27.2731 146.411 27.2002 146.921 27.0858C147.433 26.9714 147.859 26.7129 148.2 26.3101C148.685 25.7366 148.838 25.0886 148.657 24.3659C148.476 23.6449 148.004 22.9604 147.237 22.3157C146.502 21.6975 145.721 21.2997 144.895 21.1223C144.54 21.0461 144.184 21.0063 143.825 21.0013C142.932 20.9914 142.125 20.466 141.825 19.624L141.81 19.5826C141.306 18.1737 142.411 16.7086 143.904 16.808C144.446 16.8445 144.994 16.9323 145.546 17.0715C147.123 17.4693 148.679 18.313 150.211 19.6025C152.01 21.1157 153.132 22.7102 153.577 24.3842C154.023 26.0582 153.675 27.5714 152.534 28.9206C151.995 29.557 151.419 30.0261 150.801 30.3294C150.183 30.6327 149.581 30.8233 148.993 30.8996C148.407 30.9775 147.686 31.0288 146.835 31.0554C145.823 31.0802 145.037 31.1565 144.476 31.2808C144.237 31.3338 144.012 31.42 143.8 31.541C143.21 31.8741 142.468 31.7614 141.949 31.3255L141.101 30.6128C140.081 29.7543 140.394 28.0571 141.679 27.7024C141.692 27.7024 141.701 27.7007 141.709 27.6991ZM135.228 34.6089C135.145 33.8366 135.352 33.1553 135.851 32.5653C136.35 31.9752 136.976 31.6603 137.733 31.6206C138.49 31.5808 139.196 31.836 139.854 32.3879C140.511 32.9399 140.884 33.5929 140.972 34.3437C141.06 35.0945 140.854 35.7658 140.357 36.3542C139.859 36.9442 139.221 37.2641 138.444 37.3122C137.665 37.3619 136.956 37.1166 136.315 36.5763C135.672 36.0376 135.311 35.3813 135.228 34.6089Z" fill="#6FB9F5"/>
</g>
<g id="Group_4">
<path id="Vector_27" d="M196.511 82.4047V206.254H42.3657V73.9136C42.3657 71.8203 44.0621 70.123 46.1545 70.123H74.5397C75.8286 70.123 77.0297 70.7794 77.7271 71.865L80.9443 76.8738C81.6418 77.9594 82.8429 78.6158 84.1318 78.6158H192.724C194.815 78.6141 196.511 80.3113 196.511 82.4047Z" fill="#FFAA00"/>
<path id="Vector_28" d="M196.511 206.254L186.871 92.2283C186.654 89.6676 184.514 87.7002 181.946 87.7002H37.7205C34.8263 87.7002 32.5517 90.1764 32.7952 93.062L42.3658 206.254H196.511Z" fill="#ECECEC"/>
<path id="Vector_29" d="M166.595 100.141H20.2675C17.7957 100.141 15.9867 102.469 16.5963 104.866L42.3657 206.255H196.511L170.266 102.998C169.841 101.316 168.328 100.141 166.595 100.141Z" fill="#FEC749"/>
</g>
<g id="Group_5">
<path id="Vector_30" d="M39.6271 206.253L5.32933 206.241C1.93318 206.24 -0.213852 202.592 1.43287 199.622L18.5909 168.652C20.289 165.588 24.6924 165.589 26.3871 168.656L43.5253 199.637C45.172 202.608 43.0216 206.255 39.6271 206.253Z" fill="#ECECEC"/>
<path id="Vector_31" d="M20.3156 199.476C19.7358 198.917 19.4475 198.238 19.4475 197.437C19.4475 196.637 19.7325 195.967 20.3007 195.43C20.8689 194.893 21.5962 194.625 22.4809 194.625C23.3655 194.625 24.0911 194.893 24.661 195.432C25.2293 195.969 25.5142 196.638 25.5125 197.439C25.5125 198.239 25.2226 198.919 24.6428 199.478C24.063 200.036 23.3423 200.315 22.4792 200.315C21.6161 200.313 20.8954 200.034 20.3156 199.476ZM21.7917 177.938H23.1816C24.3943 177.938 25.3552 178.965 25.2723 180.177L24.5749 190.426C24.5003 191.527 23.5858 192.38 22.4825 192.38C21.3792 192.38 20.4664 191.525 20.3918 190.425L19.701 180.175C19.6182 178.963 20.579 177.936 21.7917 177.938Z" fill="#FEC749"/>
</g>
<g id="Group_6">
<path id="Vector_32" d="M195.975 84.9404C201.009 86.2581 200.611 92.3691 193.861 92.6923C192.655 92.7503 191.642 91.7956 191.642 90.589C191.642 89.4951 192.472 88.5719 193.562 88.4774C194.406 88.4045 195.347 88.2006 195.975 87.7034V84.9404Z" fill="#FFC5BB"/>
<path id="Vector_33" d="M191.642 94.6626C191.642 95.7267 192.491 96.5952 193.554 96.6234C200.292 96.8007 200.457 92.4582 198.441 90.9268C197.515 91.9229 195.903 92.6472 193.569 92.7002C193.036 92.7118 192.554 92.9356 192.206 93.2886C191.858 93.6433 191.642 94.1289 191.642 94.6626Z" fill="#FFC5BB"/>
<path id="Vector_34" d="M191.642 98.3636V98.3719C191.642 99.2421 192.267 99.9879 193.123 100.132C197.34 100.843 198.829 97.6658 196.844 96.1924C195.981 96.4526 194.87 96.5984 193.465 96.5786C192.464 96.5636 191.642 97.3625 191.642 98.3636Z" fill="#FFC5BB"/>
<path id="Vector_35" d="M198.441 90.9287C197.515 91.9248 195.903 92.6491 193.569 92.7022" stroke="#FD9C90" stroke-width="2.1106" stroke-miterlimit="10" stroke-linecap="round" stroke-linejoin="round"/>
<path id="Vector_36" d="M193.554 96.625C194.992 96.6631 196.13 96.4957 197.012 96.1924" stroke="#FD9C90" stroke-width="2.1106" stroke-miterlimit="10" stroke-linecap="round" stroke-linejoin="round"/>
</g>
</g>
</svg>
