<svg width="221" height="129" viewBox="0 0 221 129" fill="none" xmlns="http://www.w3.org/2000/svg">
<g id="emptycart">
<g id="1">
<g id="Group 427319236">
<path id="Vector" d="M203.69 104.192C201.279 106.881 197.992 108.85 197.992 108.85L192.897 114.849H201.649C204.005 113.64 205.608 111.919 207.087 109.176C208.566 106.433 209.99 107.151 212.785 104.193C215.579 101.235 214.319 98.4046 213.442 95.9956C210.867 97.074 206.101 101.504 203.69 104.193V104.192Z" fill="#97AEE1"/>
<path id="Vector_2" d="M203.69 104.192C202.933 105.037 202.09 105.81 201.289 106.474C202.628 105.427 206.882 104.748 209.306 102.631C210.218 101.836 210.456 99.9462 210.95 98.846C211.443 97.7458 212.537 96.4569 213.442 95.9956C210.867 97.074 206.101 101.504 203.69 104.193V104.192Z" fill="#9FB7ED"/>
<path id="Vector_3" d="M211.24 99.9784C210.606 101.39 209.887 102.99 208.879 104.141C207.044 106.238 206.479 106.598 204.376 107.936C203.185 108.694 201.701 109.866 200.502 110.994C199.434 111.998 198.045 113.476 197.484 114.818L197.625 114.877C198.582 112.588 202.268 109.459 204.458 108.066C206.631 106.682 207.212 106.278 208.995 104.242C210.018 103.073 210.742 101.462 211.38 100.041C211.869 98.9532 212.291 98.0136 212.732 97.5435L212.621 97.4385C212.162 97.9275 211.735 98.8778 211.241 99.978L211.24 99.9784Z" fill="#3169E9"/>
<path id="Vector_4" d="M186.492 98.9858C185.374 102.978 185.884 107.129 185.816 110.338C185.747 113.546 185.25 114.848 185.25 114.848H191.719C191.719 114.848 192.212 109.989 192.897 106.044C193.582 102.098 194.185 101.131 194.842 97.7492C195.5 94.3672 194.992 93.7639 195.335 90.7826C195.705 87.5653 196.732 85.3687 196.732 85.3687C190.487 87.5306 187.61 94.9936 186.492 98.9858Z" fill="#97AEE1"/>
<path id="Vector_5" d="M192.796 89.695C191.92 91.021 190.795 93.139 190.411 95.7002C190.03 98.2387 190.018 101.945 190.008 105.215C189.999 108.395 189.99 111.141 189.673 112.341L189.821 112.381C190.143 111.161 190.152 108.406 190.161 105.216C190.172 101.952 190.183 98.2508 190.562 95.7238C190.942 93.1917 192.055 91.0959 192.921 89.7838C193.861 88.3603 194.722 87.5256 194.731 87.5173L194.624 87.4067C194.615 87.4151 193.744 88.2589 192.795 89.6955L192.796 89.695Z" fill="#3169E9"/>
<path id="Vector_6" d="M199.856 89.4147C198.595 90.6236 198.595 93.5531 196.897 94.483C195.199 95.4129 192.24 98.3572 191.254 100.721C190.268 103.085 189.665 107.642 189.61 109.455C189.556 111.268 188.515 114.011 188.021 114.848H194.377C194.377 114.848 198.979 110.943 200.185 107.874C201.39 104.805 201.061 101.504 202.321 99.6906C203.581 97.877 205.817 95.4458 207.58 93.2713C209.991 90.2984 210.703 86.4912 210.703 86.4912C210.703 86.4912 207.635 87.5086 205.608 87.7413C203.581 87.974 201.115 88.2063 199.856 89.4152V89.4147Z" fill="#9FB7ED"/>
<path id="Vector_7" d="M204.457 93.2704C202.923 94.6162 202.102 97.0396 201.65 101.214L201.652 101.213C201.813 100.637 202.021 100.121 202.32 99.6901C203.581 97.8765 205.817 95.4453 207.58 93.2708C209.991 90.2978 210.703 86.4902 210.703 86.4902C210.21 88.4486 205.991 91.925 204.457 93.2708L204.457 93.2704Z" fill="#97AEE1"/>
<path id="Vector_8" d="M205.977 89.6591C204.649 90.485 203.276 91.3385 202.21 92.4725C200.461 94.3333 198.13 98.133 196.666 100.822C195.39 103.164 194.267 106.04 193.277 108.578C192.212 111.307 191.292 113.665 190.426 114.802L190.548 114.895C191.427 113.74 192.351 111.374 193.42 108.634C194.409 106.101 195.529 103.23 196.801 100.895C198.261 98.2149 200.583 94.4277 202.323 92.578C203.375 91.4588 204.679 90.6483 206.059 89.7901C206.935 89.2446 207.842 88.6811 208.669 88.0338L208.575 87.9131C207.754 88.5548 206.851 89.1164 205.978 89.6596L205.977 89.6591Z" fill="#3169E9"/>
</g>
<g id="Group">
<path id="Vector_9" d="M26.6281 104.828C24.3605 102.299 19.8775 98.132 17.4554 97.1177C16.6308 99.3835 15.4458 102.045 18.0738 104.828C20.7017 107.61 22.0415 106.935 23.4332 109.515C24.8244 112.095 26.3317 113.713 28.5476 114.85H36.7799L31.9875 109.209C31.9875 109.209 28.8957 107.356 26.6281 104.827V104.828Z" fill="#97AEE1"/>
<path id="Vector_10" d="M26.628 104.828C24.3604 102.299 19.8774 98.132 17.4553 97.1177C18.3065 97.5515 19.3361 98.7639 19.7999 99.7987C20.2638 100.833 20.4884 102.611 21.3461 103.359C23.6263 105.35 27.6271 105.989 28.8869 106.973C28.1336 106.349 27.3404 105.622 26.628 104.827V104.828Z" fill="#9FB7ED"/>
<path id="Vector_11" d="M29.6276 111.226C28.4997 110.165 27.1037 109.063 25.9841 108.35C24.0059 107.091 23.4745 106.753 21.7483 104.781C20.8 103.698 20.1243 102.193 19.5276 100.865C19.0629 99.8303 18.6613 98.9365 18.2296 98.4766L18.1243 98.5753C18.5394 99.0175 18.9363 99.9013 19.3962 100.924C19.9967 102.261 20.6773 103.776 21.6399 104.876C23.3157 106.791 23.8622 107.171 25.9066 108.472C27.9667 109.783 31.4336 112.726 32.333 114.879L32.4662 114.823C31.9388 113.561 30.6316 112.17 29.6276 111.226Z" fill="#3169E9"/>
<path id="Vector_12" d="M42.8046 99.931C41.7528 96.1761 39.047 89.157 33.1724 87.123C33.1724 87.123 34.1384 89.1896 34.4865 92.2153C34.809 95.0194 34.3321 95.5869 34.9504 98.7679C35.5688 101.949 36.1358 102.858 36.7798 106.569C37.4238 110.28 37.8877 114.851 37.8877 114.851H43.9725C43.9725 114.851 43.5047 113.626 43.4403 110.608C43.3759 107.591 43.8568 103.686 42.8046 99.931Z" fill="#97AEE1"/>
<path id="Vector_13" d="M39.1184 96.8406C38.7572 94.4316 37.6994 92.439 36.8752 91.1923C35.9827 89.8411 35.1629 89.0474 35.155 89.0396L35.0549 89.1436C35.0871 89.1745 38.2916 92.3006 38.9757 96.8624C39.3321 99.2396 39.343 102.72 39.3525 105.791C39.3617 108.791 39.3699 111.383 39.6728 112.529L39.8121 112.492C39.5136 111.363 39.5057 108.78 39.4966 105.79C39.487 102.714 39.4761 99.2279 39.118 96.8402L39.1184 96.8406Z" fill="#3169E9"/>
<path id="Vector_14" d="M38.3256 101.563C37.3978 99.3391 34.6154 96.5702 33.0179 95.6956C31.4205 94.8209 31.4205 92.0655 30.2351 90.9284C29.0497 89.7914 26.7308 89.5725 24.8244 89.354C22.9175 89.1356 20.032 88.1782 20.032 88.1782C20.032 88.1782 20.7017 91.7591 22.9693 94.5559C24.6277 96.6011 26.7312 98.8883 27.9162 100.594C29.1015 102.3 28.7921 105.404 29.9257 108.291C31.0593 111.177 35.3882 114.851 35.3882 114.851H41.366C40.9021 114.064 39.923 111.483 39.8717 109.778C39.8203 108.072 39.2533 103.786 38.3256 101.563Z" fill="#9FB7ED"/>
<path id="Vector_15" d="M25.9066 94.5554C24.4636 93.2895 20.4959 90.0198 20.032 88.1777C20.032 88.1777 20.7017 91.7586 22.9693 94.5554C24.6277 96.6006 26.7312 98.8878 27.9162 100.593C28.1977 100.998 28.3931 101.484 28.5454 102.025L28.5471 102.026C28.122 98.1002 27.3491 95.8208 25.9062 94.555L25.9066 94.5554Z" fill="#97AEE1"/>
<path id="Vector_16" d="M33.236 101.658C31.8583 99.1287 29.666 95.5547 28.0206 93.8045C27.018 92.7384 25.7269 91.9351 24.478 91.1583C23.6565 90.6475 22.807 90.1192 22.0351 89.5156L21.9463 89.6292C22.7248 90.2376 23.5773 90.768 24.4019 91.2811C25.7 92.0883 26.9262 92.8511 27.9158 93.9033C29.552 95.6435 31.7365 99.2053 33.1098 101.727C34.3056 103.922 35.3596 106.623 36.2895 109.005C37.2952 111.583 38.1642 113.809 38.9905 114.895L39.1054 114.807C38.2912 113.737 37.4257 111.52 36.424 108.953C35.4927 106.566 34.437 103.861 33.2369 101.658H33.236Z" fill="#3169E9"/>
</g>
<g id="Group_2">
<path id="Vector_17" d="M173.264 128.76C189.868 128.76 203.329 126.93 203.329 124.672C203.329 122.414 189.868 120.583 173.264 120.583C156.659 120.583 143.198 122.414 143.198 124.672C143.198 126.93 156.659 128.76 173.264 128.76Z" fill="#8BA8EB"/>
<path id="Vector_18" d="M105.472 122.251C157.778 122.251 200.181 118.705 200.181 114.331C200.181 109.957 157.778 106.412 105.472 106.412C53.1652 106.412 10.7625 109.957 10.7625 114.331C10.7625 118.705 53.1652 122.251 105.472 122.251Z" fill="#8BA8EB"/>
</g>
<g id="Group_3">
<path id="Vector_19" d="M117.375 85.1704H91.8269V101.306H117.375V85.1704Z" fill="#426CCF"/>
<path id="Vector_20" d="M113.557 85.1704H88.0093V101.306H113.557V85.1704Z" fill="#9DB8F2"/>
<path id="Vector_21" d="M126.956 101.299H84.7913C82.1143 101.299 79.9443 103.469 79.9443 106.146H131.803C131.803 103.469 129.633 101.299 126.956 101.299Z" fill="#9DB8F2"/>
<path id="Vector_22" d="M123.526 101.299H81.3616C78.6846 101.299 76.5146 103.469 76.5146 106.146H128.373C128.373 103.469 126.203 101.299 123.526 101.299Z" fill="#A8BDEF"/>
<path id="Vector_23" opacity="0.51" d="M117.375 89.8232H88.0093V92.0866H117.375V89.8232Z" fill="#426CCF"/>
<g id="Group_4">
<path id="Vector_24" d="M164.231 4.11865H46.6013C44.6543 4.11865 43.0759 5.697 43.0759 7.64399V86.3667C43.0759 88.3137 44.6543 89.892 46.6013 89.892H164.231C166.178 89.892 167.756 88.3137 167.756 86.3667V7.64399C167.756 5.697 166.178 4.11865 164.231 4.11865Z" fill="#6188E1"/>
<path id="Vector_25" d="M160.994 4.11865H43.3647C41.4177 4.11865 39.8394 5.697 39.8394 7.64399V86.3667C39.8394 88.3137 41.4177 89.892 43.3647 89.892H160.994C162.941 89.892 164.52 88.3137 164.52 86.3667V7.64399C164.52 5.697 162.941 4.11865 160.994 4.11865Z" fill="#9DB8F2"/>
<path id="Vector_26" opacity="0.51" d="M156.903 7.24365H47.9219C45.4249 7.24365 43.394 9.2751 43.394 11.7715V76.6281H161.432V11.7715C161.432 9.27454 159.4 7.24365 156.904 7.24365H156.903Z" fill="#426CCF"/>
<path id="Vector_27" d="M156.904 8.91113H47.9214C46.3414 8.91113 45.0608 10.1923 45.0608 11.7717V74.961H159.764V11.7717C159.764 10.1923 158.483 8.91113 156.904 8.91113Z" fill="#EDF2FC"/>
<path id="Vector_28" d="M101.524 78.792C99.7112 78.792 98.2358 80.2673 98.2358 82.0804C98.2358 83.8934 99.7112 85.3687 101.524 85.3687C103.337 85.3687 104.813 83.8934 104.813 82.0804C104.813 80.2673 103.337 78.792 101.524 78.792ZM101.524 84.9719C99.9296 84.9719 98.6321 83.6744 98.6321 82.0798C98.6321 80.4851 99.9296 79.1877 101.524 79.1877C103.119 79.1877 104.416 80.4851 104.416 82.0798C104.416 83.6744 103.119 84.9719 101.524 84.9719Z" fill="white"/>
</g>
<g id="Group_5">
<path id="Vector_29" d="M45.0608 11.7722V48.7475C58.9443 35.7111 75.658 20.0106 87.4516 8.91162H47.9214C46.3414 8.91162 45.0608 10.1927 45.0608 11.7722Z" fill="#F2F5FC"/>
<path id="Vector_30" d="M156.903 8.91113H129.213C112.563 28.0447 83.5716 61.7969 72.2739 74.961H134.812L159.764 44.683V11.7717C159.764 10.1923 158.483 8.91113 156.903 8.91113Z" fill="#F2F5FC"/>
</g>
<g id="Group_6">
<path id="Vector_31" d="M41.429 0L30.043 9.69286H177.553L165.705 0H41.429Z" fill="#8BA8E9"/>
<path id="Vector_32" d="M41.3896 9.69398H52.7368L62.1736 0H51.6932L41.3896 9.69398Z" fill="white"/>
<path id="Vector_33" d="M64.0835 9.69398H75.4307L82.2539 0H72.1935L64.0835 9.69398Z" fill="white"/>
<path id="Vector_34" d="M86.7778 9.69398H98.1244L99.3014 0H90.3966L86.7778 9.69398Z" fill="white"/>
<path id="Vector_35" d="M145.066 0L154.859 9.69398H166.206L155.546 0H145.066Z" fill="white"/>
<path id="Vector_36" d="M126.113 0L132.165 9.69398H143.512L135.346 0H126.113Z" fill="white"/>
<path id="Vector_37" d="M107.807 0L109.472 9.69398H120.818L116.717 0H107.807Z" fill="white"/>
<path id="Vector_38" d="M30.043 9.76357C30.043 12.8971 32.5833 15.4369 35.7164 15.4369C38.8494 15.4369 41.3897 12.8966 41.3897 9.76357V9.69434H30.0425V9.76357H30.043Z" fill="#C9D7F5"/>
<path id="Vector_39" d="M30.043 9.76357C30.043 12.8971 32.5833 15.4369 35.7164 15.4369C38.8494 15.4369 41.3897 12.8966 41.3897 9.76357V9.69434H30.0425V9.76357H30.043Z" fill="#7091DD"/>
<path id="Vector_40" d="M41.3897 9.76357C41.3897 12.8971 43.93 15.4369 47.063 15.4369C50.196 15.4369 52.7363 12.8966 52.7363 9.76357V9.69434H41.3892V9.76357H41.3897Z" fill="#E0E7F9"/>
<path id="Vector_41" d="M52.7369 9.76357C52.7369 12.8971 55.2772 15.4369 58.4102 15.4369C61.5438 15.4369 64.0835 12.8966 64.0835 9.76357V9.69434H52.7363V9.76357H52.7369Z" fill="#C9D7F5"/>
<path id="Vector_42" d="M52.7369 9.76357C52.7369 12.8971 55.2772 15.4369 58.4102 15.4369C61.5438 15.4369 64.0835 12.8966 64.0835 9.76357V9.69434H52.7363V9.76357H52.7369Z" fill="#7E9EE7"/>
<path id="Vector_43" d="M64.0833 9.76357C64.0833 12.8971 66.6236 15.4369 69.7566 15.4369C72.8902 15.4369 75.4299 12.8966 75.4299 9.76357V9.69434H64.0828V9.76357H64.0833Z" fill="#E0E7F9"/>
<path id="Vector_44" d="M75.4307 9.76357C75.4307 12.8971 77.971 15.4369 81.104 15.4369C84.2376 15.4369 86.7773 12.8966 86.7773 9.76357V9.69434H75.4302V9.76357H75.4307Z" fill="#C9D7F5"/>
<path id="Vector_45" d="M75.4307 9.76357C75.4307 12.8971 77.971 15.4369 81.104 15.4369C84.2376 15.4369 86.7773 12.8966 86.7773 9.76357V9.69434H75.4302V9.76357H75.4307Z" fill="#7091DD"/>
<path id="Vector_46" d="M86.7779 9.76357C86.7779 12.8971 89.3182 15.4369 92.4512 15.4369C95.5842 15.4369 98.1245 12.8966 98.1245 9.76357V9.69434H86.7773V9.76357H86.7779Z" fill="#E0E7F9"/>
<g id="Group_7">
<path id="Vector_47" d="M98.1243 9.76357C98.1243 12.8971 100.665 15.4369 103.798 15.4369C106.931 15.4369 109.471 12.8966 109.471 9.76357V9.69434H98.1238V9.76357H98.1243Z" fill="#C9D7F5"/>
<path id="Vector_48" d="M98.1243 9.76357C98.1243 12.8971 100.665 15.4369 103.798 15.4369C106.931 15.4369 109.471 12.8966 109.471 9.76357V9.69434H98.1238V9.76357H98.1243Z" fill="#7091DD"/>
</g>
<path id="Vector_49" d="M109.472 9.76357C109.472 12.8971 112.012 15.4369 115.145 15.4369C118.278 15.4369 120.818 12.8966 120.818 9.76357V9.69434H109.471V9.76357H109.472Z" fill="#E0E7F9"/>
<g id="Group_8">
<path id="Vector_50" d="M120.818 9.76357C120.818 12.8971 123.358 15.4369 126.491 15.4369C129.625 15.4369 132.165 12.8966 132.165 9.76357V9.69434H120.818V9.76357H120.818Z" fill="#C9D7F5"/>
<path id="Vector_51" d="M120.818 9.76357C120.818 12.8971 123.358 15.4369 126.491 15.4369C129.625 15.4369 132.165 12.8966 132.165 9.76357V9.69434H120.818V9.76357H120.818Z" fill="#7091DD"/>
</g>
<path id="Vector_52" d="M132.165 9.76357C132.165 12.8971 134.706 15.4369 137.839 15.4369C140.972 15.4369 143.512 12.8966 143.512 9.76357V9.69434H132.165V9.76357H132.165Z" fill="#E0E7F9"/>
<g id="Group_9">
<path id="Vector_53" d="M143.513 9.76357C143.513 12.8971 146.053 15.4369 149.186 15.4369C152.319 15.4369 154.859 12.8966 154.859 9.76357V9.69434H143.512V9.76357H143.513Z" fill="#C9D7F5"/>
<path id="Vector_54" d="M143.513 9.76357C143.513 12.8971 146.053 15.4369 149.186 15.4369C152.319 15.4369 154.859 12.8966 154.859 9.76357V9.69434H143.512V9.76357H143.513Z" fill="#7091DD"/>
</g>
<path id="Vector_55" d="M154.859 9.76357C154.859 12.8971 157.4 15.4369 160.533 15.4369C163.666 15.4369 166.206 12.8966 166.206 9.76357V9.69434H154.859V9.76357H154.859Z" fill="#E0E7F9"/>
<g id="Group_10">
<path id="Vector_56" d="M166.206 9.76357C166.206 12.8971 168.747 15.4369 171.88 15.4369C175.013 15.4369 177.553 12.8966 177.553 9.76357V9.69434H166.206V9.76357H166.206Z" fill="#C9D7F5"/>
<path id="Vector_57" d="M166.206 9.76357C166.206 12.8971 168.747 15.4369 171.88 15.4369C175.013 15.4369 177.553 12.8966 177.553 9.76357V9.69434H166.206V9.76357H166.206Z" fill="#7091DD"/>
</g>
<path id="Vector_58" d="M176.772 13.0122C176.78 13.0189 176.796 13.0256 176.804 13.0322C176.808 13.0389 176.816 13.0456 176.824 13.0489L176.804 13.0122H176.772Z" fill="#C9D7F5"/>
</g>
</g>
<g id="Group_11">
<path id="Vector_59" d="M179.034 28.3428C179.683 25.5422 177.799 24.5817 176.128 22.9008C174.456 21.2198 175.337 21.8422 175.951 16.7215C176.433 12.7026 174.355 11.4566 173.438 11.1064C173.093 10.9743 172.776 10.777 172.491 10.5411C170.761 9.61524 168.971 8.63517 165.718 10.8711C163.965 12.0761 163.319 13.6573 163.349 14.5554L160.576 24.1958L159.822 31.9176C164.436 35.9377 179.516 34.4027 179.516 34.4027L178.507 32.4864L180.068 33.7629L181.361 33.092C181.361 33.092 178.383 31.144 179.033 28.3434L179.034 28.3428Z" fill="#697EAF"/>
<path id="Vector_60" d="M174.486 7.9566C173.464 7.63414 172.375 8.20177 172.052 9.22396C171.73 10.2461 172.297 11.3358 173.319 11.6583C174.342 11.9807 175.431 11.4131 175.754 10.3909C176.076 9.36874 175.509 8.27907 174.486 7.9566Z" fill="#697EAF"/>
<path id="Vector_61" d="M157.409 36.6832C157.366 36.8649 150.23 31.2977 150.23 31.2977L147.273 29.2308C147.273 29.2308 147.178 29.4852 146.892 29.6127C146.606 29.7402 146.447 29.9306 146.352 30.3119C146.256 30.6937 145.874 30.9158 145.812 31.1385C145.748 31.3606 147.45 33.7176 148.255 34.2997C148.255 34.2997 156.737 47.2748 159.04 45.6493C159.04 45.6493 161.447 44.4217 161.688 39.9603C161.745 38.8845 161.677 37.6218 161.42 36.1427C161.417 35.4032 161.413 34.8904 161.439 34.7744C161.439 34.7744 162.01 27.2563 163.246 25.6993C163.382 25.5286 163.792 25.2107 163.737 25.1963C159.963 24.2532 158.451 32.2928 157.41 36.6826L157.409 36.6832Z" fill="#BACBF2"/>
<path id="Vector_62" d="M148.873 29.1735C146.553 27.9852 144.949 28.018 144.761 28.1692C144.573 28.3209 145.696 29.4181 146.96 29.8011C146.96 29.8011 145.858 30.2666 144.079 29.6217C142.3 28.9768 141.696 28.0613 141.153 28.2147C140.608 28.3682 141.779 30.0739 144.523 30.9156C144.523 30.9156 143.185 30.9375 141.839 30.476C140.493 30.0151 140.405 30.9519 141.419 31.3696C141.419 31.3696 140.922 31.4843 141.021 31.9735C141.121 32.4604 142.011 32.4754 142.011 32.4754C142.011 32.4754 141.595 32.7004 141.874 33.1376C142.156 33.5749 143.982 33.7456 145.668 33.7479C147.355 33.7479 148.965 33.3822 148.965 33.3822L150.871 33.0274C150.871 33.0274 151.194 30.3612 148.873 29.1729L148.873 29.1735Z" fill="#BACBF2"/>
<path id="Vector_63" d="M148.62 31.6632C146.864 31.2756 146.912 30.1853 146.915 30.138C146.918 30.0936 146.884 30.055 146.839 30.0515C146.794 30.0481 146.756 30.0821 146.753 30.1265C146.752 30.1392 146.685 31.4025 148.584 31.8219C148.59 31.823 148.596 31.8236 148.602 31.8236C148.639 31.8236 148.673 31.7976 148.681 31.7602C148.691 31.7163 148.663 31.673 148.619 31.6632H148.62Z" fill="#9DB5ED"/>
<path id="Vector_64" d="M144.402 31.6502C142.94 31.671 141.454 31.2932 141.44 31.2891C141.396 31.2782 141.352 31.3041 141.341 31.3474C141.33 31.3907 141.356 31.4351 141.399 31.446C141.414 31.4501 142.839 31.8129 144.283 31.8129C144.324 31.8129 144.365 31.8129 144.405 31.8118C144.45 31.8112 144.486 31.7743 144.485 31.7293C144.485 31.6843 144.448 31.6491 144.403 31.6491L144.402 31.6502Z" fill="#9DB5ED"/>
<path id="Vector_65" d="M145.017 32.5809C143.224 32.657 142.038 32.3969 142.026 32.3946C141.982 32.3847 141.939 32.4124 141.929 32.4557C141.919 32.4995 141.947 32.5428 141.99 32.5526C142 32.5549 142.919 32.7568 144.36 32.7568C144.571 32.7568 144.792 32.7528 145.024 32.7424C145.069 32.7407 145.103 32.7026 145.101 32.6576C145.1 32.6126 145.062 32.578 145.017 32.5797L145.017 32.5809Z" fill="#9DB5ED"/>
<path id="Vector_66" d="M157.409 36.6832L161.11 40.4899C161.11 40.4899 161.329 40.2943 161.688 39.9603C161.745 38.8845 161.677 37.6218 161.419 36.1427C161.417 35.4032 161.413 34.8904 161.439 34.7744C161.439 34.7744 162.01 27.2563 163.246 25.6993C163.382 25.5286 163.791 25.2107 163.737 25.1963C159.963 24.2532 158.451 32.2928 157.41 36.6826L157.409 36.6832Z" fill="#9DB5ED"/>
<path id="Vector_67" d="M162.754 24.7273C162.387 24.7129 161.913 24.8231 161.325 25.1969C159.949 26.0714 157.641 30.9083 156.873 32.5812C156.71 32.9377 156.615 33.1505 156.615 33.1505L161.282 35.9327L163.736 25.1974C163.736 25.1974 163.425 24.7538 162.753 24.7279L162.754 24.7273Z" fill="#CEDAF6"/>
<path id="Vector_68" d="M162.734 26.3867C160.176 28.6244 157.859 33.8916 157.859 33.8916L161.282 35.9325L163.736 25.1973C163.736 25.1973 163.406 26.4127 162.734 26.3867H162.734Z" fill="#A4BAEE"/>
<g id="Group_12">
<path id="Vector_69" d="M169.543 22.2745C169.729 21.5586 169.874 20.9275 170.044 20.436H164.438C164.314 22.0951 163.956 26.1994 163.956 26.1994C163.893 29.6847 170.963 26.2086 170.963 26.2086C170.963 26.2086 168.843 24.9741 169.543 22.2745Z" fill="#BACBF2"/>
<path id="Vector_70" d="M168.897 21.7549C167.877 21.8207 164.288 21.9216 164.288 21.9216C163.243 28.0363 169.916 21.6891 168.897 21.7549Z" fill="#9DB5ED"/>
</g>
<g id="Group_13">
<path id="Vector_71" d="M164.315 118.645C164.315 118.645 165.467 119.397 166.63 120.822C167.794 122.246 169.047 118.567 169.047 118.567L169.829 113.018L163.933 112.876L164.315 118.645V118.645Z" fill="#ACC1EF"/>
<path id="Vector_72" d="M184.27 118.691C184.27 118.691 185.584 119.844 186.059 119.814C186.922 119.76 187.374 118.271 187.374 118.271L187.516 113.156H182.543L184.27 118.691V118.691Z" fill="#ACC1EF"/>
<path id="Vector_73" d="M169.045 117.7H169.045C168.899 117.679 168.751 117.719 168.661 117.806C168.199 118.254 166.718 119.602 165.929 119.329C165.4 119.146 164.715 118.818 164.501 118.63C164.357 118.502 164.09 118.498 163.931 118.616L159.284 122.383C159.046 122.559 159.216 122.857 159.556 122.859L166.416 122.915C166.581 122.916 166.729 122.841 166.784 122.728L167.302 121.667C167.451 121.361 167.749 121.336 167.722 121.66L167.975 122.684C167.961 122.845 169.601 122.801 169.616 122.654C169.706 121.744 169.516 118.766 169.353 117.937C169.329 117.818 169.208 117.723 169.045 117.699V117.7Z" fill="#A8BDEF"/>
<path id="Vector_74" d="M187.438 118.079C187.408 118.034 187.319 118.032 187.285 118.076C187.285 118.076 186.912 118.903 186.752 119.159C186.529 119.519 185.631 119.559 185.3 119.259L184.289 118.343C184.241 118.299 184.145 118.319 184.137 118.374L183.481 122.808C183.41 123.285 183.857 123.65 184.427 123.898C185.277 124.269 186.735 125.257 187.674 125.231C188.193 125.216 188.867 124.237 189.692 123.745C190.202 123.442 190.359 122.929 190.076 122.499L187.437 118.079H187.438Z" fill="#A8BDEF"/>
<path id="Vector_75" d="M174.467 44.1382C170.442 44.0182 165.598 43.3029 161.628 43.8503C152.947 58.1978 158.698 102.462 159.781 114.153C160.778 114.278 173.906 114.376 174.769 113.937C172.607 103.45 167.667 74.7374 166.863 67.9207C166.752 66.9839 168.17 66.7826 168.388 67.7004C169.806 73.6696 174.241 104.445 177.547 113.92C178.587 113.978 191.339 114.036 192.984 113.639C192.355 104.145 180.014 59.9924 178.68 54.7725C177.529 50.2713 176.47 47.6783 174.468 44.1382H174.467Z" fill="#678ADA"/>
<g id="Group_14">
<path id="Vector_76" d="M160.609 50.8562C161.558 46.9307 162.52 44.4803 162.529 44.456L162.385 44.3989C162.375 44.4232 161.411 46.8811 160.459 50.8164C159.581 54.4477 158.534 60.1171 158.534 66.5046C158.534 78.7177 162.808 113.407 162.851 113.756L163.005 113.737C162.962 113.388 158.689 78.7085 158.689 66.5046C158.689 60.1344 159.733 54.4789 160.609 50.8562H160.609Z" fill="white"/>
<path id="Vector_77" d="M172.585 44.9776L172.435 45.0166L190.318 113.572L190.468 113.533L172.585 44.9776Z" fill="white"/>
<path id="Vector_78" d="M172.936 55.0939C170.223 52.8407 170.113 45.4212 170.112 45.3462L169.957 45.3479C169.957 45.367 169.981 47.2544 170.345 49.3997C170.834 52.2898 171.673 54.2459 172.837 55.2127C173.383 55.6661 174 55.894 174.677 55.894C174.862 55.894 175.051 55.8772 175.245 55.8432L175.219 55.6909C174.362 55.8415 173.594 55.6407 172.936 55.0939H172.936Z" fill="white"/>
<path id="Vector_79" d="M163.791 45.0898C163.795 45.1717 164.239 53.3013 161.62 55.6335C161.031 56.1579 160.322 56.3517 159.511 56.2092L159.485 56.3615C159.667 56.3933 159.844 56.4094 160.016 56.4094C160.657 56.4094 161.23 56.1885 161.723 55.7489C162.849 54.7463 163.564 52.6443 163.851 49.501C164.063 47.1688 163.947 45.1013 163.945 45.0806L163.791 45.0898Z" fill="white"/>
</g>
<g id="Group_15" style="mix-blend-mode:multiply" opacity="0.21">
<path id="Vector_80" d="M161.548 44.5211L178.029 57.9416C178.029 57.9416 178.121 49.3453 175.217 43.894L161.548 44.5211Z" fill="#3169E9"/>
</g>
</g>
<g id="Group_16">
<path id="Vector_81" d="M174.611 27.0382C174.611 27.0382 173.433 26.4487 172.391 26.0812C171.967 25.9312 171.565 25.8188 171.274 25.7968C171.274 25.7968 166.983 27.5562 162.502 25.6953C162.618 25.9757 159.371 34.0695 159.509 36.8182C159.648 39.5871 159.97 46.3802 159.823 46.7972C159.823 46.7972 160.96 47.3285 163.628 47.6083C165.328 47.7859 167.649 47.8621 170.695 47.6337C172.291 47.5142 174.086 47.3106 176.094 46.9945C177.542 41.6228 175.859 30.6268 174.637 27.1121C174.629 27.0861 174.62 27.0613 174.611 27.0371V27.0382Z" fill="#CEDAF6"/>
<path id="Vector_82" d="M174.611 27.0381C174.611 27.0381 173.433 26.4485 172.391 26.0811C172.69 29.4885 174.309 34.2262 173.364 37.5293C172.96 38.9409 171.922 43.3838 170.695 47.6335C172.29 47.5141 174.085 47.3104 176.093 46.9943C177.541 41.6227 175.859 30.6267 174.637 27.1119C174.628 27.0859 174.619 27.0611 174.61 27.0369L174.611 27.0381Z" fill="#A4BAEE"/>
<path id="Vector_83" d="M164.219 23.4692L162.68 25.5621C162.423 26.8254 162.804 28.9303 163.01 29.8994C163.042 30.0517 163.254 30.0656 163.348 29.7725L164.663 25.9705C163.719 25.2442 164.219 23.4692 164.219 23.4692Z" fill="white"/>
<path id="Vector_84" d="M163.861 29.5757C163.71 29.5757 163.587 29.8059 163.587 30.0902C163.587 30.3746 163.71 30.6048 163.861 30.6048C164.013 30.6048 164.136 30.3746 164.136 30.0902C164.136 29.8059 164.013 29.5757 163.861 29.5757Z" fill="white"/>
<path id="Vector_85" d="M163.724 31.7715C163.572 31.7715 163.449 32.0017 163.449 32.286C163.449 32.5704 163.572 32.8006 163.724 32.8006C163.876 32.8006 163.999 32.5704 163.999 32.286C163.999 32.0017 163.876 31.7715 163.724 31.7715Z" fill="white"/>
</g>
<path id="Vector_86" d="M178.953 29.416C177.25 28.1019 172.126 24.7083 170.918 26.0731C169.945 27.1732 172.177 31.5769 175.729 33.9512C176.12 34.2125 177.482 34.8944 179.088 35.4516C180.623 35.984 182.379 36.4034 183.722 36.2327L184.406 33.3917C183.603 32.7364 182.637 32.0574 181.637 31.3565C180.739 30.7266 179.813 30.0794 178.953 29.416Z" fill="#BACBF2"/>
<path id="Vector_87" d="M170.918 26.0725C169.945 27.1726 172.177 31.5763 175.729 33.9506C176.12 34.2119 176.85 34.6642 178.456 35.2214C179.694 34.6902 182.24 33.5145 182.839 32.5073C181.94 31.8774 179.813 30.0794 178.953 29.416C177.25 28.1019 172.126 24.7083 170.918 26.0731V26.0725Z" fill="#9DB5ED"/>
<g id="Group_17">
<path id="Vector_88" d="M167.178 12.6484C166.33 10.9709 167.052 9.46879 167.294 9.04826L167.135 8.95654C166.882 9.39726 166.125 10.9715 167.014 12.7309C167.764 14.2146 169.43 15.2754 171.362 15.4992L171.383 15.3169C169.512 15.1 167.9 14.0773 167.178 12.6484Z" fill="#3A6FE9"/>
<path id="Vector_89" d="M169.971 9.2728C166.559 8.33138 164.223 10.1462 163.36 13.2756C163.36 13.2756 163.041 15.4746 163.003 15.639C162.998 15.6609 161.347 19.0505 164.013 22.4891C164.164 22.6835 164.407 22.7637 164.652 22.8289C169.761 24.1839 170.495 19.0897 170.495 19.0897C170.604 18.8434 173.006 16.525 173.08 16.2579C173.943 13.1291 173.382 10.2142 169.97 9.2728H169.971Z" fill="#BACBF2"/>
<path id="Vector_90" d="M167.64 8.95536C165.17 9.12265 162.528 10.7309 162.285 13.1745L164.286 13.4612C164.286 13.4612 164.749 11.8881 165.383 11.2334L165.199 13.4537C165.199 13.4537 169.422 14.2555 171.193 14.961C171.193 14.961 169.812 18.0852 170.696 18.5011C170.696 18.5011 174.283 18.6667 173.949 14.1072C173.615 9.54837 170.11 8.78865 167.641 8.95594L167.64 8.95536Z" fill="#697EAF"/>
<path id="Vector_91" d="M168.87 15.0062C168.825 14.9722 167.692 14.3209 167.427 14.5401C167.322 14.6272 167.288 14.8251 167.353 14.9676C167.463 15.2087 167.787 15.1418 168.495 15.4088C168.826 15.534 168.955 15.6246 168.992 15.5796C169.056 15.5029 169.216 15.2664 168.87 15.0068V15.0062Z" fill="#3A6FE9"/>
<path id="Vector_92" d="M163.786 14.1731C163.442 14.2643 163.425 14.4621 163.45 14.5406C163.464 14.5862 163.591 14.5573 163.883 14.5642C164.505 14.5798 164.732 14.731 164.89 14.581C164.983 14.4927 165.019 14.3312 164.965 14.232C164.831 13.9828 163.831 14.161 163.786 14.1731Z" fill="#3A6FE9"/>
<path id="Vector_93" d="M165.24 16.7261L165.127 16.5767C164.691 16.9072 164.486 17.2308 164.519 17.5383C164.562 17.9403 164.991 18.1457 165.01 18.1544L165.09 17.9848C165.086 17.983 164.736 17.814 164.705 17.5181C164.681 17.2833 164.866 17.0099 165.241 16.7261H165.24Z" fill="#507BDD"/>
<path id="Vector_94" d="M172.041 16.7912C171.132 16.4999 170.134 17.0785 169.812 18.0845C169.489 19.09 169.964 20.1416 170.872 20.4335C171.781 20.7248 172.779 20.1462 173.101 19.1402C173.423 18.1347 172.949 17.0831 172.041 16.7912Z" fill="#BACBF2"/>
<path id="Vector_95" d="M171.49 17.8391C171.183 17.9377 170.935 18.2054 170.753 18.6363L170.706 18.747L170.825 18.7655C171.005 18.7938 171.493 18.9259 171.589 19.1947L171.766 19.1312C171.648 18.8036 171.193 18.6576 170.974 18.6051C171.127 18.2896 171.319 18.0929 171.546 18.019C171.852 17.9198 172.126 18.0813 172.128 18.0831L172.226 17.9233C172.212 17.9146 171.88 17.7156 171.491 17.8402L171.49 17.8391Z" fill="#507BDD"/>
<path id="Vector_96" d="M168.324 19.3733C168.237 20.2853 168.728 21.1171 169.497 21.5106C170.342 20.3984 170.53 19.0987 170.53 19.0987C170.692 18.2934 170.69 17.4201 170.69 17.4201C169.497 17.3064 168.438 18.181 168.324 19.3739V19.3733Z" fill="#A8BDEF"/>
<path id="Vector_97" d="M162.756 16.3335C162.54 17.0846 162.321 18.3767 162.705 19.8708C163.215 19.5195 163.573 18.9541 163.636 18.2896C163.712 17.4999 163.353 16.7708 162.756 16.3335Z" fill="#A8BDEF"/>
<path id="Vector_98" d="M167.965 16.1267C167.834 16.088 167.676 16.238 167.609 16.4612C167.543 16.6845 167.595 16.8968 167.725 16.9354C167.855 16.9741 168.014 16.8241 168.08 16.6009C168.147 16.3776 168.095 16.1653 167.965 16.1267H167.965Z" fill="#507BDD"/>
<path id="Vector_99" d="M164.137 15.5265C164.018 15.4913 163.874 15.628 163.813 15.8311C163.752 16.0347 163.8 16.228 163.919 16.2632C164.037 16.2983 164.182 16.1622 164.243 15.9586C164.303 15.755 164.256 15.5617 164.137 15.5265Z" fill="#507BDD"/>
<path id="Vector_100" d="M171.085 10.158C169.733 9.44843 168.176 9.37806 168.3 9.41728C169.503 9.79685 170.278 10.3287 170.245 10.4372C170.209 10.5623 167.442 9.81012 167.397 9.95722C167.373 10.0368 168.207 10.1995 169.204 10.8485C170.293 11.5586 170.99 12.4683 171.16 12.3402C171.251 12.2721 171.089 11.9883 171.181 11.926C171.389 11.7841 172.463 13.0832 172.613 12.9707C172.697 12.9084 172.406 12.4798 172.519 12.3754C172.682 12.2237 173.475 12.9626 173.568 12.8726C173.69 12.7561 172.816 11.0659 171.085 10.158H171.085Z" fill="#3169E9"/>
</g>
<path id="Vector_101" d="M165.058 19.2805C164.417 19.1576 163.904 19.5083 163.883 19.5233L164.027 19.731C164.032 19.7281 164.474 19.4264 165.011 19.5291C165.389 19.6012 165.726 19.8573 166.012 20.2888L166.223 20.1492C165.898 19.6583 165.506 19.3658 165.059 19.2805H165.058Z" fill="#507BDD"/>
<path id="Vector_102" d="M171.98 25.3442C171.98 25.3442 170.292 25.4192 170.292 27.3332C170.292 29.2472 170.101 29.7174 171.303 31.7715C172.505 33.8257 177.395 36.2716 177.395 36.2716L179.162 29.576C179.162 29.576 175.845 25.5323 171.981 25.3442H171.98Z" fill="#CEDAF6"/>
<path id="Vector_103" d="M164.622 26.06L164.659 29.933C164.667 30.0415 164.786 30.1061 164.885 30.0553C165.839 29.565 170.04 27.6533 171.303 25.7849L169.625 23.5894C169.625 23.5894 167.625 25.0107 164.622 26.06Z" fill="white"/>
<g id="Group_18">
<path id="Vector_104" d="M178.413 13.8536C177.698 13.5202 175.163 14.3503 175.354 14.8631C175.458 15.1388 175.791 15.2496 176.073 15.1977C176.354 15.1458 177.587 15.0223 177.751 15.0338C177.936 15.0471 178.151 15.3442 178.407 16.0497C177.327 15.6447 176.917 15.399 176.38 15.6338C176.058 15.7751 175.887 16.1662 176.05 16.6104C175.871 16.4921 175.479 16.6035 175.336 16.7581C175.032 17.0886 175.059 17.4428 175.241 17.8495C174.523 17.7491 174.715 18.4777 174.847 19.0222C174.979 19.5668 175.163 20.1015 175.416 20.6016C175.571 20.9074 175.864 21.0758 176.057 20.916C176.351 20.6761 176.173 19.9013 176.076 19.4197C176.198 19.4179 176.561 19.5495 176.652 19.7121C176.241 20.5307 176.13 21.8015 176.888 22.6835C178.476 22.7695 179.406 22.3616 179.663 20.8641C179.892 19.5316 180.445 18.0237 180.381 17.1157C180.323 16.2949 179.011 14.1322 178.413 13.8542V13.8536Z" fill="#BACBF2"/>
<path id="Vector_105" d="M177.897 17.0891C177.358 16.852 176.787 16.6714 176.198 16.5532C176.146 16.5428 176.096 16.5762 176.086 16.6276C176.075 16.6789 176.109 16.7291 176.16 16.7395C176.736 16.8554 177.294 17.0314 177.82 17.2633C177.833 17.2685 177.846 17.2713 177.859 17.2713C177.895 17.2713 177.929 17.25 177.946 17.2148C177.967 17.1669 177.945 17.111 177.897 17.0896L177.897 17.0891Z" fill="#9DB5ED"/>
<path id="Vector_106" d="M176.955 18.3167C176.468 18.037 175.943 17.8431 175.394 17.7405C175.342 17.7306 175.293 17.7647 175.283 17.8166C175.273 17.8679 175.307 17.9175 175.359 17.9274C175.887 18.0254 176.393 18.2117 176.861 18.4811C176.876 18.4898 176.892 18.4938 176.908 18.4938C176.941 18.4938 176.973 18.4765 176.99 18.4465C177.016 18.401 177.001 18.3433 176.956 18.3173L176.955 18.3167Z" fill="#9DB5ED"/>
<path id="Vector_107" d="M184.559 28.6973C182.647 26.605 180.677 23.4514 179.451 20.8965C178.546 21.2812 177.637 21.6683 176.684 22.3628C178.254 26.0224 179.825 29.6797 181.395 33.3375C181.41 33.3761 181.428 33.4148 181.446 33.4546C181.973 34.6741 182.66 35.9916 183.927 36.3573C185.196 36.7265 187.196 36.182 187.316 34.1987C187.322 34.1197 187.321 34.0389 187.32 33.9559C187.28 32.3482 185.947 30.2185 184.559 28.6979L184.559 28.6973Z" fill="#BACBF2"/>
</g>
</g>
<g id="Group_19">
<path id="Vector_108" d="M216.079 14.895C214.558 12.1076 212.048 9.67586 208.928 8.07717C208.189 7.69986 207.473 7.38678 206.777 7.13081C205.141 6.52855 203.619 6.24487 202.224 6.18438L202.222 6.18396C199.823 6.08235 197.798 6.64129 196.194 7.39045C194.992 7.95345 194.185 8.97588 193.853 10.1339C193.488 11.4002 193.691 12.8242 194.565 13.9827C195.804 15.62 198.014 16.1761 199.878 15.3168C200.96 14.8176 202.212 14.5665 203.545 14.8352C204.06 14.9389 204.584 15.1203 205.118 15.3922C207.223 16.4696 208.091 18.9216 206.941 21.1668C205.317 24.3367 202.748 23.3631 199.223 23.5837C199.056 23.5949 198.887 23.6068 198.717 23.6229C195.919 23.9004 194.962 25.5356 193.91 27.5929L193.28 28.819C192.202 30.921 193.003 33.4908 195.064 34.6166C195.098 34.6347 195.133 34.6539 195.168 34.6715C196.725 35.4678 198.576 35.2508 199.875 34.1998C200.194 33.9435 200.48 33.6362 200.721 33.2814C201.21 32.5587 201.78 31.906 202.399 31.5462L202.399 31.5445C202.848 31.281 203.322 31.1733 203.811 31.3079C206.309 31.4824 208.678 31.358 210.739 30.7329C213.189 29.9905 215.203 28.5415 216.478 26.0508C217.516 24.0232 217.867 21.8817 217.646 19.7844C217.471 18.0983 216.928 16.4414 216.078 14.8929L216.079 14.895Z" fill="#A8BDEF"/>
<path id="Vector_109" d="M195.186 38.2518C194.78 37.8699 194.313 37.541 193.791 37.2727C193.704 37.2282 193.619 37.187 193.531 37.148C190.636 35.8342 187.196 37.0145 185.707 39.92C184.199 42.8652 185.361 46.47 188.307 47.9807C189.801 48.7466 191.447 48.8386 192.911 48.3731C194.377 47.9081 195.659 46.8807 196.413 45.4041C196.617 45.0064 196.773 44.5986 196.884 44.1846C197.46 42.0319 196.798 39.757 195.187 38.252L195.186 38.2518Z" fill="#A8BDEF"/>
<path id="Vector_110" d="M198.504 12.3197C196.309 12.6563 194.798 11.2071 193.853 10.1351C193.488 11.4014 193.692 12.8254 194.566 13.984C195.804 15.6212 198.014 16.1773 199.878 15.3181C200.96 14.8189 202.212 14.5677 203.545 14.8364C204.061 14.9402 204.585 15.1216 205.118 15.3935C207.224 16.4709 208.091 18.9229 206.941 21.168C205.317 24.338 202.749 23.3643 199.224 23.585C199.056 23.5962 198.888 23.6081 198.717 23.6241C195.919 23.9016 194.963 25.5369 193.91 27.5942L193.28 28.8202C192.203 30.9222 193.004 33.4921 195.065 34.6179C195.098 34.6359 195.133 34.6552 195.169 34.6727C196.726 35.4691 198.576 35.252 199.876 34.2011C198.001 34.568 196.168 33.2914 195.362 31.6934C194.897 30.7731 196.611 25.5365 199.418 25.9043C205.128 26.6527 210.914 24.8923 210.348 18.8402C209.784 12.7885 204.392 11.4171 198.503 12.3193L198.504 12.3197Z" fill="#9DB8F2"/>
<path id="Vector_111" d="M194.344 45.0827C191.209 47.5979 185.795 44.9381 188.143 40.2191C189.804 36.8883 193.284 37.5648 195.186 38.2518C194.78 37.8699 194.313 37.541 193.791 37.2727C193.704 37.2282 193.619 37.187 193.531 37.148C190.636 35.8342 187.196 37.0145 185.707 39.92C184.199 42.8652 185.361 46.47 188.307 47.9807C189.801 48.7466 191.447 48.8386 192.911 48.3731C194.377 47.9081 195.659 46.8807 196.413 45.4041C196.617 45.0064 196.773 44.5986 196.884 44.1846C196.359 43.9489 195.525 44.139 194.345 45.0838L194.344 45.0827Z" fill="#9DB8F2"/>
</g>
<g id="Group_20">
<g id="Group 427319235">
<path id="Vector_112" d="M35.0174 38.8736C38.9734 32.5263 37.0349 24.1739 30.6876 20.2179C24.3403 16.2619 15.9878 18.2004 12.0318 24.5477C8.07585 30.895 10.0144 39.2475 16.3617 43.2035C22.709 47.1594 31.0614 45.2209 35.0174 38.8736Z" fill="#CEDAF6"/>
<path id="Vector_113" d="M26.5599 18.4977C28.5088 20.0641 30.0474 22.1877 30.9031 24.7339C33.2853 31.8238 29.4689 39.5025 22.3796 41.8845C19.9174 42.7118 17.3841 42.7911 15.0267 42.2456C18.5049 45.0407 23.2907 46.06 27.8344 44.5335C34.9242 42.1513 38.7406 34.4726 36.3584 27.3827C34.8035 22.755 30.9924 19.5232 26.5612 18.498L26.5599 18.4977Z" fill="#C1D0F3"/>
<path id="Vector_114" d="M19.4688 19.8418C12.8866 22.0535 9.34356 29.1826 11.5552 35.7648C12.4742 38.4995 14.2425 40.7095 16.4675 42.2C14.8722 40.7895 13.6144 38.9549 12.888 36.7921C10.6763 30.2098 14.2193 23.0807 20.8016 20.869C24.6493 19.5763 28.6827 20.2503 31.813 22.3474C28.5546 19.4658 23.889 18.357 19.4694 19.8417L19.4688 19.8418Z" fill="#DEE6F9"/>
<path id="Vector_115" d="M17.3838 29.0995C16.8361 29.2835 16.5414 29.8766 16.7253 30.4237C16.9092 30.9714 17.5023 31.2661 18.0494 31.0822C18.5966 30.8984 18.8918 30.3052 18.708 29.7581C18.5241 29.2109 17.9309 28.9157 17.3838 29.0995Z" fill="#678ADA"/>
<path id="Vector_116" d="M26.8423 25.9208C26.2946 26.1048 25.9999 26.6979 26.1838 27.245C26.3677 27.7927 26.9608 28.0874 27.5079 27.9035C28.0557 27.7196 28.3503 27.1265 28.1665 26.5794C27.9825 26.0316 27.3894 25.737 26.8423 25.9208Z" fill="#678ADA"/>
<path id="Vector_117" d="M24.0288 32.5716C20.6894 33.6937 20.4801 36.2389 20.4725 36.3467L21.3932 36.4125C21.4 36.3292 21.5923 34.3641 24.3231 33.4467C26.6606 32.6614 28.4327 34.0379 28.5061 34.0961L29.0847 33.3767C28.9951 33.3045 26.8569 31.6215 24.0294 32.5715L24.0288 32.5716Z" fill="#678ADA"/>
</g>
</g>
<g id="Group_21">
<g id="Group_22">
<path id="Vector_118" d="M126.876 37.1795H87.6554C87.4172 37.1795 87.213 37.0105 87.1686 36.7763L85.7276 29.2108C85.7149 29.1433 85.6872 29.0822 85.6509 29.028V28.8076H73.9309V30.4816H84.2814L85.6514 38.0159L85.8037 38.853L88.5351 53.8765L89.1293 57.145L90.6003 65.2354C90.643 65.4713 90.8483 65.6426 91.0883 65.6426H120.3C120.574 65.6426 120.796 65.4205 120.796 65.1465V64.4641C120.796 64.1901 120.574 63.968 120.3 63.968H92.7589C92.5206 63.968 92.3164 63.799 92.272 63.5648L91.5042 59.5338C91.4459 59.228 91.6801 58.9448 91.9911 58.9448H121.786C122.014 58.9448 122.213 58.789 122.267 58.5669L122.585 57.2708L123.816 52.2481L124.226 50.5741L125.457 45.5514L125.835 44.0112L127.359 37.7939C127.435 37.4812 127.199 37.1801 126.877 37.1801L126.876 37.1795ZM112.623 43.263L113.611 39.2319C113.665 39.0099 113.864 38.8541 114.093 38.8541H118.373C118.695 38.8541 118.932 39.1558 118.855 39.4679L117.867 43.4989C117.813 43.721 117.614 43.8768 117.385 43.8768H113.104C112.783 43.8768 112.546 43.5751 112.623 43.263ZM105.926 43.263L106.914 39.2319C106.968 39.0099 107.167 38.8541 107.395 38.8541H111.676C111.998 38.8541 112.235 39.1558 112.158 39.4679L111.17 43.4989C111.116 43.721 110.916 43.8768 110.688 43.8768H106.407C106.085 43.8768 105.849 43.5751 105.926 43.263ZM99.2283 43.263L100.216 39.2319C100.271 39.0099 100.47 38.8541 100.698 38.8541H104.979C105.301 38.8541 105.537 39.1558 105.461 39.4679L104.472 43.4989C104.418 43.721 104.219 43.8768 103.991 43.8768H99.7099C99.3881 43.8768 99.1516 43.5751 99.2283 43.263ZM92.531 43.263L93.5191 39.2319C93.5734 39.0099 93.7724 38.8541 94.0008 38.8541H98.2817C98.6035 38.8541 98.8401 39.1558 98.7633 39.4679L97.7752 43.4989C97.7209 43.721 97.5219 43.8768 97.2935 43.8768H93.0127C92.6908 43.8768 92.4543 43.5751 92.531 43.263ZM88.444 43.4741L87.6762 39.4431C87.6179 39.1373 87.8521 38.8541 88.1631 38.8541H91.5838C91.9057 38.8541 92.1422 39.1558 92.0655 39.4679L91.0773 43.4989C91.0231 43.721 90.8241 43.8768 90.5956 43.8768H88.9303C88.692 43.8768 88.4878 43.7078 88.4428 43.4736L88.444 43.4741ZM89.172 47.2969L88.9516 46.1404C88.8934 45.8346 89.1276 45.5514 89.4391 45.5514H89.9427C90.2645 45.5514 90.501 45.8531 90.4243 46.1652L90.1411 47.3217C90.0142 47.8392 89.2718 47.8202 89.1726 47.2964L89.172 47.2969ZM95.4799 52.8624L94.4917 56.8935C94.4375 57.1156 94.2385 57.2713 94.0101 57.2713H91.4817C91.2435 57.2713 91.0393 57.1023 90.9948 56.8681L90.2282 52.844C90.2149 52.7742 90.2167 52.7021 90.2334 52.6328L90.2351 52.6259C90.2893 52.4038 90.4884 52.2481 90.7168 52.2481H94.9976C95.3195 52.2481 95.556 52.5498 95.4793 52.8619L95.4799 52.8624ZM91.3709 50.5741C91.0491 50.5741 90.8126 50.2724 90.8893 49.9603L91.8774 45.9292C91.9316 45.7071 92.1307 45.5514 92.3591 45.5514H96.6399C96.9618 45.5514 97.1983 45.8531 97.1216 46.1652L96.1334 50.1962C96.0792 50.4183 95.8802 50.5741 95.6518 50.5741H91.3709ZM102.177 52.8624L101.189 56.8935C101.135 57.1156 100.936 57.2713 100.707 57.2713H96.4265C96.1046 57.2713 95.8681 56.9696 95.9448 56.6576L96.933 52.6265C96.9872 52.4044 97.1862 52.2487 97.4146 52.2487H101.695C102.017 52.2487 102.254 52.5504 102.177 52.8624ZM98.0682 50.5741C97.7463 50.5741 97.5098 50.2724 97.5865 49.9603L98.5747 45.9292C98.6289 45.7071 98.8279 45.5514 99.0564 45.5514H103.337C103.659 45.5514 103.896 45.8531 103.819 46.1652L102.831 50.1962C102.777 50.4183 102.577 50.5741 102.349 50.5741H98.0682ZM108.874 52.8624L107.886 56.8935C107.832 57.1156 107.633 57.2713 107.405 57.2713H103.124C102.802 57.2713 102.565 56.9696 102.642 56.6576L103.63 52.6265C103.684 52.4044 103.883 52.2487 104.112 52.2487H108.393C108.715 52.2487 108.951 52.5504 108.874 52.8624ZM104.766 50.5741C104.444 50.5741 104.207 50.2724 104.284 49.9603L105.272 45.9292C105.326 45.7071 105.525 45.5514 105.754 45.5514H110.034C110.356 45.5514 110.593 45.8531 110.516 46.1652L109.528 50.1962C109.474 50.4183 109.275 50.5741 109.046 50.5741H104.766ZM115.572 52.8624L114.584 56.8935C114.529 57.1156 114.33 57.2713 114.102 57.2713H109.821C109.499 57.2713 109.263 56.9696 109.339 56.6576L110.328 52.6265C110.382 52.4044 110.581 52.2487 110.809 52.2487H115.09C115.412 52.2487 115.648 52.5504 115.572 52.8624ZM111.463 50.5741C111.141 50.5741 110.904 50.2724 110.981 49.9603L111.969 45.9292C112.023 45.7071 112.222 45.5514 112.451 45.5514H116.732C117.054 45.5514 117.29 45.8531 117.213 46.1652L116.225 50.1962C116.171 50.4183 115.972 50.5741 115.744 50.5741H111.463ZM122.269 52.8624L121.281 56.8935C121.227 57.1156 121.028 57.2713 120.799 57.2713H116.518C116.196 57.2713 115.96 56.9696 116.037 56.6576L117.025 52.6265C117.079 52.4044 117.278 52.2487 117.506 52.2487H121.787C122.109 52.2487 122.346 52.5504 122.269 52.8624ZM123.911 46.1652L122.923 50.1962C122.868 50.4183 122.669 50.5741 122.441 50.5741H118.16C117.838 50.5741 117.602 50.2724 117.678 49.9603L118.667 45.9292C118.721 45.7071 118.92 45.5514 119.148 45.5514H123.429C123.751 45.5514 123.987 45.8531 123.911 46.1652ZM125.552 39.4679L124.564 43.4989C124.51 43.721 124.311 43.8768 124.083 43.8768H119.802C119.48 43.8768 119.243 43.5751 119.32 43.263L120.308 39.2319C120.362 39.0099 120.561 38.8541 120.79 38.8541H125.071C125.393 38.8541 125.629 39.1558 125.552 39.4679Z" fill="#8BA8EB"/>
<path id="Vector_119" d="M116.635 71.7319C118.46 71.4356 119.7 69.7155 119.404 67.89C119.107 66.0645 117.387 64.8249 115.562 65.1212C113.736 65.4175 112.497 67.1376 112.793 68.9631C113.089 70.7886 114.809 72.0282 116.635 71.7319Z" fill="#B5C8F1"/>
<path id="Vector_120" d="M95.5105 71.7822C97.3599 71.7822 98.8591 70.283 98.8591 68.4336C98.8591 66.5842 97.3599 65.085 95.5105 65.085C93.6611 65.085 92.1619 66.5842 92.1619 68.4336C92.1619 70.283 93.6611 71.7822 95.5105 71.7822Z" fill="#B5C8F1"/>
<path id="Vector_121" d="M96.1893 70.5063C97.3374 70.2087 98.027 69.0367 97.7294 67.8885C97.4318 66.7404 96.2598 66.0508 95.1117 66.3484C93.9635 66.646 93.274 67.818 93.5715 68.9662C93.8691 70.1143 95.0411 70.8039 96.1893 70.5063Z" fill="#8BA8EB"/>
<path id="Vector_122" d="M116.52 70.5308C117.674 70.2584 118.389 69.1017 118.116 67.9473C117.844 66.7929 116.687 66.078 115.533 66.3504C114.378 66.6229 113.664 67.7796 113.936 68.934C114.208 70.0883 115.365 70.8033 116.52 70.5308Z" fill="#8BA8EB"/>
<path id="Vector_123" d="M78.9536 27.9712H73.9304C73.0058 27.9712 72.2563 28.7207 72.2563 29.6452V29.6458C72.2563 30.5703 73.0058 31.3198 73.9304 31.3198H78.9536C79.8782 31.3198 80.6277 30.5703 80.6277 29.6458V29.6452C80.6277 28.7207 79.8782 27.9712 78.9536 27.9712Z" fill="#B5C8F1"/>
<g id="Group_23">
<path id="Vector_124" d="M135.403 42.6513C139.002 39.0518 139.002 33.2158 135.403 29.6163C131.803 26.0167 125.967 26.0167 122.368 29.6163C118.768 33.2158 118.768 39.0518 122.368 42.6513C125.967 46.2508 131.803 46.2508 135.403 42.6513Z" fill="#8BA8E9"/>
<path id="Vector_125" d="M129.573 35.0489L128.922 34.1064L128.279 35.0489H129.573Z" fill="white"/>
<path id="Vector_126" d="M129.725 36.9328L130.415 35.9698L129.725 35.0068V36.9328Z" fill="white"/>
<path id="Vector_127" d="M129.725 36.9332V35.0072L130.415 35.9702L133.754 31.3198H130.824L128.923 34.1059L129.573 35.0483H128.28L128.923 34.1059L127.001 31.3198H123.933L127.292 36.0628L127.991 35.0895L127.978 37.0296L127.292 36.0628L123.781 40.9497H126.89L128.856 37.9707L128.225 37.0296H129.477L128.856 37.9707L130.853 40.9497H133.988L130.415 35.9702L129.725 36.9332Z" fill="white"/>
<path id="Vector_128" d="M127.99 35.0894L127.292 36.0626L127.978 37.0295L127.99 35.0894Z" fill="white"/>
<path id="Vector_129" d="M128.224 37.0298L128.856 37.9709L129.477 37.0298H128.224Z" fill="white"/>
</g>
</g>
<g id="Group_24">
<path id="Vector_130" d="M104.018 18.3674C103.749 17.7763 103.34 17.4289 102.866 17.3895C102.391 17.3496 101.93 17.6247 101.567 18.1631L95.4737 27.1946C95.1125 27.73 95.0298 28.2671 95.2408 28.707C95.4531 29.1494 95.9276 29.4228 96.5766 29.4771L107.063 30.3524C107.713 30.4066 108.226 30.2154 108.509 29.8146C108.79 29.4154 108.797 28.8723 108.53 28.2843L104.018 18.3674Z" fill="#8BA8E9"/>
<path id="Vector_131" d="M102.067 26.9537C101.682 26.9211 101.342 27.2081 101.31 27.5944C101.278 27.9806 101.565 28.3191 101.95 28.3517C102.337 28.384 102.676 28.097 102.708 27.7108C102.74 27.3246 102.453 26.9855 102.067 26.9537Z" fill="white"/>
<path id="Vector_132" d="M102.748 20.2074L102.515 20.188C102.13 20.1557 101.808 20.4449 101.799 20.831L101.687 25.3988C101.677 25.7844 101.879 26.1173 102.135 26.1389C102.391 26.1605 102.646 25.8655 102.7 25.4835L103.347 20.9605C103.402 20.5785 103.132 20.2398 102.748 20.2081L102.748 20.2074Z" fill="white"/>
</g>
</g>
</g>
</g>
</svg>
