<svg width="16" height="12" viewBox="0 0 16 12" fill="none" xmlns="http://www.w3.org/2000/svg">
<path fill-rule="evenodd" clip-rule="evenodd" d="M10.9759 1.17089C10.709 0.903974 10.2762 0.903974 10.0093 1.17089C9.74238 1.43781 9.74238 1.87057 10.0093 2.13748L13.7049 5.83312C13.674 5.83177 13.6428 5.83108 13.6112 5.83108H2.09282C1.46648 5.83108 0.95874 6.10308 0.95874 6.43862C0.95874 6.77415 1.46648 7.04616 2.09282 7.04616H13.6112C13.6428 7.04616 13.674 7.04547 13.7048 7.04412L10.0093 10.7397C9.74238 11.0066 9.74238 11.4393 10.0093 11.7063C10.2762 11.9732 10.709 11.9732 10.9759 11.7063L15.7603 6.92187C16.0272 6.65495 16.0272 6.22219 15.7603 5.95528L10.9759 1.17089Z" fill="white"/>
</svg>
