<svg width="16" height="12" viewBox="0 0 16 12" fill="none" xmlns="http://www.w3.org/2000/svg">
<g id="Group 39">
<path id="Union" fill-rule="evenodd" clip-rule="evenodd" d="M10.238 0.512688C9.97106 0.245771 9.5383 0.245771 9.27139 0.512688C9.00447 0.779605 9.00447 1.21236 9.27139 1.47928L12.967 5.17492C12.9361 5.17356 12.9049 5.17287 12.8733 5.17287H1.3549C0.728569 5.17287 0.220825 5.44488 0.220825 5.78041C0.220825 6.11595 0.728569 6.38796 1.3549 6.38796H12.8733C12.9048 6.38796 12.9361 6.38727 12.9669 6.38592L9.27139 10.0815C9.00447 10.3484 9.00447 10.7811 9.27139 11.0481C9.5383 11.315 9.97106 11.315 10.238 11.0481L15.0224 6.26366C15.2893 5.99675 15.2893 5.56399 15.0224 5.29707L10.238 0.512688Z" fill="white"/>
</g>
</svg>
