<svg width="16" height="20" viewBox="0 0 16 20" fill="none" xmlns="http://www.w3.org/2000/svg">
<g id="Group 427319165">
<path id="Fill 4" d="M10.1253 16.2922C9.69617 16.1799 7.08142 16.1799 6.65232 16.2922C6.28548 16.3961 5.88879 16.6376 5.88879 17.1674C5.91012 17.6728 6.15155 18.1188 6.48596 18.4017L6.48511 18.4028C6.91763 18.816 7.42522 19.0787 7.9567 19.173C8.23993 19.2207 8.52828 19.2186 8.82174 19.173C9.35237 19.0787 9.85996 18.816 10.2925 18.4028L10.2916 18.4017C10.626 18.1188 10.8675 17.6728 10.8888 17.1674C10.8888 16.6376 10.4921 16.3961 10.1253 16.2922Z" fill="#10A4FD"/>
<path id="Fill 1" d="M15.2442 9.25429C14.5997 8.45423 14.3068 7.7609 14.3068 6.58301V6.1825C14.3068 4.64755 13.9744 3.65857 13.2518 2.66959C12.1381 1.1337 10.2632 0.208008 8.42782 0.208008H8.34977C6.55293 0.208008 4.73679 1.09119 3.60379 2.56475C2.84173 3.57356 2.47079 4.60505 2.47079 6.1825V6.58301C2.47079 7.7609 2.19718 8.45423 1.53334 9.25429C1.04489 9.84371 0.888794 10.6013 0.888794 11.4212C0.888794 12.242 1.14223 13.0194 1.65085 13.6513C2.31469 14.4089 3.25214 14.8925 4.20975 14.9766C5.59619 15.1447 6.98263 15.208 8.38923 15.208C9.79496 15.208 11.1814 15.1022 12.5687 14.9766C13.5254 14.8925 14.4629 14.4089 15.1267 13.6513C15.6345 13.0194 15.8888 12.242 15.8888 11.4212C15.8888 10.6013 15.7327 9.84371 15.2442 9.25429Z" fill="#10A4FD"/>
</g>
</svg>
