<svg width="51" height="51" viewBox="0 0 51 51" fill="none" xmlns="http://www.w3.org/2000/svg">
<g id="heroicons:user-16-solid" clip-path="url(#clip0_6677_1312)">
<path id="Vector" d="M25.5014 25.5001C29.0143 25.5001 32.3833 24.2791 34.8672 22.1056C37.3512 19.9321 38.7467 16.9843 38.7467 13.9105C38.7467 10.8368 37.3512 7.88891 34.8672 5.71544C32.3833 3.54197 29.0143 2.32092 25.5014 2.32092C21.9886 2.32092 18.6196 3.54197 16.1356 5.71544C13.6517 7.88891 12.2562 10.8368 12.2562 13.9105C12.2562 16.9843 13.6517 19.9321 16.1356 22.1056C18.6196 24.2791 21.9886 25.5001 25.5014 25.5001ZM46.4068 48.6793C49.1354 48.6793 51.2325 46.512 50.2568 44.2791C48.3428 39.8908 44.9507 36.1146 40.5297 33.4504C36.1087 30.7863 30.8673 29.3598 25.4992 29.3598C20.1312 29.3598 14.8897 30.7863 10.4687 33.4504C6.04773 36.1146 2.65568 39.8908 0.741648 44.2791C-0.22967 46.512 1.86308 48.6793 4.5916 48.6793H46.4068Z" fill="white"/>
</g>
<defs>
<clipPath id="clip0_6677_1312">
<rect width="50" height="50" fill="white" transform="translate(0.5 0.5)"/>
</clipPath>
</defs>
</svg>
