<svg width="29" height="29" viewBox="0 0 29 29" fill="none" xmlns="http://www.w3.org/2000/svg">
<g clip-path="url(#clip0_1681_6824)">
<path fill-rule="evenodd" clip-rule="evenodd" d="M14.0176 28.625C6.28559 28.625 0.0175781 22.357 0.0175781 14.625C0.0175781 6.89301 6.28559 0.625 14.0176 0.625C21.7496 0.625 28.0176 6.89301 28.0176 14.625C28.0176 22.357 21.7496 28.625 14.0176 28.625ZM20.562 8.08061C20.2702 7.78889 19.8746 7.625 19.462 7.625H8.57313C8.16057 7.625 7.76491 7.78889 7.47319 8.08061C7.18147 8.37233 7.01758 8.768 7.01758 9.18056V20.0694C7.01758 20.482 7.18147 20.8777 7.47319 21.1694C7.76491 21.4611 8.16057 21.625 8.57313 21.625H19.462C19.8746 21.625 20.2702 21.4611 20.562 21.1694C20.8537 20.8777 21.0176 20.482 21.0176 20.0694V9.18056C21.0176 8.768 20.8537 8.37233 20.562 8.08061ZM19.0731 15.5583V19.6806H16.9031V15.8461C16.9031 15.5573 16.7884 15.2804 16.5842 15.0762C16.38 14.8719 16.103 14.7572 15.8142 14.7572C15.2154 14.7572 14.7331 15.2472 14.7331 15.8461V19.6806H12.5631V13.1706H14.7331V14.0339C15.1065 13.4272 15.8765 13.0228 16.5376 13.0228C17.21 13.0228 17.855 13.2899 18.3305 13.7654C18.806 14.2409 19.0731 14.8859 19.0731 15.5583ZM10.9593 11.5667C10.7143 11.8118 10.3819 11.9494 10.0354 11.9494C9.31202 11.9494 8.72091 11.3661 8.72091 10.6428C8.72091 10.2942 8.8594 9.95983 9.1059 9.71333C9.35241 9.46682 9.68674 9.32833 10.0354 9.32833C10.7587 9.32833 11.342 9.91945 11.342 10.6428C11.342 10.9893 11.2044 11.3217 10.9593 11.5667ZM11.1165 13.1706V19.6806H8.96202V13.1706H11.1165Z" fill="#A2A3A3"/>
</g>
<defs>
<clipPath id="clip0_1681_6824">
<rect width="28" height="28" fill="white" transform="translate(0.0175781 0.625)"/>
</clipPath>
</defs>
</svg>
