<svg width="46" height="42" viewBox="0 0 46 42" fill="none" xmlns="http://www.w3.org/2000/svg">
<path fill-rule="evenodd" clip-rule="evenodd" d="M16.0266 37.1649H20.5058C30.1744 37.1649 38.1992 31.0944 39.5347 23.2202C40.9245 25.0898 41.7313 27.299 41.7313 29.6672C41.7313 32.4212 40.6465 35.06 38.6541 37.2008L41.4081 39.9525C41.7224 40.2691 41.8176 40.7451 41.6472 41.159C41.4767 41.573 41.0716 41.8431 40.6244 41.8431H27.3416C22.7504 41.8431 18.6605 40.0095 16.0266 37.1649Z" fill="white"/>
<path d="M18.9672 3.46973C8.61605 3.46973 0.194157 10.5948 0.194157 19.3546C0.194157 22.9475 1.60936 26.3873 4.20871 29.1831L0.615829 32.776C0.202821 33.189 0.0786302 33.8099 0.303907 34.35C0.526296 34.8872 1.05483 35.2396 1.63824 35.2396H18.9672C29.3184 35.2396 37.7403 28.1145 37.7403 19.3546C37.7403 10.5948 29.3184 3.46973 18.9672 3.46973ZM21.8554 23.6869H10.3027C9.50561 23.6869 8.85866 23.0399 8.85866 22.2428C8.85866 21.4457 9.50561 20.7987 10.3027 20.7987H21.8554C22.6525 20.7987 23.2995 21.4457 23.2995 22.2428C23.2995 23.0399 22.6525 23.6869 21.8554 23.6869ZM27.6317 17.9106H10.3027C9.50561 17.9106 8.85866 17.2636 8.85866 16.4665C8.85866 15.6693 9.50561 15.0224 10.3027 15.0224H27.6317C28.4289 15.0224 29.0758 15.6693 29.0758 16.4665C29.0758 17.2636 28.4289 17.9106 27.6317 17.9106Z" fill="white"/>
<path d="M36.1543 14.1567C39.468 14.1567 42.1543 11.4704 42.1543 8.15674C42.1543 4.84303 39.468 2.15674 36.1543 2.15674C32.8406 2.15674 30.1543 4.84303 30.1543 8.15674C30.1543 11.4704 32.8406 14.1567 36.1543 14.1567Z" fill="#F13438"/>
<path d="M37.078 4.03271V11.1567H35.6718V5.65381L33.9823 6.19092V5.08252L36.9267 4.03271H37.078Z" fill="white"/>
</svg>
