<svg width="48" height="49" viewBox="0 0 48 49" fill="none" xmlns="http://www.w3.org/2000/svg">
<g id="icon thu tuc">
<path id="Vector" d="M31.3659 26.4642C31.3659 26.0735 31.2107 25.6987 30.9344 25.4225C30.6582 25.1462 30.2834 24.991 29.8927 24.991H18.107C17.7163 24.991 17.3416 25.1462 17.0653 25.4225C16.789 25.6987 16.6338 26.0735 16.6338 26.4642C16.6338 26.8549 16.789 27.2296 17.0653 27.5059C17.3416 27.7822 17.7163 27.9374 18.107 27.9374H29.8927C30.2834 27.9374 30.6582 27.7822 30.9344 27.5059C31.2107 27.2296 31.3659 26.8549 31.3659 26.4642ZM31.3659 34.3213C31.3659 33.9306 31.2107 33.5559 30.9344 33.2796C30.6582 33.0033 30.2834 32.8481 29.8927 32.8481H18.107C17.7163 32.8481 17.3416 33.0033 17.0653 33.2796C16.789 33.5559 16.6338 33.9306 16.6338 34.3213C16.6338 34.712 16.789 35.0868 17.0653 35.363C17.3416 35.6393 17.7163 35.7945 18.107 35.7945H29.8927C30.2834 35.7945 30.6582 35.6393 30.9344 35.363C31.2107 35.0868 31.3659 34.712 31.3659 34.3213Z" fill="white"/>
<path id="Vector_2" fill-rule="evenodd" clip-rule="evenodd" d="M14.1791 5.34814C12.7465 5.34814 11.3725 5.91726 10.3595 6.93029C9.34646 7.94332 8.77734 9.31729 8.77734 10.7499V38.2499C8.77734 39.6826 9.34646 41.0565 10.3595 42.0696C11.3725 43.0826 12.7465 43.6517 14.1791 43.6517H33.822C35.2546 43.6517 36.6286 43.0826 37.6416 42.0696C38.6547 41.0565 39.2238 39.6826 39.2238 38.2499V16.5799C39.2238 15.8315 38.9802 15.1048 38.5284 14.5076L32.6395 6.71332C32.3191 6.28927 31.9047 5.94529 31.4289 5.70841C30.9531 5.47153 30.4288 5.34822 29.8973 5.34814H14.1791ZM11.7238 10.7499C11.7238 9.39457 12.8238 8.29457 14.1791 8.29457H28.4202V16.9315C28.4202 17.7448 29.0802 18.4048 29.8934 18.4048H36.2773V38.2499C36.2773 39.6053 35.1773 40.7053 33.822 40.7053H14.1791C12.8238 40.7053 11.7238 39.6053 11.7238 38.2499V10.7499Z" fill="white"/>
</g>
</svg>
