<svg width="46" height="46" viewBox="0 0 46 46" fill="none" xmlns="http://www.w3.org/2000/svg">
<path d="M44.3769 42.9051H40.4981V33.6893C40.4981 32.9262 39.9087 32.3075 39.1815 32.3075H29.8769V26.2974C29.8769 25.5342 29.2874 24.9155 28.5603 24.9155H17.9287C17.2016 24.9155 16.6121 25.5342 16.6121 26.2974V29.8194H7.30767C6.58055 29.8194 5.99107 30.4381 5.99107 31.2012V42.9051H1.99617C0.249315 42.9782 0.250632 45.5964 1.99617 45.6688H44.3769C46.1238 45.5957 46.1224 42.9774 44.3769 42.9051ZM27.2437 27.6792C27.246 31.2683 27.2268 39.2702 27.2333 42.9051H19.2558C19.2605 40.3092 19.2505 30.0405 19.2453 27.6792H27.2437ZM8.62426 32.583H16.6122V42.9051H8.62426V32.583ZM29.8769 42.9051V35.0711H37.8649V42.9051H29.8769Z" fill="#0063E2"/>
<path d="M16.3768 9.46245H16.7681C17.4537 12.0724 19.5154 14.0882 22.0797 14.5928V17.0729H20.9604C19.2135 17.146 19.2148 19.7643 20.9604 19.8366H25.8323C27.5791 19.7635 27.5778 17.1452 25.8323 17.0729H24.7129V14.5708C27.2234 14.0289 29.2329 12.033 29.9081 9.46245H30.3036C32.8726 9.46245 34.9627 7.26884 34.9627 4.57261V2.05078C34.9627 1.28764 34.3732 0.668945 33.6461 0.668945H28.8413C28.8399 0.669037 28.8385 0.669037 28.8371 0.668945H13.0344C12.3073 0.668945 11.7178 1.28764 11.7178 2.05078V4.57261C11.7178 7.26884 13.8078 9.46245 16.3768 9.46245ZM32.3296 4.57261C32.3296 5.74505 31.4208 6.69879 30.3037 6.69879H30.1538V3.43261H32.3296V4.57261ZM27.5206 7.56372C27.2902 13.3886 19.3841 13.3841 19.1557 7.56372V3.43261H27.5206V7.56372ZM14.351 3.43261H16.5226V6.69879H16.3768C15.2598 6.69879 14.351 5.74496 14.351 4.57261V3.43261Z" fill="#00ACF8"/>
<path d="M33.7373 21.9446C33.7373 22.489 34.042 22.9829 34.5153 23.2055L37.2643 24.4988L38.4964 27.3837C38.9526 28.466 40.4432 28.4654 40.8992 27.3838L42.1315 24.4988L44.8804 23.2055C45.9114 22.7266 45.911 21.1621 44.8803 20.6836L42.1315 19.3904L40.8992 16.5052C40.4429 15.4231 38.9523 15.4236 38.4964 16.5053L37.2643 19.3904L34.5154 20.6836C34.0421 20.9063 33.7373 21.4001 33.7373 21.9446ZM38.1653 21.697C38.4601 21.5583 39.3299 20.6455 39.462 20.336L39.698 19.7836L39.9339 20.336C40.066 20.6454 40.9357 21.5583 41.2307 21.697L41.7569 21.9446L41.2306 22.1922C40.9358 22.3309 40.066 23.2437 39.9339 23.5531L39.698 24.1055L39.462 23.5532C39.3299 23.2438 38.4602 22.3309 38.1654 22.1922L37.639 21.9446L38.1653 21.697Z" fill="#0063E2"/>
<path d="M1.49488 17.2085L4.24376 18.5017L5.47591 21.3868C5.93207 22.469 7.4228 22.4686 7.8787 21.3868L9.11085 18.5017L11.8597 17.2085C12.8909 16.7297 12.8904 15.1651 11.8597 14.6867L9.11085 13.3935L7.8787 10.5083C7.42254 9.42604 5.9318 9.4265 5.47591 10.5083L4.24376 13.3934L1.49488 14.6867C0.463726 15.1654 0.464165 16.73 1.49488 17.2085ZM5.14475 15.7C5.43958 15.5614 6.3094 14.6485 6.4415 14.339L6.67744 13.7867L6.91337 14.339C7.04547 14.6484 7.9152 15.5614 8.21012 15.7L8.73632 15.9476L8.21012 16.1953C7.91529 16.3339 7.04547 17.2467 6.91337 17.5563L6.67744 18.1085L6.4415 17.5563C6.3094 17.2468 5.43967 16.3339 5.14475 16.1953L4.61855 15.9476L5.14475 15.7Z" fill="#0063E2"/>
</svg>
