<svg width="7" height="14" viewBox="0 0 7 14" fill="none" xmlns="http://www.w3.org/2000/svg">
<g id="icon-right">
<path id="Vector" fill-rule="evenodd" clip-rule="evenodd" d="M0.146894 1.13029C0.193339 1.08373 0.248515 1.04679 0.30926 1.02158C0.370005 0.996373 0.435126 0.983398 0.500894 0.983398C0.566661 0.983398 0.631782 0.996373 0.692527 1.02158C0.753272 1.04679 0.808448 1.08373 0.854894 1.13029L6.85489 7.13029C6.90146 7.17674 6.9384 7.23191 6.96361 7.29266C6.98881 7.3534 7.00179 7.41852 7.00179 7.48429C7.00179 7.55006 6.98881 7.61518 6.96361 7.67593C6.9384 7.73667 6.90146 7.79185 6.85489 7.83829L0.854894 13.8383C0.761007 13.9322 0.633669 13.9849 0.500894 13.9849C0.368118 13.9849 0.24078 13.9322 0.146894 13.8383C0.0530069 13.7444 0.000261784 13.6171 0.000261784 13.4843C0.000261784 13.3515 0.0530069 13.2242 0.146894 13.1303L5.79389 7.48429L0.146894 1.83829C0.10033 1.79185 0.0633873 1.73667 0.0381808 1.67593C0.0129744 1.61518 0 1.55006 0 1.48429C0 1.41852 0.0129744 1.3534 0.0381808 1.29266C0.0633873 1.23191 0.10033 1.17674 0.146894 1.13029Z" fill="#1C1C1C"/>
</g>
</svg>
