<svg width="46" height="46" viewBox="0 0 46 46" fill="none" xmlns="http://www.w3.org/2000/svg">
<path d="M36.9877 23.8724C36.86 26.5481 35.965 29.1305 34.4094 31.3112L33.2635 30.4961C34.6494 28.5532 35.4529 26.2556 35.5798 23.8724H34.1927V22.4661H35.5798C35.453 20.083 34.6496 17.7854 33.2638 15.8424L34.4097 15.0273C35.9652 17.2081 36.8601 19.7905 36.9877 22.4661H38.5004C38.6716 21.8033 39.0786 21.2257 39.6451 20.8415C40.2117 20.4573 40.8989 20.2929 41.578 20.3792C42.2571 20.4654 42.8814 20.7964 43.3339 21.31C43.7865 21.8237 44.0361 22.4847 44.0361 23.1693C44.0361 23.8538 43.7865 24.5149 43.3339 25.0285C42.8814 25.5421 42.2571 25.8731 41.578 25.9594C40.8989 26.0456 40.2117 25.8812 39.6451 25.497C39.0786 25.1128 38.6716 24.5352 38.5004 23.8724H36.9877ZM41.224 24.5755C41.5021 24.5755 41.774 24.493 42.0053 24.3385C42.2365 24.184 42.4168 23.9644 42.5232 23.7074C42.6296 23.4505 42.6575 23.1677 42.6032 22.8949C42.549 22.6221 42.415 22.3716 42.2184 22.1749C42.0217 21.9782 41.7711 21.8443 41.4983 21.79C41.2256 21.7358 40.9428 21.7636 40.6858 21.8701C40.4289 21.9765 40.2093 22.1567 40.0547 22.388C39.9002 22.6193 39.8177 22.8911 39.8177 23.1693C39.8182 23.5421 39.9665 23.8995 40.2301 24.1632C40.4937 24.4268 40.8512 24.5751 41.224 24.5755Z" fill="#0063E2"/>
<path d="M4.66155 20.3568C5.28491 20.3576 5.89041 20.565 6.38324 20.9467C6.87607 21.3284 7.22842 21.8628 7.3851 22.4661H8.89788C9.0255 19.7905 9.92055 17.2081 11.4762 15.0273L12.6221 15.8424C11.2361 17.7853 10.4326 20.083 10.3057 22.4661H11.6928V23.8724H10.3057C10.4325 26.2555 11.2359 28.5532 12.6217 30.4961L11.4758 31.3112C9.92033 29.1304 9.0254 26.548 8.89788 23.8724H7.38546C7.25395 24.3817 6.98227 24.8439 6.60125 25.2065C6.22023 25.5692 5.74516 25.8177 5.22998 25.9239C4.71481 26.0301 4.18018 25.9896 3.68683 25.8072C3.19347 25.6248 2.76116 25.3076 2.439 24.8918C2.11684 24.476 1.91774 23.9782 1.86431 23.455C1.81088 22.9317 1.90526 22.4039 2.13674 21.9316C2.36822 21.4592 2.72752 21.0613 3.17382 20.7829C3.62012 20.5045 4.13554 20.3569 4.66155 20.3568ZM4.66155 24.5755C4.93968 24.5755 5.21156 24.493 5.44282 24.3385C5.67408 24.184 5.85432 23.9644 5.96075 23.7074C6.06719 23.4505 6.09504 23.1677 6.04078 22.8949C5.98652 22.6221 5.85259 22.3716 5.65592 22.1749C5.45925 21.9782 5.20868 21.8443 4.93589 21.79C4.66311 21.7358 4.38036 21.7636 4.1234 21.8701C3.86644 21.9765 3.64681 22.1567 3.49229 22.388C3.33777 22.6193 3.2553 22.8911 3.2553 23.1693C3.25574 23.5421 3.40404 23.8995 3.66766 24.1632C3.93129 24.4268 4.28872 24.5751 4.66155 24.5755Z" fill="#0063E2"/>
<path d="M35.8723 13.0537C35.37 13.0542 34.8766 12.9201 34.4436 12.6655L31.3976 15.7115L30.4032 14.7171L33.4493 11.6712C33.1334 11.1338 33.0047 10.5068 33.0833 9.88837C33.1619 9.26998 33.4433 8.6951 33.8835 8.25374C34.2105 7.92639 34.6131 7.68475 35.0558 7.55023C35.4984 7.41571 35.9674 7.39246 36.4212 7.48255C36.875 7.57264 37.2996 7.77328 37.6573 8.0667C38.015 8.36011 38.2947 8.73724 38.4718 9.16465C38.6489 9.59206 38.7178 10.0566 38.6725 10.517C38.6271 10.9774 38.4689 11.4195 38.2118 11.8041C37.9547 12.1888 37.6067 12.504 37.1986 12.722C36.7905 12.94 36.335 13.0539 35.8723 13.0537ZM36.8666 9.24805C36.67 9.05139 36.4194 8.91746 36.1466 8.86321C35.8738 8.80895 35.5911 8.8368 35.3341 8.94324C35.0772 9.04968 34.8575 9.22992 34.703 9.46118C34.5485 9.69243 34.466 9.96431 34.466 10.2424C34.466 10.5206 34.5485 10.7924 34.703 11.0237C34.8575 11.255 35.0772 11.4352 35.3341 11.5416C35.5911 11.6481 35.8738 11.6759 36.1466 11.6217C36.4194 11.5674 36.67 11.4335 36.8666 11.2368C36.9977 11.1065 37.1018 10.9516 37.1728 10.781C37.2438 10.6103 37.2803 10.4273 37.2803 10.2425C37.2803 10.0577 37.2438 9.87465 37.1728 9.704C37.1018 9.53335 36.9977 9.37842 36.8666 9.24813V9.24805Z" fill="#0063E2"/>
<path d="M8.02464 34.1072C8.466 33.667 9.04088 33.3856 9.65927 33.307C10.2777 33.2284 10.9047 33.3571 11.4421 33.673L14.488 30.627L15.4824 31.6213L12.4364 34.6673C12.7035 35.1204 12.8382 35.6394 12.8252 36.1652C12.8121 36.691 12.6519 37.2027 12.3627 37.642C12.0734 38.0813 11.6668 38.4308 11.1889 38.6506C10.7111 38.8704 10.1812 38.9518 9.65936 38.8856C9.13756 38.8194 8.64478 38.6081 8.237 38.2759C7.82922 37.9437 7.52279 37.5037 7.35249 37.006C7.1822 36.5084 7.15488 35.9729 7.27363 35.4605C7.39238 34.9481 7.65245 34.4793 8.02429 34.1072H8.02464ZM9.01904 37.0903C9.21567 37.2868 9.46613 37.4205 9.73876 37.4747C10.0114 37.5288 10.294 37.5009 10.5507 37.3945C10.8075 37.288 11.0269 37.1079 11.1813 36.8767C11.3357 36.6456 11.4181 36.3739 11.4181 36.0959C11.4181 35.818 11.3357 35.5463 11.1813 35.3152C11.0269 35.084 10.8075 34.9039 10.5507 34.7974C10.294 34.691 10.0114 34.6631 9.73876 34.7172C9.46613 34.7714 9.21567 34.9051 9.01904 35.1016C8.75573 35.3655 8.60786 35.7231 8.60786 36.0959C8.60786 36.4688 8.75573 36.8264 9.01904 37.0903Z" fill="#0063E2"/>
<path d="M30.3975 31.6213L31.3919 30.627L34.4379 33.673C34.8909 33.4062 35.4096 33.2718 35.9352 33.2849C36.4607 33.2981 36.9721 33.4584 37.4111 33.7476C37.8502 34.0368 38.1994 34.4432 38.4191 34.9209C38.6387 35.3985 38.7201 35.9282 38.6539 36.4497C38.5877 36.9713 38.3766 37.4638 38.0445 37.8714C37.7125 38.279 37.2728 38.5854 36.7755 38.7557C36.2781 38.926 35.7429 38.9534 35.2307 38.8349C34.7185 38.7164 34.2498 38.4566 33.8778 38.0851C33.4376 37.6437 33.1562 37.0689 33.0776 36.4505C32.999 35.8321 33.1277 35.2051 33.4436 34.6676L30.3975 31.6213ZM34.8721 37.0903C35.0688 37.2868 35.3192 37.4206 35.5919 37.4747C35.8646 37.5289 36.1471 37.501 36.4039 37.3946C36.6607 37.2881 36.8802 37.108 37.0346 36.8768C37.189 36.6457 37.2714 36.3739 37.2714 36.0959C37.2714 35.818 37.189 35.5462 37.0346 35.3151C36.8802 35.0839 36.6607 34.9038 36.4039 34.7973C36.1471 34.6909 35.8646 34.663 35.5919 34.7172C35.3192 34.7713 35.0688 34.9051 34.8721 35.1016C34.6088 35.3655 34.4609 35.7231 34.4609 36.0959C34.4609 36.4688 34.6088 36.8264 34.8721 37.0903Z" fill="#0063E2"/>
<path d="M15.4824 14.7168L14.488 15.7112L11.4421 12.6652C10.9046 12.9809 10.2777 13.1095 9.6593 13.0309C9.04095 12.9524 8.46608 12.671 8.02464 12.2309C7.6528 11.8589 7.39273 11.3901 7.27398 10.8776C7.15523 10.3652 7.18255 9.82979 7.35284 9.33212C7.52314 8.83446 7.82957 8.39452 8.23735 8.06228C8.64513 7.73003 9.13791 7.5188 9.65971 7.45256C10.1815 7.38633 10.7114 7.46775 11.1893 7.68758C11.6671 7.90741 12.0738 8.25683 12.363 8.69617C12.6522 9.13551 12.8125 9.64715 12.8255 10.173C12.8385 10.6988 12.7039 11.2178 12.4367 11.6709L15.4824 14.7168ZM11.0078 9.24783C10.8112 9.05117 10.5606 8.91725 10.2878 8.86299C10.015 8.80874 9.73227 8.83659 9.47532 8.94303C9.21836 9.04947 8.99874 9.22971 8.84422 9.46096C8.68971 9.69222 8.60723 9.9641 8.60723 10.2422C8.60723 10.5204 8.68971 10.7922 8.84422 11.0235C8.99874 11.2547 9.21836 11.435 9.47532 11.5414C9.73227 11.6479 10.015 11.6757 10.2878 11.6215C10.5606 11.5672 10.8112 11.4333 11.0078 11.2366C11.1389 11.1063 11.243 10.9514 11.3139 10.7807C11.3849 10.6101 11.4215 10.4271 11.4215 10.2422C11.4215 10.0574 11.3849 9.87438 11.3139 9.70373C11.243 9.53307 11.1389 9.37813 11.0078 9.24783Z" fill="#0063E2"/>
<path d="M14.8026 34.6362L15.6177 33.4902C17.5606 34.8761 19.8582 35.6794 22.2414 35.8062V34.4192H23.6476V35.8062C26.0308 35.6794 28.3284 34.8761 30.2713 33.4902L31.0864 34.6362C28.9057 36.1916 26.3233 37.0866 23.6476 37.2141V38.7265C24.3104 38.8976 24.8881 39.3046 25.2723 39.8712C25.6565 40.4378 25.8208 41.125 25.7346 41.8041C25.6483 42.4832 25.3174 43.1075 24.8037 43.56C24.2901 44.0125 23.629 44.2622 22.9445 44.2622C22.26 44.2622 21.5989 44.0125 21.0853 43.56C20.5716 43.1075 20.2407 42.4832 20.1544 41.8041C20.0682 41.125 20.2325 40.4378 20.6167 39.8712C21.0009 39.3046 21.5786 38.8976 22.2414 38.7265V37.2141C19.5657 37.0866 16.9834 36.1916 14.8026 34.6362ZM21.5383 41.4504C21.5383 41.7285 21.6207 42.0004 21.7752 42.2317C21.9298 42.4629 22.1494 42.6432 22.4064 42.7496C22.6633 42.856 22.9461 42.8839 23.2188 42.8296C23.4916 42.7754 23.7422 42.6414 23.9389 42.4448C24.1355 42.2481 24.2695 41.9975 24.3237 41.7248C24.378 41.452 24.3501 41.1692 24.2437 40.9123C24.1373 40.6553 23.957 40.4357 23.7258 40.2811C23.4945 40.1266 23.2226 40.0442 22.9445 40.0442C22.5717 40.0446 22.2142 40.1929 21.9506 40.4565C21.687 40.7201 21.5387 41.0776 21.5383 41.4504Z" fill="#0063E2"/>
<path d="M31.0864 11.7021L30.2713 12.848C28.3284 11.4622 26.0308 10.6588 23.6476 10.532V11.9191H22.2414V10.532C19.8582 10.6588 17.5606 11.4622 15.6177 12.848L14.8026 11.7021C16.9834 10.1466 19.5657 9.25167 22.2414 9.12415V7.61137C21.5786 7.44024 21.0009 7.03324 20.6167 6.46668C20.2325 5.90012 20.0682 5.21288 20.1544 4.5338C20.2407 3.85471 20.5716 3.23039 21.0853 2.77787C21.5989 2.32534 22.26 2.07568 22.9445 2.07568C23.629 2.07568 24.2901 2.32534 24.8037 2.77787C25.3174 3.23039 25.6483 3.85471 25.7346 4.5338C25.8208 5.21288 25.6565 5.90012 25.2723 6.46668C24.8881 7.03324 24.3104 7.44024 23.6476 7.61137V9.12415C26.3233 9.25167 28.9057 10.1466 31.0864 11.7021ZM24.3508 4.88782C24.3508 4.60969 24.2683 4.33781 24.1138 4.10655C23.9592 3.87529 23.7396 3.69505 23.4827 3.58861C23.2257 3.48218 22.9429 3.45433 22.6702 3.50859C22.3974 3.56285 22.1468 3.69678 21.9501 3.89345C21.7535 4.09012 21.6195 4.34069 21.5653 4.61347C21.511 4.88626 21.5389 5.16901 21.6453 5.42597C21.7517 5.68293 21.932 5.90255 22.1632 6.05707C22.3945 6.2116 22.6664 6.29407 22.9445 6.29407C23.3173 6.29363 23.6748 6.14533 23.9384 5.8817C24.202 5.61807 24.3503 5.26065 24.3508 4.88782Z" fill="#0063E2"/>
<path d="M13.8003 25.9814C13.6138 25.9814 13.435 25.9074 13.3031 25.7755C13.1712 25.6436 13.0972 25.4648 13.0972 25.2783V21.0596C13.0972 20.8731 13.1712 20.6942 13.3031 20.5624C13.435 20.4305 13.6138 20.3564 13.8003 20.3564H15.7339C15.7726 20.2574 15.8134 20.1591 15.8561 20.0617L14.4886 18.6943C14.3567 18.5624 14.2827 18.3836 14.2827 18.1971C14.2827 18.0106 14.3567 17.8318 14.4886 17.7L17.4717 14.7168C17.537 14.6515 17.6145 14.5997 17.6998 14.5643C17.7851 14.529 17.8765 14.5108 17.9689 14.5108C18.0612 14.5108 18.1526 14.529 18.2379 14.5643C18.3232 14.5997 18.4008 14.6515 18.4661 14.7168L19.8335 16.0843C19.9309 16.0416 20.0292 16.0008 20.1282 15.9621V14.0283C20.1282 13.8418 20.2023 13.663 20.3342 13.5311C20.466 13.3993 20.6449 13.3252 20.8314 13.3252H25.0503C25.2368 13.3252 25.4156 13.3993 25.5475 13.5311C25.6793 13.663 25.7534 13.8418 25.7534 14.0283V15.9619C25.8525 16.0006 25.9507 16.0414 26.0481 16.0842L27.4156 14.7166C27.5475 14.5847 27.7263 14.5107 27.9128 14.5107C28.0992 14.5107 28.2781 14.5847 28.4099 14.7166L31.3931 17.6998C31.5249 17.8316 31.599 18.0105 31.599 18.1969C31.599 18.3834 31.5249 18.5622 31.3931 18.6941L30.0255 20.0616C30.0682 20.159 30.109 20.2572 30.1477 20.3563H32.0815C32.268 20.3563 32.4469 20.4303 32.5787 20.5622C32.7106 20.6941 32.7847 20.8729 32.7847 21.0594V25.2781C32.7847 25.4646 32.7106 25.6435 32.5787 25.7753C32.4469 25.9072 32.268 25.9813 32.0815 25.9813H30.1479C30.1093 26.0802 30.0686 26.1785 30.0258 26.276L31.3934 27.6435C31.5252 27.7753 31.5993 27.9541 31.5993 28.1406C31.5993 28.3271 31.5252 28.5059 31.3934 28.6378L28.4102 31.6209C28.2783 31.7528 28.0995 31.8269 27.913 31.8269C27.7266 31.8269 27.5477 31.7528 27.4159 31.6209L26.0484 30.2534C25.951 30.2961 25.8528 30.3369 25.7537 30.3756V32.3092C25.7537 32.4957 25.6796 32.6745 25.5477 32.8064C25.4159 32.9383 25.237 33.0123 25.0506 33.0123H20.8318C20.6453 33.0123 20.4665 32.9383 20.3346 32.8064C20.2028 32.6745 20.1287 32.4957 20.1287 32.3092V30.376C20.0296 30.3372 19.9314 30.2965 19.834 30.2537L18.4665 31.6213C18.4012 31.6866 18.3237 31.7384 18.2384 31.7737C18.1531 31.8091 18.0616 31.8273 17.9693 31.8273C17.877 31.8273 17.7855 31.8091 17.7002 31.7737C17.6149 31.7384 17.5374 31.6866 17.4721 31.6213L14.489 28.6381C14.3572 28.5063 14.2831 28.3274 14.2831 28.141C14.2831 27.9545 14.3572 27.7757 14.489 27.6438L15.8566 26.2763C15.8138 26.1789 15.7731 26.0807 15.7343 25.9816L13.8003 25.9814ZM17.2026 26.9184L15.98 28.1407L17.969 30.1299L19.1914 28.9076C19.2973 28.8017 19.4342 28.7324 19.5822 28.7097C19.7302 28.687 19.8816 28.7122 20.0143 28.7816C20.3437 28.9537 20.6877 29.0964 21.0422 29.2078C21.185 29.2527 21.3097 29.342 21.3982 29.4626C21.4867 29.5832 21.5344 29.729 21.5344 29.8786V31.6064H24.3472V29.8783C24.3472 29.7286 24.3949 29.5829 24.4834 29.4623C24.5719 29.3416 24.6966 29.2524 24.8394 29.2075C25.194 29.096 25.5382 28.9534 25.8677 28.7812C26.0004 28.7119 26.1517 28.6867 26.2997 28.7094C26.4477 28.732 26.5846 28.8014 26.6905 28.9072L27.9127 30.1299L29.9019 28.1407L28.6796 26.9184C28.5737 26.8126 28.5044 26.6757 28.4817 26.5277C28.459 26.3797 28.4842 26.2283 28.5535 26.0956C28.7257 25.7661 28.8684 25.422 28.9798 25.0673C29.0247 24.9246 29.1139 24.7999 29.2346 24.7113C29.3552 24.6228 29.5009 24.5751 29.6506 24.5751H31.3784V21.7627H29.6502C29.5006 21.7627 29.3549 21.715 29.2342 21.6265C29.1136 21.5379 29.0243 21.4132 28.9794 21.2705C28.868 20.9158 28.7254 20.5717 28.5532 20.2422C28.4838 20.1095 28.4587 19.9581 28.4813 19.8101C28.504 19.6621 28.5733 19.5252 28.6792 19.4194L29.9019 18.1971L27.9127 16.208L26.6904 17.4303C26.5846 17.5362 26.4477 17.6055 26.2997 17.6282C26.1517 17.6508 26.0003 17.6257 25.8676 17.5563C25.5381 17.3842 25.1939 17.2415 24.8393 17.1301C24.6965 17.0852 24.5718 16.9959 24.4833 16.8753C24.3948 16.7546 24.3471 16.6089 24.3471 16.4593V14.7314H21.5346V16.4596C21.5346 16.6093 21.4869 16.755 21.3983 16.8756C21.3098 16.9963 21.1851 17.0855 21.0424 17.1304C20.6879 17.2419 20.3439 17.3845 20.0145 17.5567C19.8818 17.626 19.7304 17.6512 19.5824 17.6286C19.4344 17.6059 19.2975 17.5366 19.1916 17.4307L17.969 16.208L15.98 18.1971L17.2023 19.4194C17.3082 19.5253 17.3775 19.6622 17.4001 19.8102C17.4228 19.9582 17.3976 20.1096 17.3283 20.2423C17.1561 20.5718 17.0135 20.9159 16.902 21.2706C16.8571 21.4133 16.7679 21.538 16.6473 21.6265C16.5266 21.7151 16.3809 21.7628 16.2313 21.7628H14.5034V24.5753H16.2316C16.3812 24.5753 16.527 24.623 16.6476 24.7115C16.7682 24.8 16.8575 24.9247 16.9024 25.0675C17.0139 25.4222 17.1565 25.7663 17.3287 26.0958C17.398 26.2285 17.4231 26.3798 17.4004 26.5278C17.3778 26.6757 17.3085 26.8126 17.2026 26.9184Z" fill="#00ACF8"/>
<path d="M22.9434 18.2471C23.9168 18.2471 24.8684 18.5357 25.6778 19.0766C26.4872 19.6174 27.1181 20.3861 27.4906 21.2854C27.8631 22.1848 27.9606 23.1744 27.7707 24.1292C27.5807 25.0839 27.112 25.9609 26.4236 26.6492C25.7353 27.3376 24.8583 27.8063 23.9036 27.9962C22.9488 28.1862 21.9592 28.0887 21.0598 27.7162C20.1605 27.3436 19.3918 26.7128 18.851 25.9034C18.3101 25.094 18.0215 24.1424 18.0215 23.1689C18.023 21.864 18.542 20.613 19.4647 19.6903C20.3874 18.7676 21.6385 18.2486 22.9434 18.2471ZM22.9434 26.6846C23.6387 26.6846 24.3184 26.4784 24.8965 26.0921C25.4747 25.7058 25.9253 25.1567 26.1914 24.5143C26.4575 23.8719 26.5271 23.165 26.3914 22.4831C26.2558 21.8011 25.9209 21.1747 25.4293 20.683C24.9376 20.1914 24.3112 19.8565 23.6292 19.7209C22.9473 19.5852 22.2404 19.6548 21.598 19.9209C20.9556 20.187 20.4065 20.6376 20.0202 21.2158C19.6339 21.7939 19.4277 22.4736 19.4277 23.1689C19.4288 24.101 19.7995 24.9946 20.4586 25.6537C21.1177 26.3128 22.0113 26.6835 22.9434 26.6846Z" fill="#00ACF8"/>
<path d="M23.6459 23.581L24.5549 22.6719L25.5493 23.6663L24.1431 25.0725C24.0778 25.1378 24.0003 25.1896 23.915 25.225C23.8296 25.2603 23.7382 25.2785 23.6459 25.2785C23.5535 25.2785 23.4621 25.2603 23.3768 25.225C23.2915 25.1896 23.214 25.1378 23.1487 25.0725L20.3362 22.26L21.3306 21.2656L23.6459 23.581Z" fill="#00ACF8"/>
</svg>
