<svg width="24" height="24" viewBox="0 0 24 24" fill="none" xmlns="http://www.w3.org/2000/svg">
<path d="M13.9726 3.75271C15.1492 4.16216 16.1691 4.92778 16.8907 5.94327C17.6124 6.95876 18 8.17374 17.9997 9.41954V14.3518L20.7632 16.9313C20.8607 17.0226 20.9285 17.1412 20.9579 17.2715C20.9872 17.4019 20.9767 17.538 20.9277 17.6623C20.8787 17.7866 20.7935 17.8933 20.6831 17.9686C20.5727 18.0439 20.4422 18.0842 20.3086 18.0844H3.6947C3.56068 18.0848 3.42967 18.0447 3.31876 17.9695C3.20784 17.8943 3.12219 17.7874 3.07296 17.6627C3.02373 17.5381 3.01323 17.4015 3.04281 17.2708C3.07239 17.14 3.14069 17.0213 3.23879 16.93L6.00222 14.3518V9.41954C6.00194 8.17374 6.38954 6.95876 7.1112 5.94327C7.83287 4.92778 8.85279 4.16216 10.0294 3.75271C10.1082 3.28681 10.3494 2.86387 10.7103 2.55887C11.0712 2.25388 11.5285 2.08655 12.001 2.08655C12.4735 2.08655 12.9307 2.25388 13.2916 2.55887C13.6525 2.86387 13.8938 3.28681 13.9726 3.75271Z" stroke="white" stroke-width="1.5" stroke-linecap="round" stroke-linejoin="round"/>
<path d="M9.17676 19.9134C9.38244 20.4981 9.76455 21.0045 10.2703 21.3627C10.7761 21.721 11.3807 21.9134 12.0005 21.9134C12.6203 21.9134 13.2248 21.721 13.7306 21.3627C14.2364 21.0045 14.6185 20.4981 14.8242 19.9134H9.17676Z" fill="white"/>
</svg>
