<svg width="46" height="46" viewBox="0 0 46 46" fill="none" xmlns="http://www.w3.org/2000/svg">
<path d="M31.6042 0.668945H13.5041C12.0506 0.668945 10.8682 1.95216 10.8682 3.52948V18.023C10.8682 19.6003 12.0506 20.8835 13.5041 20.8835H31.6042C33.0577 20.8835 34.2401 19.6003 34.2401 18.023V3.52948C34.2401 1.95216 33.0577 0.668945 31.6042 0.668945ZM32.4828 18.023C32.4828 18.5487 32.0886 18.9765 31.6042 18.9765H13.5041C13.0196 18.9765 12.6254 18.5487 12.6254 18.023V3.52948C12.6254 3.00374 13.0196 2.57597 13.5041 2.57597H31.6042C32.0886 2.57597 32.4828 3.00374 32.4828 3.52948V18.023Z" fill="#00ACF8"/>
<path d="M25.8035 13.6367H15.3894C14.9042 13.6367 14.5107 14.0636 14.5107 14.5902C14.5107 15.1168 14.9042 15.5437 15.3894 15.5437H25.8034C26.2886 15.5437 26.6821 15.1168 26.6821 14.5902C26.6821 14.0636 26.2887 13.6367 25.8035 13.6367Z" fill="#00ACF8"/>
<path d="M30.1463 13.9161C29.9829 13.7388 29.7561 13.6367 29.5251 13.6367C29.294 13.6367 29.0674 13.7388 28.9041 13.9161C28.7406 14.0935 28.6465 14.3395 28.6465 14.5902C28.6465 14.841 28.7405 15.087 28.9041 15.2644C29.0674 15.4418 29.2941 15.5438 29.5251 15.5438C29.7562 15.5438 29.9829 15.4419 30.1463 15.2644C30.3097 15.087 30.4038 14.841 30.4038 14.5902C30.4038 14.3395 30.3098 14.0935 30.1463 13.9161Z" fill="#00ACF8"/>
<path d="M29.5211 4.48291H15.3894C14.9042 4.48291 14.5107 4.90982 14.5107 5.43642C14.5107 5.96303 14.9042 6.38994 15.3894 6.38994H29.5211C30.0062 6.38994 30.3997 5.96303 30.3997 5.43642C30.3997 4.90982 30.0063 4.48291 29.5211 4.48291Z" fill="#00ACF8"/>
<path d="M29.5211 9.05957H15.3894C14.9042 9.05957 14.5107 9.48648 14.5107 10.0131C14.5107 10.5397 14.9042 10.9666 15.3894 10.9666H29.5211C30.0062 10.9666 30.3997 10.5397 30.3997 10.0131C30.3997 9.48648 30.0063 9.05957 29.5211 9.05957Z" fill="#00ACF8"/>
<path d="M10.4324 31.5571H2.70038C1.2469 31.5571 0.0644531 32.8404 0.0644531 34.4177V42.8086C0.0644531 44.3859 1.2469 45.6691 2.70038 45.6691H10.4324C11.8859 45.6691 13.0683 44.3859 13.0683 42.8086V34.4177C13.0684 32.8404 11.8859 31.5571 10.4324 31.5571ZM11.3111 42.8087C11.3111 43.3344 10.917 43.7622 10.4325 43.7622H2.70038C2.21592 43.7622 1.82174 43.3344 1.82174 42.8087V34.4177C1.82174 33.8919 2.21592 33.4642 2.70038 33.4642H10.4324C10.9169 33.4642 11.3111 33.8919 11.3111 34.4177V42.8087H11.3111Z" fill="#0063E2"/>
<path d="M26.4285 31.5571H18.6965C17.243 31.5571 16.0605 32.8403 16.0605 34.4177V42.8086C16.0605 44.3859 17.243 45.6691 18.6965 45.6691H26.4285C27.882 45.6691 29.0644 44.3859 29.0644 42.8086V34.4177C29.0644 32.8404 27.882 31.5571 26.4285 31.5571ZM27.3072 42.8087C27.3072 43.3344 26.913 43.7622 26.4285 43.7622H18.6965C18.212 43.7622 17.8178 43.3344 17.8178 42.8087V34.4177C17.8178 33.8919 18.212 33.4642 18.6965 33.4642H26.4285C26.913 33.4642 27.3072 33.8919 27.3072 34.4177V42.8087Z" fill="#0063E2"/>
<path d="M42.43 31.5571H34.6979C33.2445 31.5571 32.062 32.8403 32.062 34.4177V42.8086C32.062 44.3859 33.2445 45.6691 34.6979 45.6691H42.43C43.8834 45.6691 45.0659 44.3859 45.0659 42.8086V34.4177C45.0659 32.8404 43.8834 31.5571 42.43 31.5571ZM43.3086 42.8087C43.3086 43.3344 42.9144 43.7622 42.43 43.7622H34.6979C34.2135 43.7622 33.8193 43.3344 33.8193 42.8087V34.4177C33.8193 33.8919 34.2135 33.4642 34.6979 33.4642H42.43C42.9144 33.4642 43.3086 33.8919 43.3086 34.4177V42.8087Z" fill="#0063E2"/>
<path d="M37.6978 24.1377H23.4526V22.9813C23.4526 22.4547 23.0591 22.0278 22.5739 22.0278C22.0888 22.0278 21.6953 22.4547 21.6953 22.9813V24.1377H17.8181C17.3329 24.1377 16.9395 24.5647 16.9395 25.0912C16.9395 25.6177 17.3329 26.0447 17.8181 26.0447H21.6953V28.6448C21.6953 29.1713 22.0888 29.5983 22.5739 29.5983C23.0591 29.5983 23.4526 29.1713 23.4526 28.6448V26.0447H37.6978V29.0203C37.6978 29.5468 38.0913 29.9738 38.5765 29.9738C39.0616 29.9738 39.4551 29.5468 39.4551 29.0203V26.0447C39.4551 24.9932 38.6667 24.1377 37.6978 24.1377Z" fill="#0063E2"/>
<path d="M11.3045 24.1377H7.43843C6.46942 24.1377 5.68115 24.9932 5.68115 26.0447V29.0203C5.68115 29.5469 6.07463 29.9738 6.55979 29.9738C7.04496 29.9738 7.43843 29.5468 7.43843 29.0203V26.0447H11.3045C11.7896 26.0447 12.1831 25.6177 12.1831 25.0912C12.1832 24.5647 11.7897 24.1377 11.3045 24.1377Z" fill="#0063E2"/>
<path d="M15.1316 24.4171C14.9681 24.2398 14.7415 24.1377 14.5105 24.1377C14.2794 24.1377 14.0527 24.2396 13.8894 24.4171C13.726 24.5945 13.6318 24.8405 13.6318 25.0912C13.6318 25.342 13.7258 25.588 13.8894 25.7652C14.0527 25.9426 14.2795 26.0447 14.5105 26.0447C14.7416 26.0447 14.9682 25.9427 15.1316 25.7652C15.2951 25.588 15.3891 25.3419 15.3891 25.0912C15.389 24.8395 15.2951 24.5946 15.1316 24.4171Z" fill="#0063E2"/>
</svg>
