<svg width="25" height="25" viewBox="0 0 25 25" fill="none" xmlns="http://www.w3.org/2000/svg">
<g id="ic:round-keyboard-arrow-right">
<path id="Vector" d="M9.75009 16.2328L13.6665 12.2666L9.75009 8.30039C9.65663 8.20575 9.5825 8.0934 9.53193 7.96975C9.48135 7.84609 9.45532 7.71356 9.45532 7.57972C9.45532 7.44588 9.48135 7.31335 9.53193 7.1897C9.5825 7.06605 9.65663 6.9537 9.75009 6.85906C9.84354 6.76442 9.95448 6.68935 10.0766 6.63813C10.1987 6.58691 10.3295 6.56055 10.4617 6.56055C10.5939 6.56055 10.7247 6.58691 10.8468 6.63813C10.9689 6.68935 11.0799 6.76442 11.1733 6.85906L15.8064 11.5511C16.2001 11.9497 16.2001 12.5937 15.8064 12.9924L11.1733 17.6844C11.0799 17.7792 10.969 17.8543 10.8469 17.9056C10.7248 17.9569 10.5939 17.9833 10.4617 17.9833C10.3295 17.9833 10.1986 17.9569 10.0765 17.9056C9.95439 17.8543 9.84347 17.7792 9.75009 17.6844C9.36652 17.2857 9.35642 16.6315 9.75009 16.2328Z" fill="#5F80F8"/>
</g>
</svg>
