<svg width="41" height="40" viewBox="0 0 41 40" fill="none" xmlns="http://www.w3.org/2000/svg">
<g id="icon ho tro ai">
<g clip-path="url(#clip0_333_1091)">
<rect x="0.692871" width="40" height="40" rx="20" fill="white"/>
<g id="Group 427319228">
<path id="Vector" d="M29.3577 23.5417V24.0833H28.2744V23.5417C28.2744 23.2438 28.5182 23 28.8161 23C29.114 23 29.3577 23.2438 29.3577 23.5417Z" fill="#0063E2"/>
<path id="Vector_2" d="M27.7363 19.2082C27.4372 19.2082 27.1947 18.9659 27.1947 18.6665V13.2498C27.1947 9.66553 24.2787 6.74984 20.6947 6.74984C17.1106 6.74984 14.1947 9.66553 14.1947 13.2498V18.6665C14.1947 18.9659 13.9521 19.2082 13.653 19.2082C13.3539 19.2082 13.1113 18.9659 13.1113 18.6665V13.2498C13.1113 9.06832 16.5131 5.6665 20.6947 5.6665C24.8762 5.6665 28.278 9.06832 28.278 13.2498V18.6665C28.278 18.9659 28.0355 19.2082 27.7363 19.2082Z" fill="#0063E2"/>
<path id="Vector_3" d="M12.0262 18.6665C11.4287 18.6665 10.9429 19.1526 10.9429 19.7498V22.9998C10.9429 23.597 11.4287 24.0832 12.0262 24.0832H16.3595L14.7345 18.6665H12.0262Z" fill="#00ACF8"/>
<path id="Vector_4" d="M29.3595 18.6665H26.6512L25.5679 24.0832H29.3595C29.957 24.0832 30.4429 23.597 30.4429 22.9998V19.7498C30.4429 19.1526 29.957 18.6665 29.3595 18.6665Z" fill="#00ACF8"/>
<path id="Vector_5" d="M30.674 30.0604L24.1492 27.3737C24.0836 27.3468 24.0138 27.333 23.9429 27.333H17.4429C17.372 27.333 17.3022 27.3468 17.2366 27.3737L10.7117 30.0604C8.87777 30.8158 7.69287 32.5852 7.69287 34.5683V39.7913C7.69287 40.0907 7.9354 40.333 8.23454 40.333H33.1512C33.4503 40.333 33.6929 40.0907 33.6929 39.7913V34.5683C33.6929 32.5852 32.508 30.8158 30.674 30.0604Z" fill="#D9ECFF"/>
<path id="Vector_6" d="M23.4012 27.333H17.9845C17.6854 27.333 17.4429 27.5753 17.4429 27.8747V29.4997C17.4429 31.2918 18.9007 32.7497 20.6929 32.7497C22.485 32.7497 23.9429 31.2918 23.9429 29.4997V27.8747C23.9429 27.5753 23.7003 27.333 23.4012 27.333Z" fill="#F9C7C0"/>
<path id="Vector_7" d="M22.9975 40.333L21.778 35.458H22.3197L23.403 32.7497L20.6947 32.208L17.9863 32.7497L19.0697 35.458H19.6113L18.3934 40.333H22.9975Z" fill="#0063E2"/>
<path id="Vector_8" d="M23.403 32.7497L22.3197 35.458H19.0697L17.9863 32.7497L20.6947 32.208L23.403 32.7497Z" fill="#00ACF8"/>
<path id="Vector_9" d="M24.0402 26.8522L20.6929 32.208L25.0262 34.3747L24.338 26.8047L24.0402 26.8522Z" fill="#B9D8F9"/>
<path id="Vector_10" d="M17.3473 26.8522L20.6947 32.208L16.3613 34.3747L17.0495 26.8047L17.3473 26.8522Z" fill="#B9D8F9"/>
<path id="Vector_11" d="M14.7363 15.958V22.9997C14.7363 26.2851 17.4092 28.958 20.6947 28.958C23.9801 28.958 26.653 26.2851 26.653 22.9997V15.958H14.7363Z" fill="#FFDED4"/>
<path id="Vector_12" d="M29.3577 24.083V26.7913C29.3577 27.0893 29.114 27.333 28.8161 27.333H23.9411C23.6432 27.333 23.3994 27.0893 23.3994 26.7913C23.3994 26.4934 23.6432 26.2497 23.9411 26.2497H28.2744V24.083H29.3577Z" fill="#0063E2"/>
<path id="Vector_13" d="M25.4781 18.6663C23.8013 18.6663 22.171 17.8808 21.1173 16.5658L20.6947 16.0379L20.272 16.5658C19.2183 17.8808 17.588 18.6663 15.9112 18.6663H13.1113V17.0413C13.1113 12.8598 16.5131 9.45801 20.6947 9.45801C24.8762 9.45801 28.278 12.8598 28.278 17.0413V18.6663H25.4781Z" fill="#5B6675"/>
<path id="Vector_14" d="M22.8613 23H18.528C18.2289 23 17.9863 23.2423 17.9863 23.5417V24.625C17.9863 26.1183 19.2014 27.3333 20.6947 27.3333C22.1879 27.3333 23.403 26.1183 23.403 24.625V23.5417C23.403 23.2423 23.1605 23 22.8613 23Z" fill="#F9C7C0"/>
</g>
</g>
<rect x="1.19287" y="0.5" width="39" height="39" rx="19.5" stroke="#DDF6FF"/>
</g>
<defs>
<clipPath id="clip0_333_1091">
<rect x="0.692871" width="40" height="40" rx="20" fill="white"/>
</clipPath>
</defs>
</svg>
