<svg width="21" height="21" viewBox="0 0 21 21" fill="none" xmlns="http://www.w3.org/2000/svg">
<g id="iconamoon:eye-thin" clip-path="url(#clip0_227_1419)">
<g id="Group">
<path id="Vector" d="M13.8359 10.2969C13.8359 11.0925 13.5199 11.8556 12.9573 12.4182C12.3946 12.9808 11.6316 13.2969 10.8359 13.2969C10.0403 13.2969 9.27723 12.9808 8.71462 12.4182C8.15201 11.8556 7.83594 11.0925 7.83594 10.2969C7.83594 9.50123 8.15201 8.73816 8.71462 8.17555C9.27723 7.61295 10.0403 7.29688 10.8359 7.29688C11.6316 7.29688 12.3946 7.61295 12.9573 8.17555C13.5199 8.73816 13.8359 9.50123 13.8359 10.2969Z" stroke="#6F7A8A" stroke-linecap="round" stroke-linejoin="round"/>
<path id="Vector_2" d="M0.835938 10.2969C2.43594 6.19987 6.17194 3.29688 10.8359 3.29688C15.4999 3.29688 19.2359 6.19987 20.8359 10.2969C19.2359 14.3939 15.4999 17.2969 10.8359 17.2969C6.17194 17.2969 2.43594 14.3939 0.835938 10.2969Z" stroke="#6F7A8A" stroke-linecap="round" stroke-linejoin="round"/>
</g>
</g>
<defs>
<clipPath id="clip0_227_1419">
<rect width="20" height="20" fill="white" transform="translate(0.835938 0.296875)"/>
</clipPath>
</defs>
</svg>
