<svg width="46" height="46" viewBox="0 0 46 46" fill="none" xmlns="http://www.w3.org/2000/svg">
<path d="M36.0832 23.9898C35.0114 23.9898 33.9991 23.5331 33.2985 22.7316C32.6557 21.996 32.345 21.0583 32.4193 20.1109H26.6379C26.1365 20.1109 25.73 19.7174 25.73 19.232V13.3048C25.73 13.0439 25.8496 12.7965 26.0567 12.6295C26.2637 12.4626 26.5371 12.3934 26.8018 12.4403L26.8562 12.45C27.4023 12.5468 27.96 12.4046 28.3865 12.0605C28.813 11.7162 29.0577 11.2105 29.0577 10.6728C29.0577 10.1353 28.8131 9.62966 28.3865 9.28548C27.9601 8.94139 27.4022 8.79953 26.856 8.89621L26.8017 8.90588C26.5365 8.9529 26.2637 8.88356 26.0567 8.71656C25.8498 8.54957 25.7301 8.30225 25.7301 8.04139V1.54785C25.7301 1.06243 26.1366 0.668945 26.638 0.668945H41.6997C43.9681 0.668945 45.8137 2.4555 45.8137 4.65153V19.232C45.8137 19.7174 45.4072 20.1109 44.9058 20.1109H39.7491C39.8345 21.0375 39.5431 21.9612 38.9269 22.6876C38.238 23.4996 37.221 23.974 36.1366 23.9894C36.1188 23.9897 36.101 23.9898 36.0832 23.9898ZM27.5459 18.3531H33.4872C33.7566 18.3531 34.0121 18.4689 34.1847 18.6692C34.3571 18.8695 34.4289 19.1336 34.3803 19.3902L34.2566 20.0449C34.1518 20.5994 34.3079 21.1648 34.6848 21.5961C35.0499 22.0138 35.5569 22.2384 36.1101 22.2317C36.6592 22.2239 37.1744 21.9834 37.5236 21.5719C37.8726 21.1605 38.016 20.6242 37.9169 20.1004L37.7827 19.3901C37.7343 19.1335 37.806 18.8694 37.9785 18.6691C38.151 18.4688 38.4065 18.353 38.6759 18.353H43.9978V4.65153C43.9978 3.42476 42.9668 2.42676 41.6997 2.42676H27.5459V7.12469C28.2748 7.19228 28.9728 7.47019 29.5491 7.9353C30.3908 8.61443 30.8734 9.61226 30.8734 10.6728C30.8734 11.7335 30.3908 12.7314 29.5491 13.4105C28.9727 13.8757 28.2748 14.1537 27.5459 14.2214V18.3531Z" fill="#00ACF8"/>
<path d="M38.2555 31.1671C38.7569 31.1671 39.1634 30.7736 39.1634 30.2882V27.106C39.1634 26.6206 38.7569 26.2271 38.2555 26.2271H32.0256C31.7562 26.2271 31.5007 26.3429 31.3282 26.5432C31.1557 26.7435 31.084 27.0077 31.1325 27.2642L31.2668 27.9745C31.3658 28.4983 31.2225 29.0346 30.8734 29.446C30.5242 29.8576 30.0089 30.0981 29.4599 30.1058C28.9061 30.1118 28.3997 29.8879 28.0347 29.4703C27.6577 29.0389 27.5016 28.4735 27.6064 27.9191L27.7302 27.2643C27.7787 27.0077 27.7069 26.7436 27.5345 26.5432C27.362 26.3429 27.1064 26.2271 26.8371 26.2271H20.8957V22.0954C21.6246 22.0278 22.3225 21.7499 22.899 21.2847C23.7406 20.6054 24.2232 19.6076 24.2232 18.5469C24.2232 17.4863 23.7405 16.4885 22.8989 15.8093C22.3224 15.3442 21.6245 15.0663 20.8957 14.9987V9.42188C20.8957 8.93646 20.4892 8.54297 19.9877 8.54297H4.92605C2.65753 8.54297 0.812012 10.3295 0.812012 12.5256V41.6864C0.812012 43.8825 2.65753 45.669 4.92605 45.669H35.0494C37.3178 45.669 39.1635 43.8825 39.1635 41.6864V39.1358C39.1635 38.6504 38.757 38.2569 38.2555 38.2569C37.7542 38.2569 37.3476 38.6504 37.3476 39.1358V41.6864C37.3476 42.9131 36.3167 43.9112 35.0494 43.9112H20.8957V38.2421C20.8957 37.9814 20.7761 37.7341 20.5693 37.5671C20.3624 37.4001 20.0895 37.3306 19.8247 37.3774L19.7697 37.3871C19.2235 37.4839 18.6656 37.3421 18.2393 36.998C17.8127 36.6539 17.568 36.1483 17.568 35.6102C17.568 35.0727 17.8126 34.567 18.2393 34.2228C18.6658 33.8785 19.2235 33.7366 19.7703 33.8335L19.8247 33.8431C20.0893 33.8898 20.3623 33.8204 20.5693 33.6534C20.7761 33.4864 20.8957 33.2392 20.8957 32.9784V27.9847H25.7692C25.6947 28.9322 26.0055 29.8698 26.6484 30.6054C27.3606 31.4202 28.3981 31.8797 29.4863 31.8633C30.5707 31.848 31.5877 31.3734 32.2766 30.5614C32.8928 29.8351 33.1843 28.9114 33.0989 27.9847H37.3476V30.2882C37.3475 30.7736 37.7541 31.1671 38.2555 31.1671ZM2.62784 12.5256C2.62784 11.2989 3.65887 10.3008 4.92605 10.3008H19.0798V15.9153C19.0798 16.1761 19.1994 16.4233 19.4063 16.5903C19.6132 16.7572 19.886 16.8266 20.151 16.7799L20.2054 16.7703C20.2054 16.7703 20.2055 16.7702 20.2056 16.7702C20.7517 16.6736 21.3098 16.8153 21.7363 17.1595C22.1628 17.5038 22.4074 18.0094 22.4074 18.5469C22.4074 19.0845 22.1628 19.5903 21.7363 19.9345C21.3098 20.2787 20.7519 20.4206 20.2057 20.3239L20.1512 20.3143C19.8861 20.2673 19.6133 20.3368 19.4064 20.5037C19.1995 20.6707 19.0798 20.9181 19.0798 21.1788V26.2271H15.1841C14.7389 24.7375 13.3226 23.6635 11.647 23.6635C9.97134 23.6635 8.55517 24.7375 8.10993 26.2271H2.62784V12.5256ZM17.0766 32.8726C16.235 33.5517 15.7522 34.5496 15.7522 35.6108C15.7522 36.6715 16.235 37.6693 17.0766 38.3484C17.653 38.8136 18.351 39.0914 19.0798 39.1589V43.9112H4.92605C3.65887 43.9112 2.62784 42.9132 2.62784 41.6864V27.9849H8.87512C9.36122 27.9849 9.76106 27.6143 9.78222 27.1442C9.82562 26.1781 10.6447 25.4214 11.6471 25.4214C12.6493 25.4214 13.4685 26.1781 13.5119 27.1442C13.5331 27.6144 13.9329 27.9849 14.419 27.9849H19.0799V32.062C18.3509 32.1296 17.6529 32.4075 17.0766 32.8726Z" fill="#0063E2"/>
<path d="M38.2496 35.5452C37.8693 35.5452 37.5241 35.3081 37.3955 34.9623C37.2692 34.6226 37.3772 34.2297 37.6622 33.9964C37.9601 33.7524 38.3971 33.7219 38.7287 33.9204C39.0466 34.1109 39.2136 34.4834 39.1402 34.8385C39.0564 35.2444 38.6768 35.5452 38.2496 35.5452Z" fill="#0063E2"/>
</svg>
