<svg width="227" height="220" viewBox="0 0 227 220" fill="none" xmlns="http://www.w3.org/2000/svg">
<g id="IMG">
<circle id="Ellipse 12087" cx="110.115" cy="110" r="110" fill="#EEFAFE"/>
<g id="item daotao 5">
<g id="background-complete">
<path id="Vector" fill-rule="evenodd" clip-rule="evenodd" d="M194.935 76.2643C195.459 76.6556 195.929 77.1147 196.332 77.6296L198.111 77.3021L199.295 80.0641L197.827 81.1255C197.922 81.7713 197.93 82.4268 197.851 83.0747L199.339 84.1046L198.222 86.8863L196.434 86.5983C196.044 87.1219 195.585 87.5904 195.069 87.9911L195.393 89.7746L192.631 90.9584L191.585 89.4787C190.931 89.5694 190.267 89.5694 189.612 89.4787L188.582 90.9702L185.82 89.8535L186.108 88.0661C185.584 87.6759 185.114 87.2167 184.712 86.7009L182.932 87.0244L181.748 84.2624L183.212 83.201C183.126 82.5462 183.126 81.8829 183.212 81.2281L181.721 80.2456L182.837 77.4836L184.625 77.7677C185.016 77.2449 185.475 76.7765 185.99 76.3748L185.666 74.5755L188.429 73.3918L189.49 74.8557C190.144 74.7605 190.807 74.7538 191.463 74.8359L192.489 73.3484L195.27 74.465L194.982 76.2525L194.935 76.2643ZM191.838 79.2434C191.248 79.0067 190.602 78.9502 189.98 79.0809C189.359 79.2115 188.79 79.5236 188.345 79.9776C187.901 80.4316 187.602 81.0071 187.484 81.6314C187.367 82.2556 187.438 82.9006 187.687 83.4848C187.936 84.069 188.353 84.5662 188.885 84.9134C189.417 85.2607 190.04 85.4424 190.675 85.4357C191.31 85.4289 191.929 85.234 192.454 84.8756C192.978 84.5172 193.384 84.0113 193.621 83.4219C193.778 83.0305 193.857 82.6118 193.853 82.19C193.848 81.7681 193.761 81.3512 193.595 80.9632C193.429 80.5751 193.189 80.2235 192.887 79.9284C192.586 79.6333 192.229 79.4006 191.838 79.2434Z" fill="#EBEBEB"/>
<path id="Vector_2" fill-rule="evenodd" clip-rule="evenodd" d="M29.7367 88.2722C30.6827 88.9804 31.5305 89.811 32.258 90.7422L35.4778 90.1543L37.6045 95.1339L34.9372 97.0673C35.107 98.2362 35.1189 99.4227 34.9727 100.595L37.6637 102.453L35.6474 107.48L32.4316 106.932C31.7256 107.88 30.8947 108.728 29.9616 109.453L30.5495 112.673L25.5699 114.823L23.6523 112.172C22.4834 112.341 21.2972 112.354 20.1248 112.211L18.2624 114.898L13.2355 112.874L13.7524 109.642C12.8063 108.934 11.9585 108.104 11.231 107.172L8.01521 107.76L5.88844 102.781L8.54 100.863C8.37089 99.6942 8.35763 98.508 8.50054 97.3356L5.81348 95.489L7.83371 90.466L11.0613 90.9869C11.7706 90.0406 12.601 89.1915 13.5314 88.4616L12.9435 85.23L17.923 83.1032L19.8446 85.7548C21.0136 85.5857 22.1997 85.5724 23.3722 85.7153L25.2306 83.0243L30.2575 85.0445L29.7367 88.2722ZM24.1416 93.6621C23.0756 93.2335 21.9065 93.1307 20.7821 93.3667C19.6577 93.6027 18.6285 94.1668 17.8247 94.9877C17.021 95.8087 16.4788 96.8496 16.2667 97.9787C16.0545 99.1079 16.1821 100.275 16.6331 101.331C17.0842 102.388 17.8384 103.287 18.8006 103.915C19.7627 104.543 20.8894 104.871 22.0383 104.859C23.1871 104.846 24.3064 104.493 25.2546 103.845C26.2028 103.196 26.9374 102.281 27.3653 101.214C27.9377 99.7852 27.9197 98.1874 27.3153 96.7715C26.711 95.3556 25.5695 94.2373 24.1416 93.6621Z" fill="#EBEBEB"/>
<path id="Vector_3" fill-rule="evenodd" clip-rule="evenodd" d="M16.5272 63.0634C17.0499 63.4548 17.5183 63.9139 17.92 64.4287L19.6996 64.1051L20.8833 66.8671L19.4194 67.9286C19.5081 68.5832 19.5081 69.2468 19.4194 69.9014L20.907 70.9313L19.7903 73.6933L18.0068 73.4053C17.6142 73.9293 17.1537 74.399 16.6376 74.8021L16.9651 76.5816L14.2031 77.7654L13.1417 76.3015C12.4947 76.3863 11.8394 76.3863 11.1925 76.3015L10.1626 77.789L7.40059 76.6724L7.68864 74.885C7.165 74.4947 6.69648 74.0354 6.29578 73.5197L4.51229 73.8433L3.32856 71.0812L4.79639 70.0198C4.70099 69.3727 4.69435 68.7156 4.77666 68.0667L3.28516 67.0408L4.40181 64.259L6.18924 64.547C6.58052 64.0231 7.03961 63.5534 7.55448 63.1502L7.23093 61.3707L9.99296 60.187L11.0544 61.6548C11.708 61.5583 12.3716 61.5503 13.0273 61.6311L14.0571 60.1436L16.8191 61.2602L16.5351 63.0476L16.5272 63.0634ZM13.4297 66.0425C12.84 65.8051 12.1931 65.7477 11.5708 65.8778C10.9485 66.0079 10.3788 66.3194 9.93347 66.7732C9.48819 67.2269 9.18739 67.8025 9.06908 68.4271C8.95077 69.0517 9.02025 69.6974 9.26875 70.2826C9.51725 70.8678 9.93361 71.3661 10.4652 71.7147C10.9969 72.0634 11.6199 72.2466 12.2556 72.2413C12.8913 72.236 13.5112 72.0423 14.0369 71.6849C14.5626 71.3274 14.9706 70.8221 15.2093 70.2329C15.368 69.8409 15.4479 69.4215 15.4444 68.9987C15.4409 68.5758 15.354 68.1578 15.1887 67.7686C15.0234 67.3794 14.7829 67.0265 14.4811 66.7304C14.1793 66.4342 13.822 66.2004 13.4297 66.0425Z" fill="#F0F0F0"/>
<path id="Vector_4" fill-rule="evenodd" clip-rule="evenodd" d="M52.7695 41.1507C54.2983 41.7125 55.7448 42.4769 57.0704 43.4235L61.095 41.3795L65.8615 47.1246L63.0995 50.7034C63.7827 52.1824 64.267 53.7453 64.5397 55.3515L68.8248 56.7523L68.1343 64.1861L63.6598 64.7701C63.098 66.3001 62.3336 67.748 61.387 69.0749L63.4309 73.0996L57.682 77.8661L54.1071 75.104C52.6314 75.7895 51.0709 76.2751 49.4669 76.5482L48.0661 80.8372L40.6323 80.1428L40.068 75.6762C38.5392 75.1143 37.0927 74.3499 35.7671 73.4034L31.7425 75.4434L26.976 69.6983L29.738 66.1195C29.0548 64.6405 28.5705 63.0776 28.2978 61.4714L24.0127 60.0707L24.6795 52.6368L29.154 52.0529C29.7139 50.5222 30.4756 49.0732 31.4189 47.7441L29.375 43.7233L35.124 38.9568L38.6989 41.7189C40.1778 41.032 41.7426 40.5476 43.3509 40.2787L44.7517 35.9896L52.1855 36.6959L52.7695 41.1704V41.1507ZM47.49 50.4706C45.9126 50.3236 44.3269 50.6478 42.9337 51.402C41.5405 52.1563 40.4022 53.3068 39.6628 54.708C38.9235 56.1092 38.6163 57.6982 38.78 59.274C38.9438 60.8498 39.5712 62.3417 40.5829 63.5609C41.5946 64.7801 42.9451 65.6719 44.4637 66.1236C45.9823 66.5752 47.6007 66.5663 49.1142 66.0981C50.6278 65.6299 51.9685 64.7234 52.9667 63.4932C53.965 62.2629 54.5761 60.7643 54.7226 59.1868C54.8204 58.1395 54.7109 57.0832 54.4003 56.0783C54.0897 55.0734 53.5841 54.1395 52.9124 53.33C52.2408 52.5206 51.4161 51.8514 50.4857 51.3608C49.5553 50.8701 48.5374 50.5676 47.49 50.4706Z" fill="#E0E0E0"/>
</g>
<g id="Plant">
<path id="Vector_5" d="M21.5611 164.144C26.4854 160.92 27.7362 154.745 27.6849 149.15C27.6849 148.219 27.8033 147.24 27.3732 146.412C26.9431 145.583 25.9133 145.003 25.057 145.374C24.3507 145.682 24.0272 146.479 23.6168 147.134C23.0697 148.011 22.2859 148.715 21.3559 149.166C20.7482 149.458 20.0025 149.628 19.4185 149.292C18.6294 148.831 18.5465 147.714 18.5741 146.795C18.6294 145.069 18.682 143.345 18.732 141.622C18.8128 140.696 18.7408 139.762 18.5189 138.86C18.4012 138.413 18.1783 138 17.8687 137.657C17.5591 137.314 17.1719 137.05 16.7393 136.887C15.8515 136.618 14.7388 137.1 14.5258 137.999C14.4816 138.382 14.4631 138.767 14.4705 139.152C14.4713 139.345 14.4147 139.534 14.3079 139.695C14.2012 139.855 14.049 139.981 13.8708 140.055C13.6768 140.073 13.4815 140.041 13.3034 139.962C13.1252 139.884 12.9701 139.761 12.8528 139.605C11.9544 138.601 11.2266 137.456 10.6984 136.216C10.1709 134.978 9.49803 133.807 8.69391 132.728C7.84163 131.686 6.64606 130.85 5.3045 130.755C3.96294 130.66 2.51484 131.434 2.14788 132.728C1.78092 134.022 2.51484 135.368 3.33161 136.441C4.5404 138.041 5.97443 139.458 7.5891 140.647C7.90347 140.828 8.15217 141.105 8.29934 141.436C8.48479 142.06 7.87714 142.655 7.25765 142.845C6.55136 143.058 5.79377 142.967 5.0638 143.034C4.33384 143.101 3.5289 143.401 3.23691 144.076C2.84233 145.015 3.60781 146.025 4.37724 146.692C5.92922 148.034 7.69859 149.101 9.60933 149.849C10.3139 150.059 10.9744 150.396 11.5585 150.843C12.1031 151.332 12.4187 152.173 12.0675 152.816C11.7164 153.459 10.8483 153.648 10.1262 153.498C9.42997 153.291 8.75277 153.024 8.10205 152.701C6.82362 152.192 5.1585 152.24 4.30621 153.321C4.04304 153.69 3.87023 154.116 3.80169 154.564C3.73316 155.012 3.77082 155.47 3.91164 155.901C4.20635 156.759 4.67066 157.548 5.27687 158.221C7.26659 160.698 9.87628 162.604 12.8409 163.746C15.8042 164.842 18.5702 165.186 21.565 164.184" fill="#2E84EF"/>
<path id="Vector_6" d="M3.53027 131.509L3.62102 131.6L3.89328 131.848C4.13398 132.069 4.48515 132.393 4.93102 132.823C6.18928 134.035 7.35521 135.339 8.41908 136.725C9.09381 137.597 9.79616 138.588 10.5301 139.661C11.264 140.734 12.0334 141.894 12.8028 143.137C13.6143 144.431 14.3533 145.77 15.0164 147.146C15.3636 147.86 15.6675 148.61 15.9752 149.371C16.283 150.133 16.5987 150.906 16.9143 151.691C18.124 154.623 19.1661 157.622 20.0354 160.672C20.735 163.166 21.1961 165.722 21.4125 168.303C21.554 170.044 21.5408 171.793 21.373 173.531C21.3099 174.143 21.2507 174.62 21.1994 174.944C21.1758 175.098 21.16 175.22 21.1442 175.311C21.1415 175.353 21.1415 175.395 21.1442 175.437C21.1575 175.397 21.168 175.356 21.1758 175.315C21.1758 175.224 21.2152 175.102 21.2428 174.948C21.306 174.628 21.377 174.159 21.452 173.539C21.6454 171.798 21.6771 170.042 21.5467 168.295C21.3484 165.703 20.8978 163.137 20.2012 160.633C19.3379 157.572 18.2984 154.565 17.0879 151.624C16.767 150.835 16.454 150.063 16.1488 149.308C15.8371 148.547 15.5294 147.793 15.1821 147.071C14.5125 145.69 13.7669 144.348 12.9488 143.05C12.1597 141.807 11.3942 140.655 10.6603 139.582C9.92637 138.509 9.21218 137.522 8.52562 136.65C7.44592 135.267 6.25848 133.971 4.97442 132.775C4.52066 132.353 4.15765 132.034 3.90907 131.824L3.62892 131.584C3.56579 131.532 3.53422 131.505 3.53027 131.509Z" fill="#263238"/>
<path id="Vector_7" d="M15.1217 147.063C15.1686 146.936 15.2016 146.803 15.2203 146.669C15.2756 146.412 15.3466 146.045 15.4216 145.583C15.5754 144.664 15.7491 143.39 15.9306 141.985C16.1121 140.58 16.3015 139.31 16.4711 138.394C16.554 137.941 16.625 137.57 16.6763 137.313C16.7119 137.184 16.7331 137.052 16.7394 136.919C16.6797 137.044 16.636 137.177 16.6092 137.313C16.5382 137.562 16.4475 137.929 16.3488 138.382C16.1515 139.294 15.9542 140.564 15.7609 141.973C15.5676 143.382 15.4216 144.617 15.3032 145.58C15.244 146.01 15.1927 146.369 15.1572 146.669C15.1301 146.798 15.1182 146.931 15.1217 147.063Z" fill="#263238"/>
<path id="Vector_8" d="M3.125 144.553C3.2817 144.591 3.44154 144.613 3.60244 144.62C3.91021 144.656 4.36003 144.703 4.90849 144.782C6.00936 144.924 7.52454 145.177 9.18176 145.524C10.839 145.871 12.3384 146.262 13.3919 146.566C13.9285 146.716 14.3586 146.85 14.6545 146.941C14.8065 146.997 14.9638 147.038 15.1241 147.063C14.98 146.991 14.831 146.929 14.6782 146.877C14.3862 146.767 13.9601 146.617 13.4274 146.451C12.366 146.112 10.8784 145.709 9.21727 145.358C7.79894 145.053 6.36612 144.82 4.92427 144.66C4.36792 144.597 3.9181 144.569 3.61033 144.557C3.4491 144.54 3.2865 144.538 3.125 144.553Z" fill="#263238"/>
<path id="Vector_9" d="M20.0439 160.406C20.0789 160.363 20.1081 160.315 20.1308 160.264L20.3478 159.838C20.5332 159.467 20.7897 158.926 21.0975 158.259C21.713 156.91 22.5022 155.02 23.3426 152.925C24.1831 150.83 24.9604 148.932 25.5443 147.574L26.2427 145.964L26.4321 145.526C26.4716 145.424 26.4913 145.369 26.4834 145.369C26.4509 145.413 26.4232 145.461 26.4006 145.511L26.1836 145.937C25.9942 146.308 25.7416 146.848 25.4339 147.515C24.8183 148.865 24.0292 150.755 23.1848 152.85C22.3404 154.945 21.571 156.843 20.983 158.2C20.6989 158.863 20.4622 159.408 20.2846 159.81L20.0992 160.248C20.074 160.298 20.0555 160.351 20.0439 160.406Z" fill="#263238"/>
<path id="Vector_10" d="M4.15527 154.932C4.15527 154.932 4.20657 154.963 4.30916 155.003L4.77081 155.164L6.47539 155.756C7.91165 156.253 9.88848 156.964 12.0705 157.753C14.2525 158.542 16.2372 159.232 17.6853 159.702C18.4113 159.939 18.9953 160.12 19.4057 160.239L19.8752 160.373C19.9857 160.404 20.0449 160.416 20.0449 160.408C19.9947 160.381 19.9418 160.358 19.8871 160.341L19.4254 160.175L17.7248 159.588C16.2885 159.09 14.3117 158.38 12.1297 157.591C9.94767 156.802 7.959 156.107 6.51485 155.638C5.78882 155.405 5.2009 155.22 4.79449 155.101L4.321 154.967C4.26707 154.95 4.21156 154.938 4.15527 154.932Z" fill="#263238"/>
</g>
<g id="Mobile">
<path id="Vector_11" d="M181.682 122.508L157.877 122.398C157.196 122.396 156.521 122.26 155.893 121.997C155.264 121.734 154.694 121.35 154.214 120.866C153.735 120.382 153.355 119.808 153.098 119.177C152.841 118.546 152.711 117.871 152.716 117.189L152.968 57.6753C152.972 56.9952 153.11 56.3224 153.373 55.6954C153.637 55.0684 154.022 54.4996 154.506 54.0214C154.989 53.5432 155.563 53.165 156.192 52.9084C156.822 52.6519 157.497 52.5219 158.177 52.5261L181.982 52.6326C183.355 52.6379 184.67 53.1875 185.638 54.161C186.606 55.1344 187.149 56.4522 187.147 57.8253L186.894 117.343C186.892 118.025 186.756 118.7 186.492 119.328C186.229 119.957 185.844 120.528 185.36 121.008C184.876 121.487 184.302 121.867 183.67 122.125C183.039 122.382 182.364 122.512 181.682 122.508Z" fill="#455A64"/>
<path id="Vector_12" d="M181.95 54.7039H177.333C177.183 54.7059 177.035 54.7376 176.897 54.7971C176.759 54.8565 176.635 54.9426 176.53 55.0504C176.426 55.1582 176.343 55.2855 176.288 55.4251C176.233 55.5647 176.206 55.7139 176.209 55.8639V56.7004C176.212 57.0033 176.096 57.2953 175.885 57.5132C175.675 57.731 175.387 57.8572 175.084 57.8644L166.084 57.821C165.933 57.8175 165.784 57.7839 165.646 57.7223C165.508 57.6607 165.383 57.5722 165.28 57.4621C165.176 57.3519 165.096 57.2223 165.043 57.0807C164.99 56.9391 164.965 56.7884 164.971 56.6373V55.7929C164.976 55.642 164.952 55.4915 164.899 55.3501C164.845 55.2088 164.765 55.0794 164.661 54.9693C164.558 54.8593 164.434 54.7708 164.296 54.709C164.158 54.6472 164.009 54.6133 163.858 54.6092H162.233H158.192C157.716 54.6066 157.244 54.6978 156.803 54.8777C156.362 55.0575 155.961 55.3224 155.622 55.6573C155.284 55.9922 155.015 56.3905 154.83 56.8294C154.645 57.2684 154.549 57.7394 154.546 58.2156L154.298 116.309C154.296 117.271 154.676 118.195 155.354 118.877C156.033 119.559 156.954 119.944 157.916 119.947L181.674 120.058C182.635 120.062 183.56 119.685 184.244 119.009C184.928 118.333 185.316 117.413 185.323 116.451L185.568 58.3577C185.572 57.8798 185.481 57.406 185.301 56.9633C185.121 56.5207 184.855 56.1181 184.519 55.7785C184.182 55.439 183.782 55.1692 183.341 54.9848C182.901 54.8004 182.428 54.7049 181.95 54.7039Z" fill="white"/>
<path id="Vector_13" d="M181.555 94.2334H158.046V95.8078H181.555V94.2334Z" fill="#455A64"/>
<path id="Vector_14" d="M180.723 100.423C180.723 100.479 175.704 100.526 169.517 100.526C163.33 100.526 158.307 100.479 158.307 100.423C158.307 100.368 163.326 100.321 169.517 100.321C175.707 100.321 180.723 100.368 180.723 100.423Z" fill="#455A64"/>
<path id="Vector_15" d="M180.723 63.1327C180.723 63.1919 175.704 63.2353 169.517 63.2353C163.33 63.2353 158.307 63.1919 158.307 63.1327C158.307 63.0736 163.326 63.0302 169.517 63.0302C175.707 63.0302 180.723 63.0657 180.723 63.1327Z" fill="#455A64"/>
<path id="Vector_16" d="M180.723 103.288C180.723 103.344 175.704 103.391 169.517 103.391C163.33 103.391 158.307 103.344 158.307 103.288C158.307 103.233 163.326 103.186 169.517 103.186C175.707 103.186 180.723 103.229 180.723 103.288Z" fill="#455A64"/>
<path id="Vector_17" d="M180.723 106.14C180.723 106.195 175.704 106.243 169.517 106.243C163.33 106.243 158.307 106.195 158.307 106.14C158.307 106.085 163.326 106.037 169.517 106.037C175.707 106.037 180.723 106.093 180.723 106.14Z" fill="#455A64"/>
<path id="Vector_18" d="M180.723 109.013C180.723 109.069 175.704 109.116 169.517 109.116C163.33 109.116 158.307 109.069 158.307 109.013C158.307 108.958 163.326 108.911 169.517 108.911C175.707 108.911 180.723 108.954 180.723 109.013Z" fill="#455A64"/>
<path id="Vector_19" d="M180.723 111.873C180.723 111.933 175.704 111.976 169.517 111.976C163.33 111.976 158.307 111.933 158.307 111.873C158.307 111.814 163.326 111.771 169.517 111.771C175.707 111.771 180.723 111.818 180.723 111.873Z" fill="#455A64"/>
<path id="Vector_20" d="M181.04 115.123C181.04 115.178 176.021 115.225 169.834 115.225C163.647 115.225 158.624 115.178 158.624 115.123C158.624 115.067 163.643 115.02 169.834 115.02C176.025 115.02 181.04 115.064 181.04 115.123Z" fill="#455A64"/>
<path id="Vector_21" d="M181.875 66.3888H158.307V89.1914H181.875V66.3888Z" fill="#E0E0E0"/>
<path id="Vector_22" d="M160.135 87.2364L166.657 75.5017L171.988 83.0026L175.227 79.0174L180.049 87.2364H160.135Z" fill="#2E84EF"/>
<path id="Vector_23" d="M174.261 73.222C174.261 73.5575 174.161 73.8856 173.975 74.1646C173.788 74.4436 173.523 74.6611 173.213 74.7895C172.903 74.9179 172.562 74.9515 172.233 74.886C171.904 74.8206 171.601 74.659 171.364 74.4217C171.127 74.1844 170.965 73.8821 170.9 73.553C170.834 73.2238 170.868 72.8827 170.996 72.5727C171.125 72.2626 171.342 71.9976 171.621 71.8112C171.9 71.6248 172.228 71.5253 172.564 71.5253C173.014 71.5263 173.444 71.7054 173.762 72.0234C174.08 72.3413 174.259 72.7723 174.261 73.222Z" fill="#2E84EF"/>
<path id="Vector_24" d="M180.051 87.3011C180.051 87.3011 180.051 87.2696 180.051 87.2064C180.051 87.1433 180.051 87.0525 180.051 86.9421C180.051 86.6974 180.051 86.3581 180.051 85.9162C180.051 85.0126 180.051 83.7026 180.024 82.0414C180.024 78.7112 179.996 73.9684 179.976 68.2746L180.071 68.3693H160.161C160.133 68.393 160.37 68.1563 160.271 68.2589V73.3884C160.271 75.0653 160.271 76.7067 160.271 78.3008C160.271 81.4969 160.271 84.5154 160.271 87.2932L160.172 87.1946L174.571 87.2459L178.635 87.2696H179.712H179.988H180.087H180H179.732H178.674L174.634 87.2932L160.172 87.3445H160.074V87.2459C160.074 84.4839 160.074 81.4496 160.074 78.2535C160.074 76.6752 160.074 75.018 160.074 73.341V68.2115C159.971 68.3101 160.208 68.0695 160.188 68.0971H180.099H180.138V68.2628C180.114 73.9842 180.099 78.7467 180.087 82.0927C180.087 83.7421 180.087 85.0442 180.063 85.9438C180.063 86.3778 180.063 86.7132 180.063 86.95C180.063 87.0565 180.063 87.1394 180.063 87.2064C180.064 87.2384 180.06 87.2703 180.051 87.3011Z" fill="#455A64"/>
</g>
<g id="Tablet">
<path id="Vector_25" d="M57.9902 32.3452V84.9108C57.9902 87.4277 60.0306 89.4681 62.5476 89.4681H141.952C144.469 89.4681 146.51 87.4277 146.51 84.9108V32.3452C146.51 29.8283 144.469 27.7879 141.952 27.7879L62.5476 27.7879C60.0306 27.7879 57.9902 29.8283 57.9902 32.3452Z" fill="#455A64"/>
<path id="Vector_26" d="M64.0449 29.7339V87.5237H137.969V29.7339L64.0449 29.7339Z" fill="white"/>
<path id="Vector_27" d="M142.058 56.2633C142.526 56.2633 142.984 56.4022 143.373 56.6623C143.763 56.9224 144.066 57.2922 144.245 57.7248C144.424 58.1574 144.471 58.6334 144.38 59.0926C144.289 59.5519 144.063 59.9737 143.732 60.3048C143.401 60.6359 142.979 60.8614 142.52 60.9527C142.061 61.0441 141.584 60.9972 141.152 60.818C140.719 60.6388 140.35 60.3354 140.089 59.9461C139.829 59.5567 139.69 59.099 139.69 58.6308C139.69 58.0029 139.94 57.4007 140.384 56.9567C140.828 56.5127 141.43 56.2633 142.058 56.2633Z" fill="#263238"/>
<path id="Vector_28" d="M60.541 49.8212V67.4351C60.541 67.701 60.7565 67.9165 61.0224 67.9165H61.0382C61.304 67.9165 61.5196 67.701 61.5196 67.4351V49.8212C61.5196 49.5553 61.304 49.3398 61.0382 49.3398H61.0224C60.7565 49.3398 60.541 49.5553 60.541 49.8212Z" fill="#263238"/>
<path id="Vector_29" d="M121.274 34.0745H97.7646V35.6488H121.274V34.0745Z" fill="#455A64"/>
<path id="Vector_30" d="M90.6505 61.1152H67.1416V62.6896H90.6505V61.1152Z" fill="#455A64"/>
<path id="Vector_31" d="M127.003 39.9313C127.003 39.9905 120.461 40.0339 112.403 40.0339C104.346 40.0339 97.7842 39.9905 97.7842 39.9313C97.7842 39.8721 104.326 39.8287 112.403 39.8287C120.48 39.8287 127.003 39.8761 127.003 39.9313Z" fill="#455A64"/>
<path id="Vector_32" d="M127.003 43.3689C127.003 43.4242 120.461 43.4715 112.403 43.4715C104.346 43.4715 97.7842 43.4242 97.7842 43.3689C97.7842 43.3137 104.326 43.2664 112.403 43.2664C120.48 43.2664 127.003 43.3098 127.003 43.3689Z" fill="#455A64"/>
<path id="Vector_33" d="M127.003 46.7994C127.003 46.8546 120.461 46.902 112.403 46.902C104.346 46.902 97.7842 46.8546 97.7842 46.7994C97.7842 46.7441 104.326 46.6968 112.403 46.6968C120.48 46.6968 127.003 46.7441 127.003 46.7994Z" fill="#455A64"/>
<path id="Vector_34" d="M127.003 50.2322C127.003 50.2914 120.461 50.3348 112.403 50.3348C104.346 50.3348 97.7842 50.2914 97.7842 50.2322C97.7842 50.173 104.326 50.1296 112.403 50.1296C120.48 50.1296 127.003 50.177 127.003 50.2322Z" fill="#455A64"/>
<path id="Vector_35" d="M127.003 53.6614C127.003 53.7167 120.461 53.764 112.403 53.764C104.346 53.764 97.7842 53.7167 97.7842 53.6614C97.7842 53.6062 104.326 53.5588 112.403 53.5588C120.48 53.5588 127.003 53.6101 127.003 53.6614Z" fill="#455A64"/>
<path id="Vector_36" d="M120.587 57.1016C120.587 57.1569 115.477 57.2042 109.176 57.2042C102.874 57.2042 97.7646 57.1569 97.7646 57.1016C97.7646 57.0464 102.87 56.999 109.176 56.999C115.481 56.999 120.587 57.0464 120.587 57.1016Z" fill="#455A64"/>
<path id="Vector_37" d="M105.749 67.3052C105.749 67.3605 97.1634 67.4078 86.5729 67.4078C75.9825 67.4078 67.3965 67.3605 67.3965 67.3052C67.3965 67.25 75.9825 67.2026 86.5729 67.2026C97.1634 67.2026 105.749 67.246 105.749 67.3052Z" fill="#455A64"/>
<path id="Vector_38" d="M105.749 70.1666C105.749 70.2257 97.1634 70.2691 86.5729 70.2691C75.9825 70.2691 67.3965 70.2257 67.3965 70.1666C67.3965 70.1074 75.9825 70.064 86.5729 70.064C97.1634 70.064 105.749 70.1113 105.749 70.1666Z" fill="#455A64"/>
<path id="Vector_39" d="M105.749 73.0303C105.749 73.0856 97.1634 73.1329 86.5729 73.1329C75.9825 73.1329 67.3965 73.0856 67.3965 73.0303C67.3965 72.9751 75.9825 72.9277 86.5729 72.9277C97.1634 72.9277 105.749 72.9711 105.749 73.0303Z" fill="#455A64"/>
<path id="Vector_40" d="M105.749 75.8917C105.749 75.9508 97.1634 75.9942 86.5729 75.9942C75.9825 75.9942 67.3965 75.9508 67.3965 75.8917C67.3965 75.8325 75.9825 75.7891 86.5729 75.7891C97.1634 75.7891 105.749 75.8364 105.749 75.8917Z" fill="#455A64"/>
<path id="Vector_41" d="M105.749 78.7579C105.749 78.8131 97.1634 78.8605 86.5729 78.8605C75.9825 78.8605 67.3965 78.8131 67.3965 78.7579C67.3965 78.7026 75.9825 78.6553 86.5729 78.6553C97.1634 78.6553 105.749 78.7026 105.749 78.7579Z" fill="#455A64"/>
<path id="Vector_42" d="M90.9646 33.267H67.3965V56.0696H90.9646V33.267Z" fill="#2E84EF"/>
<path id="Vector_43" d="M69.2246 54.1195L75.747 42.3848L81.0777 49.8817L84.3172 45.9004L89.1389 54.1195H69.2246Z" fill="#E0E0E0"/>
<path id="Vector_44" d="M83.3514 40.0998C83.3521 40.4356 83.2533 40.764 83.0673 41.0435C82.8814 41.3231 82.6167 41.5412 82.3067 41.6702C81.9968 41.7992 81.6555 41.8334 81.3261 41.7683C80.9967 41.7033 80.694 41.542 80.4564 41.3049C80.2187 41.0678 80.0567 40.7655 79.9909 40.4362C79.9251 40.107 79.9585 39.7657 80.0868 39.4554C80.2151 39.1452 80.4326 38.8799 80.7117 38.6933C80.9908 38.5067 81.3189 38.4071 81.6547 38.4071C82.104 38.4071 82.535 38.5853 82.853 38.9027C83.1711 39.22 83.3503 39.6505 83.3514 40.0998Z" fill="#E0E0E0"/>
<path id="Vector_45" d="M89.139 54.1824C89.139 54.1824 89.139 54.1469 89.139 54.0877C89.139 54.0285 89.139 53.9338 89.139 53.8234C89.139 53.5787 89.139 53.2354 89.139 52.7975C89.139 51.8899 89.139 50.5839 89.1154 48.9227C89.1154 45.5925 89.0877 40.8497 89.068 35.1559L89.1627 35.2506H69.2523C69.2247 35.2743 69.4615 35.0415 69.3628 35.1441V37.7207C69.3628 38.573 69.3628 39.4213 69.3628 40.2578V45.1703C69.3628 48.3664 69.3628 51.3849 69.3628 54.1627L69.2642 54.0641L83.6623 54.1114L87.7225 54.139H88.7997H89.0798H89.1785H89.0917H88.8234H87.7659L83.7254 54.1666L69.2642 54.214H69.1655V54.1154C69.1655 51.3533 69.1655 48.319 69.1655 45.1229C69.1655 43.5262 69.1655 41.8887 69.1655 40.2105V35.081C69.0629 35.1796 69.2997 34.9389 69.28 34.9626H89.1903H89.289V35.0612C89.2692 40.7787 89.2535 45.5451 89.2416 48.8912C89.2416 50.5405 89.2219 51.8426 89.2179 52.7422C89.2179 53.1723 89.2179 53.5314 89.2179 53.7484C89.2179 53.8549 89.2179 53.9378 89.2179 54.0049C89.2151 54.0719 89.1869 54.1354 89.139 54.1824Z" fill="#455A64"/>
<path id="Vector_46" d="M127.72 64.1371H111.041V80.2753H127.72V64.1371Z" fill="#2E84EF"/>
<path id="Vector_47" d="M112.338 78.8937L116.95 70.5918L120.727 75.8989L123.019 73.0776L126.428 78.8937H112.338Z" fill="#E0E0E0"/>
<path id="Vector_48" d="M122.33 68.975C122.33 69.2091 122.261 69.438 122.131 69.6326C122.001 69.8273 121.816 69.979 121.6 70.0686C121.383 70.1582 121.145 70.1816 120.916 70.136C120.686 70.0903 120.475 69.9776 120.31 69.812C120.144 69.6465 120.031 69.4355 119.986 69.2059C119.94 68.9763 119.963 68.7383 120.053 68.522C120.143 68.3057 120.294 68.1208 120.489 67.9908C120.684 67.8607 120.913 67.7913 121.147 67.7913C121.461 67.7913 121.762 67.916 121.984 68.138C122.206 68.36 122.33 68.661 122.33 68.975Z" fill="#E0E0E0"/>
<path id="Vector_49" d="M126.424 78.9377C126.424 78.9377 126.424 78.914 126.424 78.8746C126.424 78.8351 126.424 78.7641 126.424 78.6852C126.424 78.5116 126.424 78.2906 126.424 77.9592C126.424 77.3199 126.424 76.3808 126.424 75.1971C126.424 72.8297 126.404 69.4836 126.388 65.455L126.455 65.5221H112.365C112.345 65.5221 112.515 65.3721 112.444 65.4471V69.0693C112.444 70.2531 112.444 71.4118 112.444 72.5456C112.444 74.8065 112.444 76.9411 112.444 78.9061L112.377 78.8391L122.525 78.914H125.398H126.163H126.428C126.428 78.914 126.408 78.914 126.369 78.914H126.179H125.43L122.569 78.9338L112.338 78.9693H112.266V78.8982C112.266 76.9254 112.266 74.7986 112.266 72.5377V65.4984C112.195 65.5655 112.365 65.3958 112.349 65.4155H126.44H126.511V65.4826C126.511 69.531 126.483 72.9007 126.475 75.2681C126.475 76.4519 126.475 77.3594 126.455 77.9947C126.455 78.3024 126.455 78.5392 126.455 78.7088C126.455 78.7838 126.455 78.843 126.455 78.8904C126.455 78.9377 126.428 78.9416 126.424 78.9377Z" fill="#455A64"/>
</g>
<g id="Computer">
<path id="Vector_50" d="M139.73 95.7046H27.4921C24.3171 95.7046 21.7432 98.2785 21.7432 101.454V171.779C21.7432 174.954 24.3171 177.528 27.4921 177.528H139.73C142.905 177.528 145.479 174.954 145.479 171.779V101.454C145.479 98.2785 142.905 95.7046 139.73 95.7046Z" fill="#263238"/>
<path id="Vector_51" d="M16.5713 171.478H150.629V171.616C150.629 173.479 149.889 175.265 148.572 176.582C147.255 177.899 145.468 178.639 143.605 178.639H23.5948C21.732 178.639 19.9456 177.899 18.6284 176.582C17.3113 175.265 16.5713 173.479 16.5713 171.616V171.478Z" fill="#263238"/>
<path id="Vector_52" d="M141.812 98.9551H25.0645V168.053H141.812V98.9551Z" fill="#E0E0E0"/>
<path id="Vector_53" d="M71.4121 171.478L73.0772 174.125H96.4835L98.0303 171.478H71.4121Z" fill="#455A64"/>
<path id="Vector_54" d="M136.447 103.561H28.96V168.031H136.447V103.561Z" fill="#FAFAFA"/>
<path id="Vector_55" d="M33.5493 106.737C33.5501 106.916 33.4978 107.091 33.399 107.24C33.3002 107.39 33.1593 107.506 32.9943 107.575C32.8293 107.644 32.6474 107.662 32.4719 107.628C32.2964 107.594 32.135 107.508 32.0082 107.382C31.8815 107.255 31.795 107.094 31.7598 106.919C31.7247 106.744 31.7423 106.562 31.8106 106.396C31.8789 106.231 31.9947 106.09 32.1434 105.99C32.292 105.891 32.4669 105.838 32.6458 105.838C32.8847 105.838 33.114 105.932 33.2833 106.101C33.4526 106.27 33.5483 106.498 33.5493 106.737Z" fill="#455A64"/>
<path id="Vector_56" d="M37.2271 106.737C37.2279 106.916 37.1754 107.092 37.0764 107.241C36.9775 107.39 36.8364 107.507 36.6711 107.575C36.5058 107.644 36.3238 107.662 36.1482 107.628C35.9725 107.593 35.8112 107.507 35.6846 107.38C35.558 107.254 35.4718 107.092 35.4371 106.917C35.4024 106.741 35.4206 106.559 35.4895 106.394C35.5583 106.228 35.6748 106.087 35.824 105.988C35.9732 105.889 36.1484 105.837 36.3274 105.838C36.566 105.838 36.7949 105.933 36.9636 106.101C37.1323 106.27 37.2271 106.499 37.2271 106.737Z" fill="#455A64"/>
<path id="Vector_57" d="M40.9077 106.737C40.9085 106.916 40.8562 107.091 40.7574 107.24C40.6586 107.39 40.5177 107.506 40.3527 107.575C40.1876 107.644 40.0058 107.662 39.8303 107.628C39.6548 107.594 39.4934 107.508 39.3666 107.382C39.2399 107.255 39.1534 107.094 39.1182 106.919C39.0831 106.744 39.1007 106.562 39.169 106.396C39.2373 106.231 39.3531 106.09 39.5017 105.99C39.6504 105.891 39.8253 105.838 40.0042 105.838C40.1226 105.837 40.24 105.86 40.3496 105.905C40.4592 105.95 40.5589 106.016 40.6428 106.1C40.7268 106.183 40.7934 106.283 40.8389 106.392C40.8843 106.502 40.9077 106.619 40.9077 106.737Z" fill="#455A64"/>
<path id="Vector_58" d="M136.447 110.682C136.447 110.741 112.377 110.784 82.7053 110.784C53.0331 110.784 28.96 110.741 28.96 110.682C28.96 110.623 53.0292 110.579 82.7053 110.579C112.381 110.579 136.447 110.626 136.447 110.682Z" fill="#455A64"/>
<path id="Vector_59" d="M145.479 171.535H21.7432V171.929H145.479V171.535Z" fill="#455A64"/>
<path id="Vector_60" d="M61.2823 142.009H37.7734V143.583H61.2823V142.009Z" fill="#455A64"/>
<path id="Vector_61" d="M91.6486 120.171H68.1396V121.745H91.6486V120.171Z" fill="#455A64"/>
<path id="Vector_62" d="M126.616 126.032C126.616 126.087 113.524 126.134 97.3778 126.134C81.2317 126.134 68.1396 126.087 68.1396 126.032C68.1396 125.977 81.2278 125.925 97.3778 125.925C113.528 125.925 126.616 125.973 126.616 126.032Z" fill="#455A64"/>
<path id="Vector_63" d="M126.616 129.463C126.616 129.518 113.524 129.566 97.3778 129.566C81.2317 129.566 68.1396 129.518 68.1396 129.463C68.1396 129.408 81.2278 129.361 97.3778 129.361C113.528 129.361 126.616 129.42 126.616 129.463Z" fill="#455A64"/>
<path id="Vector_64" d="M126.616 132.896C126.616 132.955 113.524 132.999 97.3778 132.999C81.2317 132.999 68.1396 132.955 68.1396 132.896C68.1396 132.837 81.2278 132.793 97.3778 132.793C113.528 132.793 126.616 132.841 126.616 132.896Z" fill="#455A64"/>
<path id="Vector_65" d="M126.616 136.333C126.616 136.388 113.524 136.435 97.3778 136.435C81.2317 136.435 68.1396 136.388 68.1396 136.333C68.1396 136.278 81.2278 136.226 97.3778 136.226C113.528 136.226 126.616 136.274 126.616 136.333Z" fill="#455A64"/>
<path id="Vector_66" d="M126.616 139.767C126.616 139.822 113.524 139.869 97.3778 139.869C81.2317 139.869 68.1396 139.822 68.1396 139.767C68.1396 139.711 81.2278 139.664 97.3778 139.664C113.528 139.664 126.616 139.707 126.616 139.767Z" fill="#455A64"/>
<path id="Vector_67" d="M90.9659 143.199C90.9659 143.255 85.8562 143.302 79.5548 143.302C73.2534 143.302 68.1396 143.255 68.1396 143.199C68.1396 143.144 73.2691 143.097 79.5548 143.097C85.8404 143.097 90.9659 143.144 90.9659 143.199Z" fill="#455A64"/>
<path id="Vector_68" d="M126.187 149.864C126.187 149.924 117.581 149.967 106.971 149.967C96.3606 149.967 87.7549 149.924 87.7549 149.864C87.7549 149.805 96.3567 149.762 106.971 149.762C117.585 149.762 126.187 149.809 126.187 149.864Z" fill="#455A64"/>
<path id="Vector_69" d="M126.187 153.509C126.187 153.564 117.581 153.611 106.971 153.611C96.3606 153.611 87.7549 153.564 87.7549 153.509C87.7549 153.454 96.3567 153.406 106.971 153.406C117.585 153.406 126.187 153.454 126.187 153.509Z" fill="#455A64"/>
<path id="Vector_70" d="M126.187 157.155C126.187 157.21 117.581 157.257 106.971 157.257C96.3606 157.257 87.7549 157.21 87.7549 157.155C87.7549 157.099 96.3567 157.052 106.971 157.052C117.585 157.052 126.187 157.095 126.187 157.155Z" fill="#455A64"/>
<path id="Vector_71" d="M126.187 160.803C126.187 160.858 117.581 160.905 106.971 160.905C96.3606 160.905 87.7549 160.858 87.7549 160.803C87.7549 160.747 96.3567 160.7 106.971 160.7C117.585 160.7 126.187 160.743 126.187 160.803Z" fill="#455A64"/>
<path id="Vector_72" d="M61.3396 149.517C61.3396 149.572 56.2101 149.619 49.8968 149.619C43.5836 149.619 38.4541 149.572 38.4541 149.517C38.4541 149.461 43.5836 149.414 49.8968 149.414C56.2101 149.414 61.3396 149.457 61.3396 149.517Z" fill="#455A64"/>
<path id="Vector_73" d="M61.3396 152.377C61.3396 152.436 56.2101 152.479 49.8968 152.479C43.5836 152.479 38.4541 152.436 38.4541 152.377C38.4541 152.318 43.5836 152.274 49.8968 152.274C56.2101 152.274 61.3396 152.306 61.3396 152.377Z" fill="#455A64"/>
<path id="Vector_74" d="M61.3396 155.242C61.3396 155.297 56.2101 155.344 49.8968 155.344C43.5836 155.344 38.4541 155.297 38.4541 155.242C38.4541 155.187 43.5836 155.139 49.8968 155.139C56.2101 155.139 61.3396 155.187 61.3396 155.242Z" fill="#455A64"/>
<path id="Vector_75" d="M61.3396 158.104C61.3396 158.163 56.2101 158.207 49.8968 158.207C43.5836 158.207 38.4541 158.163 38.4541 158.104C38.4541 158.045 43.5836 158.002 49.8968 158.002C56.2101 158.002 61.3396 158.049 61.3396 158.104Z" fill="#455A64"/>
<path id="Vector_76" d="M61.3396 160.986C61.3396 161.042 56.2101 161.089 49.8968 161.089C43.5836 161.089 38.4541 161.042 38.4541 160.986C38.4541 160.931 43.5836 160.884 49.8968 160.884C56.2101 160.884 61.3396 160.911 61.3396 160.986Z" fill="#455A64"/>
<path id="Vector_77" d="M61.3415 115.035H37.7734V137.837H61.3415V115.035Z" fill="#E0E0E0"/>
<path id="Vector_78" d="M39.5957 135.883L46.1181 124.149L51.4488 131.65L54.6922 127.668L59.51 135.883H39.5957Z" fill="#2E84EF"/>
<path id="Vector_79" d="M53.7283 121.868C53.7283 122.203 53.6288 122.531 53.4424 122.81C53.2559 123.089 52.991 123.307 52.6809 123.435C52.3709 123.564 52.0298 123.597 51.7006 123.532C51.3715 123.466 51.0692 123.305 50.8319 123.067C50.5946 122.83 50.433 122.528 50.3676 122.199C50.3021 121.87 50.3357 121.528 50.4641 121.218C50.5925 120.908 50.81 120.643 51.089 120.457C51.368 120.271 51.6961 120.171 52.0316 120.171C52.4816 120.171 52.9132 120.35 53.2314 120.668C53.5496 120.986 53.7283 121.418 53.7283 121.868Z" fill="#2E84EF"/>
<path id="Vector_80" d="M59.5116 135.949C59.5099 135.919 59.5099 135.888 59.5116 135.858C59.5116 135.787 59.5116 135.7 59.5116 135.59C59.5116 135.349 59.5116 135.006 59.5116 134.564C59.5116 133.66 59.5116 132.354 59.484 130.693C59.484 127.363 59.4563 122.62 59.4366 116.922L59.5313 117.021H39.6209C39.5933 117.045 39.8301 116.808 39.7314 116.911V122.04C39.7314 123.713 39.7314 125.355 39.7314 126.953C39.7314 130.145 39.7314 133.163 39.7314 135.941L39.6328 135.846L54.0309 135.894L58.095 135.921H59.1722H59.5471C59.5471 135.921 59.5195 135.921 59.4603 135.921H59.192H58.1345L54.094 135.949L39.6328 135.996H39.5381V135.898C39.5381 133.136 39.5381 130.101 39.5381 126.909C39.5381 125.311 39.5381 123.67 39.5381 121.997V116.867L39.6525 116.753H59.5629H59.6615V116.848C59.6615 122.569 59.6221 127.331 59.6102 130.677C59.6102 132.331 59.6102 133.629 59.5865 134.528C59.5865 134.963 59.5865 135.298 59.5865 135.539C59.5865 135.645 59.5865 135.728 59.5865 135.791C59.5865 135.854 59.5155 135.953 59.5116 135.949Z" fill="#455A64"/>
<path id="Vector_81" d="M84.8018 148.123H68.123V164.261H84.8018V148.123Z" fill="#E0E0E0"/>
<path id="Vector_82" d="M69.416 162.881L74.0286 154.579L77.8047 159.886L80.0972 157.064L83.5103 162.881H69.416Z" fill="#2E84EF"/>
<path id="Vector_83" d="M79.4114 152.962C79.4114 153.196 79.342 153.425 79.2119 153.619C79.0818 153.814 78.897 153.966 78.6807 154.055C78.4644 154.145 78.2264 154.168 77.9967 154.123C77.7671 154.077 77.5562 153.964 77.3907 153.799C77.2251 153.633 77.1124 153.422 77.0667 153.193C77.021 152.963 77.0445 152.725 77.1341 152.509C77.2236 152.293 77.3754 152.108 77.57 151.978C77.7647 151.847 77.9936 151.778 78.2277 151.778C78.5416 151.778 78.8427 151.903 79.0647 152.125C79.2867 152.347 79.4114 152.648 79.4114 152.962Z" fill="#2E84EF"/>
<path id="Vector_84" d="M83.5101 162.929C83.5087 162.906 83.5087 162.884 83.5101 162.862C83.5101 162.814 83.5101 162.751 83.5101 162.672C83.5101 162.503 83.5101 162.278 83.5101 161.946C83.5101 161.307 83.5101 160.368 83.4904 159.204C83.4904 156.836 83.4904 153.49 83.4588 149.462L83.5259 149.529H69.4316C69.4316 149.529 69.5816 149.379 69.5105 149.454V156.556C69.5105 158.817 69.5105 160.952 69.5105 162.921L69.4395 162.85L79.6314 162.885L82.504 162.905H83.2655H82.5158H79.6591L69.4237 162.94H69.3566V162.873C69.3566 160.901 69.3566 158.77 69.3566 156.509C69.3566 155.38 69.3566 154.216 69.3566 153.033V149.418C69.2856 149.485 69.4514 149.316 69.4356 149.335H83.5299H83.5969V149.403C83.5969 153.451 83.5693 156.821 83.5614 159.192C83.5614 160.376 83.5614 161.279 83.5614 161.915C83.5614 162.222 83.5614 162.459 83.5614 162.629C83.5614 162.704 83.5614 162.763 83.5614 162.81C83.5521 162.853 83.5347 162.893 83.5101 162.929Z" fill="#455A64"/>
</g>
<g id="Character">
<path id="Vector_85" d="M224.071 171.641L220.125 171.171L219.198 178.566L224.971 179.311L225.058 178.858C225.429 176.83 226.79 168.528 226.545 167.111C226.273 165.533 224.071 171.641 224.071 171.641Z" fill="#2E84EF"/>
<path id="Vector_86" d="M226.203 166.583C226.274 166.583 226.001 169.369 225.595 172.782C225.189 176.195 224.806 178.957 224.735 178.949C224.664 178.941 224.94 176.187 225.342 172.75C225.745 169.313 226.132 166.575 226.203 166.583Z" fill="#263238"/>
<path id="Vector_87" d="M224.895 171.294C224.855 171.349 224.65 171.27 224.461 171.088C224.271 170.907 224.192 170.694 224.248 170.658C224.303 170.623 224.469 170.737 224.642 170.907C224.816 171.077 224.938 171.246 224.895 171.294Z" fill="#263238"/>
<path id="Vector_88" d="M225.211 170.852C225.179 170.915 224.946 170.852 224.718 170.678C224.489 170.505 224.362 170.284 224.414 170.244C224.465 170.205 224.658 170.311 224.871 170.473C225.084 170.635 225.246 170.789 225.211 170.852Z" fill="#263238"/>
<path id="Vector_89" d="M224.98 176.717C224.98 176.748 224.882 176.847 224.684 176.989C224.434 177.16 224.2 177.354 223.986 177.569C223.784 177.783 223.638 178.043 223.56 178.326C223.504 178.547 223.52 178.693 223.481 178.701C223.441 178.709 223.37 178.563 223.382 178.307C223.41 177.97 223.549 177.652 223.777 177.403C224.002 177.168 224.27 176.976 224.566 176.839C224.814 176.728 224.96 176.685 224.98 176.717Z" fill="#263238"/>
<path id="Vector_90" d="M224.158 171.184C224.221 171.157 224.347 171.303 224.394 171.52C224.442 171.737 224.394 171.914 224.323 171.914C224.252 171.914 224.189 171.756 224.146 171.563C224.102 171.37 224.091 171.212 224.158 171.184Z" fill="#263238"/>
<path id="Vector_91" d="M223.764 171.246C223.831 171.246 223.866 171.452 223.842 171.704C223.819 171.957 223.736 172.146 223.669 172.13C223.602 172.115 223.562 171.913 223.59 171.677C223.618 171.44 223.693 171.246 223.764 171.246Z" fill="#263238"/>
<path id="Vector_92" d="M221.663 179.154L199.791 176.937L154.438 177.951L166.497 168.228L196.765 166.776L223.229 170.422L221.663 179.154Z" fill="#263238"/>
<path id="Vector_93" d="M184.699 173.082C184.699 173.141 180.442 173.185 175.19 173.185C169.938 173.185 165.685 173.141 165.685 173.082C165.685 173.023 169.938 172.979 175.19 172.979C180.442 172.979 184.699 173.027 184.699 173.082Z" fill="#455A64"/>
<path id="Vector_94" d="M182.587 167.456L184.142 177.237H187.125L184.856 167.349L182.587 167.456Z" fill="black"/>
<path id="Vector_95" d="M194.131 177.368L193.69 173.422L186.275 174.211L186.848 179.988H187.309C189.369 179.885 197.762 179.325 199.083 178.765C200.575 178.121 194.131 177.368 194.131 177.368Z" fill="#2E84EF"/>
<path id="Vector_96" d="M199.237 178.349C199.237 178.42 196.475 178.787 193.062 179.169C189.649 179.552 186.871 179.805 186.863 179.734C186.855 179.663 189.625 179.3 193.034 178.917C196.444 178.534 199.229 178.293 199.237 178.349Z" fill="#263238"/>
<path id="Vector_97" d="M194.344 178.16C194.277 178.132 194.308 177.915 194.442 177.69C194.576 177.465 194.762 177.339 194.813 177.383C194.864 177.426 194.786 177.615 194.663 177.82C194.541 178.026 194.415 178.187 194.344 178.16Z" fill="#263238"/>
<path id="Vector_98" d="M194.853 178.349C194.786 178.349 194.794 178.092 194.912 177.828C195.03 177.564 195.204 177.398 195.263 177.433C195.322 177.469 195.263 177.682 195.145 177.927C195.026 178.171 194.92 178.384 194.853 178.349Z" fill="#263238"/>
<path id="Vector_99" d="M189.087 179.47C189.063 179.494 188.937 179.403 188.756 179.245C188.532 179.04 188.291 178.857 188.033 178.697C187.779 178.548 187.491 178.466 187.197 178.456C186.972 178.456 186.83 178.499 186.802 178.456C186.775 178.412 186.909 178.318 187.169 178.27C187.508 178.222 187.854 178.292 188.148 178.468C188.428 178.636 188.674 178.856 188.874 179.115C189.04 179.316 189.115 179.446 189.087 179.47Z" fill="#263238"/>
<path id="Vector_100" d="M194.286 177.414C194.329 177.469 194.215 177.623 194.014 177.722C193.812 177.821 193.619 177.813 193.619 177.746C193.619 177.679 193.741 177.58 193.919 177.493C194.097 177.406 194.247 177.355 194.286 177.414Z" fill="#263238"/>
<path id="Vector_101" d="M194.13 177.043C194.13 177.114 193.952 177.193 193.704 177.225C193.455 177.256 193.25 177.225 193.246 177.154C193.242 177.083 193.436 177.004 193.672 176.972C193.909 176.941 194.114 176.976 194.13 177.043Z" fill="#263238"/>
<path id="Vector_102" d="M150.748 132.23L157.062 132.116C157.148 131.386 157.271 128.541 157.271 128.541C157.271 128.541 159.914 128.292 160.108 125.68C160.301 123.068 160.218 117.023 160.218 117.023C158.77 116.292 157.152 115.961 155.532 116.063C153.913 116.166 152.35 116.699 151.005 117.607L150.61 117.883L150.748 132.23Z" fill="#B78876"/>
<path id="Vector_103" d="M159.345 121.488C159.277 121.414 159.238 121.318 159.238 121.217C159.238 121.117 159.277 121.02 159.345 120.947C159.4 120.889 159.47 120.849 159.547 120.832C159.624 120.815 159.705 120.821 159.778 120.851C159.852 120.88 159.915 120.93 159.959 120.996C160.004 121.061 160.027 121.138 160.027 121.217C160.027 121.296 160.004 121.374 159.959 121.439C159.915 121.504 159.852 121.555 159.778 121.584C159.705 121.613 159.624 121.62 159.547 121.602C159.47 121.585 159.4 121.545 159.345 121.488Z" fill="#263238"/>
<path id="Vector_104" d="M160.015 120.928C159.972 120.971 159.727 120.758 159.368 120.735C159.009 120.711 158.733 120.881 158.697 120.833C158.662 120.786 158.725 120.731 158.843 120.652C159.005 120.55 159.194 120.503 159.384 120.518C159.573 120.529 159.753 120.603 159.897 120.727C160.015 120.825 160.043 120.908 160.015 120.928Z" fill="#263238"/>
<path id="Vector_105" d="M155.848 120.986C155.905 121.052 155.937 121.136 155.941 121.224C155.945 121.311 155.919 121.397 155.869 121.469C155.818 121.54 155.745 121.593 155.662 121.618C155.578 121.643 155.488 121.64 155.406 121.609C155.35 121.588 155.299 121.554 155.258 121.51C155.217 121.466 155.187 121.413 155.169 121.355C155.152 121.297 155.148 121.237 155.157 121.177C155.167 121.118 155.19 121.061 155.225 121.012C155.26 120.963 155.305 120.923 155.358 120.894C155.411 120.865 155.47 120.849 155.53 120.846C155.59 120.844 155.65 120.855 155.705 120.879C155.76 120.903 155.809 120.94 155.848 120.986Z" fill="#263238"/>
<path id="Vector_106" d="M156.068 121.001C156.024 121.044 155.779 120.831 155.416 120.808C155.053 120.784 154.785 120.954 154.746 120.906C154.706 120.859 154.773 120.804 154.896 120.725C155.057 120.623 155.246 120.576 155.435 120.59C155.625 120.605 155.805 120.679 155.949 120.804C156.068 120.898 156.103 120.985 156.068 121.001Z" fill="#263238"/>
<path id="Vector_107" d="M157.348 124.068C157.537 124.006 157.736 123.977 157.936 123.981C158.03 123.981 158.109 123.958 158.117 123.91C158.127 123.815 158.109 123.719 158.066 123.634L157.825 122.884C157.594 122.245 157.427 121.584 157.328 120.911C157.624 121.521 157.857 122.16 158.023 122.817C158.101 123.078 158.173 123.326 158.247 123.571C158.301 123.695 158.311 123.835 158.275 123.966C158.259 124.001 158.235 124.032 158.205 124.057C158.175 124.081 158.139 124.099 158.101 124.108C158.048 124.115 157.993 124.115 157.94 124.108C157.742 124.127 157.542 124.114 157.348 124.068Z" fill="#263238"/>
<path id="Vector_108" d="M156.149 124.394C155.786 124.146 157.148 125.006 157.885 125.014C157.751 125.196 157.559 125.327 157.341 125.387C157.122 125.446 156.89 125.43 156.682 125.341C155.916 125.006 156.149 124.394 156.149 124.394Z" fill="white"/>
<path id="Vector_109" d="M157.286 128.504C156.075 128.451 154.907 128.038 153.932 127.32C153.932 127.32 154.622 129.253 157.25 129.178L157.286 128.504Z" fill="#A36957"/>
<path id="Vector_110" d="M160.41 116.081C160.56 116.076 160.707 116.037 160.839 115.966C160.972 115.895 161.087 115.795 161.174 115.674C161.262 115.552 161.321 115.411 161.346 115.263C161.371 115.115 161.362 114.964 161.319 114.82C161.277 114.676 161.202 114.543 161.1 114.433C160.998 114.323 160.872 114.237 160.732 114.183C160.592 114.129 160.442 114.107 160.292 114.12C160.143 114.133 159.998 114.18 159.869 114.258C160.183 114 160.438 113.679 160.619 113.315C160.706 113.132 160.735 112.927 160.702 112.728C160.668 112.528 160.575 112.343 160.434 112.198C160.269 112.085 160.077 112.019 159.877 112.006C159.678 111.994 159.479 112.036 159.301 112.127C158.745 112.368 158.307 112.838 157.723 113.035C157.139 113.232 156.515 113.133 155.904 113.161C155.222 113.174 154.562 113.402 154.018 113.812C153.75 114.019 153.534 114.286 153.388 114.592C153.242 114.898 153.17 115.233 153.177 115.572C152.321 115.469 151.374 115.458 150.699 115.99C150.428 116.232 150.213 116.53 150.071 116.865C149.928 117.199 149.861 117.561 149.875 117.924C149.941 118.649 150.113 119.36 150.388 120.035C150.436 120.232 150.524 120.418 150.648 120.579L150.968 122.457L152.132 122.434L152.057 118.527C152.057 118.527 151.938 116.878 153.359 117.024C154.779 117.17 156.701 118.768 159.459 118.362C159.91 118.338 160.35 118.212 160.745 117.995C160.937 117.874 161.093 117.704 161.197 117.503C161.301 117.302 161.35 117.077 161.337 116.85C161.313 116.627 161.203 116.421 161.03 116.277C160.857 116.134 160.634 116.063 160.41 116.081Z" fill="#263238"/>
<path id="Vector_111" d="M151.115 120.204C151.056 120.184 149.17 119.94 149.348 122.177C149.525 124.414 151.715 123.487 151.715 123.424C151.715 123.361 151.115 120.204 151.115 120.204Z" fill="#B78876"/>
<path id="Vector_112" d="M150.97 122.688C150.97 122.688 150.93 122.715 150.867 122.751C150.778 122.797 150.675 122.809 150.579 122.782C150.428 122.702 150.301 122.584 150.211 122.439C150.121 122.294 150.071 122.128 150.066 121.958C150.044 121.767 150.065 121.574 150.129 121.393C150.144 121.322 150.176 121.255 150.223 121.198C150.27 121.142 150.33 121.098 150.397 121.07C150.441 121.055 150.489 121.056 150.532 121.072C150.576 121.089 150.612 121.12 150.634 121.161C150.67 121.22 150.658 121.263 150.67 121.267C150.681 121.271 150.717 121.228 150.689 121.137C150.674 121.082 150.639 121.034 150.591 121.003C150.559 120.982 150.523 120.968 150.486 120.961C150.449 120.954 150.411 120.955 150.374 120.963C150.279 120.989 150.193 121.039 150.124 121.108C150.055 121.177 150.005 121.263 149.979 121.358C149.898 121.558 149.87 121.775 149.896 121.989C149.901 122.188 149.964 122.381 150.077 122.544C150.191 122.707 150.35 122.832 150.536 122.905C150.597 122.918 150.66 122.917 150.721 122.902C150.782 122.887 150.839 122.858 150.887 122.818C150.97 122.739 150.977 122.692 150.97 122.688Z" fill="#A36957"/>
<path id="Vector_113" d="M145.631 171.249C146.815 173.012 153.992 183.816 162.562 175.96C173.48 165.961 182.113 157.202 182.113 157.202L185.357 176.99L195.521 176.437C195.521 176.437 191.575 146.974 189.058 144.295C186.26 141.304 183.688 141.557 161.718 158.894L145.631 171.249Z" fill="#455A64"/>
<path id="Vector_114" d="M181.986 137.691L191.48 130.763L191.945 131.508L182.515 138.52L181.986 137.691Z" fill="#263238"/>
<path id="Vector_115" d="M184.329 137.48C184.329 137.48 185.6 134.165 185.907 133.459C186.215 132.752 186.677 131.521 186.858 131.486C187.04 131.45 187.703 131.565 186.858 133.672C186.014 135.779 187.884 134.493 187.884 134.493L189.711 133.183C189.711 133.183 191.155 137.499 190.335 138.801C189.689 139.774 188.965 140.691 188.168 141.544L184.329 137.48Z" fill="#B78876"/>
<path id="Vector_116" d="M184.439 137.091C184.249 136.661 172.175 147.322 169.772 147.685L162.733 138.519C162.733 138.519 161.273 136.199 158.136 132.23C156.108 129.669 150.521 130.202 149.061 133.323C146.567 138.626 146.536 144.521 145.206 155.991L144.626 163.749C144.501 165.399 144.526 167.058 144.701 168.704C144.914 170.626 145.348 172.65 146.24 172.362L162.342 159.053L162.859 153.008C166.245 156.441 167.298 157.159 169.058 156.883C173.489 156.196 189 142.248 189 142.248C189 142.248 184.624 137.525 184.439 137.091Z" fill="#2E84EF"/>
<path id="Vector_117" d="M186.921 144.187C186.607 143.998 186.317 143.771 186.057 143.512C185.397 142.923 184.779 142.289 184.207 141.614C183.631 140.942 183.103 140.23 182.628 139.484C182.417 139.183 182.238 138.86 182.096 138.521C182.335 138.797 182.552 139.091 182.747 139.401C183.141 139.949 183.694 140.699 184.361 141.48C185.027 142.261 185.675 142.932 186.156 143.406C186.429 143.648 186.685 143.909 186.921 144.187Z" fill="#263238"/>
<path id="Vector_118" d="M169.091 151.321C169.097 150.703 169.171 150.088 169.312 149.487C169.389 148.873 169.532 148.27 169.738 147.687C169.732 148.305 169.658 148.92 169.517 149.522C169.44 150.135 169.297 150.739 169.091 151.321Z" fill="#263238"/>
<path id="Vector_119" d="M170.632 150.941C170.388 150.44 170.208 149.909 170.095 149.363C169.921 148.835 169.808 148.288 169.76 147.733C170.004 148.235 170.184 148.765 170.296 149.312C170.47 149.84 170.583 150.387 170.632 150.941Z" fill="#263238"/>
<path id="Vector_120" d="M153.195 140.13C153.34 140.289 153.472 140.459 153.59 140.639L154.639 142.067C155.527 143.27 156.766 144.928 158.151 146.739L161.722 151.371L162.799 152.78C162.945 152.946 163.077 153.124 163.194 153.312C163.036 153.162 162.889 153 162.756 152.827C162.484 152.508 162.101 152.038 161.627 151.462C160.684 150.298 159.394 148.68 158.009 146.865C156.624 145.05 155.401 143.377 154.545 142.15C154.115 141.538 153.756 141.037 153.543 140.686C153.412 140.51 153.296 140.324 153.195 140.13Z" fill="#263238"/>
<path id="Vector_121" d="M151.138 147.929C150.72 147.692 150.339 147.397 150.005 147.053C149.626 146.756 149.29 146.408 149.007 146.019C149.426 146.255 149.809 146.552 150.143 146.899C150.523 147.191 150.858 147.538 151.138 147.929Z" fill="#263238"/>
<path id="Vector_122" d="M149.755 152.374C149.343 153.226 148.812 154.016 148.177 154.718C148.35 154.275 148.588 153.86 148.883 153.486C149.119 153.076 149.413 152.701 149.755 152.374Z" fill="#263238"/>
<path id="Vector_123" d="M151.695 158.511C151.652 158.547 151.3 158.192 150.906 157.722C150.64 157.455 150.424 157.142 150.267 156.799C150.31 156.763 150.661 157.119 151.056 157.588C151.322 157.855 151.539 158.168 151.695 158.511Z" fill="#263238"/>
<path id="Vector_124" d="M147.94 162.445C147.691 162.737 147.391 162.981 147.056 163.167C146.758 163.408 146.42 163.595 146.058 163.719C146.307 163.428 146.606 163.183 146.941 162.997C147.239 162.756 147.577 162.569 147.94 162.445Z" fill="#263238"/>
<path id="Vector_125" d="M153.188 163.485C152.77 163.303 152.408 163.013 152.138 162.645C151.818 162.315 151.591 161.907 151.479 161.461C151.535 161.433 151.823 161.954 152.292 162.503C152.762 163.051 153.224 163.434 153.188 163.485Z" fill="#263238"/>
<path id="Vector_126" d="M158.09 159.77C157.802 160.147 157.462 160.482 157.08 160.764C156.74 161.096 156.355 161.377 155.936 161.6C156.224 161.223 156.564 160.888 156.946 160.606C157.285 160.273 157.67 159.992 158.09 159.77Z" fill="#263238"/>
<path id="Vector_127" d="M148.01 166.944C147.336 166.635 146.8 166.087 146.507 165.405C146.554 165.374 146.85 165.753 147.264 166.171C147.679 166.589 148.046 166.905 148.01 166.944Z" fill="#263238"/>
<path id="Vector_128" d="M158.962 156.253C158.284 156.641 157.502 156.809 156.725 156.734C157.462 156.537 158.209 156.376 158.962 156.253Z" fill="#263238"/>
<path id="Vector_129" d="M155.315 152.106C155.233 152.587 155.101 153.058 154.92 153.511C154.792 153.966 154.638 154.414 154.459 154.852H154.415C154.415 154.829 154.439 154.821 154.447 154.821C154.455 154.821 154.447 154.821 154.447 154.864H154.403C154.45 154.391 154.553 153.924 154.711 153.475C154.832 152.987 155.036 152.524 155.315 152.106Z" fill="#263238"/>
<path id="Vector_130" d="M156.86 149.476C156.432 149.297 156.033 149.055 155.676 148.757C155.285 148.516 154.933 148.217 154.631 147.87C155.051 148.052 155.443 148.294 155.795 148.588C156.192 148.829 156.552 149.128 156.86 149.476Z" fill="#263238"/>
<path id="Vector_131" d="M153.701 143.674C153.581 144.066 153.383 144.429 153.117 144.74C152.903 145.088 152.621 145.39 152.288 145.627C152.465 145.264 152.688 144.924 152.951 144.617C153.157 144.271 153.409 143.953 153.701 143.674Z" fill="#263238"/>
<path id="Vector_132" d="M148.895 142.885C148.829 142.441 148.829 141.991 148.895 141.547C148.9 141.1 148.972 140.656 149.108 140.229C149.179 140.671 149.179 141.121 149.108 141.563C149.107 142.012 149.035 142.458 148.895 142.885Z" fill="#263238"/>
<path id="Vector_133" d="M147.019 151.581C146.912 151.108 146.87 150.624 146.893 150.14C146.853 149.659 146.88 149.174 146.972 148.7C147.125 149.653 147.14 150.623 147.019 151.581Z" fill="#263238"/>
<path id="Vector_134" d="M146.76 159.924C146.581 159.668 146.461 159.375 146.409 159.067C146.292 158.778 146.238 158.468 146.251 158.156C146.552 158.699 146.726 159.304 146.76 159.924Z" fill="#263238"/>
<path id="Vector_135" d="M153.403 136.379C153.09 136.739 152.75 137.074 152.385 137.382C152.07 137.739 151.725 138.071 151.355 138.372C151.57 137.936 151.872 137.549 152.243 137.236C152.566 136.872 152.961 136.58 153.403 136.379Z" fill="#263238"/>
<path id="Vector_136" d="M150.582 135.435C150.496 135.005 150.48 134.564 150.534 134.129C150.518 133.691 150.572 133.253 150.692 132.831C150.775 133.261 150.791 133.702 150.739 134.137C150.753 134.575 150.7 135.013 150.582 135.435Z" fill="#263238"/>
<path id="Vector_137" d="M157.495 134.497C156.753 134.048 156.037 133.56 155.349 133.033C156.179 133.326 156.919 133.831 157.495 134.497Z" fill="#263238"/>
<path id="Vector_138" d="M155.992 139.421C155.883 138.97 155.839 138.505 155.862 138.04C155.819 137.578 155.845 137.111 155.937 136.655C156.092 137.568 156.11 138.499 155.992 139.417V139.421Z" fill="#263238"/>
<path id="Vector_139" d="M160.04 142.301C159.244 142.142 158.454 141.953 157.673 141.733C158.501 141.682 159.325 141.88 160.04 142.301Z" fill="#263238"/>
<path id="Vector_140" d="M160.318 139.365C160.179 138.597 160.179 137.809 160.318 137.041C160.422 137.418 160.461 137.811 160.433 138.201C160.464 138.593 160.425 138.987 160.318 139.365Z" fill="#263238"/>
<path id="Vector_141" d="M163.401 144.292C163.275 143.815 163.218 143.322 163.231 142.828C163.177 142.338 163.19 141.843 163.27 141.357C163.448 142.325 163.492 143.312 163.401 144.292Z" fill="#263238"/>
<path id="Vector_142" d="M161.033 145.96C160.99 146 160.67 145.708 160.319 145.313C159.968 144.919 159.715 144.564 159.759 144.524C159.802 144.485 160.122 144.777 160.473 145.175C160.824 145.574 161.077 145.925 161.033 145.96Z" fill="#263238"/>
<path id="Vector_143" d="M164.031 148.23C163.659 148.356 163.268 148.42 162.875 148.419C162.484 148.488 162.083 148.488 161.691 148.419C162.061 148.288 162.451 148.224 162.844 148.23C163.236 148.156 163.639 148.156 164.031 148.23Z" fill="#263238"/>
<path id="Vector_144" d="M166.287 149.383C166.12 148.526 166.087 147.649 166.188 146.782C166.36 147.638 166.394 148.516 166.287 149.383Z" fill="#263238"/>
<path id="Vector_145" d="M168.518 153.705C168.044 153.795 167.558 153.795 167.085 153.705C166.604 153.686 166.131 153.575 165.692 153.377C166.167 153.375 166.642 153.417 167.109 153.503C167.584 153.524 168.056 153.591 168.518 153.705Z" fill="#263238"/>
<path id="Vector_146" d="M172.343 151.711C172.18 152.607 171.882 153.473 171.459 154.28C171.505 153.828 171.621 153.386 171.802 152.97C171.915 152.524 172.098 152.1 172.343 151.711Z" fill="#263238"/>
<path id="Vector_147" d="M175.102 148.223C174.281 148.137 173.481 147.915 172.734 147.564C173.554 147.655 174.353 147.878 175.102 148.223Z" fill="#263238"/>
<path id="Vector_148" d="M177.318 149.547C177.084 149.89 176.794 150.192 176.462 150.442C176.173 150.741 175.839 150.993 175.472 151.188C175.704 150.842 175.994 150.538 176.328 150.288C176.617 149.99 176.951 149.74 177.318 149.547Z" fill="#263238"/>
<path id="Vector_149" d="M178.207 146.283C177.989 145.893 177.854 145.462 177.813 145.017C177.699 144.581 177.68 144.126 177.757 143.683C177.883 144.107 177.969 144.541 178.014 144.981C178.119 145.408 178.184 145.844 178.207 146.283Z" fill="#263238"/>
<path id="Vector_150" d="M182.424 145.531C181.612 146.342 180.792 147.143 179.962 147.934C180.589 146.956 181.431 146.134 182.424 145.531Z" fill="#263238"/>
<path id="Vector_151" d="M182.847 144.021C182.394 143.958 181.953 143.824 181.541 143.627C181.103 143.498 180.688 143.303 180.31 143.047C180.761 143.112 181.2 143.245 181.612 143.441C182.05 143.573 182.466 143.768 182.847 144.021Z" fill="#263238"/>
<path id="Vector_152" d="M182.443 142.4C182.242 142.072 182.102 141.711 182.029 141.334C181.89 140.975 181.817 140.595 181.812 140.21C182.005 140.539 182.139 140.899 182.206 141.275C182.349 141.634 182.429 142.014 182.443 142.4Z" fill="#263238"/>
<path id="Vector_153" d="M160.35 153.769C160.303 153.804 159.956 153.413 159.608 152.901C159.358 152.609 159.163 152.275 159.032 151.914C159.329 152.157 159.58 152.451 159.774 152.782C160.021 153.076 160.215 153.409 160.35 153.769Z" fill="#263238"/>
<path id="Vector_154" d="M190.437 173.645C190.42 173.59 190.41 173.533 190.406 173.475C190.39 173.357 190.366 173.191 190.335 172.978C190.279 172.532 190.192 171.889 190.086 171.068C189.861 169.411 189.541 167.008 189.064 164.053C188.587 161.097 187.951 157.589 187.048 153.738C186.955 153.255 186.797 152.786 186.578 152.345C186.33 151.91 186.01 151.521 185.631 151.193C184.827 150.528 183.8 150.195 182.759 150.262C182.227 150.292 181.708 150.433 181.236 150.676C180.76 150.944 180.308 151.251 179.882 151.592L177.167 153.608C173.514 156.35 170.093 159.038 167.039 161.559C163.985 164.08 161.321 166.44 159.092 168.44C157.963 169.411 156.76 170.188 155.541 170.315C154.981 170.378 154.415 170.309 153.887 170.113C153.448 169.948 153.035 169.721 152.66 169.439C152.147 169.048 151.672 168.611 151.24 168.133L150.904 167.762C150.863 167.72 150.826 167.676 150.794 167.627C150.839 167.662 150.88 167.702 150.916 167.746L151.267 168.105C151.711 168.568 152.193 168.993 152.708 169.375C153.081 169.644 153.488 169.862 153.919 170.023C154.435 170.206 154.986 170.267 155.529 170.2C156.713 170.07 157.896 169.3 159.001 168.33C161.215 166.321 163.87 163.934 166.924 161.413C169.978 158.892 173.391 156.185 177.049 153.442L179.764 151.426C180.2 151.079 180.663 150.768 181.149 150.495C181.646 150.238 182.192 150.09 182.751 150.061C183.843 149.992 184.92 150.343 185.761 151.043C186.16 151.386 186.495 151.796 186.752 152.255C186.978 152.711 187.141 153.195 187.237 153.695C188.133 157.558 188.748 161.074 189.21 164.029C189.672 166.984 189.968 169.395 190.169 171.056C190.26 171.881 190.331 172.524 190.382 172.974C190.382 173.187 190.417 173.369 190.429 173.475C190.437 173.531 190.44 173.588 190.437 173.645Z" fill="#263238"/>
<path id="Vector_155" d="M195.043 173.426C194.915 173.466 194.782 173.487 194.648 173.489C194.392 173.517 194.021 173.549 193.563 173.58C192.644 173.643 191.377 173.71 189.977 173.769L186.39 173.923L185.301 173.963C185.17 173.978 185.037 173.978 184.906 173.963C185.034 173.921 185.167 173.897 185.301 173.892C185.557 173.86 185.928 173.825 186.386 173.785C187.305 173.71 188.572 173.635 189.973 173.572L193.563 173.442L194.652 173.418C194.782 173.405 194.914 173.407 195.043 173.426Z" fill="#263238"/>
<path id="Vector_156" d="M184.932 154.114C184.034 155.576 182.863 156.853 181.484 157.874C181.444 157.827 182.273 157.057 183.236 156.019C184.198 154.982 184.873 154.078 184.932 154.114Z" fill="#263238"/>
<path id="Vector_157" d="M185.316 155.315C184.784 155.721 184.222 156.087 183.636 156.408C183.084 156.792 182.503 157.132 181.899 157.426C182.388 156.963 182.934 156.565 183.525 156.243C184.08 155.858 184.682 155.546 185.316 155.315Z" fill="#263238"/>
<path id="Vector_158" d="M218.561 174.442C218.481 174.451 218.401 174.451 218.321 174.442L217.626 174.402L215.101 174.162L206.779 173.294C203.528 172.954 200.592 172.576 198.457 172.469C197.392 172.414 196.524 172.418 195.928 172.441L195.242 172.469C195.16 172.479 195.078 172.479 194.997 172.469C195.076 172.449 195.157 172.436 195.238 172.43C195.392 172.406 195.632 172.386 195.924 172.359C196.77 172.303 197.618 172.291 198.465 172.323C200.612 172.394 203.551 172.749 206.799 173.089L215.12 174.008L217.642 174.312L218.324 174.402C218.405 174.406 218.484 174.42 218.561 174.442Z" fill="#455A64"/>
<path id="Vector_159" d="M218.058 178.854C218.003 178.854 218.18 176.881 218.453 174.431C218.725 171.981 219.001 170.028 219.056 170.035C219.111 170.043 218.934 172.008 218.662 174.455C218.389 176.901 218.113 178.858 218.058 178.854Z" fill="#455A64"/>
</g>
</g>
</g>
</svg>
