<svg width="237" height="220" viewBox="0 0 237 220" fill="none" xmlns="http://www.w3.org/2000/svg">
<g id="IMG">
<circle id="Ellipse 12087" cx="122.578" cy="110" r="110" fill="#EEFAFE"/>
<g id="item daotao">
<g id="background-complete">
<path id="Vector" d="M236.461 176.501H0.847656V176.619H236.461V176.501Z" fill="#E0E0E0"/>
<path id="Vector_2" d="M51.1916 180.973H34.9814V181.091H51.1916V180.973Z" fill="#E0E0E0"/>
<path id="Vector_3" d="M141.376 181.81H136.532V181.928H141.376V181.81Z" fill="#E0E0E0"/>
<path id="Vector_4" d="M65.247 182.648H56.124V182.766H65.247V182.648Z" fill="#E0E0E0"/>
<path id="Vector_5" d="M198.664 182.373H186.563V182.49H198.664V182.373Z" fill="#E0E0E0"/>
<path id="Vector_6" d="M178.313 180.698H170.048V180.816H178.313V180.698Z" fill="#E0E0E0"/>
<path id="Vector_7" d="M129.723 180.51H85.5786V180.628H129.723V180.51Z" fill="#E0E0E0"/>
<path id="Vector_8" d="M112.53 155.483H21.541C20.8282 155.482 20.145 155.198 19.6414 154.694C19.1378 154.189 18.855 153.505 18.855 152.793V24.8876C18.8612 24.1789 19.1468 23.5012 19.6497 23.0019C20.1526 22.5025 20.8322 22.2217 21.541 22.2205H112.53C113.244 22.2205 113.928 22.5039 114.433 23.0085C114.937 23.5132 115.221 24.1975 115.221 24.9112V152.793C115.221 153.506 114.937 154.191 114.433 154.695C113.928 155.2 113.244 155.483 112.53 155.483ZM21.541 22.3147C20.8594 22.316 20.2062 22.5876 19.7247 23.07C19.2432 23.5523 18.9728 24.206 18.9728 24.8876V152.793C18.9728 153.474 19.2432 154.128 19.7247 154.61C20.2062 155.093 20.8594 155.364 21.541 155.365H112.53C113.212 155.364 113.866 155.093 114.348 154.611C114.83 154.128 115.102 153.475 115.103 152.793V24.8876C115.102 24.2056 114.83 23.5519 114.348 23.0697C113.866 22.5874 113.212 22.316 112.53 22.3147H21.541Z" fill="#E0E0E0"/>
<path id="Vector_9" d="M214.458 155.483H123.465C122.751 155.482 122.068 155.198 121.563 154.694C121.059 154.189 120.775 153.506 120.774 152.793V24.8876C120.781 24.1785 121.068 23.5008 121.572 23.0016C122.075 22.5023 122.755 22.2217 123.465 22.2205H214.458C215.166 22.2229 215.845 22.5043 216.347 23.0035C216.849 23.5028 217.134 24.1797 217.14 24.8876V152.793C217.14 153.505 216.858 154.188 216.355 154.692C215.852 155.196 215.17 155.481 214.458 155.483ZM123.465 22.3147C122.783 22.316 122.129 22.5874 121.647 23.0697C121.164 23.5519 120.893 24.2056 120.892 24.8876V152.793C120.893 153.475 121.164 154.128 121.647 154.611C122.129 155.093 122.783 155.364 123.465 155.365H214.458C215.14 155.364 215.794 155.093 216.276 154.611C216.759 154.128 217.03 153.475 217.031 152.793V24.8876C217.03 24.2056 216.759 23.5519 216.276 23.0697C215.794 22.5874 215.14 22.316 214.458 22.3147H123.465Z" fill="#E0E0E0"/>
<path id="Vector_10" d="M206.938 106.783H195.746V177.354H206.938V106.783Z" fill="#E0E0E0"/>
<path id="Vector_11" d="M204.809 177.352H206.934V171.307H202.58L204.809 177.352Z" fill="#F0F0F0"/>
<path id="Vector_12" d="M165.119 106.783H153.927V177.354H165.119V106.783Z" fill="#E0E0E0"/>
<path id="Vector_13" d="M206.934 106.782H163.26V173.644H206.934V106.782Z" fill="#F0F0F0"/>
<path id="Vector_14" d="M185.809 108.76V166.085H205.285V108.76H185.809Z" fill="#E0E0E0"/>
<path id="Vector_15" d="M164.911 108.76V166.085H184.387V108.76H164.911Z" fill="#E0E0E0"/>
<path id="Vector_16" d="M176.573 110.453H172.718C171.891 110.455 171.073 110.289 170.312 109.965C169.552 109.641 168.865 109.166 168.293 108.568H181.017C180.443 109.168 179.753 109.645 178.989 109.969C178.225 110.293 177.403 110.458 176.573 110.453Z" fill="#F0F0F0"/>
<path id="Vector_17" d="M197.675 110.453H193.821C192.994 110.455 192.175 110.289 191.415 109.965C190.654 109.641 189.967 109.166 189.396 108.568H202.119C201.546 109.168 200.856 109.645 200.092 109.969C199.328 110.293 198.505 110.458 197.675 110.453Z" fill="#F0F0F0"/>
<path id="Vector_18" d="M165.385 177.354H163.26V171.308H167.614L165.385 177.354Z" fill="#F0F0F0"/>
<path id="Vector_19" d="M185.242 45.1318H163.085V69.4613H185.242V45.1318Z" fill="#E0E0E0"/>
<path id="Vector_20" d="M187.643 45.1318H164.756V69.4613H187.643V45.1318Z" fill="#F0F0F0"/>
<path id="Vector_21" d="M185.726 67.5381V47.0444H166.674V67.5381H185.726Z" fill="#FAFAFA"/>
<path id="Vector_22" d="M181.104 62.5717V52.0115H171.288V62.5717H181.104Z" fill="#F0F0F0"/>
<path id="Vector_23" d="M134.442 31.1682H34.7544V98.0352H134.442V31.1682Z" fill="#E0E0E0"/>
<path id="Vector_24" d="M137.014 31.1697H35.9595V98.0367H137.014V31.1697Z" fill="#EBEBEB"/>
<path id="Vector_25" d="M134.442 98.0354H34.7544V102.799H134.442V98.0354Z" fill="#E0E0E0"/>
<path id="Vector_26" d="M141.282 98.0354H40.2275V102.799H141.282V98.0354Z" fill="#EBEBEB"/>
<path id="Vector_27" d="M133.423 94.446V34.7605L39.5456 34.7605V94.446H133.423Z" fill="#F5F5F5"/>
<path id="Vector_28" d="M61.8418 94.446L82.9103 34.7605H92.8579L71.7894 94.446H61.8418Z" fill="#FAFAFA"/>
<path id="Vector_29" d="M41.21 74.1957C41.1421 74.1945 41.0774 74.1667 41.0298 74.1182C40.9822 74.0697 40.9556 74.0045 40.9556 73.9366V37.0914C40.9556 37.058 40.9621 37.0249 40.9749 36.994C40.9877 36.9631 41.0065 36.9351 41.0301 36.9114C41.0537 36.8878 41.0818 36.8691 41.1127 36.8563C41.1435 36.8435 41.1766 36.8369 41.21 36.8369C41.278 36.8369 41.3432 36.8636 41.3916 36.9112C41.4401 36.9587 41.468 37.0235 41.4692 37.0914V73.9366C41.4692 74.0053 41.4419 74.0712 41.3933 74.1198C41.3447 74.1684 41.2788 74.1957 41.21 74.1957Z" fill="#EBEBEB"/>
<path id="Vector_30" d="M73.9219 94.446L94.9904 34.7605H98.8686L77.8001 94.446H73.9219Z" fill="#FAFAFA"/>
<path id="Vector_31" d="M133.423 94.446V34.7605H132.966V94.446H133.423Z" fill="#E0E0E0"/>
<path id="Vector_32" d="M137.861 39.3502H38.1731L37.8433 36.1553H137.531L137.861 39.3502Z" fill="#E0E0E0"/>
<path id="Vector_33" d="M137.861 41.6904H38.1731L37.8433 38.4907H137.531L137.861 41.6904Z" fill="#E0E0E0"/>
<path id="Vector_34" d="M137.861 44.5004H38.1731L37.8433 41.3008H137.531L137.861 44.5004Z" fill="#E0E0E0"/>
<path id="Vector_35" d="M137.861 47.6249H38.1731L37.8433 44.4299H137.531L137.861 47.6249Z" fill="#E0E0E0"/>
<path id="Vector_36" d="M137.861 51.3715H38.1731L37.8433 48.1719H137.531L137.861 51.3715Z" fill="#E0E0E0"/>
<path id="Vector_37" d="M137.861 55.5804H38.1731L37.8433 52.3855H137.531L137.861 55.5804Z" fill="#E0E0E0"/>
<path id="Vector_38" d="M186.127 74.2612H172.165V89.5949H186.127V74.2612Z" fill="#E0E0E0"/>
<path id="Vector_39" d="M187.642 74.2612H173.217V89.5949H187.642V74.2612Z" fill="#F0F0F0"/>
<path id="Vector_40" d="M186.436 88.3855V75.4692H174.429V88.3855H186.436Z" fill="#FAFAFA"/>
<path id="Vector_41" d="M177.336 82.1638V81.6926C177.337 80.8723 177.664 80.086 178.244 79.5064C178.825 78.9269 179.612 78.6013 180.432 78.6013C181.252 78.6013 182.038 78.927 182.618 79.5067C183.197 80.0864 183.523 80.8727 183.523 81.6926V82.1638C183.523 82.9836 183.197 83.7699 182.618 84.3496C182.038 84.9294 181.252 85.255 180.432 85.255C179.612 85.255 178.825 84.9295 178.244 84.3499C177.664 83.7703 177.337 82.9841 177.336 82.1638Z" fill="#F0F0F0"/>
<path id="Vector_42" d="M208.257 59.6362H191.82V77.6842H208.257V59.6362Z" fill="#E0E0E0"/>
<path id="Vector_43" d="M210.041 59.6362H193.063V77.6842H210.041V59.6362Z" fill="#F0F0F0"/>
<path id="Vector_44" d="M208.611 76.2616V61.0598H194.479V76.2616H208.611Z" fill="#FAFAFA"/>
<path id="Vector_45" d="M201.554 64.8188L197.69 71.5103H205.419L201.554 64.8188Z" fill="#F0F0F0"/>
<path id="Vector_46" d="M138.061 132.963H116.932V177.353H138.061V132.963Z" fill="#E0E0E0"/>
<path id="Vector_47" d="M135.94 177.354H138.065V171.308H133.711L135.94 177.354Z" fill="#F0F0F0"/>
<path id="Vector_48" d="M62.1542 132.963H41.0244V177.353H62.1542V132.963Z" fill="#E0E0E0"/>
<path id="Vector_49" d="M138.065 132.963H60.3032V173.644H138.065V132.963Z" fill="#F0F0F0"/>
<path id="Vector_50" d="M136.414 134.764H61.9512V145.922H136.414V134.764Z" fill="#E0E0E0"/>
<path id="Vector_51" d="M103.033 138.232H95.3286C93.6723 138.232 92.0333 137.894 90.5117 137.239C88.9902 136.585 87.618 135.627 86.479 134.424H111.883C110.744 135.628 109.372 136.586 107.851 137.241C106.329 137.895 104.69 138.233 103.033 138.232Z" fill="#F0F0F0"/>
<path id="Vector_52" d="M62.4285 177.352H60.3032V171.307H64.6574L62.4285 177.352Z" fill="#F0F0F0"/>
<path id="Vector_53" d="M136.414 147.727H61.9512V158.885H136.414V147.727Z" fill="#E0E0E0"/>
<path id="Vector_54" d="M103.033 151.19H95.3286C93.6727 151.19 92.0342 150.852 90.5128 150.199C88.9914 149.545 87.619 148.588 86.479 147.387H111.883C110.743 148.589 109.371 149.546 107.85 150.2C106.328 150.854 104.689 151.19 103.033 151.19Z" fill="#F0F0F0"/>
<path id="Vector_55" d="M136.414 160.686H61.9512V171.845H136.414V160.686Z" fill="#E0E0E0"/>
<path id="Vector_56" d="M103.033 164.154H95.3286C93.6724 164.153 92.0338 163.815 90.5124 163.16C88.991 162.506 87.6187 161.549 86.479 160.347H111.883C110.744 161.549 109.371 162.507 107.85 163.162C106.328 163.816 104.69 164.154 103.033 164.154Z" fill="#F0F0F0"/>
<path id="Vector_57" d="M96.0332 132.477H108.568V111.597H96.0332V132.477Z" fill="#FAFAFA"/>
<path id="Vector_58" d="M106.619 132.804H107.472V111.924H106.619V132.804Z" fill="#F0F0F0"/>
<path id="Vector_59" d="M107.533 132.963H109.724C109.891 132.963 110.026 132.828 110.026 132.662V112.069C110.026 111.903 109.891 111.768 109.724 111.768H107.533C107.367 111.768 107.232 111.903 107.232 112.069V132.662C107.232 132.828 107.367 132.963 107.533 132.963Z" fill="#E0E0E0"/>
<path id="Vector_60" d="M107.232 121.559H110.026V116.607H107.232V121.559Z" fill="#F0F0F0"/>
<path id="Vector_61" d="M107.232 126.14H110.026V123.086H107.232V126.14Z" fill="#F0F0F0"/>
<path id="Vector_62" d="M95.4031 132.963H106.698C106.865 132.963 107 132.828 107 132.662V112.069C107 111.903 106.865 111.768 106.698 111.768H95.4031C95.2366 111.768 95.1015 111.903 95.1015 112.069V132.662C95.1015 132.828 95.2366 132.963 95.4031 132.963Z" fill="#E0E0E0"/>
<path id="Vector_63" d="M89.9301 132.427H103.756V109.398H89.9301V132.427Z" fill="#FAFAFA"/>
<path id="Vector_64" d="M101.607 132.788H102.545V109.759H101.607V132.788Z" fill="#F0F0F0"/>
<path id="Vector_65" d="M102.617 132.963H105.029C105.214 132.963 105.364 132.814 105.364 132.629V109.916C105.364 109.731 105.214 109.581 105.029 109.581H102.617C102.432 109.581 102.282 109.731 102.282 109.916V132.629C102.282 132.814 102.432 132.963 102.617 132.963Z" fill="#E6E6E6"/>
<path id="Vector_66" d="M102.282 117.823H105.364V117.027H102.282V117.823Z" fill="#F0F0F0"/>
<path id="Vector_67" d="M102.282 120.133H105.364V119.336H102.282V120.133Z" fill="#F0F0F0"/>
<path id="Vector_68" d="M102.282 122.442H105.364V121.646H102.282V122.442Z" fill="#F0F0F0"/>
<path id="Vector_69" d="M89.2295 132.963H101.684C101.869 132.963 102.019 132.814 102.019 132.629V109.916C102.019 109.731 101.869 109.581 101.684 109.581H89.2295C89.0447 109.581 88.8949 109.731 88.8949 109.916V132.629C88.8949 132.814 89.0447 132.963 89.2295 132.963Z" fill="#E6E6E6"/>
<path id="Vector_70" d="M69.3429 128.483C71.3 128.483 72.8866 126.896 72.8866 124.939C72.8866 122.982 71.3 121.396 69.3429 121.396C67.3859 121.396 65.7993 122.982 65.7993 124.939C65.7993 126.896 67.3859 128.483 69.3429 128.483Z" fill="#E6E6E6"/>
<path id="Vector_71" d="M66.8458 126.63C66.8458 127.178 66.6832 127.714 66.3785 128.17C66.0739 128.625 65.6408 128.98 65.1343 129.19C64.6277 129.4 64.0703 129.454 63.5327 129.347C62.9951 129.24 62.5014 128.975 62.1141 128.587C61.7268 128.199 61.4632 127.705 61.3569 127.167C61.2505 126.63 61.306 126.072 61.5165 125.566C61.7269 125.06 62.0828 124.627 62.5391 124.324C62.9953 124.02 63.5315 123.858 64.0797 123.859C64.4434 123.859 64.8034 123.931 65.1394 124.07C65.4753 124.209 65.7804 124.413 66.0373 124.671C66.2942 124.928 66.4979 125.234 66.6366 125.57C66.7754 125.906 66.8464 126.266 66.8458 126.63Z" fill="#E6E6E6"/>
<path id="Vector_72" d="M75.4089 130.174C77.3659 130.174 78.9525 128.587 78.9525 126.63C78.9525 124.673 77.3659 123.087 75.4089 123.087C73.4518 123.087 71.8652 124.673 71.8652 126.63C71.8652 128.587 73.4518 130.174 75.4089 130.174Z" fill="#E6E6E6"/>
<path id="Vector_73" d="M82.5698 128.869C84.3794 128.124 85.242 126.053 84.4965 124.243C83.751 122.434 81.6798 121.571 79.8702 122.316C78.0607 123.062 77.1981 125.133 77.9435 126.943C78.689 128.752 80.7603 129.615 82.5698 128.869Z" fill="#E6E6E6"/>
<path id="Vector_74" d="M55.8882 126.049C55.8882 126.049 56.3594 132.962 75.02 132.962C93.6806 132.962 94.1471 126.049 94.1471 126.049H55.8882Z" fill="#EBEBEB"/>
</g>
<g id="Shadow">
<path id="Vector_75" d="M118.651 197.78C169.111 197.78 210.017 195.392 210.017 192.446C210.017 189.5 169.111 187.112 118.651 187.112C68.1912 187.112 27.2852 189.5 27.2852 192.446C27.2852 195.392 68.1912 197.78 118.651 197.78Z" fill="#F5F5F5"/>
</g>
<g id="Pictures">
<path id="Vector_76" opacity="0.4" d="M126.144 58.7696L117.104 126.521L190.269 136.283L199.308 68.5318L126.144 58.7696Z" fill="#FAFAFA"/>
<path id="Vector_77" d="M120.822 51.5869L110.078 132.11L195.577 143.495L206.307 62.9953L120.822 51.5869ZM191.548 126.653L178.735 109.896L164.203 121.008L142.338 92.4328L119.304 110.043L126.142 58.7873L199.304 68.5464L191.548 126.653Z" fill="#2E84EF"/>
<path id="Vector_78" opacity="0.6" d="M120.822 51.5869L110.078 132.11L195.577 143.495L206.307 62.9953L120.822 51.5869ZM191.548 126.653L178.735 109.896L164.203 121.008L142.338 92.4328L119.304 110.043L126.142 58.7873L199.304 68.5464L191.548 126.653Z" fill="#FAFAFA"/>
<path id="Vector_79" d="M180.734 90.0254C183.415 84.5981 181.189 78.0249 175.761 75.3437C170.334 72.6626 163.761 74.8888 161.08 80.3161C158.399 85.7434 160.625 92.3166 166.052 94.9977C171.479 97.6789 178.053 95.4527 180.734 90.0254Z" fill="#2E84EF"/>
<path id="Vector_80" opacity="0.6" d="M180.734 90.0254C183.415 84.5981 181.189 78.0249 175.761 75.3437C170.334 72.6626 163.761 74.8888 161.08 80.3161C158.399 85.7434 160.625 92.3166 166.052 94.9977C171.479 97.6789 178.053 95.4527 180.734 90.0254Z" fill="#FAFAFA"/>
<path id="Vector_81" d="M194.382 141.784L111.682 130.748C111.67 130.752 111.656 130.752 111.644 130.748C111.641 130.741 111.639 130.734 111.639 130.726C111.639 130.719 111.641 130.712 111.644 130.705L122.011 53.1837C122.007 53.1731 122.007 53.1614 122.011 53.1507C122.025 53.146 122.04 53.146 122.054 53.1507L204.735 64.1586C204.742 64.1591 204.749 64.1612 204.756 64.1646C204.762 64.1681 204.768 64.1729 204.772 64.1787C204.777 64.1844 204.78 64.1911 204.782 64.1982C204.783 64.2053 204.783 64.2127 204.782 64.2198L194.415 141.741C194.415 141.751 194.411 141.76 194.405 141.768C194.399 141.775 194.391 141.781 194.382 141.784ZM111.748 130.649L194.335 141.666L204.669 64.2528L122.082 53.2355L111.748 130.649Z" fill="#FAFAFA"/>
<path id="Vector_82" opacity="0.4" d="M116.587 70.6716H39.0283V142.491H116.587V70.6716Z" fill="#FAFAFA"/>
<path id="Vector_83" d="M120.727 65.4456L34.4927 65.8178L34.8225 147.095H121.057L120.727 65.4456ZM110.648 140.257C108.414 135.786 105.078 130.578 101.534 130.258C101.534 130.258 98.6596 129.759 94.5835 129.367L94.1594 129.33C94.0809 129.325 94.0022 129.325 93.9238 129.33C91.8645 129.132 89.5508 128.99 87.1475 128.953C86.714 128.953 86.2805 128.953 85.8422 128.953H85.3192C82.407 126.092 83.1185 118.873 84.2024 112.983C84.4918 112.927 84.7713 112.829 85.0317 112.691C86.7515 111.787 88.0893 110.295 88.8015 108.487C89.0292 107.887 89.1131 107.241 89.0466 106.602C92.4158 103.153 96.115 99.7084 98.1601 95.0904C101.119 88.4555 98.1271 86.335 95.9642 85.6659C97.4939 85.614 99.02 85.8474 100.464 86.3539C98.8528 84.5208 97.1281 84.2192 95.6626 84.469C97.2742 82.9658 97.0763 80.3929 97.0763 80.3929C96.5974 81.6381 95.8893 82.7825 94.9887 83.7668C96.3035 79.2242 87.8119 75.8314 76.3046 78.8472C67.7801 81.0808 63.4354 80.0112 63.4354 80.0112C63.5858 80.6123 63.8567 81.1767 64.2318 81.67C64.6068 82.1633 65.0781 82.5753 65.6172 82.8809C59.2933 87.0277 59.8399 97.0978 61.4468 104.119C61.2532 105.275 61.1179 106.441 61.0416 107.611C60.5703 115.462 66.5832 120.376 73.4678 119.392C73.4678 119.533 73.5196 119.674 73.5432 119.82C73.5668 119.966 73.6045 120.226 73.628 120.424C73.6846 120.895 73.727 121.319 73.7458 121.767C73.8966 125.225 72.7751 128.444 67.9262 129.923C66.9837 130.065 66.0413 130.225 65.0988 130.395L64.7878 130.451L63.737 130.644L63.1904 130.753L62.3516 130.918L61.8379 131.021L60.9709 131.2L60.5892 131.281L59.6043 131.497L59.3781 131.544C59.02 131.625 58.6713 131.705 58.3273 131.775L58.1435 131.823L57.5262 131.959C54.2276 132.723 51.8715 133.373 51.8715 133.373C47.819 134.664 45.2743 138.062 43.8607 140.583H41.0616L40.7694 72.2548L114.582 71.9391L114.874 140.267L110.648 140.257Z" fill="#2E84EF"/>
<path id="Vector_84" opacity="0.6" d="M120.727 65.4456L34.4927 65.8178L34.8225 147.095H121.057L120.727 65.4456ZM110.648 140.257C108.414 135.786 105.078 130.578 101.534 130.258C101.534 130.258 98.6596 129.759 94.5835 129.367L94.1594 129.33C94.0809 129.325 94.0022 129.325 93.9238 129.33C91.8645 129.132 89.5508 128.99 87.1475 128.953C86.714 128.953 86.2805 128.953 85.8422 128.953H85.3192C82.407 126.092 83.1185 118.873 84.2024 112.983C84.4918 112.927 84.7713 112.829 85.0317 112.691C86.7515 111.787 88.0893 110.295 88.8015 108.487C89.0292 107.887 89.1131 107.241 89.0466 106.602C92.4158 103.153 96.115 99.7084 98.1601 95.0904C101.119 88.4555 98.1271 86.335 95.9642 85.6659C97.4939 85.614 99.02 85.8474 100.464 86.3539C98.8528 84.5208 97.1281 84.2192 95.6626 84.469C97.2742 82.9658 97.0763 80.3929 97.0763 80.3929C96.5974 81.6381 95.8893 82.7825 94.9887 83.7668C96.3035 79.2242 87.8119 75.8314 76.3046 78.8472C67.7801 81.0808 63.4354 80.0112 63.4354 80.0112C63.5858 80.6123 63.8567 81.1767 64.2318 81.67C64.6068 82.1633 65.0781 82.5753 65.6172 82.8809C59.2933 87.0277 59.8399 97.0978 61.4468 104.119C61.2532 105.275 61.1179 106.441 61.0416 107.611C60.5703 115.462 66.5832 120.376 73.4678 119.392C73.4678 119.533 73.5196 119.674 73.5432 119.82C73.5668 119.966 73.6045 120.226 73.628 120.424C73.6846 120.895 73.727 121.319 73.7458 121.767C73.8966 125.225 72.7751 128.444 67.9262 129.923C66.9837 130.065 66.0413 130.225 65.0988 130.395L64.7878 130.451L63.737 130.644L63.1904 130.753L62.3516 130.918L61.8379 131.021L60.9709 131.2L60.5892 131.281L59.6043 131.497L59.3781 131.544C59.02 131.625 58.6713 131.705 58.3273 131.775L58.1435 131.823L57.5262 131.959C54.2276 132.723 51.8715 133.373 51.8715 133.373C47.819 134.664 45.2743 138.062 43.8607 140.583H41.0616L40.7694 72.2548L114.582 71.9391L114.874 140.267L110.648 140.257Z" fill="#FAFAFA"/>
<path id="Vector_85" d="M36.2785 145.959C36.2679 145.963 36.2561 145.963 36.2455 145.959C36.2412 145.947 36.2412 145.934 36.2455 145.921L35.8591 67.2266C35.8584 67.2194 35.8593 67.2121 35.8616 67.2053C35.8639 67.1985 35.8676 67.1922 35.8725 67.1869C35.8774 67.1815 35.8833 67.1773 35.8899 67.1744C35.8966 67.1715 35.9037 67.17 35.9109 67.17L119.318 66.8119C119.325 66.8089 119.332 66.8074 119.339 66.8074C119.347 66.8074 119.354 66.8089 119.36 66.8119C119.364 66.8258 119.364 66.8405 119.36 66.8543L119.752 145.549C119.752 145.564 119.746 145.578 119.735 145.589C119.724 145.6 119.71 145.606 119.695 145.606L36.2879 145.964L36.2785 145.959ZM35.9486 67.2643L36.335 145.837L119.657 145.478L119.266 66.9062L35.9486 67.2643Z" fill="#FAFAFA"/>
</g>
<g id="Character">
<path id="Vector_86" d="M100.281 143.001C100.54 143.001 100.804 143.001 101.072 143.025C106.67 143.425 111.199 148.166 111.557 153.999C111.636 155.288 111.514 156.58 111.194 157.83C109.959 162.848 109.363 168.002 109.422 173.169V188.248C109.433 188.76 109.24 189.255 108.887 189.626C108.534 189.996 108.049 190.212 107.537 190.227H70.1221V143.001H100.281Z" fill="#2E84EF"/>
<path id="Vector_87" opacity="0.2" d="M100.281 143.001C100.54 143.001 100.804 143.001 101.072 143.025C106.67 143.425 111.199 148.166 111.557 153.999C111.636 155.288 111.514 156.58 111.194 157.83C109.959 162.848 109.363 168.002 109.422 173.169V188.248C109.433 188.76 109.24 189.255 108.887 189.626C108.534 189.996 108.049 190.212 107.537 190.227H70.1221V143.001H100.281Z" fill="black"/>
<path id="Vector_88" d="M58.813 154.772C58.813 148.001 64.3028 142.558 70.9047 143.029C76.5029 143.43 81.0313 148.171 81.3895 154.004C81.4689 155.292 81.3465 156.585 81.0266 157.835C79.7911 162.853 79.1958 168.007 79.2548 173.174V188.253C79.265 188.765 79.0726 189.26 78.7196 189.63C78.3666 190.001 77.8815 190.217 77.3699 190.232H62.8656C62.3535 190.219 61.8677 190.003 61.5144 189.632C61.1612 189.261 60.9693 188.765 60.9807 188.253V172.288C61.0182 167.447 60.4257 162.622 59.2183 157.934C58.9471 156.902 58.8108 155.839 58.813 154.772Z" fill="#2E84EF"/>
<path id="Vector_89" opacity="0.1" d="M58.813 154.772C58.813 148.001 64.3028 142.558 70.9047 143.029C76.5029 143.43 81.0313 148.171 81.3895 154.004C81.4689 155.292 81.3465 156.585 81.0266 157.835C79.7911 162.853 79.1958 168.007 79.2548 173.174V188.253C79.265 188.765 79.0726 189.26 78.7196 189.63C78.3666 190.001 77.8815 190.217 77.3699 190.232H62.8656C62.3535 190.219 61.8677 190.003 61.5144 189.632C61.1612 189.261 60.9693 188.765 60.9807 188.253V172.288C61.0182 167.447 60.4257 162.622 59.2183 157.934C58.9471 156.902 58.8108 155.839 58.813 154.772Z" fill="#FAFAFA"/>
<path id="Vector_90" d="M85.6901 190.208H133.359V161.549H85.6901V190.208Z" fill="#2E84EF"/>
<path id="Vector_91" opacity="0.2" d="M85.6901 190.208H133.359V161.549H85.6901V190.208Z" fill="black"/>
<path id="Vector_92" d="M167.393 168.023H97.2934V135.942C97.2934 133.628 98.2129 131.408 99.8495 129.771C101.486 128.135 103.706 127.215 106.021 127.215H158.661C160.976 127.215 163.196 128.135 164.832 129.771C166.469 131.408 167.388 133.628 167.388 135.942V168.023H167.393Z" fill="#2E84EF"/>
<path id="Vector_93" opacity="0.3" d="M167.393 168.023H97.2934V135.942C97.2934 133.628 98.2129 131.408 99.8495 129.771C101.486 128.135 103.706 127.215 106.021 127.215H158.661C160.976 127.215 163.196 128.135 164.832 129.771C166.469 131.408 167.388 133.628 167.388 135.942V168.023H167.393Z" fill="black"/>
<path id="Vector_94" d="M156.622 168.023H95.0134V135.509C95.0134 133.305 95.8887 131.192 97.4467 129.634C99.0047 128.076 101.118 127.201 103.321 127.201H148.314C150.517 127.201 152.63 128.076 154.188 129.634C155.746 131.192 156.622 133.305 156.622 135.509V168.023Z" fill="#2E84EF"/>
<path id="Vector_95" opacity="0.1" d="M156.622 168.023H95.0134V135.509C95.0134 133.305 95.8887 131.192 97.4467 129.634C99.0047 128.076 101.118 127.201 103.321 127.201H148.314C150.517 127.201 152.63 128.076 154.188 129.634C155.746 131.192 156.622 133.305 156.622 135.509V168.023Z" fill="#FAFAFA"/>
<path id="Vector_96" d="M130.627 170.6L86.2984 170.6C85.6161 170.6 84.9616 170.329 84.4791 169.847C83.9966 169.364 83.7255 168.71 83.7255 168.027V161.133C83.7255 160.451 83.9966 159.797 84.4791 159.314C84.9616 158.832 85.6161 158.56 86.2984 158.56H130.627C130.83 158.56 131.026 158.641 131.17 158.785C131.314 158.93 131.395 159.125 131.395 159.329V169.813C131.397 169.916 131.379 170.018 131.342 170.113C131.304 170.209 131.248 170.295 131.177 170.369C131.105 170.442 131.019 170.5 130.925 170.54C130.831 170.58 130.729 170.6 130.627 170.6Z" fill="#2E84EF"/>
<path id="Vector_97" opacity="0.3" d="M130.627 170.6L86.2984 170.6C85.6161 170.6 84.9616 170.329 84.4791 169.847C83.9966 169.364 83.7255 168.71 83.7255 168.027V161.133C83.7255 160.451 83.9966 159.797 84.4791 159.314C84.9616 158.832 85.6161 158.56 86.2984 158.56H130.627C130.83 158.56 131.026 158.641 131.17 158.785C131.314 158.93 131.395 159.125 131.395 159.329V169.813C131.397 169.916 131.379 170.018 131.342 170.113C131.304 170.209 131.248 170.295 131.177 170.369C131.105 170.442 131.019 170.5 130.925 170.54C130.831 170.58 130.729 170.6 130.627 170.6Z" fill="black"/>
<path id="Vector_98" d="M170.616 191.636H70.9471C70.5722 191.636 70.2126 191.488 69.9475 191.222C69.6824 190.957 69.5334 190.598 69.5334 190.223V190.195H172.021V190.223C172.021 190.596 171.873 190.954 171.61 191.219C171.347 191.484 170.99 191.634 170.616 191.636Z" fill="#2E84EF"/>
<path id="Vector_99" opacity="0.4" d="M170.616 191.636H70.9471C70.5722 191.636 70.2126 191.488 69.9475 191.222C69.6824 190.957 69.5334 190.598 69.5334 190.223V190.195H172.021V190.223C172.021 190.596 171.873 190.954 171.61 191.219C171.347 191.484 170.99 191.634 170.616 191.636Z" fill="black"/>
<path id="Vector_100" d="M146.461 94.7891C148.69 93.0408 145.41 90.1852 139.746 90.2135C135.976 90.2135 134.289 89.3323 134.289 89.3323C134.289 89.5961 134.341 89.8573 134.444 90.1003C134.547 90.3432 134.698 90.5629 134.888 90.746C130.383 92.2774 130.694 100.698 131.165 102.192L137.654 107.512C139.068 103.408 144.275 102.758 147.079 99.228C149.882 95.6985 146.461 94.7891 146.461 94.7891Z" fill="#263238"/>
<path id="Vector_101" d="M145.468 94.95C145.468 94.95 147.824 93.6258 148.96 95.8547C147.926 95.1801 146.7 94.8623 145.468 94.95Z" fill="#263238"/>
<path id="Vector_102" d="M148.186 93.0366C148.186 93.0366 147.828 95.1194 145.905 94.7095C146.827 94.4145 147.628 93.8273 148.186 93.0366Z" fill="#263238"/>
<path id="Vector_103" d="M104.324 93.7203L101.177 93.2208C101.124 93.2143 101.074 93.1959 101.029 93.167C100.985 93.1381 100.948 93.0995 100.92 93.0541C100.893 93.0087 100.876 92.9576 100.872 92.9049C100.867 92.8521 100.875 92.799 100.894 92.7495L103.17 85.3843C103.203 85.2764 103.273 85.1838 103.368 85.1232C103.463 85.0627 103.577 85.0383 103.688 85.0544L106.836 85.5586C106.889 85.5642 106.94 85.582 106.985 85.6107C107.03 85.6393 107.067 85.678 107.095 85.7237C107.122 85.7694 107.139 85.8208 107.143 85.874C107.147 85.9271 107.139 85.9805 107.119 86.0298L104.843 93.3763C104.813 93.4868 104.744 93.5826 104.648 93.6459C104.553 93.7093 104.438 93.7357 104.324 93.7203Z" fill="#2E84EF"/>
<path id="Vector_104" opacity="0.3" d="M104.324 93.7203L101.177 93.2208C101.124 93.2143 101.074 93.1959 101.029 93.167C100.985 93.1381 100.948 93.0995 100.92 93.0541C100.893 93.0087 100.876 92.9576 100.872 92.9049C100.867 92.8521 100.875 92.799 100.894 92.7495L103.17 85.3843C103.203 85.2764 103.273 85.1838 103.368 85.1232C103.463 85.0627 103.577 85.0383 103.688 85.0544L106.836 85.5586C106.889 85.5642 106.94 85.582 106.985 85.6107C107.03 85.6393 107.067 85.678 107.095 85.7237C107.122 85.7694 107.139 85.8208 107.143 85.874C107.147 85.9271 107.139 85.9805 107.119 86.0298L104.843 93.3763C104.813 93.4868 104.744 93.5826 104.648 93.6459C104.553 93.7093 104.438 93.7357 104.324 93.7203Z" fill="black"/>
<path id="Vector_105" d="M103.936 93.6585L100.784 93.159C100.732 93.1518 100.682 93.133 100.638 93.1039C100.594 93.0747 100.558 93.036 100.531 92.9907C100.504 92.9453 100.488 92.8945 100.484 92.8421C100.479 92.7896 100.487 92.7369 100.506 92.6878L102.782 85.3225C102.815 85.2146 102.885 85.122 102.98 85.0615C103.075 85.0009 103.189 84.9765 103.3 84.9926L106.448 85.4968C106.501 85.5024 106.552 85.5203 106.597 85.5489C106.642 85.5776 106.68 85.6163 106.707 85.662C106.734 85.7076 106.751 85.7591 106.755 85.8122C106.759 85.8653 106.751 85.9187 106.731 85.9681L104.455 93.338C104.42 93.4442 104.349 93.5347 104.254 93.5933C104.159 93.652 104.047 93.6751 103.936 93.6585Z" fill="#263238"/>
<path id="Vector_106" d="M111.956 154.649L107.833 154.597L107.687 148.42L111.81 148.472L111.956 154.649Z" fill="#E4897B"/>
<path id="Vector_107" d="M107.634 154.117L112.271 154.174C112.309 154.173 112.347 154.18 112.383 154.194C112.419 154.208 112.451 154.229 112.479 154.256C112.506 154.283 112.529 154.315 112.544 154.35C112.559 154.385 112.567 154.423 112.568 154.461L112.671 158.137C112.669 158.334 112.589 158.522 112.449 158.66C112.308 158.799 112.119 158.877 111.922 158.877C110.311 158.829 109.566 158.726 107.507 158.702C106.253 158.702 101.961 158.796 100.231 158.773C98.5017 158.749 98.6054 157.039 99.3405 156.888C102.639 156.228 105.721 155.276 106.918 154.372C107.123 154.212 107.374 154.123 107.634 154.117Z" fill="#263238"/>
<path id="Vector_108" d="M111.81 148.472L107.687 148.425L107.8 153.364L111.928 153.411L111.81 148.472Z" fill="#CE6F64"/>
<path id="Vector_109" d="M106.186 154.823C105.898 154.851 105.61 154.769 105.38 154.593C105.317 154.522 105.274 154.436 105.255 154.343C105.237 154.25 105.244 154.154 105.277 154.065C105.29 154.004 105.318 153.947 105.36 153.9C105.401 153.853 105.453 153.817 105.512 153.796C106.026 153.608 107.162 154.418 107.289 154.512C107.304 154.523 107.316 154.538 107.324 154.556C107.331 154.573 107.334 154.593 107.331 154.611C107.327 154.63 107.317 154.646 107.304 154.66C107.291 154.673 107.274 154.682 107.256 154.687C106.905 154.77 106.546 154.816 106.186 154.823ZM105.715 153.961C105.676 153.954 105.636 153.954 105.597 153.961C105.568 153.972 105.542 153.99 105.522 154.014C105.502 154.038 105.489 154.067 105.484 154.098C105.462 154.154 105.456 154.215 105.466 154.275C105.476 154.335 105.502 154.391 105.541 154.437C105.724 154.63 106.266 154.658 107.006 154.522C106.616 154.24 106.169 154.049 105.696 153.961H105.715Z" fill="#FAFAFA"/>
<path id="Vector_110" d="M107.229 154.692C107.212 154.697 107.194 154.697 107.177 154.692C106.781 154.447 106.192 153.58 106.296 153.127C106.314 153.045 106.359 152.972 106.424 152.919C106.489 152.866 106.57 152.836 106.654 152.835C106.727 152.824 106.802 152.831 106.873 152.855C106.943 152.879 107.007 152.919 107.059 152.972C107.464 153.382 107.332 154.574 107.328 154.621C107.326 154.637 107.319 154.653 107.31 154.666C107.3 154.68 107.286 154.69 107.271 154.696C107.257 154.699 107.242 154.697 107.229 154.692ZM106.715 153.005H106.677C106.531 153.005 106.498 153.09 106.484 153.146C106.414 153.457 106.819 154.089 107.149 154.4C107.149 154.008 107.149 153.33 106.922 153.09C106.895 153.062 106.863 153.041 106.827 153.026C106.792 153.012 106.754 153.004 106.715 153.005Z" fill="#FAFAFA"/>
<path id="Vector_111" d="M125.589 138.575C123.704 138.33 122.827 138.947 121.682 135.465C119.241 128.057 107.941 109.637 102.164 123.062C97.0652 134.843 105.283 148.947 106.923 151.567C107.014 151.71 107.134 151.832 107.276 151.926C107.417 152.021 107.576 152.084 107.743 152.113L111.749 152.952C112.198 153.039 112.661 153.039 113.11 152.952C114.802 152.646 118.789 151.59 121.696 148.376C123.892 145.95 125.711 141.61 125.904 138.952C125.912 138.908 125.91 138.862 125.898 138.819C125.887 138.775 125.867 138.735 125.839 138.7C125.811 138.665 125.776 138.636 125.736 138.615C125.696 138.594 125.652 138.582 125.607 138.58L125.589 138.575Z" fill="#2E84EF"/>
<path id="Vector_112" opacity="0.7" d="M125.589 138.575C123.704 138.33 122.827 138.947 121.682 135.465C119.241 128.057 107.941 109.637 102.164 123.062C97.0652 134.843 105.283 148.947 106.923 151.567C107.014 151.71 107.134 151.832 107.276 151.926C107.417 152.021 107.576 152.084 107.743 152.113L111.749 152.952C112.198 153.039 112.661 153.039 113.11 152.952C114.802 152.646 118.789 151.59 121.696 148.376C123.892 145.95 125.711 141.61 125.904 138.952C125.912 138.908 125.91 138.862 125.898 138.819C125.887 138.775 125.867 138.735 125.839 138.7C125.811 138.665 125.776 138.636 125.736 138.615C125.696 138.594 125.652 138.582 125.607 138.58L125.589 138.575Z" fill="#FAFAFA"/>
<path id="Vector_113" d="M122.616 114.289C121.853 114.204 121.202 114.11 120.481 113.987C119.76 113.865 119.096 113.733 118.403 113.587C117.027 113.299 115.665 112.922 114.308 112.498C111.517 111.672 108.871 110.419 106.462 108.785C106.156 108.554 105.85 108.342 105.558 108.092C105.407 107.96 105.27 107.861 105.086 107.711C104.921 107.562 104.764 107.404 104.615 107.239C104.085 106.658 103.611 106.026 103.201 105.355C102.451 104.135 101.794 102.861 101.236 101.542C100.146 98.9987 99.2446 96.3778 98.541 93.7011L100.511 93.0037C101.665 95.3975 102.867 97.8196 104.149 100.072C104.768 101.188 105.452 102.265 106.198 103.3C106.531 103.756 106.901 104.183 107.306 104.577C107.387 104.658 107.474 104.733 107.565 104.803C107.65 104.874 107.791 104.973 107.904 105.053C108.13 105.232 108.376 105.387 108.635 105.557C110.79 106.837 113.107 107.823 115.524 108.488C116.754 108.851 118.017 109.138 119.294 109.431C119.925 109.567 120.561 109.69 121.202 109.803C121.843 109.916 122.498 110.02 123.087 110.095L122.616 114.289Z" fill="#E4897B"/>
<path id="Vector_114" d="M128.528 111.555C127.407 109.199 119.212 109.199 119.212 109.199L119.433 117.323C119.433 117.323 123.674 117.7 125.682 116.381C127.76 114.972 129.584 113.775 128.528 111.555Z" fill="#263238"/>
<path id="Vector_115" d="M100.57 93.9551L103.807 90.9863L99.5331 89.6716C99.5331 89.6716 97.7613 93.1022 98.8215 94.464L100.57 93.9551Z" fill="#E4897B"/>
<path id="Vector_116" d="M104.564 87.5375L101.053 87.4526L99.5361 89.6721L103.81 90.9868L104.564 87.5375Z" fill="#E4897B"/>
<path id="Vector_117" d="M124.531 154.649L120.408 154.597L120.262 148.42L124.39 148.472L124.531 154.649Z" fill="#E4897B"/>
<path id="Vector_118" d="M120.213 154.117L124.845 154.174C124.883 154.173 124.922 154.18 124.957 154.194C124.993 154.208 125.026 154.229 125.053 154.256C125.081 154.283 125.103 154.315 125.118 154.35C125.133 154.385 125.141 154.423 125.142 154.461L125.246 158.137C125.24 158.331 125.159 158.514 125.02 158.65C124.881 158.785 124.695 158.861 124.501 158.862C122.89 158.815 122.121 158.712 120.081 158.688C118.828 158.688 115.072 158.782 113.342 158.759C111.613 158.735 111.717 157.025 112.457 156.874C115.755 156.214 118.3 155.262 119.492 154.358C119.701 154.203 119.953 154.119 120.213 154.117Z" fill="#263238"/>
<path id="Vector_119" d="M124.39 148.472L120.262 148.425L120.38 153.364L124.503 153.411L124.39 148.472Z" fill="#CE6F64"/>
<path id="Vector_120" d="M123.843 110.094C123.843 110.094 121.439 112.021 118.188 136.563C122.137 137.034 130.826 137.977 134.634 138.127C136.354 131.37 137.57 127.237 144.789 114.095C142.652 113.167 140.446 112.407 138.192 111.824C135.788 111.161 133.339 110.678 130.864 110.377C127.613 110.052 123.843 110.094 123.843 110.094Z" fill="#263238"/>
<path id="Vector_121" d="M131.156 110.363C130.713 110.184 129.559 110.09 128.381 111.268C127.203 112.446 128.499 114.095 128.499 114.095L131.156 112.681V110.363Z" fill="#2E84EF"/>
<path id="Vector_122" d="M133.041 113.013L133.681 115.76C133.681 115.76 140.703 114.582 139.162 111.962L137.833 111.548L133.041 113.013Z" fill="#2E84EF"/>
<path id="Vector_123" d="M131.335 115.053C131.189 115.444 130.864 115.745 130.638 115.731C130.412 115.717 130.322 115.387 130.468 114.996C130.614 114.605 130.939 114.303 131.166 114.318C131.392 114.332 131.481 114.652 131.335 115.053Z" fill="#2E84EF"/>
<path id="Vector_124" opacity="0.7" d="M131.335 115.053C131.189 115.444 130.864 115.745 130.638 115.731C130.412 115.717 130.322 115.387 130.468 114.996C130.614 114.605 130.939 114.303 131.166 114.318C131.392 114.332 131.481 114.652 131.335 115.053Z" fill="#FAFAFA"/>
<path id="Vector_125" d="M140.335 103.271C139.157 105.59 137.036 109.906 138.205 111.838C138.205 111.838 136.833 114.152 132.456 113.285C127.635 112.343 130.877 110.392 130.877 110.392C133.704 110.269 134.218 108.266 134.312 106.306L140.335 103.271Z" fill="#E4897B"/>
<path id="Vector_126" d="M137.653 104.501L134.303 106.292C134.285 106.754 134.228 107.215 134.133 107.668C135.184 107.715 136.895 106.862 137.323 105.811C137.508 105.396 137.619 104.953 137.653 104.501Z" fill="#CE6F64"/>
<path id="Vector_127" d="M143.162 100.147C140.806 103.724 139.864 105.284 136.989 106.273C132.668 107.776 129.04 104.539 130.354 100.435C131.532 96.7402 135.203 91.5096 139.491 91.7735C143.78 92.0374 145.547 96.5659 143.162 100.147Z" fill="#E4897B"/>
<path id="Vector_128" d="M134.395 93.1019C138.396 92.6306 138.994 96.424 141.134 95.6512C141.134 95.6512 139.616 96.7633 140.634 102.767L142.726 102.093L145.992 95.9434L144.696 93.7663C144.696 93.7663 140.153 88.5168 134.395 93.1019Z" fill="#263238"/>
<path id="Vector_129" d="M141.789 103.742C141.305 104.413 140.596 104.888 139.791 105.081C138.745 105.312 138.377 104.383 138.802 103.441C139.188 102.597 140.192 101.457 141.181 101.645C142.171 101.834 142.378 102.918 141.789 103.742Z" fill="#E4897B"/>
<path id="Vector_130" d="M143.305 101.099C141.953 100.679 140.793 100.274 138.353 102.767C139.859 101.851 141.551 101.281 143.305 101.099Z" fill="#263238"/>
<path id="Vector_131" d="M143.455 101.141C142.419 100.538 141.542 99.9865 139.054 101.579C140.471 101.108 141.974 100.958 143.455 101.141Z" fill="#263238"/>
<path id="Vector_132" d="M137.262 98.4938C137.088 98.7907 136.791 98.965 136.607 98.8661C136.423 98.7671 136.414 98.4514 136.607 98.1498C136.8 97.8482 137.078 97.6786 137.262 97.7775C137.446 97.8765 137.437 98.1922 137.262 98.4938Z" fill="#263238"/>
<path id="Vector_133" d="M134.037 96.8629C133.858 97.1645 133.566 97.3342 133.382 97.2352C133.199 97.1362 133.184 96.8205 133.359 96.5189C133.533 96.2174 133.83 96.0477 134.014 96.1467C134.198 96.2456 134.207 96.5613 134.037 96.8629Z" fill="#263238"/>
<path id="Vector_134" d="M134.092 96.2028L133.526 95.6467C133.526 95.6467 133.55 96.3913 134.092 96.2028Z" fill="#263238"/>
<path id="Vector_135" d="M134.59 97.8096C133.939 98.3685 133.22 98.8434 132.451 99.2232C132.616 99.784 133.351 99.9395 133.351 99.9395L134.59 97.8096Z" fill="#DE5753"/>
<path id="Vector_136" d="M134.943 101.923C134.502 101.921 134.068 101.816 133.675 101.617C133.652 101.606 133.633 101.585 133.624 101.561C133.616 101.536 133.617 101.509 133.628 101.485C133.639 101.461 133.66 101.443 133.684 101.434C133.709 101.425 133.736 101.427 133.76 101.438C134.131 101.622 134.54 101.719 134.955 101.719C135.369 101.719 135.778 101.622 136.149 101.438C136.172 101.426 136.198 101.423 136.223 101.43C136.247 101.437 136.268 101.453 136.281 101.476C136.288 101.486 136.292 101.498 136.294 101.511C136.296 101.523 136.296 101.536 136.293 101.549C136.29 101.561 136.284 101.572 136.277 101.583C136.269 101.593 136.259 101.601 136.248 101.607C135.845 101.816 135.397 101.924 134.943 101.923Z" fill="#263238"/>
<path id="Vector_137" d="M138.921 97.9277C138.874 97.927 138.828 97.9096 138.793 97.8785C138.757 97.8474 138.734 97.8047 138.727 97.758C138.674 97.1994 138.424 96.6781 138.021 96.2878C137.986 96.2539 137.965 96.2084 137.962 96.1601C137.959 96.1118 137.973 96.064 138.003 96.0256C138.032 95.9873 138.075 95.9612 138.123 95.9522C138.17 95.9432 138.219 95.9519 138.261 95.9768C138.748 96.4267 139.052 97.041 139.114 97.7015C139.119 97.727 139.118 97.7532 139.112 97.7784C139.106 97.8036 139.095 97.8274 139.08 97.8482C139.064 97.869 139.045 97.8863 139.022 97.8992C139 97.9121 138.975 97.9202 138.949 97.923L138.921 97.9277Z" fill="#263238"/>
<path id="Vector_138" d="M135.62 94.2145C135.579 94.2156 135.539 94.2023 135.507 94.1768C135.294 94.0543 135.055 93.9837 134.809 93.9706C134.564 93.9575 134.319 94.0023 134.093 94.1014C134.07 94.1111 134.044 94.1159 134.019 94.1155C133.993 94.115 133.968 94.1093 133.944 94.0987C133.921 94.0881 133.9 94.0729 133.883 94.0539C133.865 94.0349 133.852 94.0126 133.844 93.9883C133.835 93.9645 133.83 93.9391 133.831 93.9137C133.832 93.8882 133.838 93.8631 133.848 93.8399C133.859 93.8167 133.874 93.7958 133.892 93.7784C133.911 93.761 133.933 93.7475 133.957 93.7386C134.244 93.6134 134.557 93.5591 134.869 93.5805C135.182 93.6018 135.485 93.698 135.752 93.8611C135.784 93.8863 135.808 93.9208 135.819 93.9598C135.831 93.9989 135.83 94.0406 135.818 94.0792C135.805 94.1179 135.78 94.1516 135.747 94.1759C135.715 94.2001 135.675 94.2136 135.634 94.2145H135.62Z" fill="#263238"/>
<path id="Vector_139" d="M118.759 154.824C118.472 154.852 118.186 154.769 117.958 154.593C117.894 154.523 117.85 154.437 117.831 154.344C117.811 154.251 117.818 154.155 117.85 154.065C117.864 154.004 117.894 153.947 117.935 153.9C117.977 153.853 118.031 153.818 118.09 153.796C118.599 153.613 119.739 154.418 119.866 154.513C119.882 154.524 119.894 154.539 119.9 154.556C119.907 154.574 119.908 154.593 119.904 154.612C119.899 154.63 119.89 154.647 119.877 154.66C119.864 154.673 119.847 154.682 119.829 154.687C119.478 154.77 119.119 154.816 118.759 154.824ZM118.288 153.961C118.25 153.954 118.212 153.954 118.175 153.961C118.144 153.97 118.118 153.988 118.097 154.013C118.077 154.037 118.065 154.067 118.062 154.098C118.038 154.154 118.031 154.215 118.04 154.275C118.049 154.335 118.074 154.391 118.113 154.437C118.302 154.631 118.844 154.659 119.584 154.522C119.192 154.241 118.743 154.05 118.269 153.961H118.288Z" fill="#FAFAFA"/>
<path id="Vector_140" d="M119.813 154.692C119.796 154.698 119.777 154.698 119.761 154.692C119.36 154.447 118.776 153.58 118.875 153.127C118.895 153.045 118.941 152.972 119.007 152.919C119.072 152.867 119.153 152.837 119.238 152.835C119.311 152.824 119.386 152.831 119.457 152.855C119.527 152.879 119.591 152.919 119.643 152.972C120.048 153.382 119.916 154.574 119.907 154.621C119.906 154.637 119.9 154.653 119.891 154.666C119.882 154.679 119.87 154.69 119.855 154.696C119.841 154.699 119.826 154.697 119.813 154.692ZM119.299 153.005H119.257C119.115 153.005 119.082 153.09 119.068 153.146C118.997 153.457 119.403 154.089 119.728 154.4C119.751 154.008 119.728 153.33 119.502 153.09C119.475 153.062 119.444 153.041 119.409 153.026C119.374 153.012 119.337 153.004 119.299 153.005Z" fill="#FAFAFA"/>
<path id="Vector_141" d="M137.313 97.8331L136.748 97.2817C136.748 97.2817 136.771 98.0216 137.313 97.8331Z" fill="#263238"/>
<path id="Vector_142" d="M135.151 137.199L135.302 138.731C135.302 138.858 135.18 138.957 134.986 138.943L117.928 137.529C117.777 137.529 117.669 137.43 117.673 137.336L117.805 135.828C117.805 135.724 117.956 135.644 118.121 135.658L134.906 137.072C134.955 137.069 135.003 137.079 135.046 137.102C135.09 137.124 135.126 137.158 135.151 137.199Z" fill="#263238"/>
<path id="Vector_143" d="M132.529 138.91L133 138.948C133.085 138.948 133.165 138.915 133.17 138.858L133.32 136.893C133.32 136.837 133.254 136.785 133.165 136.775L132.694 136.742C132.604 136.742 132.529 136.775 132.524 136.832L132.373 138.792C132.369 138.849 132.439 138.905 132.529 138.91Z" fill="#2E84EF"/>
<path id="Vector_144" opacity="0.9" d="M132.529 138.91L133 138.948C133.085 138.948 133.165 138.915 133.17 138.858L133.32 136.893C133.32 136.837 133.254 136.785 133.165 136.775L132.694 136.742C132.604 136.742 132.529 136.775 132.524 136.832L132.373 138.792C132.369 138.849 132.439 138.905 132.529 138.91Z" fill="#FAFAFA"/>
<path id="Vector_145" d="M119.126 137.799L119.597 137.837C119.687 137.837 119.762 137.799 119.767 137.742L119.918 135.782C119.918 135.725 119.852 135.674 119.762 135.664L119.291 135.626C119.202 135.626 119.122 135.659 119.117 135.716L118.985 137.672C118.985 137.738 119.051 137.789 119.126 137.799Z" fill="#2E84EF"/>
<path id="Vector_146" opacity="0.9" d="M119.126 137.799L119.597 137.837C119.687 137.837 119.762 137.799 119.767 137.742L119.918 135.782C119.918 135.725 119.852 135.674 119.762 135.664L119.291 135.626C119.202 135.626 119.122 135.659 119.117 135.716L118.985 137.672C118.985 137.738 119.051 137.789 119.126 137.799Z" fill="#FAFAFA"/>
<path id="Vector_147" d="M125.842 138.354L126.29 138.392C126.379 138.392 126.455 138.359 126.459 138.302L126.61 136.337C126.61 136.281 126.544 136.229 126.455 136.219L125.984 136.182C125.894 136.182 125.819 136.215 125.814 136.276L125.663 138.236C125.682 138.293 125.753 138.345 125.842 138.354Z" fill="#2E84EF"/>
<path id="Vector_148" opacity="0.9" d="M125.842 138.354L126.29 138.392C126.379 138.392 126.455 138.359 126.459 138.302L126.61 136.337C126.61 136.281 126.544 136.229 126.455 136.219L125.984 136.182C125.894 136.182 125.819 136.215 125.814 136.276L125.663 138.236C125.682 138.293 125.753 138.345 125.842 138.354Z" fill="#FAFAFA"/>
<path id="Vector_149" d="M134.277 138.576C132.335 138.331 131.629 138.949 129.461 135.466C124.857 128.059 108.166 109.638 106.291 123.05C104.641 134.83 116.983 148.934 119.391 151.554C119.65 151.838 119.994 152.029 120.371 152.101L124.612 152.939C125.062 153.027 125.524 153.027 125.974 152.939C127.576 152.633 131.252 151.578 133.217 148.364C134.701 145.937 135.252 141.597 134.677 138.939C134.657 138.842 134.607 138.753 134.533 138.687C134.459 138.62 134.366 138.578 134.267 138.567L134.277 138.576Z" fill="#2E84EF"/>
<path id="Vector_150" opacity="0.9" d="M134.277 138.576C132.335 138.331 131.629 138.949 129.461 135.466C124.857 128.059 108.166 109.638 106.291 123.05C104.641 134.83 116.983 148.934 119.391 151.554C119.65 151.838 119.994 152.029 120.371 152.101L124.612 152.939C125.062 153.027 125.524 153.027 125.974 152.939C127.576 152.633 131.252 151.578 133.217 148.364C134.701 145.937 135.252 141.597 134.677 138.939C134.657 138.842 134.607 138.753 134.533 138.687C134.459 138.62 134.366 138.578 134.267 138.567L134.277 138.576Z" fill="#FAFAFA"/>
<path id="Vector_151" d="M145.314 119.684C145.592 120.914 145.785 122.064 145.964 123.256C146.143 124.448 146.28 125.612 146.393 126.814C146.506 128.015 146.586 129.203 146.648 130.4C146.709 131.597 146.699 132.808 146.648 134.014C146.624 134.622 146.61 135.225 146.563 135.833L146.497 136.742V136.856V137.025C146.497 137.134 146.468 137.247 146.445 137.355C146.408 137.579 146.354 137.799 146.285 138.015C146.024 138.849 145.574 139.612 144.97 140.244C144.442 140.796 143.831 141.263 143.16 141.629C141.994 142.266 140.735 142.714 139.428 142.958C138.815 143.084 138.195 143.174 137.572 143.227C136.946 143.29 136.316 143.316 135.687 143.307L135.479 141.087C137.543 140.526 139.749 139.73 141.21 138.613C141.534 138.369 141.823 138.08 142.067 137.756C142.244 137.518 142.361 137.242 142.411 136.95C142.416 136.887 142.416 136.824 142.411 136.761C142.414 136.728 142.414 136.695 142.411 136.662V136.507V135.678C142.411 135.121 142.411 134.565 142.411 134.009C142.411 132.893 142.322 131.771 142.232 130.654C142.143 129.537 142.048 128.411 141.907 127.29C141.766 126.168 141.61 125.051 141.436 123.935C141.261 122.818 141.068 121.687 140.87 120.636L145.314 119.684Z" fill="#E4897B"/>
<path id="Vector_152" d="M144.769 114.11C147.309 115.01 147.964 122.158 147.964 122.158L140.396 125.636C140.396 125.636 138.351 119.547 139.529 117.413C140.759 115.184 142.752 113.384 144.769 114.11Z" fill="#263238"/>
<path id="Vector_153" d="M135.947 141.106L131.706 139.772L132.795 143.326C132.795 143.326 135.547 144.268 136.762 142.878L135.947 141.106Z" fill="#E4897B"/>
<path id="Vector_154" d="M128.668 141.299L129.088 144.701L132.811 143.302L131.727 139.772L128.668 141.299Z" fill="#E4897B"/>
<path id="Vector_155" d="M118.982 131.545C118.982 131.545 124.547 143.406 125.419 150.394C125.419 150.394 125.834 136.257 118.982 131.545Z" fill="#2E84EF"/>
<path id="Vector_156" opacity="0.7" d="M118.982 131.545C118.982 131.545 124.547 143.406 125.419 150.394C125.419 150.394 125.834 136.257 118.982 131.545Z" fill="#FAFAFA"/>
<path id="Vector_157" d="M182.242 175.166H181.771V180.816H182.242V175.166Z" fill="#2E84EF"/>
<path id="Vector_158" opacity="0.2" d="M182.242 175.166H181.771V180.816H182.242V175.166Z" fill="black"/>
<path id="Vector_159" d="M182.242 182.989H181.771V184.997H182.242V182.989Z" fill="#2E84EF"/>
<path id="Vector_160" opacity="0.2" d="M182.242 182.989H181.771V184.997H182.242V182.989Z" fill="black"/>
<path id="Vector_161" d="M171.439 143.001C171.703 143.001 171.967 143.001 172.236 143.025C177.834 143.425 182.362 148.166 182.716 153.999C182.8 155.288 182.677 156.581 182.353 157.83C181.12 162.848 180.524 168.002 180.581 173.169V188.248C180.593 188.76 180.401 189.256 180.047 189.627C179.694 189.998 179.208 190.214 178.696 190.227H132.799V143.001H171.439Z" fill="#2E84EF"/>
<path id="Vector_162" opacity="0.2" d="M171.439 143.001C171.703 143.001 171.967 143.001 172.236 143.025C177.834 143.425 182.362 148.166 182.716 153.999C182.8 155.288 182.677 156.581 182.353 157.83C181.12 162.848 180.524 168.002 180.581 173.169V188.248C180.593 188.76 180.401 189.256 180.047 189.627C179.694 189.998 179.208 190.214 178.696 190.227H132.799V143.001H171.439Z" fill="black"/>
<path id="Vector_163" d="M121.516 154.772C121.516 148.001 127.01 142.558 133.612 143.029C139.21 143.43 143.739 148.171 144.092 154.004C144.176 155.293 144.054 156.586 143.729 157.835C142.496 162.853 141.901 168.007 141.957 173.174V188.253C141.969 188.765 141.777 189.261 141.424 189.632C141.07 190.003 140.585 190.219 140.073 190.232H125.573C125.061 190.217 124.576 190.001 124.223 189.63C123.87 189.26 123.678 188.765 123.688 188.253V172.288C123.726 167.447 123.133 162.622 121.926 157.934C121.651 156.903 121.513 155.84 121.516 154.772Z" fill="#2E84EF"/>
<path id="Vector_164" opacity="0.1" d="M121.516 154.772C121.516 148.001 127.01 142.558 133.612 143.029C139.21 143.43 143.739 148.171 144.092 154.004C144.176 155.293 144.054 156.586 143.729 157.835C142.496 162.853 141.901 168.007 141.957 173.174V188.253C141.969 188.765 141.777 189.261 141.424 189.632C141.07 190.003 140.585 190.219 140.073 190.232H125.573C125.061 190.217 124.576 190.001 124.223 189.63C123.87 189.26 123.678 188.765 123.688 188.253V172.288C123.726 167.447 123.133 162.622 121.926 157.934C121.651 156.903 121.513 155.84 121.516 154.772Z" fill="#FAFAFA"/>
</g>
</g>
</g>
</svg>
