<svg width="50" height="51" viewBox="0 0 50 51" fill="none" xmlns="http://www.w3.org/2000/svg">
<g id="lets-icons:question-fill" clip-path="url(#clip0_6677_1307)">
<path id="Vector" fill-rule="evenodd" clip-rule="evenodd" d="M50 25.5C50 28.783 49.3534 32.0339 48.097 35.0671C46.8406 38.1002 44.9991 40.8562 42.6777 43.1777C40.3562 45.4991 37.6002 47.3406 34.5671 48.597C31.5339 49.8534 28.283 50.5 25 50.5C21.717 50.5 18.4661 49.8534 15.4329 48.597C12.3998 47.3406 9.64379 45.4991 7.32233 43.1777C5.00086 40.8562 3.15938 38.1002 1.90301 35.0671C0.646644 32.0339 -4.89212e-08 28.783 0 25.5C9.88008e-08 18.8696 2.63392 12.5107 7.32233 7.82233C12.0107 3.13392 18.3696 0.5 25 0.5C31.6304 0.5 37.9893 3.13392 42.6777 7.82233C47.3661 12.5107 50 18.8696 50 25.5ZM27.7778 42.1667C27.7778 42.9034 27.4851 43.6099 26.9642 44.1309C26.4432 44.6518 25.7367 44.9444 25 44.9444C24.2633 44.9444 23.5567 44.6518 23.0358 44.1309C22.5149 43.6099 22.2222 42.9034 22.2222 42.1667C22.2222 41.43 22.5149 40.7234 23.0358 40.2025C23.5567 39.6815 24.2633 39.3889 25 39.3889C25.7367 39.3889 26.4432 39.6815 26.9642 40.2025C27.4851 40.7234 27.7778 41.43 27.7778 42.1667ZM25 6.05555C22.0531 6.05555 19.227 7.22619 17.1433 9.30992C15.0595 11.3937 13.8889 14.2198 13.8889 17.1667H19.4444C19.4444 15.6932 20.0298 14.2802 21.0716 13.2383C22.1135 12.1964 23.5266 11.6111 25 11.6111H25.2611C28.1861 11.6111 30.5556 13.9806 30.5556 16.9056V18.3306C30.5556 19.7583 29.6417 21.025 28.2889 21.475C26.5223 22.0638 24.9859 23.1935 23.897 24.7041C22.8082 26.2147 22.2223 28.0296 22.2222 29.8917V36.6111H27.7778V29.8917C27.7778 28.4639 28.6917 27.1972 30.0444 26.7472C31.811 26.1584 33.3475 25.0287 34.4363 23.5181C35.5251 22.0075 36.111 20.1926 36.1111 18.3306V16.9056C36.1111 14.028 34.968 11.2682 32.9332 9.23345C30.8984 7.19868 28.1387 6.05555 25.2611 6.05555H25Z" fill="white"/>
</g>
<defs>
<clipPath id="clip0_6677_1307">
<rect width="50" height="50" fill="white" transform="translate(0 0.5)"/>
</clipPath>
</defs>
</svg>
