<svg width="24" height="25" viewBox="0 0 24 25" fill="none" xmlns="http://www.w3.org/2000/svg">
<g id="octicon:triangle-right-24">
<path id="Vector" d="M15.146 12.6098L9.354 18.4018C9.28413 18.4718 9.19505 18.5196 9.09804 18.539C9.00102 18.5584 8.90043 18.5486 8.809 18.5108C8.71757 18.473 8.6394 18.4089 8.5844 18.3267C8.52939 18.2444 8.50002 18.1477 8.5 18.0488V6.46278C8.50002 6.36385 8.52939 6.26714 8.5844 6.18491C8.6394 6.10267 8.71757 6.0386 8.809 6.00081C8.90043 5.96302 9.00102 5.9532 9.09804 5.9726C9.19505 5.99199 9.28413 6.03974 9.354 6.10978L15.146 11.9018C15.1926 11.9482 15.2295 12.0034 15.2547 12.0642C15.2799 12.1249 15.2929 12.19 15.2929 12.2558C15.2929 12.3216 15.2799 12.3867 15.2547 12.4474C15.2295 12.5082 15.1926 12.5633 15.146 12.6098Z" fill="#0063E2"/>
</g>
</svg>
