<svg width="25" height="24" viewBox="0 0 25 24" fill="none" xmlns="http://www.w3.org/2000/svg">
<g id="vuesax/bold/send">
<g id="send">
<path id="Vector" d="M18.7629 8.51013L10.2029 4.23013C4.45289 1.35013 2.09289 3.71013 4.97289 9.46013L5.84289 11.2001C6.09289 11.7101 6.09289 12.3001 5.84289 12.8101L4.97289 14.5401C2.09289 20.2901 4.44289 22.6501 10.2029 19.7701L18.7629 15.4901C22.6029 13.5701 22.6029 10.4301 18.7629 8.51013ZM15.5329 12.7501H10.1329C9.72289 12.7501 9.38289 12.4101 9.38289 12.0001C9.38289 11.5901 9.72289 11.2501 10.1329 11.2501H15.5329C15.9429 11.2501 16.2829 11.5901 16.2829 12.0001C16.2829 12.4101 15.9429 12.7501 15.5329 12.7501Z" fill="#3369FF"/>
</g>
</g>
</svg>
