<svg width="216" height="249" viewBox="0 0 216 249" fill="none" xmlns="http://www.w3.org/2000/svg">
<g filter="url(#filter0_i_12_311)">
<path d="M3.38961 151.329C18.5165 218.184 84.4789 260.231 150.721 245.242C216.963 230.254 258.399 163.907 243.273 97.052C228.146 30.1968 162.183 -11.8497 95.9414 3.13843C29.6995 18.1266 -11.7373 84.4737 3.38961 151.329Z" fill="url(#paint0_linear_12_311)"/>
</g>
<path d="M3.42165 151.322C18.5446 218.159 84.4897 260.195 150.714 245.21C216.937 230.226 258.363 163.897 243.24 97.0593C228.118 30.2215 162.172 -11.8136 95.9486 3.17047C29.7247 18.1545 -11.7013 84.4839 3.42165 151.322Z" stroke="url(#paint1_linear_12_311)" stroke-width="0.0656921" stroke-linecap="round"/>
<defs>
<filter id="filter0_i_12_311" x="0.275391" y="-3.17307" width="261.131" height="251.447" filterUnits="userSpaceOnUse" color-interpolation-filters="sRGB">
<feFlood flood-opacity="0" result="BackgroundImageFix"/>
<feBlend mode="normal" in="SourceGraphic" in2="BackgroundImageFix" result="shape"/>
<feColorMatrix in="SourceAlpha" type="matrix" values="0 0 0 0 0 0 0 0 0 0 0 0 0 0 0 0 0 0 127 0" result="hardAlpha"/>
<feOffset dx="15.02" dy="-3.28"/>
<feGaussianBlur stdDeviation="12.5128"/>
<feComposite in2="hardAlpha" operator="arithmetic" k2="-1" k3="1"/>
<feColorMatrix type="matrix" values="0 0 0 0 0.291667 0 0 0 0 0.49 0 0 0 0 1 0 0 0 1 0"/>
<feBlend mode="normal" in2="shape" result="effect1_innerShadow_12_311"/>
</filter>
<linearGradient id="paint0_linear_12_311" x1="218.531" y1="64.8141" x2="-4.64295" y2="190.065" gradientUnits="userSpaceOnUse">
<stop stop-color="#0065E7"/>
<stop offset="1" stop-color="#4093FF"/>
</linearGradient>
<linearGradient id="paint1_linear_12_311" x1="1014.5" y1="-156.223" x2="1069.28" y2="85.8808" gradientUnits="userSpaceOnUse">
<stop stop-color="#BDBDBD"/>
<stop offset="1" stop-color="#BDBDBD" stop-opacity="0"/>
</linearGradient>
</defs>
</svg>
