<svg width="94" height="95" viewBox="0 0 94 95" fill="none" xmlns="http://www.w3.org/2000/svg">
<g filter="url(#filter0_i_12_312)">
<path d="M1.36537 57.3538C7.0902 82.6554 32.0539 98.5681 57.1234 92.8958C82.1928 87.2235 97.8748 62.1142 92.1499 36.8126C86.4251 11.511 61.4614 -4.40168 36.3919 1.27064C11.3224 6.94295 -4.35947 32.0523 1.36537 57.3538Z" fill="url(#paint0_linear_12_312)"/>
</g>
<path d="M1.3974 57.3466C7.1183 82.6308 32.0646 98.532 57.1161 92.8638C82.1676 87.1955 97.8388 62.104 92.1179 36.8198C86.397 11.5357 61.4506 -4.36558 36.3992 1.30267C11.3477 6.97092 -4.3235 32.0624 1.3974 57.3466Z" stroke="url(#paint1_linear_12_312)" stroke-width="0.0656921" stroke-linecap="round"/>
<defs>
<filter id="filter0_i_12_312" x="0.186523" y="-3.15671" width="108.163" height="97.1998" filterUnits="userSpaceOnUse" color-interpolation-filters="sRGB">
<feFlood flood-opacity="0" result="BackgroundImageFix"/>
<feBlend mode="normal" in="SourceGraphic" in2="BackgroundImageFix" result="shape"/>
<feColorMatrix in="SourceAlpha" type="matrix" values="0 0 0 0 0 0 0 0 0 0 0 0 0 0 0 0 0 0 127 0" result="hardAlpha"/>
<feOffset dx="15.02" dy="-3.28"/>
<feGaussianBlur stdDeviation="12.5128"/>
<feComposite in2="hardAlpha" operator="arithmetic" k2="-1" k3="1"/>
<feColorMatrix type="matrix" values="0 0 0 0 0.291667 0 0 0 0 0.49 0 0 0 0 1 0 0 0 1 0"/>
<feBlend mode="normal" in2="shape" result="effect1_innerShadow_12_312"/>
</filter>
<linearGradient id="paint0_linear_12_312" x1="82.7864" y1="24.612" x2="-1.67459" y2="72.0136" gradientUnits="userSpaceOnUse">
<stop stop-color="#0065E7"/>
<stop offset="1" stop-color="#4093FF"/>
</linearGradient>
<linearGradient id="paint1_linear_12_312" x1="384.025" y1="-59.0403" x2="404.757" y2="32.5848" gradientUnits="userSpaceOnUse">
<stop stop-color="#BDBDBD"/>
<stop offset="1" stop-color="#BDBDBD" stop-opacity="0"/>
</linearGradient>
</defs>
</svg>
