<svg width="106" height="79" viewBox="0 0 106 79" fill="none" xmlns="http://www.w3.org/2000/svg">
<g id="SVG" clip-path="url(#clip0_1_3274)">
<path id="Vector" d="M25.9219 78.0994C21.1009 78.0994 16.8069 76.8944 13.0399 74.4834C9.27294 71.9224 6.25994 68.3814 3.99994 63.8614C1.88994 59.3414 0.835938 54.2184 0.835938 48.4934C0.835938 43.2204 1.73994 38.0974 3.54794 33.1254C5.50694 28.1534 8.29394 23.5584 11.9099 19.3394C15.4935 14.9995 19.6792 11.1943 24.3399 8.03937C29.1609 4.72437 34.4349 2.31437 40.1599 0.807373L51.2339 14.5934C44.7549 17.1544 39.5569 20.5444 35.6399 24.7634C31.8729 28.9824 29.9899 32.5984 29.9899 35.6114C29.9899 36.9674 30.3669 38.4744 31.1199 40.1314C32.0239 41.6384 33.7569 43.2204 36.3179 44.8774C40.0849 47.2874 42.6459 49.8494 44.0019 52.5614C45.5089 55.1224 46.2619 58.0614 46.2619 61.3754C46.2619 66.4984 44.3029 70.5654 40.3859 73.5794C36.6189 76.5924 31.7979 78.0994 25.9219 78.0994ZM80.1619 78.0994C75.3409 78.0994 71.0469 76.8944 67.2799 74.4834C63.5129 71.9224 60.4999 68.3814 58.2399 63.8614C56.1299 59.3414 55.0759 54.2184 55.0759 48.4934C55.0759 43.2204 55.9799 38.0974 57.7879 33.1254C59.7469 28.1534 62.5339 23.5584 66.1499 19.3394C69.7335 14.9995 73.9192 11.1943 78.5799 8.03937C83.4009 4.72437 88.6749 2.31437 94.3999 0.807373L105.474 14.5934C98.9949 17.1544 93.7969 20.5444 89.8799 24.7634C86.1129 28.9824 84.2299 32.5984 84.2299 35.6114C84.2299 36.9674 84.6069 38.4744 85.3599 40.1314C86.2639 41.6384 87.9969 43.2204 90.5579 44.8774C94.3249 47.2874 96.8859 49.8494 98.2419 52.5614C99.7489 55.1224 100.502 58.0614 100.502 61.3754C100.502 66.4984 98.5429 70.5654 94.6259 73.5794C90.8589 76.5924 86.0379 78.0994 80.1619 78.0994Z" fill="#F1F5F9"/>
</g>
<defs>
<clipPath id="clip0_1_3274">
<rect width="105" height="78" fill="white" transform="translate(0.835938 0.807373)"/>
</clipPath>
</defs>
</svg>
