<svg width="354" height="251" viewBox="0 0 354 251" fill="none" xmlns="http://www.w3.org/2000/svg">
<path d="M152.646 95.1126L151.704 94.7413C151.917 93.4149 151.924 92.0832 151.741 90.7919L152.829 90.3183C154.455 89.612 155.201 87.7206 154.494 86.0942C153.787 84.4683 151.896 83.7229 150.27 84.4298L149.341 84.8338C148.573 83.7706 147.647 82.8189 146.576 82.0149L146.575 82.0143L147.01 80.9103C147.66 79.2603 146.85 77.3959 145.201 76.7459C143.551 76.0959 141.687 76.9062 141.037 78.5557L140.666 79.4976C139.34 79.285 138.008 79.2775 136.717 79.4603L136.244 78.3718C135.537 76.7459 133.646 76.0005 132.019 76.7074C130.394 77.4143 129.648 79.3051 130.355 80.9315L130.759 81.8608C129.695 82.6281 128.744 83.5545 127.94 84.6252L127.939 84.6258L126.836 84.1907C125.186 83.5407 123.322 84.3511 122.672 86.0005C122.022 87.6505 122.832 89.5149 124.481 90.1649L125.423 90.5355C125.209 91.8626 125.202 93.1942 125.385 94.4855L124.298 94.958C122.672 95.6649 121.926 97.5562 122.633 99.1821C123.34 100.809 125.231 101.554 126.857 100.847L127.783 100.445L127.784 100.445C128.552 101.506 129.482 102.459 130.55 103.265L130.117 104.367C129.466 106.017 130.276 107.881 131.926 108.531C133.576 109.181 135.44 108.371 136.09 106.721L136.46 105.78C137.787 105.993 139.119 106 140.41 105.817L140.883 106.905C141.59 108.531 143.481 109.276 145.107 108.569C146.733 107.863 147.478 105.972 146.772 104.345L146.369 103.419C147.43 102.65 148.383 101.721 149.189 100.652L150.291 101.086C151.94 101.736 153.805 100.926 154.455 99.2764C155.105 97.6269 154.295 95.7626 152.646 95.1126ZM147.457 96.1436C145.521 101.055 139.969 103.468 135.059 101.533C130.149 99.5976 127.736 94.0447 129.671 89.1344C131.607 84.2212 137.158 81.8103 142.068 83.7453C146.978 85.6809 149.393 91.2304 147.457 96.1436Z" fill="#CBECFF"/>
<path d="M132.944 90.4239C131.72 93.528 133.245 97.0366 136.349 98.2596C139.453 99.4831 142.965 97.9596 144.187 94.855C145.411 91.7504 143.885 88.2383 140.78 87.0153C137.676 85.7918 134.167 87.3193 132.944 90.4239Z" fill="#CBECFF"/>
<path d="M123.847 66.606L123.132 66.7767C122.707 65.8968 122.158 65.1003 121.511 64.406L121.963 63.6715C122.639 62.5738 122.297 61.1359 121.199 60.4606C120.101 59.7847 118.664 60.1267 117.988 61.225L117.602 61.852C116.702 61.537 115.754 61.3554 114.782 61.321H114.781L114.581 60.4819C114.283 59.2273 113.024 58.4531 111.77 58.7514C110.516 59.0503 109.742 60.3083 110.04 61.5623L110.211 62.2784C109.331 62.7031 108.534 63.252 107.84 63.8985L107.106 63.4462C106.008 62.771 104.57 63.1129 103.895 64.2106C103.219 65.3083 103.561 66.7462 104.659 67.4221L105.286 67.8083C104.971 68.7077 104.789 69.6566 104.755 70.629L103.916 70.8296C102.662 71.1278 101.888 72.3865 102.186 73.6405C102.485 74.8945 103.743 75.6692 104.997 75.3704L105.712 75.2003C106.137 76.0796 106.686 76.8767 107.333 77.5709L106.881 78.3054C106.205 79.4031 106.547 80.8405 107.645 81.5164C108.743 82.1922 110.18 81.8497 110.856 80.752L111.241 80.1267L111.242 80.1273C112.14 80.4399 113.091 80.6215 114.064 80.6583L114.263 81.4951C114.562 82.7491 115.82 83.5238 117.074 83.225C118.328 82.9267 119.102 81.6681 118.804 80.4141L118.634 79.6991C119.513 79.2738 120.31 78.7244 121.004 78.0784L121.738 78.5301C122.836 79.206 124.274 78.8635 124.949 77.7658C125.625 76.6681 125.283 75.2301 124.185 74.5549L123.559 74.1698C123.872 73.2704 124.054 72.3198 124.09 71.3462L124.928 71.1474C126.182 70.8485 126.956 69.5905 126.657 68.3365C126.36 67.0824 125.102 66.3077 123.847 66.606ZM121.182 69.3796C122.071 73.1123 119.764 76.8606 116.031 77.7491C112.299 78.6376 108.55 76.3301 107.662 72.598C106.773 68.8629 109.081 65.1164 112.813 64.2278C116.546 63.3399 120.293 65.6445 121.182 69.3796Z" fill="#CBECFF"/>
<path d="M110.15 72.0058C110.712 74.3656 113.08 75.8236 115.439 75.2622C117.799 74.7007 119.259 72.3317 118.697 69.9719C118.135 67.6121 115.764 66.153 113.405 66.7144C111.046 67.2759 109.588 69.6461 110.15 72.0058Z" fill="#CBECFF"/>
<path d="M294.174 89.9004L293.251 90.1475C292.669 89.0217 291.927 88.0073 291.064 87.1303L291.624 86.1613C292.461 84.7131 291.966 82.8602 290.518 82.0234C289.069 81.1866 287.217 81.682 286.38 83.1303L285.902 83.9579C284.724 83.582 283.487 83.3797 282.225 83.3705C282.224 83.3705 282.223 83.3705 282.223 83.3705L281.934 82.2889C281.502 80.6728 279.841 79.713 278.226 80.1458C276.61 80.5774 275.65 82.2383 276.082 83.8539L276.33 84.7768C275.204 85.359 274.189 86.1004 273.312 86.9636L272.344 86.4033C270.895 85.5665 269.043 86.0619 268.206 87.5102C267.369 88.9585 267.865 90.8108 269.313 91.6481L270.14 92.1263C269.764 93.305 269.562 94.5418 269.552 95.805L268.471 96.0952C266.855 96.5268 265.896 98.1878 266.328 99.8033C266.76 101.419 268.421 102.379 270.036 101.947L270.958 101.7C271.541 102.826 272.282 103.84 273.145 104.717L272.585 105.686C271.749 107.134 272.244 108.987 273.692 109.824C275.141 110.661 276.993 110.165 277.83 108.717L278.306 107.892C278.307 107.892 278.307 107.892 278.308 107.892C279.485 108.266 280.724 108.468 281.988 108.48L282.276 109.558C282.708 111.175 284.369 112.134 285.985 111.702C287.601 111.269 288.56 109.609 288.128 107.994L287.881 107.072C289.007 106.489 290.021 105.748 290.898 104.884L291.867 105.444C293.315 106.281 295.167 105.785 296.004 104.337C296.841 102.889 296.345 101.036 294.898 100.199L294.073 99.7222C294.446 98.5447 294.647 97.3044 294.66 96.0406L295.739 95.7521C297.355 95.32 298.314 93.6596 297.882 92.0435C297.449 90.428 295.789 89.4682 294.174 89.9004ZM290.816 93.5941C292.103 98.4039 289.245 103.349 284.435 104.636C279.625 105.922 274.68 103.064 273.393 98.2544C272.106 93.4412 274.965 88.4987 279.775 87.2125C284.585 85.9257 289.529 88.7809 290.816 93.5941Z" fill="#CBECFF"/>
<path d="M276.599 97.3971C277.413 100.438 280.537 102.244 283.578 101.43C286.619 100.617 288.427 97.4919 287.613 94.4511C286.8 91.4097 283.672 89.6023 280.632 90.4155C277.591 91.2287 275.786 94.3563 276.599 97.3971Z" fill="#CBECFF"/>
<path d="M336.227 203.919H20.2285C14.5063 204.157 6.70043 205.883 6.47245 207.403C6.21362 209.129 14.8904 209.777 21.4568 209.863C35.8379 210.052 50.2193 210.242 64.6004 210.431C65.9193 210.448 67.2997 210.47 68.43 210.65C71.5603 211.146 70.5454 212.498 67.6726 213.093C64.7998 213.688 60.9541 213.81 57.5124 214.136C54.0712 214.461 50.5546 215.195 50.78 216.153C51.0863 217.458 57.4374 217.919 62.4028 218.008C83.0958 218.377 103.901 218.308 124.553 217.804C133.257 217.591 143.148 217.398 149.587 218.951C151.445 219.399 152.888 219.972 155.014 220.33C171.456 223.095 198.838 221.268 216.566 221.477C235.274 221.699 254.37 221.908 272.377 220.557C277.397 220.18 282.859 219.538 284.584 218.244C286.417 216.868 283.245 215.423 280.812 214.113C278.379 212.803 276.939 211.015 281.127 210.058C283.35 209.55 286.51 209.457 289.455 209.433C304.164 209.313 319.637 210.294 333.159 208.769C340.426 207.95 339.957 205.751 336.227 203.919Z" fill="#D8F3FF"/>
<path d="M65.0801 183.503H6.10352V156.875L65.0801 86.7661H93.2966V158.385H107.922V183.503H93.2966V205.283H65.0801V183.503ZM65.0801 158.385V121.712L33.9177 158.385H65.0801Z" fill="#0063E2"/>
<path d="M107.922 158.385H101.853V183.503H107.922V158.385Z" fill="#7EBFFF"/>
<path d="M93.2967 86.7661H87.2275V158.385H93.2967V86.7661Z" fill="#7EBFFF"/>
<path d="M33.9178 158.385L65.0801 122.575V115.433L27.8486 158.385H33.9178Z" fill="#7EBFFF"/>
<path d="M93.2967 183.503H87.2275V205.283H93.2967V183.503Z" fill="#7EBFFF"/>
<path d="M304.058 183.503H245.081V156.875L304.058 86.7661H332.274V158.385H346.899V183.503H332.274V205.283H304.058V183.503ZM304.058 158.385V121.712L272.895 158.385H304.058Z" fill="#0063E2"/>
<path d="M346.899 158.385H340.83V183.503H346.899V158.385Z" fill="#7EBFFF"/>
<path d="M332.274 86.7661H326.205V158.385H332.274V86.7661Z" fill="#7EBFFF"/>
<path d="M272.895 158.385L304.058 122.575V115.433L266.826 158.385H272.895Z" fill="#7EBFFF"/>
<path d="M332.274 183.503H326.205V205.283H332.274V183.503Z" fill="#7EBFFF"/>
<path d="M130.573 147.478C130.573 124.419 134.724 108.282 143.026 99.0681C151.329 89.8554 163.975 85.2485 180.967 85.2485C189.13 85.2485 195.832 86.2554 201.074 88.2686C206.314 90.2836 210.59 92.9031 213.899 96.1307C217.21 99.3577 219.816 102.75 221.719 106.309C223.622 109.867 225.153 114.019 226.311 118.763C228.573 127.812 229.704 137.246 229.704 147.065C229.704 169.077 225.981 185.186 218.533 195.392C211.086 205.599 198.26 210.702 180.056 210.702C169.849 210.702 161.603 209.074 155.314 205.819C149.025 202.565 143.867 197.792 139.84 191.503C136.915 187.034 134.64 180.925 133.013 173.173C131.386 165.423 130.573 156.858 130.573 147.478ZM164.003 147.562C164.003 163.009 165.368 173.56 168.099 179.214C170.83 184.87 174.788 187.696 179.973 187.696C183.393 187.696 186.358 186.496 188.869 184.097C191.378 181.696 193.226 177.904 194.413 172.718C195.598 167.533 196.192 159.45 196.192 148.472C196.192 132.363 194.827 121.535 192.096 115.991C189.365 110.447 185.269 107.674 179.808 107.674C174.235 107.674 170.209 110.502 167.727 116.156C165.245 121.812 164.003 132.281 164.003 147.562Z" fill="#0063E2"/>
<path d="M176.135 108.15C174.991 107.837 173.772 107.675 172.474 107.675C166.901 107.675 162.875 110.503 160.392 116.157C157.91 121.813 156.669 132.281 156.669 147.562C156.669 163.009 158.034 173.56 160.765 179.214C163.496 184.87 167.453 187.697 172.639 187.697C173.94 187.697 175.175 187.522 176.344 187.174C172.901 186.121 170.153 183.468 168.098 179.214C165.368 173.56 164.002 163.009 164.002 147.562C164.002 132.281 165.244 121.813 167.726 116.156C169.624 111.833 172.429 109.167 176.135 108.15Z" fill="#7EBFFF"/>
<path d="M226.311 118.763C225.153 114.019 223.622 109.867 221.718 106.309C219.816 102.751 217.209 99.3577 213.899 96.1307C210.589 92.9031 206.314 90.2836 201.073 88.2686C195.831 86.256 189.129 85.2485 180.966 85.2485C179.73 85.2485 178.52 85.2755 177.331 85.3244C183.841 85.5888 189.313 86.5686 193.74 88.2686C198.98 90.2836 203.256 92.9031 206.565 96.1307C209.875 99.3577 212.481 102.751 214.385 106.309C216.288 109.867 217.819 114.019 218.978 118.763C221.239 127.812 222.371 137.246 222.371 147.065C222.371 169.077 218.647 185.186 211.199 195.393C204.262 204.9 192.656 209.976 176.387 210.628C177.58 210.677 178.803 210.702 180.055 210.702C198.259 210.702 211.086 205.6 218.533 195.393C225.98 185.186 229.703 169.077 229.703 147.065C229.704 137.246 228.572 127.812 226.311 118.763Z" fill="#7EBFFF"/>
<path d="M181.994 72.1655C182.031 75.558 181.527 78.6252 180.458 81.6678C180.259 82.2396 180.038 82.8109 179.798 83.3821L180.075 85.2212H174.763L178.192 83.1752C178.27 82.6867 178.334 82.1815 178.391 81.6683C178.752 78.1925 178.598 74.3522 178.494 72.6212C178.458 71.9948 178.556 71.3706 178.779 70.7827C179.703 68.3752 182.185 61.6971 182.985 57.5669H188.816C189.815 64.1758 187.123 67.0252 181.994 72.1655Z" fill="#F9CBCB"/>
<path d="M186.234 67.6018C185.117 69.0185 183.69 70.4679 181.995 72.1656C182.031 75.5587 181.798 79.411 180.729 82.453L178.073 82.3151C178.434 78.8392 177.824 73.0329 178.367 70.8352C178.986 68.3323 182.185 61.6967 182.985 57.5669H188.816C189.485 61.9926 188.5 64.7334 186.234 67.6018Z" fill="#1F1C80"/>
<path d="M186.236 67.5906L186.234 67.6015C185.117 69.0182 183.69 70.4676 181.994 72.1653C182.03 75.5584 181.798 79.4107 180.729 82.4527L179.941 82.4119C181.05 79.547 181.358 75.7935 181.232 71.9676C187.024 67.2498 183.179 65.5504 184.98 62.1309L186.236 67.5906Z" fill="#13106B"/>
<path d="M178.192 83.1753C176.914 83.8299 174.684 83.6483 174.553 85.2207H180.075C180.137 84.4805 180.101 83.7862 179.884 83.1753C179.353 83.2695 178.789 83.2684 178.192 83.1753Z" fill="#1F1C80"/>
<path d="M193.816 82.9334C194.046 83.4316 194.263 83.8937 194.486 84.3788C193.002 84.7328 191.52 85.088 190.037 85.4437C190.934 84.6983 191.838 83.9673 192.731 83.2127C192.389 82.519 191.973 81.5403 191.601 80.9121C190.115 78.3966 188.434 76.169 186.732 73.8207C186.328 73.2621 186.066 72.7225 185.941 71.9937C185.148 67.369 185.248 62.5989 184.415 57.965C185.732 57.76 187.045 57.5619 188.361 57.3608C192.027 63.088 191.251 66.142 189.714 72.2891C191.539 74.7592 192.545 77.5495 193.277 80.5334C193.427 81.1483 193.684 82.2483 193.816 82.9334Z" fill="#F9CBCB"/>
<path d="M185.946 71.9995C186.075 72.7293 186.286 73.2 186.745 73.842C188.673 76.5414 190.185 79.6133 191.882 82.4771C192.615 82.3104 193.337 82.1362 194.065 81.9667C193.222 78.6253 191.808 75.0885 189.714 72.2914C191.25 66.1408 192.028 63.0926 188.363 57.3646C188.363 57.3627 188.362 57.3614 188.361 57.3599C186.865 57.5884 185.37 57.8169 183.874 58.0449C183.895 58.1587 183.916 58.2719 183.937 58.3857C183.937 58.388 183.937 58.3931 183.937 58.396C184.734 62.9115 185.15 67.488 185.946 71.9995Z" fill="#1F1C80"/>
<path d="M184.783 58.573C185.263 59.2488 184.81 60.6028 185.337 61.3396C186.701 63.2465 188.535 61.8327 189.716 62.6017C191.724 63.9086 189.494 69.8684 189.052 71.4816C189.039 71.5304 188.728 72.604 188.524 72.5816C189.451 72.6931 189.123 72.0396 190.306 74.0483C190.84 74.954 193.604 80.2437 193.708 81.9218C193.945 82.1517 193.929 81.9212 194.066 81.9689C193.221 78.6224 191.809 75.0902 189.715 72.2914C191.25 66.1414 192.029 63.0925 188.363 57.3647C186.905 57.6985 185.084 57.4747 183.661 57.8049C183.493 57.8438 184.47 58.1327 184.783 58.573Z" fill="#13106B"/>
<path d="M192.499 82.7642C191.251 83.6383 189.521 83.8987 189.406 85.5941C191.128 85.182 192.849 84.7688 194.57 84.3579C194.423 83.659 194.122 83.0716 193.728 82.4751C193.349 82.8015 192.989 82.8722 192.499 82.7642Z" fill="#1F1C80"/>
<path d="M174.721 43.9283C174.751 43.9783 174.896 44.2808 174.926 44.3809C175.276 44.1706 175.587 43.9042 175.921 43.6673C175.825 43.5734 175.635 43.3208 175.639 43.2023C175.653 42.8114 175.906 42.2608 175.613 41.9835C175.32 41.7062 175.182 42.3666 175.161 42.5554C174.702 42.0385 174.704 41.8758 174.312 41.1963C173.269 39.3892 174.393 43.3908 174.721 43.9283Z" fill="#F9CBCB"/>
<path d="M174.689 44.1875C175.392 45.9175 176.163 48.235 177.925 49.03C179.928 49.9341 181.629 48.9402 183.631 48.9509C183.938 47.4488 184.294 46.0023 184.615 44.5205C182.422 44.8265 180.746 46.0202 178.837 47.0479C177.682 45.9447 176.843 44.658 175.973 43.3276C175.543 43.6127 175.114 43.8783 174.689 44.1875Z" fill="#4A9DFF"/>
<path d="M175.123 43.9136C175.825 45.6776 177.332 48.4472 178.05 48.9444C178.625 49.3431 181.761 48.8399 183.627 48.9291C183.635 48.8982 183.625 48.9244 183.631 48.9498C181.628 48.9423 178.766 50.0325 177.828 49.4904C176.653 48.8108 175.393 45.916 174.689 44.187C174.823 44.0627 174.978 43.9849 175.123 43.9136Z" fill="#33AFF5"/>
<path d="M181.367 50.4365L182.984 57.5726H188.816C188.816 57.5726 189.781 50.7125 188.301 47.1188C187.635 45.4998 185.447 44.8008 185.31 44.7575L185.304 44.7549L183.677 44.8485L181.367 50.4365Z" fill="#F9CBCB"/>
<path d="M181.435 50.7293L182.798 56.7452C182.908 57.23 183.333 57.5736 183.822 57.5736C184.668 57.9627 185.871 57.8294 187.157 57.5736C188.118 57.5736 188.917 56.8261 188.996 55.8538C189.181 53.5824 189.315 49.5831 188.3 47.1183C187.778 45.8523 186.325 45.1476 185.653 44.8809C185.441 44.7969 185.216 44.7554 184.988 44.7554L183.73 44.7582C183.538 44.7582 181.395 50.1392 181.395 50.1392C181.378 50.3369 181.391 50.5358 181.435 50.7293Z" fill="white"/>
<path d="M181.613 57.9458H187.801V57.0273H181.613V57.9458Z" fill="#182F57"/>
<path d="M184.051 61.109C183.972 61.3987 183.74 61.6205 183.452 61.7027C183.094 61.8079 182.716 61.8194 182.319 61.7625C182.302 61.7596 182.288 61.7567 182.271 61.7539C181.981 61.7085 181.678 61.6234 181.37 61.5125L181.367 52.6153C181.367 52.6153 181.33 50.9799 181.367 50.4365C181.536 48.0383 181.297 45.2174 183.577 44.7674C183.687 44.7456 183.735 44.7549 183.735 44.7549C181.995 52.119 184.876 58.0527 184.051 61.109Z" fill="#4A9DFF"/>
<path d="M190.542 61.9879C189.319 62.2546 187.949 62.1328 186.897 61.9833C186.012 61.858 185.384 61.0563 185.448 60.1517C185.815 55.0891 184.359 50.1297 185.304 44.7549L185.31 44.7578C185.447 44.8005 187.645 45.4952 188.301 47.1183C189.534 50.1709 190.016 56.9315 190.957 61.3247C191.021 61.6236 190.837 61.9241 190.542 61.9879Z" fill="#4A9DFF"/>
<path d="M189.592 57.8151C188.709 57.9863 187.791 57.9937 186.829 57.8151V57.3926C187.663 57.5215 188.588 57.5163 189.592 57.3926V57.8151Z" fill="#7549EB"/>
<path d="M190.437 58.2719C190.437 58.2719 190.538 57.9435 190.721 57.605L189.604 57.1631C189.604 57.1631 189.516 57.7228 189.37 57.817C189.131 57.9714 188.604 58.1541 188.393 58.5035C188.181 58.8524 189.083 58.5627 189.083 58.5627C189.083 58.5627 188.937 59.449 188.456 60.0294C187.975 60.6093 189.672 61.1668 190.437 58.2719Z" fill="#F9CBCB"/>
<path d="M189.434 57.4211L190.794 58.0018C191.49 56.7182 193.082 53.2094 193.189 51.8251C193.323 50.0754 187.586 46.0771 187.586 46.0771L186.142 48.7157C187.646 50.6366 190.201 52.0321 190.201 52.0321L189.434 57.4211Z" fill="#4A9DFF"/>
<path d="M186.232 48.7041C188.748 50.8691 190.511 51.9141 190.503 51.743L189.806 57.5804L189.433 57.4212L190.2 52.0319C188.827 51.225 187.504 50.1187 186.232 48.7041Z" fill="#33AFF5"/>
<path d="M184.68 43.6202C184.68 43.6202 186.072 43.6155 186.406 41.9955C186.74 40.3754 185.412 39.7993 184.54 39.8105C183.329 39.8261 182.706 38.9385 182.706 38.9385C182.706 38.9385 181.932 39.9934 182.377 40.9191C182.763 41.7216 184.68 43.6202 184.68 43.6202Z" fill="#1F1C80"/>
<path d="M183.605 42.855L183.637 43.3226L183.719 44.5772L183.731 44.7683C183.756 45.7639 185.228 45.3517 185.304 44.7559L185.062 43.7654L184.884 43.0397L184.822 42.785L184.716 42.3525L183.605 42.855Z" fill="#F9CBCB"/>
<path d="M183.637 43.3221L183.719 44.5767C184.09 44.5004 184.651 44.3277 184.936 43.9415C184.98 43.8821 185.022 43.8233 185.062 43.7646L184.885 43.0389L184.823 42.7842L183.637 43.3221Z" fill="#F0B4B4"/>
<path d="M183.075 40.7257C182.836 40.5778 182.526 40.7522 182.512 41.0361C182.462 42.0576 182.508 43.716 183.308 43.9865C184.477 44.382 185.312 42.8372 185.312 42.8372C185.312 42.8372 185.813 42.1219 185.46 41.877C185.108 41.6322 184.774 42.2344 184.774 42.2344C184.716 41.0994 183.774 41.1583 183.075 40.7257Z" fill="#F9CBCB"/>
<path d="M150.619 39.0249C150.601 40.4579 150.596 41.8941 150.608 43.3274C151.211 43.3071 152.285 43.2716 152.769 43.2555C153.253 43.2394 152.844 43.2532 153.276 43.2387C153.708 43.2242 153.621 43.2275 154.32 43.2039C155.02 43.1806 153.249 43.2402 155.088 43.1782C156.928 43.1165 160.145 43.0061 163.749 42.8727C167.354 42.7394 174.036 42.4574 178.214 42.3075C178.353 41.6454 178.354 41.0063 178.219 40.3423C174.041 40.1342 167.364 39.8539 163.756 39.6819C160.149 39.5097 156.908 39.3481 155.065 39.2542C153.223 39.1603 154.995 39.25 154.295 39.2142C153.596 39.1785 153.683 39.1826 153.252 39.1605C152.821 39.1385 153.223 39.159 152.744 39.1343C152.266 39.11 151.214 39.0558 150.619 39.0249Z" fill="#FFD6B0"/>
<path d="M153.277 42.6833C153.709 42.6691 153.622 42.6724 154.321 42.6489C155.02 42.6252 153.25 42.6852 155.089 42.6232C156.928 42.5611 160.147 42.4497 163.75 42.316C167.355 42.1825 174.036 41.8982 178.215 41.748C178.351 41.9296 178.351 42.1161 178.214 42.3072C174.035 42.4572 167.354 42.7391 163.749 42.8727C160.145 43.0065 156.927 43.116 155.088 43.1782C153.248 43.2405 155.019 43.1803 154.32 43.2039C153.621 43.2275 153.708 43.2241 153.276 43.2387C152.844 43.2532 153.253 43.2394 152.768 43.2555C152.284 43.2716 151.21 43.3071 150.608 43.3274C150.593 43.1427 150.593 42.9578 150.609 42.7721C151.212 42.7521 152.286 42.7163 152.77 42.7002C153.254 42.6841 152.845 42.6979 153.277 42.6833Z" fill="#F5BCA4"/>
<path d="M178.733 39.8604C178.974 39.8619 179.152 40.0085 179.156 40.2946C179.164 40.9041 179.162 41.6895 179.151 42.2988C179.146 42.5846 178.967 42.7288 178.726 42.727C178.484 42.7254 178.307 42.5789 178.303 42.2928C178.295 41.6832 178.297 40.8981 178.308 40.2889C178.312 40.0028 178.491 39.8586 178.733 39.8604Z" fill="#CC8027"/>
<path d="M150.11 41.172C150.109 41.6591 150.102 43.2641 150.818 43.2693C151.536 43.2747 151.537 41.6713 151.538 41.1842C151.539 40.6971 151.547 39.0921 150.83 39.0869C150.113 39.0818 150.111 40.6849 150.11 41.172Z" fill="white"/>
<path d="M149.911 41.1701C149.912 40.5409 149.947 38.8819 150.83 38.8887C151.713 38.8954 151.738 40.5572 151.737 41.1862C151.735 41.8152 151.701 43.4744 150.818 43.4677C149.935 43.4606 149.91 41.7991 149.911 41.1701ZM150.309 41.1737C150.309 41.521 150.286 43.0581 150.819 43.062C151.352 43.0659 151.338 41.5291 151.339 41.1821C151.34 40.835 151.362 39.2974 150.829 39.2938C150.296 39.2904 150.31 40.8264 150.309 41.1737Z" fill="#CC8027"/>
<path d="M152.833 43.2534C152.969 43.2491 153.104 43.2446 153.239 43.24C153.392 41.8668 153.383 40.5301 153.215 39.1587C153.079 39.152 152.943 39.1447 152.808 39.1377C152.984 40.5215 152.993 41.8679 152.833 43.2534Z" fill="white"/>
<path d="M154.253 43.2063C154.388 43.2019 154.523 43.1973 154.659 43.1928C154.802 41.8607 154.794 40.5623 154.634 39.2322C154.499 39.2255 154.363 39.2179 154.228 39.2109C154.394 40.5535 154.403 41.8617 154.253 43.2063Z" fill="white"/>
<path d="M165.113 39.5498C164.954 40.6895 164.951 41.8597 165.104 43.0015C168.315 42.8716 175.714 42.5414 177.937 42.4545C180.159 42.3676 178.131 42.447 178.958 42.4149C179.786 42.3824 179.287 42.4021 179.936 42.3765C179.897 41.6785 179.899 40.973 179.941 40.2755C179.292 40.2413 179.791 40.2672 178.963 40.2237C178.136 40.1801 180.164 40.2864 177.942 40.17C175.721 40.0533 168.323 39.7124 165.113 39.5498Z" fill="#FFB178"/>
<path d="M178.189 41.7123C178.19 41.2306 178.191 40.7492 178.192 40.2676C178.229 40.2696 178.266 40.2712 178.302 40.2736C178.301 40.9749 178.299 41.676 178.297 42.3773C173.329 42.5718 168.362 42.8073 163.394 43.0055C163.395 42.7835 163.395 42.5615 163.395 42.3395C168.327 42.1431 173.257 41.905 178.189 41.7123Z" fill="#F09867"/>
<path d="M163.564 39.2022C163.734 39.203 163.895 39.2865 163.896 39.4994C163.9 40.7021 163.896 41.9832 163.886 43.1856C163.884 43.3986 163.723 43.48 163.553 43.479C163.383 43.478 163.222 43.3944 163.222 43.1818C163.217 41.9793 163.221 40.6985 163.231 39.4958C163.233 39.2828 163.394 39.2011 163.564 39.2022Z" fill="white"/>
<path d="M176.877 40.1987C176.876 40.9436 176.873 41.6883 176.871 42.4332C177.056 42.4262 177.241 42.4187 177.426 42.4117C177.427 41.6836 177.429 40.9559 177.431 40.228C177.246 40.2182 177.061 40.2083 176.877 40.1987Z" fill="white"/>
<path d="M209.937 217.168H221.423L222.426 211.723L222.538 211.118L223.585 205.426L223.697 204.821L224.746 199.128L224.858 198.522L225.906 192.83L226.018 192.224L227.067 186.533L227.177 185.927L228.159 180.596L228.272 179.991L229.387 173.936L229.498 173.331L230.725 166.673H237.022L238.248 173.331L238.36 173.936L239.475 179.991L239.587 180.596L240.569 185.927L240.68 186.533L241.728 192.224L241.84 192.83L242.888 198.522L243 199.128L244.049 204.821L244.161 205.426L245.208 211.118L245.32 211.723L246.324 217.168H257.81L256.792 211.723L256.678 211.118L255.614 205.426L255.501 204.821L254.435 199.128L254.322 198.522L253.258 192.83L253.145 192.224L252.08 186.533L251.968 185.927L250.971 180.596L250.857 179.991L249.724 173.936L249.612 173.331L248.366 166.673H248.727V165.728H219.088V166.673H219.38L218.135 173.331L218.023 173.936L216.89 179.991L216.776 180.596L215.779 185.927L215.667 186.533L214.602 192.224L214.489 192.83L213.425 198.522L213.311 199.128L212.246 204.821L212.132 205.426L211.069 211.118L210.955 211.723L209.937 217.168ZM245.936 211.723H256.178L257.083 216.563H246.828L245.936 211.723ZM244.776 205.426H254.999L256.064 211.118H245.824L244.776 205.426ZM243.615 199.128H253.822L254.887 204.821H244.664L243.615 199.128ZM242.455 192.83H252.643L253.708 198.523H243.505L242.455 192.83ZM241.295 186.533H251.466L252.529 192.225H242.344L241.295 186.533ZM240.202 180.596H250.355L251.352 185.928H241.183L240.202 180.596ZM238.974 173.937H249.109L250.241 179.991H240.09L238.974 173.937ZM237.637 166.674H247.751L248.997 173.331H238.863L237.637 166.674ZM228.885 173.331H218.751L219.996 166.674H230.111L228.885 173.331ZM227.657 179.991H217.506L218.638 173.937H228.773L227.657 179.991ZM226.564 185.928H216.395L217.392 180.596H227.546L226.564 185.928ZM225.403 192.225H215.218L216.282 186.533H226.452L225.403 192.225ZM224.242 198.523H214.039L215.104 192.83H225.292L224.242 198.523ZM223.083 204.821H212.86L213.925 199.128H224.132L223.083 204.821ZM221.923 211.118H211.683L212.748 205.426H222.971L221.923 211.118ZM220.919 216.563H210.665L211.569 211.723H221.81L220.919 216.563Z" fill="#1F1C80"/>
<path d="M228.682 134.851C228.682 134.851 225.551 132.727 224.897 131.856C224.109 130.806 223.585 127.717 223.585 127.717C222.82 127.332 222.388 126.537 222.624 125.72C222.781 125.174 223.387 126.589 223.84 126.684C223.84 126.684 224.004 125.473 224.263 125.859C224.561 126.3 224.421 127.388 224.421 127.388L226.333 130.602L230.103 133.078L228.682 134.851Z" fill="#F7C1CE"/>
<path d="M227.241 134.155L228.055 131.34L230.369 132.514C230.369 132.514 230.64 134.028 230.632 134.155C230.623 134.282 230.157 135.248 230.157 135.248L227.241 134.155Z" fill="#F0C171"/>
<path d="M229.462 127.276C229.04 127.703 227.937 128.976 228.153 129.99C228.369 131.005 229.674 131.24 229.674 131.24L231.127 128.679L229.462 127.276Z" fill="#F7C1CE"/>
<path d="M241.326 157.721C241.26 157.041 241.041 155.693 240.879 155.645C240.722 155.599 238.215 156.631 236.802 156.897C235.256 157.188 233.133 157.838 232.02 156.569C229.624 153.838 228.408 150.076 227.802 146.538C228.863 145.953 229.924 145.388 230.992 144.822C235.655 148.245 233.372 150.238 234.334 154.795C235.45 154.901 236.419 154.948 237.575 154.831C238.591 154.728 239.821 154.597 240.878 154.548C241.169 154.404 241.368 154.478 241.666 154.524C241.876 155.376 242.375 157.283 241.326 157.721Z" fill="#F7C1CE"/>
<path d="M240.994 154.471C241.417 154.375 241.845 154.435 242.254 154.518C242.326 154.532 242.32 154.556 242.317 154.617C242.306 154.822 242.273 155.062 242.252 155.272C242.247 155.316 242.248 155.317 242.201 155.343C242.07 155.415 242.065 155.541 242.104 155.728C242.217 156.27 242.069 157.436 241.922 157.845C241.413 159.262 241.192 157.368 241.18 156.799C241.966 155.908 241.633 155.301 240.994 154.471Z" fill="#1F1C80"/>
<path d="M231.22 164.078C231.364 164.868 231.223 164.863 230.879 165.281C229.684 165.401 228.296 165.412 228.415 164.784C229.237 164.53 230.07 164.247 230.152 163.98C230.341 163.363 229.727 160.533 229.162 158.816C228.857 157.887 228.502 156.959 228.122 156.022C227.921 155.532 227.791 155.012 227.745 154.482C227.387 150.468 227.546 146.381 228.17 142.564H231.611C233.485 146.676 230.085 149.687 230.393 155.401C230.777 156.548 231.062 157.686 231.236 158.816C231.495 160.506 231.5 162.424 231.22 164.078Z" fill="#F7C1CE"/>
<path d="M231.253 164.289C231.432 165.006 231.33 165.421 231.169 165.82L230.342 165.819C230.342 165.819 230.205 165.48 230.027 165.548C229.21 165.861 227.644 166.044 227.393 165.641C227.17 165.285 228.415 164.784 228.415 164.784C228.788 165.393 229.699 165.12 231.253 164.289Z" fill="#1F1C80"/>
<path d="M237.408 152.504C237.408 152.504 236.44 153.575 235.53 153.353C235.53 153.353 234.522 154.881 232.939 153.826C231.738 154.568 230.54 154.568 229.34 153.826C227.758 154.881 226.748 153.353 226.748 153.353C225.838 153.575 224.87 152.504 224.87 152.504C225.739 148.415 227.742 145.311 227.892 142.147L233.022 142.233C234.369 143.573 234.641 149.098 237.408 152.504Z" fill="#1F1C80"/>
<path d="M226.864 133.606L226.388 136.622C226.388 136.622 226.158 136.461 225.798 136.194L226.69 133.461C226.748 133.509 226.806 133.557 226.864 133.606Z" fill="#F7C1CE"/>
<path d="M233.263 142.565C231.98 138.113 232.707 135.981 230.342 133.56C229.828 134.157 229.042 134.198 226.864 133.606L226.388 136.622C227.404 138.179 228.685 139.042 228.169 142.565H233.263Z" fill="#3E3279"/>
<path d="M233.432 142.932C231.391 143.234 229.713 142.523 228.412 142.663C228.275 142.678 228.141 142.702 228.011 142.739C227.74 142.811 227.46 142.603 227.508 142.327C227.943 139.892 227.626 138.695 227.046 137.91L227.041 137.904C226.652 137.377 226.14 137.034 225.658 136.623L225.798 136.195L226.691 133.461L226.732 133.337C229.52 134.627 229.643 133.114 230.158 132.514C231.162 133.542 231.751 134.758 232.195 136.159C232.605 137.46 232.89 138.918 233.265 140.533C233.411 141.148 233.567 141.783 233.749 142.443C233.809 142.668 233.662 142.898 233.432 142.932Z" fill="#FFD182"/>
<path d="M228.632 140.714L228.411 142.664C228.274 142.678 228.141 142.702 228.01 142.738C227.739 142.811 227.459 142.603 227.507 142.328C227.943 139.893 227.626 138.695 227.045 137.909L227.767 138.525C228.402 139.065 228.725 139.886 228.632 140.714Z" fill="#F0C171"/>
<path d="M233.265 140.533C232.907 140.652 232.474 140.632 232.261 140.603C231.49 140.499 230.781 139.546 230.523 139.031C230.183 138.351 228.256 138.676 228.179 137.133L232.193 136.159C232.605 137.46 232.89 138.918 233.265 140.533Z" fill="#F0C171"/>
<path d="M235.124 134.487C235.002 134.054 234.8 133.645 234.693 133.208C234.519 132.484 234.618 131.718 234.472 130.987C234.327 130.256 233.572 129.709 233.01 129.219C232.587 128.851 233.017 128.057 232.395 127.062C232.164 126.691 231.317 126.376 230.756 126.444C230.195 126.512 229.683 126.889 229.45 127.404C229.228 127.896 229.383 129.009 229.196 129.516C228.943 130.2 228.188 130.178 228.038 130.891C227.82 131.918 228.666 132.884 228.697 133.934C228.717 134.636 228.373 135.291 228.2 135.972C228.027 136.654 228.095 137.51 228.696 137.874C229.178 138.167 229.826 138.029 230.322 138.297C230.903 138.612 231.094 139.373 231.622 139.77C232.291 140.273 233.414 139.906 233.657 139.105C233.859 138.443 233.527 137.674 233.844 137.059C234.114 136.538 234.765 136.31 235.056 135.8C235.278 135.409 235.245 134.92 235.124 134.487Z" fill="#1F1C80"/>
<path d="M208.184 107.792C208.256 104.1 211.307 101.164 215 101.236C218.692 101.307 221.627 104.359 221.556 108.052C221.484 111.745 218.433 114.68 214.74 114.609C211.048 114.537 208.113 111.486 208.184 107.792Z" fill="#FFFBE8"/>
<path d="M211.721 101.045C207.912 102.772 206.212 107.262 207.932 111.053C209.651 114.845 214.148 116.525 217.956 114.798C221.764 113.071 223.464 108.581 221.745 104.79C220.026 100.998 215.529 99.3181 211.721 101.045ZM217.476 113.74C214.249 115.204 210.451 113.785 208.994 110.572C207.537 107.358 208.972 103.567 212.2 102.103C215.427 100.64 219.225 102.058 220.682 105.272C222.139 108.485 220.704 112.277 217.476 113.74Z" fill="#4880D5"/>
<path d="M218.446 113.973L217.011 114.624L217.659 116.054L219.095 115.403L218.446 113.973Z" fill="#4880D5"/>
<path d="M225.671 128.044C226.05 128.814 225.701 129.751 224.9 130.114C224.099 130.478 223.163 130.123 222.835 129.33L218.384 118.593L218.136 117.995L217.951 117.546L217.702 116.948L217.393 116.201L219.382 115.299L219.74 116.025L220.026 116.605L220.242 117.04L220.527 117.621L225.671 128.044Z" fill="#4880D5"/>
<path d="M219.899 116.323L217.823 117.264L217.569 116.654L219.607 115.73L219.899 116.323Z" fill="white"/>
<path d="M220.411 117.361L218.267 118.333L218.013 117.723L220.118 116.768L220.411 117.361Z" fill="white"/>
<path d="M210.677 105.6C209.84 107.421 210.371 109.087 210.194 109.108C209.984 109.132 208.913 106.848 209.868 104.946C210.808 103.073 213.227 102.536 213.347 102.731C213.457 102.91 211.589 103.614 210.677 105.6Z" fill="#A7A9AC"/>
<path d="M210.752 109.82C211.03 109.924 211.17 110.233 211.065 110.511C210.96 110.788 210.649 110.929 210.371 110.825C210.093 110.722 209.953 110.413 210.058 110.135C210.163 109.857 210.474 109.717 210.752 109.82Z" fill="#A7A9AC"/>
<path d="M226.691 133.462L225.797 136.194C224.606 135.313 221.995 133.287 221.613 132.173C220.96 130.275 221.198 125.265 221.198 125.265C220.694 124.641 220.225 123.417 220.752 122.617C221.265 121.835 221.375 123.501 221.964 124C221.964 124 222.796 122.821 222.644 123.773C222.493 124.725 222.156 125.235 222.156 125.235C222.823 126.929 223.082 128.756 223.372 130.788C224.513 131.669 225.617 132.56 226.691 133.462Z" fill="#F7C1CE"/>
<path d="M53.919 135.672C54.1896 135.433 54.5031 137.129 54.807 137.586C55.111 138.044 55.2064 136.774 55.4487 136.961C55.9646 137.361 55.4378 138.71 55.471 138.806C55.555 139.046 56.0976 139.61 56.0976 139.61C56.0976 139.61 54.9782 140.429 54.9175 140.214C54.8566 139.999 54.4699 139.255 54.1029 138.73C53.2743 137.547 53.6483 135.911 53.919 135.672Z" fill="#F7C1CE"/>
<path d="M63.8749 140.886C63.3221 142.245 60.8338 145.703 59.0046 145.887C57.0072 146.088 54.5586 139.881 54.5586 139.881L55.8901 139.066L58.7598 142.824C59.662 142.446 60.1809 138.968 61.7274 137.999C62.5808 137.463 64.6542 138.969 63.8749 140.886Z" fill="#F0C57A"/>
<path d="M55.3238 139.063L55.8705 138.775L53.9461 135.133L53.3994 135.422L55.3238 139.063Z" fill="#414C96"/>
<path d="M53.9942 136.132C54.3295 135.891 54.4918 137.855 54.7852 138.411C55.0785 138.966 55.3327 137.533 55.5866 137.774C56.1276 138.288 55.3737 139.762 55.4006 139.874C55.4686 140.158 56.0216 140.862 56.0216 140.862C56.0216 140.862 54.654 141.664 54.6096 141.413C54.565 141.162 54.2102 140.27 53.8525 139.632C53.046 138.191 53.6588 136.372 53.9942 136.132Z" fill="#F7C1CE"/>
<path d="M68.707 144.377C68.4605 143.789 68.0657 143.231 68.0663 142.593C68.0674 141.91 68.5277 141.302 68.5817 140.621C68.6605 139.617 67.8577 138.774 67.0525 138.168C66.6468 137.864 66.2014 137.551 66.0267 137.074C65.8118 136.485 66.0773 135.835 66.0595 135.208C66.0365 134.421 65.5187 133.67 64.7912 133.37C64.4159 133.215 63.9878 133.168 63.6648 132.921C63.3804 132.704 63.2212 132.364 62.989 132.091C62.3304 131.318 61.023 131.224 60.2593 131.893C59.4961 132.563 59.4197 133.871 60.1001 134.625C60.1076 137.176 60.68 139.427 61.6971 141.441C62.2661 142.433 62.4189 143.656 62.1109 144.758C61.9931 145.181 61.8092 145.598 61.8236 146.036C61.8466 146.701 62.3902 147.31 63.0482 147.408C64.2815 147.589 65.2578 146.193 66.5037 146.157C67.1744 146.137 67.9197 146.505 68.4714 146.124C68.9967 145.762 68.953 144.964 68.707 144.377Z" fill="#1F1C80"/>
<path d="M64.2572 154.107C63.5187 153.537 59.8414 151.392 58.4834 150.368C58.8696 149.908 60.4327 146.617 59.6988 144.054C58.8765 141.18 61.2235 138.413 61.2235 138.413L63.0199 137.773C63.0199 137.773 65.8312 138.654 66.2237 141.769C66.6806 145.396 65.5013 150.306 64.2572 154.107Z" fill="#FFD182"/>
<path d="M63.0206 137.774C62.2241 138.418 61.4615 138.987 61.2241 138.413L61.1839 138.189L61.0046 137.141L60.9902 137.064L61.1431 136.93L62.5217 135.725L62.8953 137.256L63.0206 137.774Z" fill="#F7C1CE"/>
<path d="M62.8613 137.118C62.3504 137.623 61.643 138.082 61.1539 138.036L60.9746 136.988L61.1131 136.778L62.4918 135.572L62.8613 137.118Z" fill="#E8ACBA"/>
<path d="M62.5135 135.044C61.5572 135.253 60.4171 132.701 60.2429 133.567C59.839 135.578 60.1412 137.024 60.6492 137.264C61.4136 137.627 62.8365 136.922 62.9985 135.818C62.9985 135.818 63.795 135.31 63.5381 134.905C63.1847 134.347 62.5135 135.044 62.5135 135.044Z" fill="#F7C1CE"/>
<path d="M64.7256 143.205C63.9412 144.688 60.7138 148.337 58.611 148.337C56.3151 148.337 54.2402 140.994 54.2402 140.994L55.8485 140.219L58.6829 144.824C59.7529 144.497 60.7414 140.6 62.6125 139.674C63.6452 139.162 65.8318 141.113 64.7256 143.205Z" fill="#FFD996"/>
<path d="M44.414 154.964C43.7114 155.293 43.0856 155.528 42.3542 155.783C41.8871 155.347 41.3173 154.94 40.8447 154.51C41.4402 153.958 41.9945 153.374 42.535 152.769C43.1665 153.497 43.7811 154.239 44.414 154.964Z" fill="#F7C1CE"/>
<path d="M64.3574 153.855C63.6552 157.433 60.1864 158.252 57.813 157.945C55.7773 157.681 53.711 155.469 49.8728 152.316C48.007 153.734 45.6313 154.86 43.4366 155.632C42.7716 154.939 42.1421 154.078 41.8125 153.106C44.5838 151.09 48.8016 146.829 50.6262 147.048C54.6896 147.536 60.3732 151.805 64.3574 153.855Z" fill="#1F1C80"/>
<path d="M42.4557 155.771C42.3105 156.22 42.4308 156.321 42.2011 156.839C41.9715 157.357 41.6608 157.788 41.3879 158.385C41.2204 158.363 40.9548 158.257 40.7964 158.215C40.8892 157.513 40.9341 157.315 41.0023 156.617C40.6742 156.907 40.1156 157.351 39.844 157.615C39.5724 157.88 39.504 158.013 39.192 157.942C38.369 157.757 35.5596 156.872 35.6826 155.913C35.8055 154.954 37.9987 156.045 38.6548 155.657C39.311 155.27 40.0912 154.832 40.7616 154.445C41.3773 154.83 41.8317 155.404 42.4557 155.771Z" fill="#1F1C80"/>
<path d="M121.65 204.155C121.452 205.284 121.338 206.291 121.286 207.221C121.153 209.597 121.198 211.475 121.576 213.735L122.719 213.665C122.719 213.665 123.713 208.933 124.247 205.7C124.384 204.879 124.488 204.148 124.538 203.6C124.834 200.468 123.272 191.846 123.172 191.287L123.168 191.266L123.167 191.258L119.494 190.96C117.694 197.31 120.034 198.616 121.65 204.155Z" fill="#F1CCCD"/>
<path d="M115.098 213.327C115.206 212.832 116.787 209.131 118.282 206.974C118.64 206.458 118.974 206.009 119.254 205.679C121.259 203.325 123.221 190.804 123.221 190.804C123.221 190.804 120.239 190.562 120.24 190.563C117.667 193.247 117.942 197.258 117.551 201.161C117.415 202.514 116.99 203.798 116.347 204.893C116.218 205.114 116.096 205.339 115.979 205.569C115.162 207.18 114.369 209.445 113.562 213.073L115.098 213.327Z" fill="#F1CCCD"/>
<path d="M126.061 202.127C126.064 202.337 125.881 202.502 125.673 202.475C122.11 202.02 119.831 203.21 117.001 202.755C116.838 202.729 116.673 202.698 116.507 202.66C116.208 202.593 115.99 202.334 115.97 202.029C115.663 197.433 115.902 193.289 117.169 190.634H123.798C123.798 190.634 125.988 198.078 126.061 202.127Z" fill="#1F1C80"/>
<path d="M116.984 198.339C116.986 200.609 116.995 201.997 117.001 202.755C116.838 202.729 116.674 202.698 116.506 202.66C116.208 202.593 115.99 202.334 115.97 202.029C115.663 197.433 115.902 193.289 117.169 190.634H117.481L117.838 190.987C117.838 190.987 116.979 194.484 116.984 198.339Z" fill="#110E6B"/>
<path d="M122.652 174.922C122.656 174.398 122.498 173.851 122.114 173.495C121.638 173.055 120.906 172.993 120.284 173.174C119.662 173.355 119.124 173.741 118.599 174.12C117.779 174.714 116.903 175.387 116.659 176.37C116.377 177.509 117.038 178.754 116.644 179.859C116.361 180.652 115.612 181.161 115.008 181.746C114.403 182.331 113.892 183.221 114.25 183.983C114.658 184.85 115.93 184.992 116.4 185.827C116.696 186.354 116.593 187.022 116.828 187.578C117.07 188.15 117.69 188.54 118.31 188.509C118.931 188.479 119.51 188.032 119.695 187.439C119.82 187.043 119.779 186.608 119.91 186.214C120.112 185.608 120.672 185.209 121.102 184.736C122.132 183.601 122.425 181.852 121.631 180.452C122.28 179.256 122.579 177.962 122.161 176.464C122.498 175.955 122.647 175.445 122.652 174.922Z" fill="#1F1C80"/>
<path d="M126.554 183.203L128.405 183.865L129.812 179.933L127.96 179.271L126.554 183.203Z" fill="#1F1C80"/>
<path d="M123.966 186.451C123.966 186.451 124.096 189.104 125.482 189.219C126.644 189.318 127.979 184.856 128.896 183.68C129.779 182.548 130.281 181.634 129.68 181.275C128.091 180.327 128.003 181.943 127.941 183.18L126.082 186.054L124.127 180.983L123.966 186.451Z" fill="#F1CCCD"/>
<path d="M121.729 178.031C120.049 179.461 119.103 176.864 119.103 176.864C119.103 176.864 118.356 176.52 118.651 175.839C118.912 175.234 119.563 175.979 119.563 175.979C120.449 175.979 121.154 175.211 121.522 174.701C121.652 174.522 121.929 174.562 121.997 174.77C122.165 175.278 122.372 176.083 122.3 176.814C122.253 177.283 122.091 177.721 121.729 178.031Z" fill="#F1CCCD"/>
<path d="M112.704 196.695C113.415 196.871 114.149 195.76 114.149 195.76C114.149 195.76 114.438 196.481 114.659 196.153C114.88 195.822 114.523 194.931 114.523 194.931L114.728 194.258L117.009 186.766L116.845 181.199C115.399 181.81 114.077 191.106 113.7 193.98C113.631 194.508 113.595 194.819 113.595 194.819C113.595 194.819 111.939 196.504 112.704 196.695Z" fill="#F1CCCD"/>
<path d="M128.943 183.758C128.433 185.198 126.624 189.279 125.467 189.279C125.399 189.279 125.331 189.264 125.263 189.236C124.783 189.037 124.322 188.175 123.976 187.344C123.639 186.531 123.412 185.75 123.384 185.65L123.381 185.64C123.251 186.917 123.745 190.807 123.898 190.753C122.25 191.321 120.223 191.438 118.249 191.083L118.235 191.079C117.814 191.004 117.396 190.907 116.984 190.787C118.064 189.221 118.391 186.462 117.838 185.534C117.834 185.573 117.826 185.622 117.814 185.679C117.512 187.213 114.781 194.898 114.756 194.892C114.459 194.823 113.454 194.611 113.457 194.587C113.85 191.663 115.421 181.79 116.862 181.186L119.807 179.506C119.814 179.5 119.823 179.499 119.832 179.5L121.435 179.538C121.443 179.538 121.448 179.539 121.455 179.542C121.589 179.611 123.183 180.43 123.876 180.787C124.082 180.893 124.24 181.072 124.32 181.288L126.046 185.972C126.06 186.01 126.113 186.016 126.134 185.981L127.884 182.968C127.899 182.944 128.949 183.737 128.943 183.758Z" fill="#FDB448"/>
<path d="M121.424 179.537C120.796 180.382 120.253 180.267 119.768 179.503L119.939 177.952L121.167 178.044C121.208 178.19 121.372 179.287 121.424 179.537Z" fill="#F1CCCD"/>
<path d="M117.814 185.678L117.838 185.534C117.833 185.573 117.825 185.622 117.814 185.678Z" fill="#DB85B4"/>
<path d="M117.837 190.987L116.983 190.787C118.063 189.221 118.388 186.476 117.836 185.547L118.118 184.708C118.78 185.993 119.187 187.907 117.837 190.987Z" fill="#FFC531"/>
<path d="M125.263 189.236C124.783 189.038 124.323 188.174 123.977 187.345L123.384 185.651L123.381 185.641C123.638 184.617 123.586 184.107 123.454 183.248C124.089 184.335 123.878 188.118 125.263 189.236Z" fill="#FFC531"/>
<path d="M113.859 211.798L113.279 212.538L112.444 214.124L112.724 214.339L113.876 213.243L113.753 214.417C113.72 214.732 113.779 215.051 114.014 215.264C114.634 215.826 115.952 216.776 116.318 216.367C116.695 215.946 115.416 215.028 115.39 214.26C115.365 213.516 115.371 212.57 115.371 212.57L113.859 211.798Z" fill="#414C96"/>
<path d="M121.56 213.637L121.283 214.556L121.477 216.108L121.784 216.123L122.062 214.764L122.56 215.665C122.695 215.908 122.895 216.107 123.17 216.142C123.896 216.235 125.313 216.257 125.371 215.781C125.431 215.292 124.057 215.273 123.655 214.736C123.266 214.215 122.719 213.602 122.719 213.602L121.56 213.637Z" fill="#414C96"/>
<path d="M319.27 68.1439C319.239 67.9916 319.206 67.8365 319.127 67.7026C318.944 67.3917 318.506 67.2635 318.185 67.4279C318.162 67.4394 318.139 67.4526 318.113 67.4531C318.036 67.4549 318.007 67.3554 317.987 67.2802C317.907 66.9727 317.589 66.7675 317.272 66.7457C316.954 66.7233 316.643 66.8537 316.379 67.0296C316.187 67.1572 315.995 67.3439 316.006 67.5744C316.007 67.6106 316.014 67.6497 315.995 67.6807C315.981 67.7049 315.956 67.7192 315.933 67.7336C315.634 67.9152 315.43 68.2451 315.402 68.594C315.373 68.9422 315.544 69.6342 315.81 69.8629L318.461 70.3474C318.901 70.2974 319.233 69.8899 319.335 69.4595C319.437 69.029 319.357 68.5779 319.27 68.1439Z" fill="#1F1C80"/>
<path d="M320.747 77.3913L320.911 81.9258H313.837L313.265 77.8138L312.786 73.4666C313.407 72.9925 315.016 73.1195 316.477 73.1138L316.647 72.2454L316.742 71.7632H318.131L318.256 72.3264L318.442 73.154C319.459 73.0781 320.602 73.2275 321.157 73.4046L320.747 77.3913Z" fill="#F7C1CE"/>
<path d="M316.476 73.1125C315.016 73.1194 313.407 72.9929 312.786 73.4659L313.264 77.813L313.837 81.9257H320.91L320.746 77.3912L321.157 73.4038C320.601 73.2274 319.457 73.0774 318.441 73.1533C318.142 74.4337 316.477 74.1642 316.476 73.1125Z" fill="#FDB448"/>
<path d="M324.668 95.0868C324.803 93.631 324.557 91.7563 324.207 90.1149C323.81 88.254 323.278 86.6902 323.012 86.3649C322.401 85.6189 321.248 86.977 317.467 86.7609C313.684 86.977 312.531 85.6189 311.92 86.3649C311.664 86.6776 311.162 88.1391 310.771 89.9057C310.397 91.5965 310.125 93.5689 310.266 95.0868L310.66 96.3724L305.481 97.7235L308.625 95.0954C308.41 94.1161 308.173 92.0023 308.165 89.7316C308.155 86.4873 308.617 82.9276 310.301 81.9253C311.813 81.027 317.388 81.6218 317.388 81.6218C317.388 81.6218 323.12 81.027 324.631 81.9253C326.372 82.9609 326.807 86.7276 326.765 90.0557C326.738 92.2011 326.512 94.1638 326.309 95.0954L328.811 97.5569L324.272 96.3724L324.668 95.0868Z" fill="#F7C1CE"/>
<path d="M327.118 90.4804L323.878 90.8229C323.481 88.962 323.029 86.9901 322.762 86.6648C322.152 85.9189 321.248 86.9769 317.467 86.7608C313.685 86.9769 313.114 85.9189 312.503 86.6648C312.247 86.9769 311.607 89.2717 311.216 91.0384L307.761 90.6068C307.75 87.3625 308.618 82.9281 310.301 81.9258C311.813 81.0275 317.388 81.6223 317.388 81.6223C317.388 81.6223 323.12 81.0275 324.632 81.9258C326.373 82.9614 327.16 87.1528 327.118 90.4804Z" fill="#1F1C80"/>
<path d="M315.797 79.4088C315.801 79.4266 315.804 79.445 315.806 79.4622C315.649 79.4611 315.492 79.461 315.332 79.4593C315.552 79.2852 315.749 79.2013 315.797 79.4088Z" fill="#F7C1CE"/>
<path d="M316.934 79.4683C316.808 79.4666 316.68 79.4666 316.55 79.4655C316.628 79.354 316.765 79.3787 316.934 79.4683Z" fill="#F7C1CE"/>
<path d="M317.407 79.4705C317.28 79.4694 317.149 79.4677 317.018 79.4677C317.191 79.3769 317.33 79.3539 317.407 79.4705Z" fill="#F7C1CE"/>
<path d="M318.641 79.4763C318.483 79.4763 318.317 79.4751 318.146 79.4734C318.147 79.4521 318.151 79.4303 318.156 79.409C318.205 79.1958 318.414 79.2906 318.641 79.4763Z" fill="#F7C1CE"/>
<path d="M317.477 79.8194C317.475 80.1993 317.321 80.7366 316.978 81.1499C316.552 81.6636 315.836 81.9861 314.765 81.5774C314.517 81.4826 309.385 83.0619 308.465 80.8935C308.298 80.4993 308.317 79.9993 308.463 79.4447C309.1 77.0171 312.301 73.5516 312.912 73.3987C313.663 73.2102 313.265 77.8136 313.265 77.8136C313.265 77.8136 312.133 78.8085 311.917 79.4464C311.877 79.5659 311.867 79.6728 311.904 79.759C312.171 80.393 314.621 80.1907 314.621 80.1907C314.621 80.1907 315.002 79.7228 315.332 79.4596C315.552 79.2849 315.75 79.2016 315.797 79.409C315.801 79.4263 315.805 79.4453 315.806 79.4625C315.852 79.8269 315.514 80.1849 315.514 80.1849C315.791 80.2613 316.145 80.0453 316.477 79.8194C316.656 79.697 316.827 79.5734 316.976 79.4895C316.991 79.482 317.005 79.474 317.018 79.4682C317.191 79.3774 317.331 79.3539 317.407 79.4711C317.436 79.5125 317.456 79.5717 317.468 79.651C317.475 79.7027 317.477 79.759 317.477 79.8194Z" fill="#F7C1CE"/>
<path d="M325.488 80.8936C324.57 83.062 319.437 81.4827 319.189 81.5775C318.118 81.9867 317.403 81.6637 316.979 81.1499C316.634 80.7361 316.48 80.1993 316.478 79.8189C316.478 79.7585 316.48 79.7022 316.488 79.6505C316.499 79.5671 316.521 79.5068 316.551 79.4648C316.629 79.3539 316.765 79.3786 316.936 79.4677C316.95 79.4735 316.963 79.4804 316.977 79.489C317.127 79.5729 317.299 79.6982 317.478 79.8189C317.81 80.0453 318.162 80.2608 318.44 80.185C318.44 80.185 318.108 79.8332 318.146 79.4735C318.148 79.4516 318.152 79.4298 318.156 79.4085C318.206 79.1953 318.414 79.2907 318.642 79.4763C318.967 79.7413 319.333 80.1907 319.333 80.1907C319.333 80.1907 321.782 80.3919 322.051 79.7585C322.083 79.6827 322.081 79.593 322.055 79.4953C321.893 78.8861 320.767 77.9459 320.767 77.9459C320.767 77.9459 320.408 73.2154 321.158 73.4039C321.779 73.5579 324.945 77.1206 325.518 79.5511C325.638 80.0626 325.645 80.5246 325.488 80.8936Z" fill="#F7C1CE"/>
<path d="M313.674 77.593C313.674 77.593 312.283 78.824 312.067 79.4619C310.819 79.4591 309.262 79.2838 308.254 79.2866C309.732 75.9004 312.347 73.5884 312.938 73.3717C313.943 73.0027 313.674 77.593 313.674 77.593Z" fill="#FDB448"/>
<path d="M325.518 79.5508C324.498 79.5164 323.069 79.5008 322.055 79.4951C321.892 78.8859 320.504 77.7209 320.504 77.7209C320.504 77.7209 320.408 73.2152 321.157 73.4037C321.778 73.5577 324.945 77.1204 325.518 79.5508Z" fill="#FDB448"/>
<path d="M318.256 72.3259C318.029 72.411 317.765 72.4684 317.477 72.4638C317.115 72.4581 316.844 72.3633 316.646 72.2449L316.741 71.7627H318.131L318.256 72.3259Z" fill="#E3BABB"/>
<path d="M316.073 69.1711L316.106 69.6631C316.106 69.6631 315.546 69.2286 315.546 69.7918C315.546 70.355 316.092 70.5205 316.092 70.5205C316.092 70.5205 316.173 72.0964 317.448 72.0964C318.949 72.0964 318.786 70.6154 318.786 70.6154C318.786 70.6154 319.382 70.0694 319.217 69.7177C319.053 69.3659 318.644 69.7516 318.644 69.7516C318.347 68.8608 317.364 69.3108 316.605 68.4286C316.414 68.2062 316.073 68.8786 316.073 69.1711Z" fill="#F7C1CE"/>
<path d="M310.661 96.3731C310.792 95.8225 310.633 95.2886 310.257 94.9736L308.625 95.096C307.536 95.9886 305.797 96.092 305.63 97.6851L310.661 96.3731Z" fill="#1F1C80"/>
<path d="M324.292 96.4131C324.172 95.8631 324.318 95.3286 324.664 95.0137L326.31 95.0959C327.309 95.9884 329.305 96.1413 329.197 97.8424L324.292 96.4131Z" fill="#1F1C80"/>
<path d="M320.797 76.165H314.108C313.595 76.165 313.179 76.4886 313.179 76.8874V81.1691C313.179 81.5679 313.595 81.8915 314.108 81.8915H320.797C321.309 81.8915 321.725 81.5679 321.725 81.1691V76.8874C321.725 76.4886 321.31 76.165 320.797 76.165Z" fill="#B5BFFF"/>
<path d="M316.735 79.2865C316.735 78.9158 317.036 78.6152 317.407 78.6152C317.778 78.6152 318.078 78.9158 318.078 79.2865C318.078 79.6572 317.778 79.9578 317.407 79.9578C317.036 79.9578 316.735 79.6572 316.735 79.2865Z" fill="white"/>
<path d="M281.528 36.4907C280.92 36.4907 280.345 36.6152 279.836 36.8357C280.139 36.2417 280.308 35.5852 280.308 34.8953C280.308 32.225 277.792 30.0605 274.69 30.0605C271.587 30.0605 269.072 32.2253 269.072 34.8953C269.072 34.9573 269.073 35.019 269.076 35.0805C268.742 34.9612 268.376 34.8953 267.991 34.8953C266.749 34.8953 265.694 35.5842 265.313 36.542C265.095 36.5083 264.871 36.4907 264.642 36.4907C262.563 36.4907 260.878 37.9411 260.878 39.73C260.878 41.5189 262.563 42.9693 264.642 42.9693C265.859 42.9693 266.941 42.4721 267.629 41.701C268.315 42.4905 269.411 43.0018 270.645 43.0018C271.647 43.0018 272.557 42.6648 273.231 42.1155C273.906 42.6648 274.816 43.0018 275.818 43.0018C276.969 43.0018 277.999 42.5572 278.689 41.8572C279.379 42.5388 280.395 42.9696 281.528 42.9696C283.607 42.9696 285.292 41.5192 285.292 39.7303C285.292 37.9411 283.607 36.4907 281.528 36.4907Z" fill="#D8F3FF"/>
<path d="M40.6579 83.135C40.0494 83.135 39.4749 83.2597 38.9663 83.4798C39.269 82.8861 39.4371 82.2298 39.4371 81.5396C39.4371 78.8694 36.9218 76.7051 33.8191 76.7051C30.7164 76.7051 28.2012 78.8694 28.2012 81.5396C28.2012 81.6016 28.2025 81.6631 28.2053 81.7246C27.8713 81.6057 27.5051 81.5396 27.121 81.5396C25.8786 81.5396 24.8233 82.2286 24.4423 83.1861C24.2247 83.1528 24.0006 83.135 23.7719 83.135C21.6931 83.135 20.0078 84.5855 20.0078 86.374C20.0078 88.1631 21.6931 89.6137 23.7719 89.6137C24.989 89.6137 26.0708 89.1166 26.7589 88.3447C27.4454 89.1344 28.5407 89.6459 29.7747 89.6459C30.7766 89.6459 31.6869 89.3091 32.3613 88.7597C33.0359 89.3091 33.9459 89.6459 34.9478 89.6459C36.0986 89.6459 37.1285 89.2011 37.8189 88.5011C38.5091 89.1827 39.525 89.6137 40.6579 89.6137C42.7366 89.6137 44.4219 88.1631 44.4219 86.374C44.4219 84.5855 42.7366 83.135 40.6579 83.135Z" fill="#D8F3FF"/>
<path d="M344.196 64.3142C343.588 64.3142 343.014 64.4389 342.505 64.6596C342.807 64.0653 342.976 63.409 342.976 62.7188C342.976 60.0486 340.46 57.8843 337.358 57.8843C334.255 57.8843 331.74 60.0492 331.74 62.7188C331.74 62.7808 331.741 62.8429 331.744 62.9044C331.41 62.7849 331.044 62.7188 330.659 62.7188C329.417 62.7188 328.362 63.4078 327.981 64.3659C327.763 64.332 327.539 64.3142 327.31 64.3142C325.231 64.3142 323.546 65.7647 323.546 67.5538C323.546 69.3429 325.231 70.7929 327.31 70.7929C328.527 70.7929 329.609 70.2958 330.297 69.5245C330.984 70.3142 332.079 70.8251 333.313 70.8251C334.315 70.8251 335.225 70.4883 335.9 69.9389C336.574 70.4883 337.484 70.8251 338.486 70.8251C339.637 70.8251 340.667 70.3808 341.357 69.6808C342.048 70.3624 343.063 70.7929 344.196 70.7929C346.275 70.7929 347.96 69.3429 347.96 67.5538C347.96 65.7647 346.275 64.3142 344.196 64.3142Z" fill="#D8F3FF"/>
<path d="M222.483 57.3242C221.874 57.3242 221.3 57.4487 220.792 57.6692C221.094 57.0752 221.262 56.419 221.262 55.7288C221.262 53.0585 218.747 50.894 215.644 50.894C212.542 50.894 210.026 53.0588 210.026 55.7288C210.026 55.7908 210.028 55.8525 210.03 55.9143C209.696 55.7949 209.33 55.7288 208.946 55.7288C207.704 55.7288 206.648 56.4177 206.267 57.3755C206.05 57.3419 205.826 57.3242 205.597 57.3242C203.519 57.3242 201.833 58.7744 201.833 60.5635C201.833 62.3526 203.519 63.8026 205.597 63.8026C206.814 63.8026 207.896 63.3055 208.584 62.5342C209.27 63.3239 210.366 63.8348 211.6 63.8348C212.602 63.8348 213.512 63.498 214.186 62.9486C214.861 63.498 215.771 63.8348 216.773 63.8348C217.924 63.8348 218.954 63.3905 219.644 62.6905C220.334 63.3721 221.35 63.8026 222.483 63.8026C224.562 63.8026 226.248 62.3526 226.248 60.5635C226.247 58.7744 224.562 57.3242 222.483 57.3242Z" fill="#D8F3FF"/>
<path d="M105.879 35.4321C105.271 35.4321 104.697 35.5566 104.188 35.7771C104.491 35.1831 104.659 34.5266 104.659 33.8367C104.659 31.1664 102.143 29.002 99.0407 29.002C95.938 29.002 93.4226 31.1667 93.4226 33.8367C93.4226 33.8987 93.4244 33.9604 93.4272 34.0219C93.0928 33.9026 92.7267 33.8367 92.3428 33.8367C91.1004 33.8367 90.0453 34.5256 89.6643 35.4834C89.4465 35.4497 89.2223 35.4321 88.9936 35.4321C86.915 35.4321 85.2295 36.8825 85.2295 38.6714C85.2295 40.4603 86.915 41.9107 88.9936 41.9107C90.2108 41.9107 91.2923 41.4135 91.9808 40.6421C92.6669 41.4317 93.7623 41.9429 94.9967 41.9429C95.9983 41.9429 96.9086 41.606 97.5827 41.0566C98.2574 41.606 99.1677 41.9429 100.169 41.9429C101.32 41.9429 102.35 41.4983 103.04 40.7983C103.731 41.4799 104.747 41.9107 105.88 41.9107C107.958 41.9107 109.644 40.4603 109.644 38.6714C109.643 36.8825 107.958 35.4321 105.879 35.4321Z" fill="#D8F3FF"/>
<path d="M23.7492 211.234H22.1484L26.5238 189.401H28.1245L23.7492 211.234Z" fill="#95A3CC"/>
<path d="M45.4564 211.234H47.0571L42.6818 189.401H41.0811L45.4564 211.234Z" fill="#95A3CC"/>
<path d="M46.86 191.429V193.655C46.86 193.899 46.6622 194.098 46.4179 194.098H22.2401C22.1656 194.098 22.0951 194.079 22.0336 194.046C21.8933 193.972 21.7979 193.825 21.7979 193.655V191.429C21.7979 191.185 21.9957 190.987 22.2401 190.987H46.4181C46.6622 190.987 46.86 191.185 46.86 191.429Z" fill="#FFAB6E"/>
<path d="M24.1016 191.177L22.227 193.862C22.089 193.797 21.9951 193.668 21.9951 193.519V192.378L22.8365 191.177H24.1016Z" fill="white"/>
<path d="M27.2953 191.177L25.4015 193.907H24.1143L26.0128 191.177H27.2953Z" fill="white"/>
<path d="M30.5314 191.177L28.6503 193.907H27.3457L29.2322 191.177H30.5314Z" fill="white"/>
<path d="M33.8108 191.177L31.9418 193.907H30.6201L32.4935 191.177H33.8108Z" fill="white"/>
<path d="M37.1326 191.177L35.2764 193.907H33.9365L35.7977 191.177H37.1326Z" fill="white"/>
<path d="M40.5011 191.177L38.6571 193.907H37.2988L39.1478 191.177H40.5011Z" fill="white"/>
<path d="M43.9148 191.177L42.0835 193.907H40.707L42.5436 191.177H43.9148Z" fill="white"/>
<path d="M46.662 191.565V191.873L45.242 193.907H43.9717L45.8826 191.177H46.2265C46.4672 191.177 46.662 191.351 46.662 191.565Z" fill="white"/>
<path d="M46.86 196.135V198.361C46.86 198.606 46.6622 198.803 46.4179 198.803H22.2401C22.1656 198.803 22.0951 198.785 22.0336 198.752C21.8933 198.678 21.7979 198.531 21.7979 198.361V196.135C21.7979 195.891 21.9957 195.693 22.2401 195.693H46.4181C46.6622 195.693 46.86 195.891 46.86 196.135Z" fill="#FFAB6E"/>
<path d="M24.1016 195.883L22.227 198.568C22.089 198.503 21.9951 198.374 21.9951 198.225V197.085L22.8365 195.883L24.1016 195.883Z" fill="white"/>
<path d="M27.2953 195.883L25.4015 198.613H24.1143L26.0128 195.883H27.2953Z" fill="white"/>
<path d="M30.5314 195.883L28.6503 198.613H27.3457L29.2322 195.883H30.5314Z" fill="white"/>
<path d="M33.8108 195.883L31.9418 198.613H30.6201L32.4935 195.883H33.8108Z" fill="white"/>
<path d="M37.1326 195.883L35.2764 198.613H33.9365L35.7977 195.883H37.1326Z" fill="white"/>
<path d="M40.5011 195.883L38.6571 198.613H37.2988L39.1478 195.883H40.5011Z" fill="white"/>
<path d="M43.9148 195.883L42.0835 198.613H40.707L42.5436 195.883H43.9148Z" fill="white"/>
<path d="M46.662 196.271V196.58L45.242 198.614H43.9717L45.8826 195.883H46.2265C46.4672 195.883 46.662 196.057 46.662 196.271Z" fill="white"/>
<path d="M46.86 200.841V203.067C46.86 203.311 46.6622 203.51 46.4179 203.51H22.2401C22.1656 203.51 22.0951 203.491 22.0336 203.458C21.8933 203.384 21.7979 203.237 21.7979 203.067V200.841C21.7979 200.597 21.9957 200.399 22.2401 200.399H46.4181C46.6622 200.399 46.86 200.597 46.86 200.841Z" fill="#FFAB6E"/>
<path d="M24.1016 200.589L22.227 203.274C22.089 203.209 21.9951 203.08 21.9951 202.931V201.79L22.8365 200.588H24.1016V200.589Z" fill="white"/>
<path d="M27.2953 200.589L25.4015 203.319H24.1143L26.0128 200.589H27.2953Z" fill="white"/>
<path d="M30.5314 200.589L28.6503 203.319H27.3457L29.2322 200.589H30.5314Z" fill="white"/>
<path d="M33.8108 200.589L31.9418 203.319H30.6201L32.4935 200.589H33.8108Z" fill="white"/>
<path d="M37.1326 200.589L35.2764 203.319H33.9365L35.7977 200.589H37.1326Z" fill="white"/>
<path d="M40.5011 200.589L38.6571 203.319H37.2988L39.1478 200.589H40.5011Z" fill="white"/>
<path d="M43.9148 200.589L42.0835 203.319H40.707L42.5436 200.589H43.9148Z" fill="white"/>
<path d="M46.662 200.977V201.285L45.242 203.319H43.9717L45.8826 200.589H46.2265C46.4672 200.589 46.662 200.762 46.662 200.977Z" fill="white"/>
<path d="M25.4912 187.871C25.4912 186.804 26.3557 185.94 27.4221 185.94C28.4886 185.94 29.3531 186.804 29.3531 187.871C29.3531 188.938 28.4886 189.802 27.4221 189.802C26.3559 189.802 25.4912 188.938 25.4912 187.871Z" fill="#FFAB6E"/>
<path d="M26.1201 187.871C26.1201 187.152 26.7031 186.569 27.422 186.569C28.1413 186.569 28.724 187.152 28.724 187.871C28.724 188.591 28.141 189.173 27.422 189.173C26.7031 189.173 26.1201 188.59 26.1201 187.871Z" fill="#FAE396"/>
<path d="M39.5674 187.871C39.5674 186.804 40.4321 185.94 41.4983 185.94C42.5648 185.94 43.4293 186.804 43.4293 187.871C43.4293 188.938 42.5648 189.802 41.4983 189.802C40.4321 189.802 39.5674 188.938 39.5674 187.871Z" fill="#FFAB6E"/>
<path d="M40.1973 187.871C40.1973 187.152 40.7803 186.569 41.4992 186.569C42.2182 186.569 42.8012 187.152 42.8012 187.871C42.8012 188.591 42.2182 189.173 41.4992 189.173C40.7803 189.173 40.1973 188.59 40.1973 187.871Z" fill="#FAE396"/>
<path d="M44.9593 206.085H23.5352V206.878H44.9593V206.085Z" fill="#95A3CC"/>
<path d="M44.9593 207.986H23.5352V208.779H44.9593V207.986Z" fill="#95A3CC"/>
<path d="M24.8515 211.234H21.1572V211.886H24.8515V211.234Z" fill="#95A3CC"/>
<path d="M48.1084 211.234H44.4141V211.886H48.1084V211.234Z" fill="#95A3CC"/>
<path d="M270.318 211.449H268.718L273.093 189.617H274.694L270.318 211.449Z" fill="#95A3CC"/>
<path d="M292.026 211.449H293.627L289.251 189.617H287.65L292.026 211.449Z" fill="#95A3CC"/>
<path d="M293.43 191.645V193.871C293.43 194.115 293.232 194.312 292.987 194.312H268.81C268.735 194.312 268.664 194.294 268.603 194.261C268.463 194.188 268.367 194.04 268.367 193.871V191.645C268.367 191.4 268.565 191.202 268.81 191.202H292.987C293.232 191.202 293.43 191.4 293.43 191.645Z" fill="#FFAB6E"/>
<path d="M270.672 191.393L268.798 194.078C268.66 194.013 268.565 193.883 268.565 193.735V192.594L269.407 191.393H270.672Z" fill="white"/>
<path d="M273.866 191.393L271.972 194.123H270.685L272.583 191.393H273.866Z" fill="white"/>
<path d="M277.101 191.393L275.22 194.123H273.916L275.802 191.393H277.101Z" fill="white"/>
<path d="M280.38 191.393L278.511 194.123H277.189L279.063 191.393H280.38Z" fill="white"/>
<path d="M283.703 191.393L281.846 194.123H280.507L282.368 191.393H283.703Z" fill="white"/>
<path d="M287.071 191.393L285.227 194.123H283.869L285.718 191.393H287.071Z" fill="white"/>
<path d="M290.485 191.393L288.654 194.123H287.277L289.114 191.393H290.485Z" fill="white"/>
<path d="M293.233 191.781V192.089L291.813 194.123H290.542L292.453 191.393H292.797C293.038 191.393 293.233 191.567 293.233 191.781Z" fill="white"/>
<path d="M293.43 196.351V198.577C293.43 198.821 293.232 199.019 292.987 199.019H268.81C268.735 199.019 268.664 199.001 268.603 198.968C268.463 198.894 268.367 198.747 268.367 198.577V196.351C268.367 196.106 268.565 195.909 268.81 195.909H292.987C293.232 195.909 293.43 196.106 293.43 196.351Z" fill="#FFAB6E"/>
<path d="M270.672 196.098L268.798 198.783C268.66 198.719 268.565 198.589 268.565 198.441V197.3L269.407 196.098H270.672Z" fill="white"/>
<path d="M273.866 196.098L271.972 198.829H270.685L272.583 196.098H273.866Z" fill="white"/>
<path d="M277.101 196.098L275.22 198.829H273.916L275.802 196.098H277.101Z" fill="white"/>
<path d="M280.38 196.098L278.511 198.829H277.189L279.063 196.098H280.38Z" fill="white"/>
<path d="M283.703 196.098L281.846 198.829H280.507L282.368 196.098H283.703Z" fill="white"/>
<path d="M287.071 196.098L285.227 198.829H283.869L285.718 196.098H287.071Z" fill="white"/>
<path d="M290.485 196.098L288.654 198.829H287.277L289.114 196.098H290.485Z" fill="white"/>
<path d="M293.233 196.487V196.795L291.813 198.829H290.542L292.453 196.098H292.797C293.038 196.098 293.233 196.272 293.233 196.487Z" fill="white"/>
<path d="M293.43 201.057V203.283C293.43 203.527 293.232 203.725 292.987 203.725H268.81C268.735 203.725 268.664 203.706 268.603 203.673C268.463 203.6 268.367 203.452 268.367 203.283V201.057C268.367 200.812 268.565 200.614 268.81 200.614H292.987C293.232 200.614 293.43 200.812 293.43 201.057Z" fill="#FFAB6E"/>
<path d="M270.672 200.804L268.798 203.489C268.66 203.424 268.565 203.295 268.565 203.146V202.005L269.407 200.804H270.672Z" fill="white"/>
<path d="M273.866 200.804L271.972 203.534H270.685L272.583 200.804H273.866Z" fill="white"/>
<path d="M277.101 200.804L275.22 203.534H273.916L275.802 200.804H277.101Z" fill="white"/>
<path d="M280.38 200.804L278.511 203.534H277.189L279.063 200.804H280.38Z" fill="white"/>
<path d="M283.703 200.804L281.846 203.534H280.507L282.368 200.804H283.703Z" fill="white"/>
<path d="M287.071 200.804L285.227 203.534H283.869L285.718 200.804H287.071Z" fill="white"/>
<path d="M290.485 200.804L288.654 203.534H287.277L289.114 200.804H290.485Z" fill="white"/>
<path d="M293.233 201.192V201.5L291.813 203.534H290.542L292.453 200.804H292.797C293.038 200.804 293.233 200.978 293.233 201.192Z" fill="white"/>
<path d="M272.062 188.087C272.062 187.02 272.926 186.156 273.993 186.156C275.059 186.156 275.924 187.02 275.924 188.087C275.924 189.153 275.059 190.018 273.993 190.018C272.926 190.018 272.062 189.153 272.062 188.087Z" fill="#FFAB6E"/>
<path d="M273.992 189.388C274.712 189.388 275.294 188.805 275.294 188.086C275.294 187.367 274.712 186.784 273.992 186.784C273.273 186.784 272.69 187.367 272.69 188.086C272.69 188.805 273.273 189.388 273.992 189.388Z" fill="#FAE396"/>
<path d="M286.139 188.087C286.139 187.02 287.003 186.156 288.07 186.156C289.136 186.156 290 187.02 290 188.087C290 189.153 289.136 190.018 288.07 190.018C287.003 190.018 286.139 189.153 286.139 188.087Z" fill="#FFAB6E"/>
<path d="M286.767 188.086C286.767 187.367 287.35 186.784 288.069 186.784C288.788 186.784 289.371 187.368 289.371 188.086C289.371 188.805 288.788 189.388 288.069 189.388C287.349 189.388 286.767 188.805 286.767 188.086Z" fill="#FAE396"/>
<path d="M291.53 206.301H270.105V207.094H291.53V206.301Z" fill="#95A3CC"/>
<path d="M291.53 208.202H270.105V208.994H291.53V208.202Z" fill="#95A3CC"/>
<path d="M271.422 211.449H267.728V212.101H271.422V211.449Z" fill="#95A3CC"/>
<path d="M294.679 211.449H290.984V212.101H294.679V211.449Z" fill="#95A3CC"/>
<path d="M63.2653 211.144H54.7461L54.9497 210.56L55.0594 210.246L55.4295 209.186L55.6463 208.563L56.0165 207.503L56.3905 206.43L56.517 206.068L57.5536 203.096L57.7565 202.514L58.0519 201.669C58.3668 200.765 59.6431 200.765 59.9586 201.669L60.2534 202.514L60.4563 203.096L61.493 206.068L61.6194 206.43L61.9936 207.503L62.3636 208.563L62.5809 209.186L62.951 210.246L63.0607 210.56L63.2653 211.144Z" fill="#FFAB6E"/>
<path d="M62.051 210.246H55.0596L55.4299 209.186H61.6815L62.051 210.246Z" fill="white"/>
<path d="M61.4639 208.563H55.6465L56.0166 207.503H61.0932L61.4639 208.563Z" fill="white"/>
<path d="M60.5931 206.068H56.5176L57.5542 203.096H59.5563L60.5931 206.068Z" fill="white"/>
<path d="M62.3644 208.563H61.4638L61.0938 207.503H61.9943L62.3644 208.563Z" fill="#F0F0F0"/>
<path d="M61.4939 206.068H60.5934L59.5566 203.096H60.4572L61.4939 206.068Z" fill="#F0F0F0"/>
<path d="M60.2544 202.514L60.4573 203.096H59.5568L59.3539 202.514L59.0585 201.669C58.962 201.392 58.7758 201.201 58.5557 201.094C59.0579 200.85 59.7401 201.041 59.959 201.669L60.2544 202.514Z" fill="#FFA756"/>
<path d="M61.9938 207.503H61.0933L60.7192 206.431L60.5928 206.068H61.4933L61.6203 206.431L61.9938 207.503Z" fill="#FFA756"/>
<path d="M62.9517 210.246H62.0512L61.6816 209.186H62.5816L62.9517 210.246Z" fill="#F0F0F0"/>
<path d="M62.5816 209.186H61.6811L61.4639 208.562H62.3644L62.5816 209.186Z" fill="#FFA756"/>
<path d="M63.2651 211.144H62.364L62.0508 210.246H62.9513L63.2651 211.144Z" fill="#FFA756"/>
<path d="M63.2653 211.144H54.7461L54.9497 210.56H63.0619L63.2653 211.144Z" fill="#FFA756"/>
<path d="M63.6567 211.973H54.3547C53.9367 211.973 53.5977 211.726 53.5977 211.42C53.5977 211.116 53.9367 210.869 54.3547 210.869H63.6567C64.0745 210.869 64.4136 211.116 64.4136 211.42C64.4136 211.726 64.0745 211.973 63.6567 211.973Z" fill="#FFAB6E"/>
<path d="M64.2481 211.077C64.2486 211.089 64.2504 211.101 64.2504 211.113C64.2504 211.417 63.9113 211.665 63.4929 211.665H54.1912C53.9516 211.665 53.7384 211.583 53.5996 211.456C53.6248 211.745 53.9526 211.973 54.3543 211.973H63.6561C64.0745 211.973 64.413 211.726 64.413 211.421C64.4136 211.291 64.3515 211.171 64.2481 211.077Z" fill="#FFA756"/>
<path d="M185.98 214.326H177.461L177.664 213.743L177.774 213.429L178.144 212.368L178.361 211.745L178.731 210.685L179.105 209.613L179.232 209.25L180.268 206.278L180.471 205.697L180.766 204.851C181.082 203.947 182.358 203.947 182.673 204.851L182.968 205.697L183.171 206.278L184.208 209.25L184.334 209.613L184.708 210.685L185.078 211.745L185.295 212.368L185.666 213.429L185.775 213.743L185.98 214.326Z" fill="#FFAB6E"/>
<path d="M184.766 213.428H177.774L178.145 212.368H184.396L184.766 213.428Z" fill="white"/>
<path d="M184.179 211.745H178.361L178.731 210.686H183.809L184.179 211.745Z" fill="white"/>
<path d="M183.307 209.25H179.232L180.269 206.278H182.271L183.307 209.25Z" fill="white"/>
<path d="M185.08 211.745H184.179L183.809 210.686H184.71L185.08 211.745Z" fill="#F0F0F0"/>
<path d="M184.208 209.25H183.307L182.271 206.278H183.172L184.208 209.25Z" fill="#F0F0F0"/>
<path d="M182.969 205.697L183.172 206.278H182.271L182.068 205.697L181.773 204.851C181.676 204.575 181.49 204.385 181.27 204.277C181.772 204.033 182.454 204.224 182.673 204.851L182.969 205.697Z" fill="#FFA756"/>
<path d="M184.709 210.686H183.808L183.434 209.613L183.308 209.25H184.208L184.335 209.613L184.709 210.686Z" fill="#FFA756"/>
<path d="M185.667 213.428H184.766L184.396 212.368H185.297L185.667 213.428Z" fill="#F0F0F0"/>
<path d="M185.296 212.368H184.396L184.179 211.745H185.079L185.296 212.368Z" fill="#FFA756"/>
<path d="M185.98 214.326H185.08L184.767 213.428H185.667L185.98 214.326Z" fill="#FFA756"/>
<path d="M185.98 214.326H177.461L177.664 213.743H185.776L185.98 214.326Z" fill="#FFA756"/>
<path d="M186.372 215.155H177.07C176.652 215.155 176.312 214.908 176.312 214.603C176.312 214.299 176.652 214.052 177.07 214.052H186.372C186.789 214.052 187.128 214.299 187.128 214.603C187.128 214.908 186.789 215.155 186.372 215.155Z" fill="#FFAB6E"/>
<path d="M186.964 214.259C186.964 214.271 186.966 214.283 186.966 214.295C186.966 214.6 186.627 214.847 186.208 214.847H176.907C176.667 214.847 176.454 214.766 176.315 214.639C176.34 214.927 176.668 215.155 177.07 215.155H186.372C186.79 215.155 187.129 214.908 187.129 214.604C187.129 214.474 187.067 214.354 186.964 214.259Z" fill="#FFA756"/>
<path d="M320.358 206.484H311.839L312.042 205.901L312.152 205.586L312.522 204.526L312.739 203.903L313.109 202.844L313.483 201.771L313.609 201.408L314.646 198.436L314.849 197.855L315.144 197.009C315.46 196.106 316.736 196.106 317.051 197.009L317.346 197.855L317.549 198.436L318.586 201.408L318.712 201.771L319.086 202.844L319.456 203.903L319.673 204.526L320.043 205.586L320.153 205.901L320.358 206.484Z" fill="#FFAB6E"/>
<path d="M319.144 205.586H312.152L312.522 204.526H318.774L319.144 205.586Z" fill="white"/>
<path d="M318.557 203.903H312.739L313.109 202.843H318.187L318.557 203.903Z" fill="white"/>
<path d="M317.686 201.407H313.61L314.647 198.436H316.649L317.686 201.407Z" fill="white"/>
<path d="M319.458 203.903H318.557L318.187 202.843H319.087L319.458 203.903Z" fill="#F0F0F0"/>
<path d="M318.587 201.407H317.686L316.649 198.436H317.55L318.587 201.407Z" fill="#F0F0F0"/>
<path d="M317.346 197.854L317.549 198.436H316.649L316.446 197.854L316.151 197.008C316.054 196.733 315.868 196.542 315.647 196.434C316.15 196.19 316.832 196.381 317.051 197.008L317.346 197.854Z" fill="#FFA756"/>
<path d="M319.087 202.843H318.186L317.812 201.77L317.686 201.408H318.586L318.712 201.77L319.087 202.843Z" fill="#FFA756"/>
<path d="M320.045 205.586H319.144L318.774 204.526H319.675L320.045 205.586Z" fill="#F0F0F0"/>
<path d="M319.674 204.526H318.774L318.557 203.903H319.457L319.674 204.526Z" fill="#FFA756"/>
<path d="M320.358 206.484H319.457L319.144 205.586H320.045L320.358 206.484Z" fill="#FFA756"/>
<path d="M320.358 206.484H311.839L312.042 205.9H320.154L320.358 206.484Z" fill="#FFA756"/>
<path d="M320.749 207.313H311.447C311.029 207.313 310.69 207.066 310.69 206.761C310.69 206.456 311.029 206.209 311.447 206.209H320.749C321.167 206.209 321.506 206.456 321.506 206.761C321.506 207.066 321.167 207.313 320.749 207.313Z" fill="#FFAB6E"/>
<path d="M321.341 206.417C321.342 206.429 321.344 206.441 321.344 206.453C321.344 206.757 321.005 207.004 320.586 207.004H311.285C311.045 207.004 310.832 206.923 310.693 206.796C310.718 207.084 311.046 207.313 311.448 207.313H320.75C321.168 207.313 321.507 207.065 321.507 206.761C321.506 206.631 321.444 206.511 321.341 206.417Z" fill="#FFA756"/>
<path d="M341.541 138.223C341.541 138.223 340.202 137.247 341.082 135.811C341.962 134.376 343.914 134.778 344.281 135.531C345.005 135.41 345.57 135.895 345.886 136.348C346.134 136.704 346.431 137.419 346.067 138.816C345.703 140.213 347.7 141.01 347.971 141.955C348.146 142.561 347.876 143.218 346.641 143.361C345.407 143.505 342.106 142.165 342.106 142.165C341.714 142.164 340.254 140.709 341.541 138.223Z" fill="#45359E"/>
<path d="M332.043 170.694C332.618 167.779 332.933 165.395 332.853 163.295C332.796 161.755 332.644 160.341 332.52 158.92L341.451 153.807L344.288 152.182H338.85C338.85 152.182 331.093 154.697 329.778 156.89C328.893 158.365 329.076 161.691 329.492 164.707C329.93 167.869 330.627 170.694 330.627 170.694H332.043V170.694Z" fill="#E3C0C1"/>
<path d="M332.066 170.629L332.524 172.126L332.237 174.453L331.776 174.476L331.356 172.438L330.612 173.791C330.411 174.155 330.111 174.453 329.699 174.507C328.611 174.648 326.487 174.684 326.398 173.971C326.308 173.238 328.368 173.206 328.969 172.4C329.552 171.619 330.252 170.598 330.252 170.598L332.066 170.629Z" fill="#21117B"/>
<path d="M329.491 164.706L331.341 165.011L332.853 163.295L339.529 155.724L341.451 153.807L343.078 152.182H338.851C338.851 152.182 331.094 154.697 329.778 156.89C328.893 158.366 329.076 161.691 329.491 164.706Z" fill="#21117B"/>
<path d="M330.439 170.78C332.064 169.387 333.144 167.621 333.987 165.612C334.534 164.309 334.96 162.911 335.316 161.459C335.316 161.459 343.591 160.76 345.769 157.592C347.252 155.433 346.063 152.182 346.063 152.182C344.649 152.226 342.794 151.917 341.623 152.296C337.21 153.722 332.47 155.603 331.369 158.657C330.719 160.46 330.27 162.455 329.821 164.665C329.45 166.492 329.115 168.614 328.625 170.75L330.439 170.78Z" fill="#F7C1CE"/>
<path d="M329.821 164.665L332.582 165.292L333.988 165.612C334.534 164.309 334.961 162.911 335.316 161.458C335.316 161.458 340.189 161.046 343.439 159.426C344.425 158.933 345.263 158.33 345.769 157.592C347.126 155.616 346.246 152.724 346.086 152.249C346.071 152.206 346.063 152.182 346.063 152.182H346.052C344.639 152.223 342.627 151.782 341.458 152.161C337.044 153.588 332.259 155.541 331.157 158.595C330.505 160.398 330.27 162.454 329.821 164.665Z" fill="#45359E"/>
<path d="M340.701 146.457C339.773 147.58 338.112 148.881 337.161 149.985C336.692 149.578 336.146 149.377 335.754 148.859C337.352 146.436 339.129 143.99 341.17 141.912C340.79 143.493 341.146 144.899 340.701 146.457Z" fill="#167FFB"/>
<path d="M338.458 152.313C340.645 152.022 342.441 152.93 344.67 152.757C344.938 152.736 345.214 152.7 345.495 152.646C346.014 152.543 346.375 152.068 346.321 151.542L345.586 144.37L344.938 142.165L344.789 141.659L343.629 141.038L342.354 141.082C340.453 141.907 339.142 144.141 340.295 146.61C341.414 149.009 338.458 152.313 338.458 152.313Z" fill="#4A9DFF"/>
<path d="M342.299 141.101C342.299 141.823 342.969 141.823 343.641 141.101L343.483 140.229L343.386 139.687L342.375 140.192L342.301 141.082L342.299 141.101Z" fill="#F7C1CE"/>
<path d="M337.878 149.857C338.458 150.74 338.814 150.581 339.591 150.628C340.604 150.57 341.691 150.726 342.716 150.645C343.952 150.549 345.769 150.948 346.774 150.127C347.78 149.306 346.506 145.254 346.209 144.343C345.814 143.133 345.372 142.605 344.791 141.647C345.052 142.575 345.312 143.461 345.573 144.372C345.41 145.784 345.272 147.202 345.126 148.613C344.128 148.748 343.376 148.837 342.322 149.016C341.39 149.174 340.12 149.392 339.15 149.657C338.295 149.191 337.298 148.974 337.878 149.857Z" fill="#F7C1CE"/>
<path d="M342.287 148.892C342.392 149.456 342.581 150.208 342.727 150.794C344.035 150.855 345.608 151.113 346.826 150.087C348.045 149.061 347.225 144.905 346.732 143.768C346.204 142.548 345.763 142.159 344.787 141.643C342.92 143.52 344.881 146.127 345.121 148.616C344.196 148.733 343.207 148.743 342.287 148.892Z" fill="#167FFB"/>
<path d="M341.52 136.403C341.52 136.403 342.032 137.489 343.752 137.892C343.752 137.892 344.289 137.306 344.521 137.672C344.753 138.038 344.192 138.685 344.192 138.685C344.128 139.748 343.362 140.592 342.569 140.393C340.766 139.94 341.52 136.403 341.52 136.403Z" fill="#F7C1CE"/>
<path d="M330.439 170.78L330.897 172.278L330.611 174.605L330.15 174.628L329.73 172.59L328.985 173.943C328.785 174.307 328.484 174.605 328.072 174.659C326.985 174.799 324.86 174.836 324.772 174.122C324.682 173.389 326.741 173.358 327.343 172.552C327.925 171.771 328.625 170.75 328.625 170.75L330.439 170.78Z" fill="#45359E"/>
<path d="M340.906 153.178L339.397 148.646C339.243 148.369 338.95 148.196 338.631 148.196H331.887C331.253 148.196 330.829 148.849 331.086 149.428L332.84 153.374C332.992 153.715 333.329 153.934 333.702 153.934H340.361C340.753 153.934 341.03 153.55 340.906 153.178Z" fill="#FF8A1E"/>
<path d="M335.711 152.007C336.064 152.007 336.351 151.72 336.351 151.367C336.351 151.013 336.064 150.727 335.711 150.727C335.357 150.727 335.07 151.013 335.07 151.367C335.07 151.72 335.357 152.007 335.711 152.007Z" fill="white"/>
</svg>
