<svg width="15" height="15" viewBox="0 0 15 15" fill="none" xmlns="http://www.w3.org/2000/svg">
<g id="heroicons:user-16-solid">
<path id="Vector" d="M7.69759 7.26349C8.54068 7.26349 9.34924 6.94742 9.94539 6.38481C10.5415 5.8222 10.8765 5.05914 10.8765 4.26349C10.8765 3.46784 10.5415 2.70478 9.94539 2.14217C9.34924 1.57956 8.54068 1.26349 7.69759 1.26349C6.85451 1.26349 6.04595 1.57956 5.4498 2.14217C4.85365 2.70478 4.51873 3.46784 4.51873 4.26349C4.51873 5.05914 4.85365 5.8222 5.4498 6.38481C6.04595 6.94742 6.85451 7.26349 7.69759 7.26349ZM12.7149 13.2635C13.3697 13.2635 13.8731 12.7025 13.6389 12.1245C13.1795 10.9886 12.3654 10.0111 11.3044 9.32146C10.2433 8.63183 8.98539 8.26257 7.69706 8.26257C6.40873 8.26257 5.15078 8.63183 4.08974 9.32146C3.0287 10.0111 2.21461 10.9886 1.75525 12.1245C1.52213 12.7025 2.02439 13.2635 2.67923 13.2635H12.7149Z" fill="#10A4FD"/>
</g>
</svg>
