<svg width="1288" height="185" viewBox="0 0 1288 185" fill="none" xmlns="http://www.w3.org/2000/svg">
<g clip-path="url(#clip0_240_70003)">
<path d="M232.068 26.3163L263.829 12.5337L233.793 20.0461L232.068 26.3163Z" fill="#FAAF87"/>
<path d="M232.068 17.6411L263.829 12.5337L226.452 9.79834L232.068 17.6411Z" fill="#FF9800"/>
<path d="M233.793 20.0461L239.991 28.7081L263.829 12.5337L233.793 20.0461Z" fill="#FF9800"/>
<path d="M232.068 17.6411V26.3163L233.793 20.0461L263.829 12.5337L232.068 17.6411Z" fill="#EC8D6A"/>
<path d="M227.245 24.7379C227.146 24.7379 227.047 24.6917 226.981 24.6058C226.869 24.4604 226.902 24.249 227.047 24.1433C227.219 24.0111 227.397 23.879 227.576 23.7468C227.721 23.6345 227.926 23.6675 228.038 23.8129C228.151 23.9583 228.118 24.1631 227.972 24.2754C227.794 24.4075 227.615 24.5463 227.444 24.6718C227.384 24.7181 227.312 24.7379 227.245 24.7379Z" fill="#FF9800"/>
<path d="M118.696 47.2022C118.676 47.2022 118.656 47.2022 118.63 47.1955C118.451 47.1625 118.332 46.9841 118.372 46.8057C118.412 46.5877 118.458 46.3697 118.511 46.1516C118.55 45.9732 118.729 45.8609 118.907 45.9005C119.085 45.9402 119.198 46.1186 119.158 46.297C119.112 46.5084 119.066 46.7198 119.026 46.9379C118.986 47.0964 118.848 47.2022 118.696 47.2022Z" fill="#FF9800"/>
<path d="M119.733 43.3575C119.7 43.3575 119.66 43.3509 119.627 43.3377C119.455 43.2782 119.363 43.0866 119.422 42.9149C119.568 42.492 119.726 42.0691 119.891 41.6529C119.958 41.4811 120.149 41.4018 120.321 41.4679C120.493 41.5339 120.572 41.7256 120.506 41.8973C120.341 42.307 120.189 42.7166 120.05 43.1263C120.004 43.2716 119.872 43.3575 119.733 43.3575ZM121.596 39.0959C121.543 39.0959 121.49 39.0827 121.444 39.0562C121.286 38.9703 121.219 38.7721 121.305 38.607C121.517 38.2105 121.735 37.8207 121.959 37.4309C122.052 37.2723 122.257 37.2194 122.409 37.3119C122.567 37.4044 122.62 37.6093 122.528 37.7612C122.303 38.1378 122.092 38.5211 121.887 38.9109C121.827 39.0364 121.715 39.0959 121.596 39.0959ZM124.067 35.1646C124.001 35.1646 123.928 35.1448 123.876 35.0985C123.73 34.9928 123.697 34.7814 123.803 34.636C124.067 34.2726 124.338 33.9224 124.616 33.5657C124.728 33.4203 124.939 33.4005 125.078 33.5128C125.223 33.6251 125.243 33.8366 125.131 33.9753C124.86 34.3189 124.589 34.6691 124.331 35.0258C124.272 35.1117 124.166 35.1646 124.067 35.1646ZM206.961 31.8676C206.955 31.8676 206.948 31.8676 206.941 31.8676C206.499 31.8478 206.049 31.8147 205.6 31.7685C205.422 31.7487 205.283 31.5901 205.303 31.4051C205.323 31.2201 205.481 31.0946 205.666 31.1078C206.109 31.154 206.545 31.1805 206.974 31.2069C207.159 31.2135 207.298 31.3721 207.285 31.5505C207.278 31.7289 207.133 31.8676 206.961 31.8676ZM210.285 31.828C210.113 31.828 209.967 31.6958 209.954 31.524C209.941 31.339 210.08 31.1805 210.258 31.1672C210.701 31.1342 211.13 31.088 211.566 31.0351C211.738 31.0153 211.91 31.1408 211.936 31.3192C211.956 31.4976 211.831 31.6628 211.652 31.6892C211.21 31.7421 210.76 31.7883 210.311 31.8214C210.298 31.828 210.291 31.828 210.285 31.828ZM127.054 31.5967C126.974 31.5967 126.888 31.5637 126.822 31.5042C126.69 31.3787 126.684 31.1672 126.809 31.0351C127.12 30.7113 127.43 30.3942 127.754 30.0837C127.886 29.9581 128.091 29.9581 128.223 30.0903C128.349 30.2224 128.349 30.4272 128.217 30.5594C127.899 30.8633 127.595 31.1805 127.292 31.4976C127.225 31.5637 127.14 31.5967 127.054 31.5967ZM202.349 31.2663C202.33 31.2663 202.303 31.2663 202.283 31.2597C201.847 31.1738 201.411 31.0813 200.975 30.9756C200.797 30.936 200.684 30.7576 200.724 30.5792C200.764 30.4008 200.949 30.2885 201.12 30.3347C201.55 30.4338 201.979 30.5263 202.409 30.6122C202.587 30.6453 202.706 30.8237 202.667 31.0021C202.64 31.1606 202.501 31.2663 202.349 31.2663ZM214.87 31.0747C214.725 31.0747 214.586 30.9756 214.553 30.8303C214.507 30.6519 214.612 30.4735 214.791 30.4272C215.214 30.3149 215.636 30.196 216.053 30.0638C216.224 30.011 216.409 30.1035 216.469 30.2819C216.522 30.4537 216.429 30.6387 216.251 30.6981C215.821 30.8303 215.392 30.9558 214.956 31.0681C214.923 31.0681 214.896 31.0747 214.87 31.0747ZM197.843 30.1299C197.81 30.1299 197.777 30.1233 197.751 30.1167C197.321 29.9912 196.898 29.859 196.476 29.7203C196.304 29.6674 196.205 29.4758 196.264 29.304C196.317 29.1322 196.509 29.0397 196.68 29.0926C197.103 29.2247 197.52 29.3569 197.942 29.4824C198.114 29.5353 198.22 29.7203 198.16 29.8921C198.114 30.0374 197.982 30.1299 197.843 30.1299ZM219.251 29.5287C219.125 29.5287 219.006 29.456 218.947 29.3304C218.874 29.1653 218.947 28.967 219.112 28.8944C219.508 28.716 219.911 28.531 220.301 28.3394C220.466 28.2601 220.665 28.3261 220.744 28.4913C220.823 28.6565 220.757 28.8547 220.592 28.934C220.189 29.1322 219.786 29.3238 219.376 29.5022C219.343 29.522 219.297 29.5287 219.251 29.5287ZM193.43 28.6499C193.39 28.6499 193.35 28.6433 193.317 28.6301C192.901 28.4781 192.485 28.3195 192.069 28.1676C191.897 28.1015 191.811 27.9099 191.877 27.7381C191.943 27.5663 192.135 27.4804 192.3 27.5465C192.716 27.7051 193.126 27.857 193.542 28.009C193.714 28.0685 193.8 28.2601 193.74 28.4319C193.687 28.5706 193.562 28.6499 193.43 28.6499ZM130.47 28.4451C130.377 28.4451 130.278 28.4054 130.212 28.3261C130.1 28.1874 130.119 27.976 130.258 27.8636C130.602 27.5795 130.952 27.302 131.309 27.0311C131.454 26.9188 131.659 26.9518 131.771 27.0972C131.884 27.2426 131.85 27.4474 131.712 27.5597C131.362 27.824 131.018 28.0949 130.674 28.379C130.622 28.4186 130.542 28.4451 130.47 28.4451ZM223.367 27.3615C223.255 27.3615 223.149 27.302 223.083 27.2029C222.99 27.0443 223.037 26.8461 223.195 26.747C223.572 26.5224 223.942 26.2845 224.312 26.0467C224.464 25.9476 224.669 25.9872 224.768 26.1458C224.867 26.2977 224.82 26.5026 224.668 26.6017C224.292 26.8461 223.915 27.084 223.532 27.3152C223.486 27.3483 223.426 27.3615 223.367 27.3615ZM189.082 26.9849C189.042 26.9849 189.003 26.9783 188.963 26.9585L187.728 26.4695C187.556 26.4034 187.477 26.2118 187.543 26.04C187.609 25.8683 187.8 25.789 187.972 25.855L189.208 26.344C189.379 26.4101 189.459 26.6017 189.393 26.7734C189.34 26.9056 189.214 26.9849 189.082 26.9849ZM134.242 25.7163C134.13 25.7163 134.024 25.6634 133.965 25.5643C133.866 25.4124 133.912 25.2075 134.064 25.1084C134.441 24.8706 134.824 24.6327 135.207 24.4081C135.366 24.3156 135.564 24.3684 135.663 24.527C135.755 24.6856 135.702 24.8838 135.544 24.9829C135.167 25.2075 134.791 25.4388 134.421 25.6767C134.361 25.7031 134.302 25.7163 134.242 25.7163ZM184.754 25.2736C184.715 25.2736 184.675 25.267 184.635 25.2538C184.226 25.0952 183.81 24.9366 183.393 24.7781C183.221 24.712 183.136 24.5204 183.202 24.3552C183.268 24.1834 183.453 24.0975 183.625 24.1636C184.041 24.3222 184.457 24.4807 184.867 24.6393C185.038 24.7054 185.124 24.897 185.058 25.0688C185.012 25.1943 184.887 25.2736 184.754 25.2736ZM180.38 23.6747C180.347 23.6747 180.308 23.6681 180.275 23.6548C179.858 23.5161 179.436 23.3773 179.019 23.2386C178.848 23.1857 178.748 22.9941 178.808 22.8223C178.867 22.6506 179.052 22.5514 179.224 22.6109C179.647 22.7431 180.07 22.8884 180.493 23.0272C180.665 23.0866 180.757 23.2716 180.698 23.4434C180.651 23.5888 180.519 23.6747 180.38 23.6747ZM138.299 23.4434C138.18 23.4434 138.061 23.3773 138.002 23.2584C137.923 23.0932 137.989 22.895 138.154 22.8157C138.557 22.6175 138.96 22.4325 139.369 22.2475C139.535 22.1748 139.733 22.2475 139.806 22.4127C139.878 22.5779 139.806 22.7761 139.64 22.8488C139.237 23.0272 138.841 23.2122 138.444 23.4104C138.398 23.4368 138.345 23.4434 138.299 23.4434ZM175.94 22.3004C175.914 22.3004 175.881 22.2938 175.848 22.2872C175.425 22.1682 174.996 22.0493 174.573 21.9304C174.394 21.8841 174.295 21.6991 174.341 21.5273C174.388 21.3489 174.566 21.2432 174.744 21.2961C175.174 21.415 175.603 21.5339 176.026 21.6529C176.205 21.7057 176.304 21.8841 176.251 22.0625C176.211 22.2013 176.079 22.3004 175.94 22.3004ZM142.594 21.6529C142.455 21.6529 142.33 21.567 142.283 21.4348C142.224 21.263 142.31 21.0714 142.488 21.012C142.911 20.86 143.334 20.7212 143.763 20.5891C143.935 20.5362 144.127 20.6287 144.18 20.8071C144.232 20.9789 144.14 21.1639 143.961 21.2234C143.539 21.3555 143.122 21.4943 142.706 21.6396C142.666 21.6463 142.627 21.6529 142.594 21.6529ZM171.434 21.1243C171.408 21.1243 171.381 21.1243 171.362 21.1177C170.932 21.0186 170.503 20.9195 170.067 20.827C169.888 20.7873 169.776 20.6089 169.815 20.4371C169.855 20.2587 170.027 20.1464 170.205 20.1861C170.641 20.2786 171.071 20.3777 171.507 20.4834C171.685 20.523 171.798 20.7014 171.751 20.8798C171.725 21.0186 171.586 21.1243 171.434 21.1243ZM147.06 20.3645C146.908 20.3645 146.776 20.2587 146.737 20.1068C146.697 19.9284 146.809 19.75 146.988 19.7103C147.424 19.6112 147.86 19.5187 148.302 19.4328C148.481 19.3998 148.653 19.5121 148.692 19.6971C148.725 19.8755 148.613 20.0473 148.428 20.087C147.998 20.1729 147.569 20.2587 147.14 20.3579C147.113 20.3645 147.087 20.3645 147.06 20.3645ZM166.875 20.1927C166.855 20.1927 166.836 20.1927 166.816 20.1861C166.38 20.1134 165.944 20.0407 165.508 19.9746C165.329 19.9482 165.204 19.7764 165.23 19.598C165.257 19.4196 165.428 19.2941 165.607 19.3205C166.049 19.3866 166.485 19.4593 166.928 19.532C167.107 19.565 167.232 19.7368 167.199 19.9152C167.173 20.0803 167.034 20.1927 166.875 20.1927ZM151.646 19.5848C151.48 19.5848 151.335 19.4593 151.315 19.2941C151.295 19.1157 151.428 18.9505 151.606 18.9307C152.049 18.8778 152.498 18.8382 152.941 18.7986C153.112 18.7787 153.284 18.9175 153.297 19.1025C153.311 19.2875 153.179 19.4461 152.994 19.4593C152.557 19.4989 152.115 19.5386 151.679 19.5914C151.672 19.5848 151.659 19.5848 151.646 19.5848ZM162.27 19.5584C162.257 19.5584 162.25 19.5584 162.237 19.5584C161.801 19.5121 161.358 19.4791 160.922 19.4461C160.737 19.4328 160.605 19.2743 160.618 19.0893C160.631 18.9043 160.79 18.7655 160.975 18.7853C161.418 18.8184 161.86 18.858 162.31 18.9043C162.495 18.9241 162.627 19.0827 162.607 19.2677C162.581 19.4328 162.435 19.5584 162.27 19.5584ZM156.291 19.2941C156.112 19.2941 155.96 19.1487 155.96 18.9703C155.96 18.7853 156.106 18.64 156.284 18.6334C156.733 18.6268 157.176 18.6268 157.625 18.6334C157.81 18.6334 157.956 18.7853 157.949 18.9703C157.949 19.1487 157.797 19.2941 157.619 19.2941C157.619 19.2941 157.619 19.2941 157.612 19.2941C157.176 19.2875 156.74 19.2875 156.291 19.2941C156.297 19.2941 156.291 19.2941 156.291 19.2941Z" fill="#FF9800"/>
<path d="M113.718 44.0648C113.657 44.1078 113.583 44.1323 113.503 44.1385C113.344 44.1507 113.196 44.0771 113.104 43.9483L110.074 39.4701C109.988 39.3413 109.976 39.1695 110.043 39.0284C110.111 38.8873 110.252 38.7892 110.411 38.783L115.804 38.4027C115.963 38.3904 116.11 38.464 116.202 38.5929C116.288 38.7217 116.3 38.8935 116.233 39.0345L113.871 43.8992C113.834 43.9606 113.779 44.0219 113.718 44.0648ZM111.233 39.6051L113.405 42.8195L115.104 39.329L111.233 39.6051Z" fill="#FF9800"/>
<path d="M163.757 27.2942C163.684 27.0431 163.42 26.8977 163.169 26.977L161.246 27.5452L160.678 25.6225C160.605 25.3715 160.341 25.2261 160.09 25.3054C159.838 25.3781 159.693 25.6424 159.772 25.8934L160.341 27.8161L158.418 28.3843C158.167 28.457 158.022 28.7213 158.101 28.9724C158.173 29.2235 158.438 29.3688 158.689 29.2895L160.612 28.7213L161.18 30.644C161.252 30.8951 161.517 31.0404 161.768 30.9611C162.019 30.8885 162.164 30.6242 162.085 30.3731L161.517 28.4504L163.439 27.8822C163.684 27.8095 163.829 27.5452 163.757 27.2942Z" fill="#FF9800"/>
<rect y="0.5" width="1288" height="184" rx="8" fill="#FFDEC9"/>
<path d="M232.068 26.3158L263.829 12.5332L233.793 20.0456L232.068 26.3158Z" fill="#E67F0B"/>
<path d="M232.068 17.6406L263.829 12.5332L226.452 9.79785L232.068 17.6406Z" fill="#FF9800"/>
<path d="M233.793 20.0456L239.991 28.7076L263.829 12.5332L233.793 20.0456Z" fill="#FF9800"/>
<path d="M232.068 17.6406V26.3158L233.793 20.0456L263.829 12.5332L232.068 17.6406Z" fill="#FFB580"/>
<path d="M227.245 24.7374C227.146 24.7374 227.047 24.6912 226.981 24.6053C226.869 24.4599 226.902 24.2485 227.047 24.1428C227.219 24.0106 227.397 23.8785 227.576 23.7463C227.721 23.634 227.926 23.6671 228.038 23.8124C228.151 23.9578 228.118 24.1626 227.972 24.2749C227.794 24.4071 227.615 24.5458 227.444 24.6713C227.384 24.7176 227.312 24.7374 227.245 24.7374Z" fill="#FF9800"/>
<path d="M118.696 47.2022C118.676 47.2022 118.656 47.2022 118.63 47.1955C118.451 47.1625 118.332 46.9841 118.372 46.8057C118.412 46.5877 118.458 46.3697 118.511 46.1516C118.55 45.9732 118.729 45.8609 118.907 45.9005C119.085 45.9402 119.198 46.1186 119.158 46.297C119.112 46.5084 119.066 46.7198 119.026 46.9379C118.986 47.0964 118.848 47.2022 118.696 47.2022Z" fill="#FF9800"/>
<path d="M119.733 43.357C119.7 43.357 119.66 43.3504 119.627 43.3372C119.455 43.2778 119.363 43.0862 119.422 42.9144C119.568 42.4915 119.726 42.0686 119.891 41.6524C119.958 41.4806 120.149 41.4013 120.321 41.4674C120.493 41.5335 120.572 41.7251 120.506 41.8969C120.341 42.3065 120.189 42.7161 120.05 43.1258C120.004 43.2712 119.872 43.357 119.733 43.357ZM121.596 39.0954C121.543 39.0954 121.49 39.0822 121.444 39.0558C121.286 38.9699 121.219 38.7716 121.305 38.6065C121.517 38.21 121.735 37.8202 121.959 37.4304C122.052 37.2718 122.257 37.219 122.409 37.3115C122.567 37.404 122.62 37.6088 122.528 37.7607C122.303 38.1374 122.092 38.5206 121.887 38.9104C121.827 39.0359 121.715 39.0954 121.596 39.0954ZM124.067 35.1641C124.001 35.1641 123.928 35.1443 123.876 35.098C123.73 34.9923 123.697 34.7809 123.803 34.6355C124.067 34.2721 124.338 33.922 124.616 33.5652C124.728 33.4198 124.939 33.4 125.078 33.5123C125.223 33.6246 125.243 33.8361 125.131 33.9748C124.86 34.3184 124.589 34.6686 124.331 35.0254C124.272 35.1113 124.166 35.1641 124.067 35.1641ZM206.961 31.8671C206.955 31.8671 206.948 31.8671 206.941 31.8671C206.499 31.8473 206.049 31.8143 205.6 31.768C205.422 31.7482 205.283 31.5896 205.303 31.4046C205.323 31.2196 205.481 31.0941 205.666 31.1073C206.109 31.1535 206.545 31.18 206.974 31.2064C207.159 31.213 207.298 31.3716 207.285 31.55C207.278 31.7284 207.133 31.8671 206.961 31.8671ZM210.285 31.8275C210.113 31.8275 209.967 31.6953 209.954 31.5235C209.941 31.3385 210.08 31.18 210.258 31.1668C210.701 31.1337 211.13 31.0875 211.566 31.0346C211.738 31.0148 211.91 31.1403 211.936 31.3187C211.956 31.4971 211.831 31.6623 211.652 31.6887C211.21 31.7416 210.76 31.7878 210.311 31.8209C210.298 31.8275 210.291 31.8275 210.285 31.8275ZM127.054 31.5962C126.974 31.5962 126.888 31.5632 126.822 31.5037C126.69 31.3782 126.684 31.1668 126.809 31.0346C127.12 30.7109 127.43 30.3937 127.754 30.0832C127.886 29.9576 128.091 29.9576 128.223 30.0898C128.349 30.2219 128.349 30.4267 128.217 30.5589C127.899 30.8628 127.595 31.18 127.292 31.4971C127.225 31.5632 127.14 31.5962 127.054 31.5962ZM202.349 31.2659C202.33 31.2659 202.303 31.2659 202.283 31.2593C201.847 31.1734 201.411 31.0809 200.975 30.9751C200.797 30.9355 200.684 30.7571 200.724 30.5787C200.764 30.4003 200.949 30.288 201.12 30.3342C201.55 30.4334 201.979 30.5259 202.409 30.6117C202.587 30.6448 202.706 30.8232 202.667 31.0016C202.64 31.1601 202.501 31.2659 202.349 31.2659ZM214.87 31.0743C214.725 31.0743 214.586 30.9751 214.553 30.8298C214.507 30.6514 214.612 30.473 214.791 30.4267C215.214 30.3144 215.636 30.1955 216.053 30.0633C216.224 30.0105 216.409 30.103 216.469 30.2814C216.522 30.4532 216.429 30.6382 216.251 30.6976C215.821 30.8298 215.392 30.9553 214.956 31.0676C214.923 31.0676 214.896 31.0743 214.87 31.0743ZM197.843 30.1294C197.81 30.1294 197.777 30.1228 197.751 30.1162C197.321 29.9907 196.898 29.8585 196.476 29.7198C196.304 29.6669 196.205 29.4753 196.264 29.3035C196.317 29.1317 196.509 29.0392 196.68 29.0921C197.103 29.2242 197.52 29.3564 197.942 29.4819C198.114 29.5348 198.22 29.7198 198.16 29.8916C198.114 30.0369 197.982 30.1294 197.843 30.1294ZM219.251 29.5282C219.125 29.5282 219.006 29.4555 218.947 29.3299C218.874 29.1648 218.947 28.9666 219.112 28.8939C219.508 28.7155 219.911 28.5305 220.301 28.3389C220.466 28.2596 220.665 28.3257 220.744 28.4908C220.823 28.656 220.757 28.8542 220.592 28.9335C220.189 29.1317 219.786 29.3233 219.376 29.5017C219.343 29.5216 219.297 29.5282 219.251 29.5282ZM193.43 28.6494C193.39 28.6494 193.35 28.6428 193.317 28.6296C192.901 28.4776 192.485 28.319 192.069 28.1671C191.897 28.101 191.811 27.9094 191.877 27.7376C191.943 27.5658 192.135 27.4799 192.3 27.546C192.716 27.7046 193.126 27.8565 193.542 28.0085C193.714 28.068 193.8 28.2596 193.74 28.4314C193.687 28.5701 193.562 28.6494 193.43 28.6494ZM130.47 28.4446C130.377 28.4446 130.278 28.4049 130.212 28.3257C130.1 28.1869 130.119 27.9755 130.258 27.8632C130.602 27.579 130.952 27.3015 131.309 27.0306C131.454 26.9183 131.659 26.9514 131.771 27.0967C131.884 27.2421 131.85 27.4469 131.712 27.5592C131.362 27.8235 131.018 28.0944 130.674 28.3785C130.622 28.4182 130.542 28.4446 130.47 28.4446ZM223.367 27.361C223.255 27.361 223.149 27.3015 223.083 27.2024C222.99 27.0439 223.037 26.8456 223.195 26.7465C223.572 26.5219 223.942 26.284 224.312 26.0462C224.464 25.9471 224.669 25.9867 224.768 26.1453C224.867 26.2972 224.82 26.5021 224.668 26.6012C224.292 26.8456 223.915 27.0835 223.532 27.3148C223.486 27.3478 223.426 27.361 223.367 27.361ZM189.082 26.9844C189.042 26.9844 189.003 26.9778 188.963 26.958L187.728 26.469C187.556 26.403 187.477 26.2113 187.543 26.0396C187.609 25.8678 187.8 25.7885 187.972 25.8546L189.208 26.3435C189.379 26.4096 189.459 26.6012 189.393 26.773C189.34 26.9051 189.214 26.9844 189.082 26.9844ZM134.242 25.7158C134.13 25.7158 134.024 25.663 133.965 25.5638C133.866 25.4119 133.912 25.2071 134.064 25.1079C134.441 24.8701 134.824 24.6322 135.207 24.4076C135.366 24.3151 135.564 24.3679 135.663 24.5265C135.755 24.6851 135.702 24.8833 135.544 24.9824C135.167 25.2071 134.791 25.4383 134.421 25.6762C134.361 25.7026 134.302 25.7158 134.242 25.7158ZM184.754 25.2731C184.715 25.2731 184.675 25.2665 184.635 25.2533C184.226 25.0947 183.81 24.9362 183.393 24.7776C183.221 24.7115 183.136 24.5199 183.202 24.3547C183.268 24.1829 183.453 24.097 183.625 24.1631C184.041 24.3217 184.457 24.4803 184.867 24.6388C185.038 24.7049 185.124 24.8965 185.058 25.0683C185.012 25.1938 184.887 25.2731 184.754 25.2731ZM180.38 23.6742C180.347 23.6742 180.308 23.6676 180.275 23.6544C179.858 23.5156 179.436 23.3769 179.019 23.2381C178.848 23.1853 178.748 22.9936 178.808 22.8219C178.867 22.6501 179.052 22.551 179.224 22.6104C179.647 22.7426 180.07 22.8879 180.493 23.0267C180.665 23.0861 180.757 23.2711 180.698 23.4429C180.651 23.5883 180.519 23.6742 180.38 23.6742ZM138.299 23.4429C138.18 23.4429 138.061 23.3769 138.002 23.2579C137.923 23.0927 137.989 22.8945 138.154 22.8152C138.557 22.617 138.96 22.432 139.369 22.247C139.535 22.1743 139.733 22.247 139.806 22.4122C139.878 22.5774 139.806 22.7756 139.64 22.8483C139.237 23.0267 138.841 23.2117 138.444 23.4099C138.398 23.4363 138.345 23.4429 138.299 23.4429ZM175.94 22.2999C175.914 22.2999 175.881 22.2933 175.848 22.2867C175.425 22.1677 174.996 22.0488 174.573 21.9299C174.394 21.8836 174.295 21.6986 174.341 21.5268C174.388 21.3484 174.566 21.2427 174.744 21.2956C175.174 21.4145 175.603 21.5334 176.026 21.6524C176.205 21.7052 176.304 21.8836 176.251 22.062C176.211 22.2008 176.079 22.2999 175.94 22.2999ZM142.594 21.6524C142.455 21.6524 142.33 21.5665 142.283 21.4343C142.224 21.2626 142.31 21.0709 142.488 21.0115C142.911 20.8595 143.334 20.7208 143.763 20.5886C143.935 20.5358 144.127 20.6283 144.18 20.8067C144.232 20.9784 144.14 21.1634 143.961 21.2229C143.539 21.3551 143.122 21.4938 142.706 21.6392C142.666 21.6458 142.627 21.6524 142.594 21.6524ZM171.434 21.1238C171.408 21.1238 171.381 21.1238 171.362 21.1172C170.932 21.0181 170.503 20.919 170.067 20.8265C169.888 20.7868 169.776 20.6084 169.815 20.4366C169.855 20.2583 170.027 20.1459 170.205 20.1856C170.641 20.2781 171.071 20.3772 171.507 20.4829C171.685 20.5225 171.798 20.7009 171.751 20.8793C171.725 21.0181 171.586 21.1238 171.434 21.1238ZM147.06 20.364C146.908 20.364 146.776 20.2583 146.737 20.1063C146.697 19.9279 146.809 19.7495 146.988 19.7099C147.424 19.6107 147.86 19.5183 148.302 19.4324C148.481 19.3993 148.653 19.5116 148.692 19.6966C148.725 19.875 148.613 20.0468 148.428 20.0865C147.998 20.1724 147.569 20.2583 147.14 20.3574C147.113 20.364 147.087 20.364 147.06 20.364ZM166.875 20.1922C166.855 20.1922 166.836 20.1922 166.816 20.1856C166.38 20.1129 165.944 20.0402 165.508 19.9741C165.329 19.9477 165.204 19.7759 165.23 19.5975C165.257 19.4191 165.428 19.2936 165.607 19.32C166.049 19.3861 166.485 19.4588 166.928 19.5315C167.107 19.5645 167.232 19.7363 167.199 19.9147C167.173 20.0799 167.034 20.1922 166.875 20.1922ZM151.646 19.5843C151.48 19.5843 151.335 19.4588 151.315 19.2936C151.295 19.1152 151.428 18.95 151.606 18.9302C152.049 18.8773 152.498 18.8377 152.941 18.7981C153.112 18.7782 153.284 18.917 153.297 19.102C153.311 19.287 153.179 19.4456 152.994 19.4588C152.557 19.4984 152.115 19.5381 151.679 19.5909C151.672 19.5843 151.659 19.5843 151.646 19.5843ZM162.27 19.5579C162.257 19.5579 162.25 19.5579 162.237 19.5579C161.801 19.5116 161.358 19.4786 160.922 19.4456C160.737 19.4324 160.605 19.2738 160.618 19.0888C160.631 18.9038 160.79 18.765 160.975 18.7848C161.418 18.8179 161.86 18.8575 162.31 18.9038C162.495 18.9236 162.627 19.0822 162.607 19.2672C162.581 19.4324 162.435 19.5579 162.27 19.5579ZM156.291 19.2936C156.112 19.2936 155.96 19.1482 155.96 18.9699C155.96 18.7849 156.106 18.6395 156.284 18.6329C156.733 18.6263 157.176 18.6263 157.625 18.6329C157.81 18.6329 157.956 18.7849 157.949 18.9699C157.949 19.1482 157.797 19.2936 157.619 19.2936C157.619 19.2936 157.619 19.2936 157.612 19.2936C157.176 19.287 156.74 19.287 156.291 19.2936C156.297 19.2936 156.291 19.2936 156.291 19.2936Z" fill="#FF9800"/>
<path d="M113.718 44.0644C113.657 44.1073 113.583 44.1318 113.503 44.138C113.344 44.1502 113.196 44.0766 113.104 43.9478L110.074 39.4696C109.988 39.3408 109.976 39.169 110.043 39.0279C110.111 38.8868 110.252 38.7887 110.411 38.7825L115.804 38.4022C115.963 38.3899 116.11 38.4635 116.202 38.5924C116.288 38.7212 116.3 38.893 116.233 39.0341L113.871 43.8987C113.834 43.9601 113.779 44.0214 113.718 44.0644ZM111.233 39.6046L113.405 42.819L115.104 39.3285L111.233 39.6046Z" fill="#FF9800"/>
<path d="M163.757 27.2937C163.684 27.0426 163.42 26.8972 163.169 26.9765L161.246 27.5447L160.678 25.622C160.605 25.371 160.341 25.2256 160.09 25.3049C159.838 25.3776 159.693 25.6419 159.772 25.8929L160.341 27.8156L158.418 28.3839C158.167 28.4565 158.022 28.7208 158.101 28.9719C158.173 29.223 158.438 29.3683 158.689 29.289L160.612 28.7208L161.18 30.6435C161.252 30.8946 161.517 31.0399 161.768 30.9607C162.019 30.888 162.164 30.6237 162.085 30.3726L161.517 28.4499L163.439 27.8817C163.684 27.809 163.829 27.5447 163.757 27.2937Z" fill="#FF9800"/>
<circle cx="566.973" cy="26.6409" r="105.281" transform="rotate(75 566.973 26.6409)" fill="url(#paint0_linear_240_70003)"/>
<circle cx="767.259" cy="195.759" r="43.4859" transform="rotate(75 767.259 195.759)" fill="url(#paint1_linear_240_70003)"/>
<circle cx="32.5" cy="205" r="116.5" fill="url(#paint2_linear_240_70003)"/>
<g clip-path="url(#clip1_240_70003)">
<g opacity="0.4">
<g opacity="0.4">
<g opacity="0.4">
<path d="M1137.45 107.195C1140.15 100.253 1143.55 93.5933 1147.57 87.3251C1151.58 81.0474 1156.2 75.1702 1161.34 69.7739C1166.47 64.3822 1172.12 59.476 1178.2 55.1683C1184.45 50.7428 1191.17 46.8546 1198.24 43.8713C1205.88 40.6429 1214.46 38.5503 1222.71 40.4968C1229.41 42.0803 1235.55 46.1948 1238.26 52.6846C1241.25 59.82 1241.5 68.327 1239.45 75.7311C1237.7 82.0654 1234.02 87.6503 1229.19 92.071C1224.4 96.4541 1218.59 99.6825 1212.46 101.794C1206.22 103.943 1199.59 104.994 1193 104.801C1191.42 104.754 1189.84 104.636 1188.27 104.443C1187.33 104.325 1187.34 105.809 1188.27 105.923C1194.99 106.747 1201.88 106.215 1208.43 104.546C1214.95 102.887 1221.24 100.078 1226.65 96.0677C1231.92 92.1653 1236.37 87.1177 1239.07 81.1133C1242.44 73.6244 1243.06 64.9713 1241.18 57.0064C1240.45 53.8864 1239.32 50.7569 1237.42 48.1412C1235.26 45.1579 1232.32 42.8061 1229.02 41.1896C1221.55 37.5276 1213.04 37.669 1205.16 39.8605C1200.83 41.067 1196.67 42.8344 1192.65 44.8233C1189.23 46.5152 1185.89 48.3816 1182.66 50.4129C1176.17 54.4943 1170.09 59.2262 1164.53 64.4953C1158.99 69.7456 1153.96 75.5426 1149.53 81.759C1145.11 87.9755 1141.29 94.6255 1138.19 101.591C1137.43 103.312 1136.7 105.046 1136.02 106.799C1135.68 107.69 1137.11 108.072 1137.45 107.195Z" fill="#FF9800"/>
</g>
</g>
<g opacity="0.4">
<path d="M1142.63 107.434C1156.4 84.6795 1175.52 63.735 1200.67 55.0489C1205.49 53.3852 1210.59 52.1834 1215.66 52.6971C1220.73 53.2108 1225.79 55.6616 1228.49 59.9787C1231.14 64.2063 1231.2 69.6262 1229.97 74.457C1227.79 82.9828 1221.94 90.2361 1214.91 95.5288C1207.87 100.817 1199.67 104.323 1191.4 107.368" fill="#E75314"/>
<g opacity="0.4">
<path opacity="0.4" d="M1143.27 107.808C1149.01 98.3203 1155.57 89.2855 1163.2 81.2121C1170.68 73.2896 1179.2 66.2908 1188.81 61.0876C1193.77 58.4012 1199.03 56.1343 1204.47 54.6308C1210.27 53.0331 1216.68 52.5194 1222.19 55.3378C1224.59 56.5584 1226.69 58.3494 1228.06 60.6823C1229.53 63.2038 1230.07 66.1447 1229.99 69.0384C1229.86 74.6516 1227.57 80.1046 1224.43 84.6903C1217.58 94.696 1206.57 100.639 1195.56 104.999C1194.11 105.569 1192.66 106.12 1191.21 106.658C1190.32 106.983 1190.7 108.416 1191.6 108.086C1203.29 103.768 1215.19 98.3768 1223.33 88.5785C1226.99 84.1766 1229.84 78.9734 1230.98 73.3273C1232.13 67.5868 1231.36 61.2337 1227 56.9685C1222.76 52.8116 1216.58 51.4354 1210.81 51.9538C1204.62 52.51 1198.58 54.7816 1192.97 57.3644C1182.74 62.0726 1173.56 68.8688 1165.54 76.7348C1157.39 84.7233 1150.36 93.8335 1144.25 103.453C1143.48 104.65 1142.74 105.856 1142 107.072C1141.5 107.878 1142.78 108.623 1143.27 107.808Z" fill="#659FEB"/>
</g>
</g>
<g opacity="0.4">
<g opacity="0.4">
<path d="M1119.67 148.035C1121.46 157.782 1125.88 167.024 1133.57 173.476C1140.13 178.976 1148.32 182.096 1156.7 183.501C1160.72 184.175 1164.81 184.49 1168.89 184.504C1174.77 184.523 1180.79 183.717 1185.97 180.753C1196.58 174.678 1198.26 161.679 1203.09 151.546C1207.78 141.71 1214.01 131.479 1224.36 126.85C1225.63 126.285 1226.95 125.828 1228.28 125.455C1229.2 125.201 1228.81 123.773 1227.89 124.027C1222.58 125.507 1217.88 128.458 1213.99 132.332C1210.04 136.267 1206.94 140.989 1204.3 145.872C1202.96 148.351 1201.7 150.882 1200.61 153.479C1199.5 156.099 1198.56 158.786 1197.58 161.458C1195.68 166.666 1193.57 172.057 1189.62 176.087C1185.29 180.494 1179.19 182.435 1173.15 182.897C1168.9 183.223 1164.56 183.02 1160.34 182.534C1152.17 181.592 1144.01 179.146 1137.21 174.414C1129.41 168.985 1124.34 160.765 1121.97 151.645C1121.63 150.321 1121.34 148.987 1121.1 147.644C1120.93 146.706 1119.5 147.102 1119.67 148.035Z" fill="#FF9800"/>
</g>
</g>
<g opacity="0.4">
<path d="M1127.12 107.882C1127.16 108.457 1126.48 108.952 1125.95 108.73C1120.83 93.3613 1121.6 76.7716 1120.83 60.5966C1120.06 44.4216 1117.25 27.3276 1106.63 15.0973C1102.11 9.90363 1095.94 5.69021 1089.06 5.35088C1082.19 5.01154 1074.86 9.53602 1073.7 16.318C1073.26 18.9149 1073.71 21.5683 1073.9 24.1981C1074.25 28.9394 1073.75 33.7467 1072.43 38.3183C1071.99 39.817 1071.44 41.3534 1070.29 42.4091C1067.22 45.2275 1062.2 43.1255 1058.22 44.3509C1055.5 45.1851 1053.5 47.5416 1052.24 50.0819C1049.83 54.9316 1049.62 60.6908 1050.95 65.9411C1052.29 71.1914 1055.07 75.9798 1058.38 80.2686C1068 92.7298 1082.44 101.369 1097.96 103.961" fill="#E75314"/>
<g opacity="0.4">
<path opacity="0.4" d="M1126.38 107.882C1126.38 108.023 1126.26 108.051 1126.15 108.018C1126.33 108.193 1126.5 108.362 1126.67 108.537C1123.53 99.0543 1122.61 89.0627 1122.2 79.1325C1121.81 69.6593 1121.87 60.1485 1120.81 50.7131C1119.85 42.2156 1118.06 33.7275 1114.45 25.9369C1110.94 18.382 1105.48 11.0485 1097.96 7.13204C1094.34 5.24685 1090.2 4.19585 1086.12 4.7567C1082.49 5.25156 1078.94 6.93881 1076.4 9.59694C1075.15 10.9024 1074.15 12.4342 1073.53 14.1308C1072.73 16.2658 1072.69 18.5658 1072.86 20.8139C1073.05 23.3589 1073.33 25.8756 1073.25 28.4348C1073.17 30.9704 1072.84 33.4918 1072.28 35.9661C1071.81 38.0163 1071.33 40.566 1069.64 41.9988C1068.22 43.2147 1066.21 43.2619 1064.43 43.2383C1062.48 43.2147 1060.51 43.0545 1058.6 43.4881C1056.64 43.9358 1054.92 45.1329 1053.63 46.6458C1050.75 50.0109 1049.5 54.6202 1049.41 58.9797C1049.31 63.6361 1050.55 68.1983 1052.55 72.374C1054.5 76.4272 1057.16 80.1363 1060.1 83.525C1062.87 86.7062 1065.96 89.5953 1069.29 92.1639C1075.97 97.3058 1083.65 101.152 1091.78 103.367C1093.75 103.904 1095.75 104.338 1097.77 104.677C1098.71 104.832 1099.11 103.409 1098.16 103.249C1089.9 101.859 1081.98 98.7856 1074.91 94.2989C1067.76 89.765 1061.43 83.7748 1056.74 76.7147C1051.75 69.1975 1048.63 59.253 1052.8 50.6377C1053.65 48.8656 1054.83 47.1501 1056.48 46.0237C1058.13 44.8878 1060 44.6522 1061.97 44.6616C1063.9 44.671 1065.88 44.8737 1067.79 44.4542C1069.76 44.0254 1071.33 42.7906 1072.22 40.9808C1073.24 38.9165 1073.72 36.5223 1074.12 34.2742C1074.54 31.8281 1074.76 29.3491 1074.74 26.8654C1074.71 22.3786 1073.27 17.5289 1075.48 13.3343C1077.16 10.1625 1080.27 7.90026 1083.65 6.81627C1087.43 5.60032 1091.42 5.9915 1095.09 7.43368C1102.97 10.5254 1108.73 17.8117 1112.43 25.1687C1116.24 32.7519 1118.17 41.1834 1119.19 49.5678C1120.32 58.8619 1120.3 68.2407 1120.65 77.5866C1121.01 87.4179 1121.76 97.3576 1124.58 106.835C1124.74 107.396 1124.92 107.957 1125.1 108.513C1125.28 109.065 1125.45 109.456 1126.09 109.512C1127.04 109.597 1127.84 108.82 1127.86 107.882C1127.88 106.93 1126.41 106.93 1126.38 107.882Z" fill="#659FEB"/>
</g>
</g>
<g opacity="0.4">
<g opacity="0.4">
<path opacity="0.4" d="M1067.68 35.7378C1056.96 34.8754 1047.25 43.2645 1044.77 53.3786C1043.4 58.9682 1043.95 64.9348 1045.92 70.3124C1047.88 75.6852 1051.24 80.4217 1055.44 84.2817C1060.17 88.6224 1065.83 91.8319 1071.81 94.1271C1072.7 94.4712 1073.08 93.0384 1072.2 92.6991C1062.19 88.8486 1052.77 82.0336 1048.22 72.0609C1045.96 67.0981 1044.95 61.4237 1045.76 56.0084C1046.52 50.9137 1048.91 46.2667 1052.69 42.7508C1056.72 39.0087 1062.14 36.77 1067.68 37.2177C1068.63 37.2931 1068.63 35.8133 1067.68 35.7378Z" fill="#659FEB"/>
</g>
</g>
<g opacity="0.4">
<path d="M1094.9 97.1249C1086.09 94.858 1071.41 99.7359 1062.32 100.023C1053.22 100.311 1043.86 103.294 1037.62 109.916C1034.83 112.88 1032.71 117.395 1034.73 120.926C1035.48 122.226 1036.7 123.192 1037.99 123.947C1044.96 128.009 1053.77 126.35 1061.66 128.07C1064.95 128.792 1068.49 130.531 1069.38 133.778C1070.5 137.873 1066.83 142.233 1068.18 146.258C1068.95 148.553 1071.25 150.08 1073.63 150.518C1076.01 150.957 1078.46 150.471 1080.78 149.793C1086.19 148.214 1091.35 145.518 1095.24 141.446C1099.13 137.379 1101.64 131.85 1101.46 126.228C1101.32 121.958 1116.03 99.6134 1114.2 95.7534" fill="#E75314"/>
<g opacity="0.4">
<path opacity="0.4" d="M1095.1 96.4132C1091.82 95.5884 1088.36 95.6968 1085.02 96.022C1081.18 96.3944 1077.38 97.0872 1073.59 97.7611C1070.16 98.3738 1066.72 99.0289 1063.24 99.241C1061.33 99.3588 1059.43 99.4295 1057.54 99.684C1055.58 99.948 1053.63 100.344 1051.73 100.881C1047.91 101.965 1044.22 103.624 1041.01 105.971C1037.87 108.271 1034.88 111.221 1033.66 115.011C1033.09 116.783 1032.98 118.748 1033.71 120.487C1034.47 122.33 1036 123.654 1037.7 124.63C1041.31 126.704 1045.49 127.321 1049.58 127.627C1053.7 127.934 1057.92 127.891 1061.94 128.89C1065.2 129.696 1068.86 131.662 1068.86 135.47C1068.85 139.179 1066.21 142.7 1067.47 146.451C1068.78 150.377 1073.25 151.758 1077.01 151.338C1079.23 151.093 1081.39 150.448 1083.48 149.689C1085.43 148.977 1087.33 148.124 1089.13 147.097C1092.68 145.07 1095.85 142.36 1098.2 138.995C1100.53 135.644 1102.02 131.662 1102.2 127.571C1102.22 127.001 1102.17 126.426 1102.22 125.855C1102.2 126.082 1102.25 125.714 1102.27 125.634C1102.3 125.474 1102.34 125.313 1102.39 125.153C1102.6 124.408 1102.91 123.621 1103.2 122.957C1105.2 118.319 1107.73 113.908 1110.04 109.421C1111.21 107.135 1112.36 104.84 1113.37 102.479C1114.1 100.777 1114.88 98.9865 1115.07 97.1249C1115.13 96.5263 1115.09 95.9372 1114.84 95.3858C1114.44 94.5186 1113.17 95.2727 1113.56 96.1304C1113.46 95.8995 1113.57 96.2011 1113.59 96.2765C1113.62 96.3849 1113.61 96.4038 1113.6 96.2765C1113.61 96.3472 1113.61 96.4179 1113.61 96.4933C1113.62 96.6253 1113.61 96.7573 1113.61 96.8892C1113.6 96.9552 1113.6 97.0212 1113.59 97.0919C1113.57 97.2427 1113.6 97.0353 1113.57 97.2333C1113.44 98.0204 1113.21 98.7839 1112.95 99.5332C1112.23 101.602 1111.28 103.591 1110.31 105.561C1108.04 110.213 1105.51 114.728 1103.23 119.38C1102.41 121.062 1101.56 122.782 1101.01 124.583C1100.83 125.153 1100.71 125.737 1100.72 126.336C1100.74 128.325 1100.49 130.262 1099.91 132.166C1097.54 139.98 1090.79 145.4 1083.35 148.171C1079.67 149.543 1074.96 151.07 1071.3 148.878C1069.84 148.006 1068.76 146.578 1068.63 144.849C1068.49 143.039 1069.11 141.276 1069.6 139.556C1070.1 137.807 1070.52 136.002 1070.22 134.178C1069.95 132.543 1068.99 131.082 1067.73 130.036C1064.85 127.66 1060.99 127.048 1057.39 126.689C1053.34 126.284 1049.24 126.355 1045.22 125.657C1043.31 125.327 1041.4 124.823 1039.64 123.989C1037.92 123.169 1036.14 122.075 1035.24 120.322C1033.5 116.962 1035.85 112.89 1038.14 110.444C1040.77 107.64 1044.03 105.49 1047.53 103.945C1051.04 102.399 1054.85 101.456 1058.66 101.027C1060.42 100.829 1062.19 100.815 1063.95 100.669C1065.6 100.537 1067.25 100.311 1068.89 100.056C1075.97 98.9535 1083.12 97.0683 1090.34 97.2804C1091.81 97.3228 1093.27 97.4784 1094.69 97.8365C1095.63 98.0722 1096.02 96.6442 1095.1 96.4132Z" fill="#659FEB"/>
</g>
</g>
<g opacity="0.4">
<g opacity="0.4">
<path opacity="0.4" d="M1066.91 128.198C1067.18 130.531 1066.25 132.949 1065.47 135.103C1064.5 137.785 1063.37 140.405 1062.54 143.139C1061.89 145.288 1061.24 147.866 1062.03 150.062C1063.08 152.979 1065.69 155.19 1068.43 156.472C1074.7 159.403 1082.16 158.569 1088.36 155.897C1095 153.041 1100.46 147.936 1104.2 141.805C1108.17 135.287 1110.25 127.784 1111.11 120.248C1111.21 119.324 1111.3 118.4 1111.37 117.476C1111.44 116.524 1109.96 116.529 1109.89 117.476C1109.35 124.716 1107.71 131.992 1104.37 138.478C1101.16 144.694 1096.37 150.006 1090.19 153.366C1084.49 156.462 1077.44 157.928 1071.14 155.944C1068.28 155.044 1065.52 153.356 1063.98 150.717C1063.44 149.784 1063.16 148.874 1063.17 147.795C1063.17 146.664 1063.41 145.552 1063.7 144.463C1064.4 141.824 1065.47 139.298 1066.43 136.748C1067.3 134.448 1068.21 132.063 1068.41 129.594C1068.44 129.127 1068.44 128.66 1068.39 128.194C1068.28 127.265 1066.8 127.256 1066.91 128.198Z" fill="#659FEB"/>
</g>
</g>
<g opacity="0.4">
<path d="M1111.55 100.94C1114.14 107.425 1127.04 150.167 1130.59 156.191C1132.86 160.055 1135.36 163.854 1138.7 166.847C1142.37 170.146 1146.91 172.323 1151.45 174.256C1157.89 176.994 1165.52 179.266 1171.63 175.853C1176.9 172.908 1179.33 166.394 1179.1 160.366C1178.88 154.338 1170.69 104.857 1168.32 99.3096" fill="#E75314"/>
<g opacity="0.4">
<path d="M1110.84 101.138C1112.37 104.984 1113.54 108.99 1114.81 112.925C1116.86 119.231 1118.88 125.542 1120.95 131.838C1122.88 137.73 1124.82 143.626 1126.96 149.442C1127.67 151.364 1128.39 153.292 1129.24 155.158C1129.63 156.021 1130.09 156.817 1130.58 157.628C1131.93 159.867 1133.38 162.053 1135.05 164.08C1138.46 168.223 1142.86 171.117 1147.68 173.384C1152.29 175.552 1157.15 177.592 1162.25 178.172C1166.97 178.709 1171.82 177.555 1175.16 174.02C1178.17 170.829 1179.64 166.389 1179.83 162.063C1179.91 160.404 1179.73 158.778 1179.52 157.133C1179.26 154.975 1178.95 152.821 1178.64 150.667C1177.75 144.601 1176.76 138.545 1175.75 132.503C1174.67 126.131 1173.55 119.764 1172.33 113.415C1171.49 109.089 1170.72 104.687 1169.48 100.455C1169.33 99.9409 1169.16 99.4319 1168.95 98.9371C1168.8 98.5647 1168.26 98.494 1167.94 98.6731C1167.56 98.8899 1167.52 99.3188 1167.68 99.6864C1167.56 99.4131 1167.69 99.7289 1167.72 99.8043C1167.76 99.9221 1167.8 100.04 1167.84 100.158C1167.94 100.436 1168.02 100.714 1168.1 100.997C1168.31 101.751 1168.5 102.514 1168.69 103.278C1169.2 105.427 1169.65 107.585 1170.09 109.753C1171.3 115.725 1172.38 121.72 1173.43 127.724C1174.51 133.983 1175.55 140.251 1176.52 146.529C1177.17 150.78 1177.84 154.885 1178.26 159.103C1178.95 166.097 1175.94 174.246 1168.59 176.315C1163.83 177.654 1158.71 176.282 1154.22 174.59C1149.43 172.785 1144.51 170.589 1140.47 167.393C1136.55 164.283 1133.61 160.055 1131.16 155.729C1130.35 154.305 1129.9 153.038 1129.31 151.529C1127.26 146.241 1125.47 140.845 1123.69 135.463C1121.58 129.11 1119.53 122.738 1117.47 116.37C1115.97 111.728 1114.52 107.067 1112.89 102.462C1112.69 101.892 1112.48 101.322 1112.26 100.756C1111.92 99.8702 1110.48 100.247 1110.84 101.138Z" fill="#E75314"/>
</g>
</g>
<g opacity="0.4">
<path d="M1160.89 84.4392C1164.07 78.5668 1167.28 72.6143 1168.85 66.1292C1170.42 59.6441 1170.2 52.4521 1166.79 46.7164C1166.11 45.5711 1165.27 44.4589 1164.11 43.8132C1162.94 43.1628 1161.38 43.078 1160.33 43.898C1159.47 44.5673 1159.1 45.6701 1158.78 46.7117C1157.97 49.3086 1157.17 51.9007 1156.36 54.4976C1156.2 55.0254 1156.02 55.5768 1155.63 55.9727C1154.72 56.8776 1153.12 56.4817 1152.15 55.6475C1151.18 54.8133 1150.55 53.6398 1149.57 52.8103C1147.03 50.6423 1142.83 51.5849 1140.63 54.1064C1138.43 56.6231 1144.21 99.1249 1144.33 102.462" fill="#E75314"/>
<g opacity="0.4">
<path opacity="0.4" d="M1161.53 84.8114C1164.76 78.8494 1168.04 72.7744 1169.61 66.1338C1171.02 60.153 1170.96 53.616 1168.3 47.9793C1167.11 45.4626 1165.11 42.3473 1161.91 42.5688C1160.48 42.6678 1159.34 43.5067 1158.71 44.7886C1157.97 46.2968 1157.59 48.0264 1157.09 49.6241C1156.84 50.4395 1156.59 51.2548 1156.33 52.0702C1156.05 52.9798 1155.82 53.9412 1155.46 54.8226C1154.91 56.1705 1153.42 55.8029 1152.53 54.9875C1151.41 53.979 1150.72 52.6216 1149.44 51.7874C1148.38 51.0993 1147.08 50.8071 1145.83 50.8589C1144.58 50.9108 1143.35 51.2737 1142.25 51.8675C1141.42 52.32 1140.42 52.9892 1139.92 53.8187C1139.57 54.3843 1139.53 55.1431 1139.47 55.7793C1139.25 58.2206 1139.43 60.7138 1139.57 63.1552C1140.02 70.6347 1140.86 78.0906 1141.7 85.5324C1142.31 90.9618 1143.07 96.3865 1143.55 101.83C1143.57 102.037 1143.59 102.245 1143.59 102.452C1143.63 103.399 1145.11 103.404 1145.07 102.452C1145.01 100.906 1144.77 99.3557 1144.6 97.8192C1144.25 94.8123 1143.9 91.8054 1143.55 88.7985C1142.7 81.4227 1141.87 74.0375 1141.3 66.6333C1141.07 63.7914 1140.87 60.9353 1140.87 58.0793C1140.87 57.1649 1140.89 56.2459 1141 55.341C1140.97 55.5767 1141.03 55.1478 1141.05 55.0488C1141.08 54.9168 1141.12 54.7896 1141.15 54.6623C1141.2 54.4644 1141.15 54.6906 1141.15 54.6623C1141.15 54.6529 1141.18 54.5681 1141.2 54.5586C1141.35 54.488 1140.95 54.799 1141.26 54.4927C1141.49 54.2664 1141.7 54.0355 1141.95 53.8329C1143.73 52.386 1146.51 51.7309 1148.56 52.9751C1149.79 53.7197 1150.44 55.0771 1151.48 56.0291C1152.41 56.8822 1153.76 57.4571 1155.03 57.1178C1156.56 56.7078 1156.93 55.1242 1157.34 53.7904C1157.87 52.0843 1158.4 50.3782 1158.93 48.6721C1159.17 47.9039 1159.39 47.131 1159.65 46.3722C1159.87 45.7124 1160.15 44.9866 1160.7 44.5247C1161.78 43.6245 1163.36 44.0675 1164.36 44.8593C1165.5 45.7783 1166.26 47.1592 1166.89 48.4553C1167.54 49.7938 1168.03 51.2171 1168.38 52.664C1169.09 55.5955 1169.19 58.6542 1168.88 61.647C1168.22 68.0802 1165.5 74.0987 1162.54 79.7732C1161.79 81.2106 1161.03 82.6339 1160.26 84.0573C1159.8 84.9056 1161.08 85.6503 1161.53 84.8114Z" fill="#659FEB"/>
</g>
</g>
</g>
<path d="M1028.85 51.9986C1045.68 65.3599 1074.54 44.2928 1074.54 44.2928L1080.47 39.1839C1087.65 35.9979 1090.02 33.5001 1090.02 33.5001L1085.36 35.6445L1090.93 31.2472C1091.07 31.1247 1090.42 31.2143 1090.25 31.3038L1085.04 34.0138L1090.4 29.2489C1090.52 29.1405 1090.39 28.952 1090.25 29.0274L1083.85 32.5575C1083.85 32.5575 1088.89 27.8963 1088.09 28.0236C1087.29 28.1508 1080.66 32.7743 1080.66 32.7743C1080.66 32.7743 1083.4 28.3252 1082.57 28.5655C1082.03 28.7211 1079.93 31.4075 1078.52 33.2738C1077.62 34.4756 1077.87 34.8857 1076.55 35.6539L1067.01 41.3048C1059 46.2157 1044.78 49.9531 1034.1 41.1304C1034.1 41.1304 1030.02 38.986 1026.51 43.2984C1023 47.6108 1028.85 51.9986 1028.85 51.9986Z" fill="#FFC3A8" stroke="#FFA47A" stroke-width="0.695911" stroke-miterlimit="10" stroke-linecap="round" stroke-linejoin="round"/>
<path d="M1053.5 45.8529C1047.09 46.7201 1042.01 44.7784 1034.1 41.1352C1034.1 41.1352 1030.02 38.9908 1026.51 43.3032C1023 47.6156 1028.86 52.0034 1028.86 52.0034C1034.52 56.4996 1038.26 58.6534 1045.09 57.4705L1053.5 45.8529Z" fill="#FF7F4D" stroke="#FF7F4D" stroke-width="0.280864" stroke-miterlimit="10"/>
<path d="M1053.87 45.8154L1050.48 55.8871C1050.48 55.8871 1047.87 56.4715 1046.24 56.4904L1053.87 45.8154Z" fill="#EB6B1B"/>
<path d="M1077.07 34.8618C1077.36 35.3143 1077.57 36.0542 1077.27 36.2427C1076.96 36.436 1076.25 36.0024 1075.97 35.5499" fill="#CF5540"/>
<path d="M1081.73 31.6151C1081.73 31.6151 1080.98 33.7643 1080.98 33.703L1083.98 30.1353L1081.73 31.6151Z" fill="#CF5540"/>
<path d="M1024.29 1.19287C1029.29 2.75287 1041.78 19.6065 1041.78 19.6065C1043.53 21.0958 1045.55 24.1499 1046.12 27.0672C1046.33 28.1323 1045.6 31.2665 1044.75 31.9263L1028.12 45.429C1028.12 45.429 1014.73 40.6878 1017.96 30.3616C1021.19 20.0354 1023.92 22.2411 1022.33 16.3263C1020.74 10.4162 1024.29 1.19287 1024.29 1.19287Z" fill="#00043B"/>
<path d="M1045.38 25.908C1044.49 23.5421 1043.62 21.1526 1042.44 18.9092C1041.2 16.5527 1039.58 14.4554 1037.98 12.344C1036.03 9.78957 1034.04 7.34824 1031.6 5.25096C1029.74 3.65325 1027.82 2.13096 1025.93 0.575669C1025.63 0.330593 1025.2 0.754763 1025.5 0.999839C1028.28 3.29035 1031.25 5.45362 1033.72 8.08347C1034.89 9.32298 1035.94 10.6615 1036.97 12.0094C1038.52 14.0218 1040.1 16.0249 1041.38 18.2258C1042.81 20.7049 1043.79 23.4007 1044.8 26.0682C1044.93 26.4264 1045.52 26.2709 1045.38 25.908Z" fill="#00043B"/>
<path d="M1034.44 27.7975C1034.34 27.9012 1034.19 27.9012 1034.1 27.7975C1033.72 27.3592 1032.71 26.4354 1031.48 27.3922C1030.23 28.3583 1031.58 30.0597 1031.94 30.8562C1032.47 32.0203 1032.87 35.5598 1031.63 38.4677C1030.74 40.565 1027.13 44.2882 1027.13 44.2882C1027.13 44.2882 1032.07 49.8024 1035.69 47.3941C1035.69 47.3941 1036.04 39.6224 1037.23 38.0859C1037.26 38.053 1040.33 39.8957 1043.81 34.6832C1047.09 29.7722 1043.84 26.6994 1043.05 26.0725C1042.4 25.54 1039.36 22.6509 1034.44 27.7975Z" fill="#FFC3A8"/>
<path d="M1035.95 44.2461C1035.83 44.2555 1030.88 46.6686 1030.88 46.6686C1030.88 46.6686 1033.17 48.9874 1035.69 47.3897L1035.95 44.2461Z" fill="#CF5540"/>
<path d="M1042.69 35.9038L1039.92 34.3579C1039.92 34.3579 1039.87 36.0734 1040.75 36.3798C1041.63 36.6908 1042.69 35.9038 1042.69 35.9038Z" fill="white"/>
<path d="M1033.64 28.5046C1033.28 28.1323 1032.57 27.9532 1032.2 28.3208C1031.83 28.6884 1031.92 29.4613 1032.29 29.8337" fill="#CF5540"/>
<path d="M1042.56 33.5186L1041.63 34.8288L1042.4 35.1681C1042.54 35.2294 1042.69 35.121 1042.68 34.9654L1042.56 33.5186Z" fill="#CF5540"/>
<path d="M1045.28 28.4572C1045.28 28.4572 1037.28 30.1491 1034.1 27.7974C1030.91 25.4456 1039.12 19.2763 1042.18 22.9335C1045.25 26.5908 1045.28 28.4572 1045.28 28.4572Z" fill="#00043B"/>
<path d="M1037.26 38.0959C1037.26 38.0959 1035.47 37.2617 1034.47 35.2445C1033.91 34.1181 1033.91 39.5899 1036.37 40.8813C1036.37 40.8813 1036.81 39.3967 1037.26 38.0959Z" fill="#CF5540"/>
<path d="M1041.5 30.4271C1041.15 30.4696 1041.97 29.8847 1042.36 29.9791C1042.76 30.0734 1043.01 30.4271 1042.93 30.7714C1042.93 30.7714 1042.34 30.3328 1041.5 30.4271Z" fill="#00043B"/>
<path d="M1045.17 31.5726C1044.86 31.3038 1044.4 31.2943 1044.17 31.5632C1044.17 31.5632 1044.63 31.7141 1045.02 32.1622" fill="#00043B"/>
<path d="M1041.46 32.6661C1041.34 32.9208 1041.34 33.1755 1041.46 33.2368C1041.59 33.2981 1041.79 33.1378 1041.91 32.8831C1042.03 32.6284 1042.03 32.3737 1041.91 32.3124C1041.79 32.2511 1041.59 32.4114 1041.46 32.6661Z" fill="#00043B"/>
<path d="M1043.22 33.5185C1043.1 33.7637 1043.1 34.0042 1043.22 34.0656C1043.34 34.1222 1043.53 33.9712 1043.65 33.726C1043.77 33.4807 1043.77 33.2402 1043.65 33.1836C1043.53 33.1223 1043.34 33.2732 1043.22 33.5185Z" fill="#00043B"/>
<path opacity="0.37" d="M1036.53 32.8119C1036.27 33.6225 1036.73 34.485 1037.54 34.7395C1038.35 34.994 1039.21 34.5416 1039.47 33.7309C1039.72 32.9203 1039.27 32.0578 1038.46 31.8033C1037.65 31.5488 1036.78 32.0013 1036.53 32.8119Z" fill="#E8632E" stroke="#E8632E" stroke-width="0.149747" stroke-miterlimit="10"/>
<path d="M1032.89 26.0679C1033.81 27.0859 1034.6 28.2406 1035.69 29.089C1036.69 29.8713 1037.83 30.2107 1039.1 30.1258C1041.52 29.9656 1044.18 29.2539 1045.98 27.5667C1046.22 27.3499 1045.87 27.0011 1045.64 27.2179C1043.94 28.8062 1041.38 29.4801 1039.1 29.631C1037.79 29.7158 1036.66 29.3058 1035.67 28.4386C1034.76 27.6279 1034.05 26.6146 1033.24 25.7145C1033.02 25.4835 1032.68 25.8323 1032.89 26.0679Z" fill="#00043B"/>
<path d="M963.019 50.5524C962.453 46.8292 962.123 37.6294 962.123 37.6294L946.172 38.4919C948.2 39.4722 955.331 43.9024 955.331 43.9024L956.59 50.9954C956.586 50.9954 963.024 50.4864 963.019 50.5524Z" fill="#FFC3A8"/>
<path d="M955.284 43.8921L945.955 38.6748C945.535 38.4438 945.639 37.8076 946.111 37.7322C949.978 37.1336 960.411 35.5972 963.156 35.2013C963.491 35.1542 963.769 35.4464 963.717 35.781C963.425 37.6379 963.028 42.7892 962.769 44.3021C962.727 44.5425 959.67 40.7344 958.6 41.3518C957.675 41.8843 955.364 43.8685 955.284 43.8921Z" fill="#CF5540" stroke="#659FEB" stroke-width="0.149747" stroke-miterlimit="10"/>
<path d="M954.732 43.6243L956.203 41.6496C956.552 41.183 956.453 40.5184 955.986 40.1697C955.519 39.8209 954.854 39.9199 954.505 40.3865L952.854 42.6016" stroke="#F8F1EE" stroke-width="0.34147" stroke-miterlimit="10"/>
<path d="M960.1 46.229C960.199 48.4583 960.345 50.6828 960.345 50.6828L963.128 50.5509L962.769 44.3014C962.769 44.3014 960.491 41.7234 960.128 41.7517C959.944 41.7658 959.996 43.9998 960.1 46.229Z" fill="#EDA07C"/>
<path d="M951.581 80.47C949.105 78.0098 946.658 70.5161 946.658 70.5161C946.658 70.5161 929.73 75.5307 929.886 75.5826C930.037 75.6344 940.154 79.419 940.154 79.419L946.346 84.0613C946.351 84.0566 951.039 80.7433 951.581 80.47Z" fill="#FFC3A8" stroke="#FFA47A" stroke-width="0.614647" stroke-miterlimit="10"/>
<path d="M939.857 79.6826L929.806 75.9357C929.358 75.7661 929.367 75.1204 929.825 74.9837C933.57 73.8432 943.677 70.841 946.337 70.0586C946.658 69.9644 947.247 70.4828 947.346 70.808C947.959 72.8346 949.139 76.0536 949.7 77.1093C949.813 77.3261 943.677 76.0253 942.705 76.7888C941.866 77.4486 940.144 79.8475 939.857 79.6826Z" fill="#CF5540" stroke="#659FEB" stroke-width="0.149747" stroke-miterlimit="10"/>
<path d="M939.055 79.2357L940.059 76.7237C940.276 76.1817 940.017 75.5643 939.475 75.3475C938.932 75.1307 938.314 75.3899 938.097 75.9319L937.064 78.4911" stroke="#F8F1EE" stroke-width="0.34147" stroke-miterlimit="10"/>
<path d="M947.799 83.4199L941.333 78.2026L939.856 79.6825L946.445 84.4521L947.799 83.4199Z" fill="#EDA07C"/>
<path d="M1014.09 68.1537C1016.14 68.936 1017.6 70.6468 1018.34 74.158C1019.08 77.6692 1022.57 71.9712 1022.49 75.4965C1021.12 76.26 1013.65 85.8839 1011.06 86.9538C999.615 91.7045 990.899 93.7499 979.763 91.5018C968.868 89.3009 962.652 76.8821 959.483 68.6674C956.988 62.1964 957.025 56.9132 955.889 50.3103C956.219 49.5468 962.666 49.3677 963.015 49.6646C967.406 63.2804 973.49 70.8589 981.763 72.4283C989.493 73.8941 994.983 72.6876 1000.61 70.8778C1000.61 70.8778 1006.93 65.4107 1014.09 68.1537Z" fill="#8AA4D7" stroke="#778091" stroke-width="0.142389" stroke-miterlimit="10"/>
<g opacity="0.43">
<path opacity="0.43" d="M981.759 72.429C989.489 73.8947 994.979 72.6882 1000.61 70.8784C1000.61 70.8784 1006.93 65.4113 1014.09 68.1543C1016.14 68.9366 1017.6 70.6474 1018.34 74.1586C1019.08 77.6698 1022.37 72.3394 1022.28 75.8647C1020.91 76.6282 1013.64 85.8846 1011.06 86.9544" fill="#365185"/>
</g>
<path d="M1021.82 74.1818C1018.24 70.8686 1011.42 65.6136 1010.85 65.9812C1004.69 66.7211 998.709 71.5237 995.945 76.7928C995.412 77.8061 994.766 78.7534 994.002 79.6017C990.526 83.4711 986.616 86.8362 980.103 89.3388C972.245 92.3598 962.666 89.6263 951.757 80.3652C950.554 81.6378 946.328 83.6266 946.451 84.4514C950.898 89.466 953.648 93.6795 959.181 97.8693C966.203 103.186 978.032 110.472 988.451 106.607C997.832 103.129 1005.54 97.4451 1011.78 89.3529L1021.82 74.1818Z" fill="#B6C8ED" stroke="#4465A6" stroke-width="0.142389" stroke-miterlimit="10"/>
<path opacity="0.5" d="M1010.5 90.8893C1010.5 90.8893 979.145 121.477 946.89 84.1309C946.89 84.1309 954.37 97.0633 969.727 104.199C970.486 103.671 986.437 117.48 1010.5 90.8893Z" fill="#4465A6"/>
<path d="M1035.92 44.9116C1036.14 45.3405 1037.68 56.449 1035.52 60.1864C1034.07 62.6937 1025.91 70.1685 1022.26 74.7496C1022.26 74.7496 1014.85 70.1591 1010.71 66.1813C1011.86 61.8548 1015.76 45.0718 1023.73 40.6558C1023.73 40.6558 1027.32 41.4617 1028.7 42.0414C1028.7 42.0461 1033.03 49.3795 1035.92 44.9116Z" fill="#FFA47A" stroke="#FFA47A" stroke-width="0.695911" stroke-miterlimit="10" stroke-linecap="round" stroke-linejoin="round"/>
<path d="M1011.05 63.6924L1010.71 65.012L1019.72 72.911L1011.05 63.6924Z" fill="#CF5540"/>
<path d="M1035.92 44.9116C1036.14 45.3405 1037.68 56.449 1035.52 60.1864C1034.07 62.6937 1025.91 70.1685 1022.26 74.7496C1022.26 74.7496 1019.98 73.2367 1009.89 61.9396C1011.04 57.6131 1015.77 45.0671 1023.73 40.6558C1023.73 40.6558 1027.32 41.4617 1028.7 42.0414C1028.7 42.0461 1033.03 49.3795 1035.92 44.9116Z" fill="white" stroke="#F8F1EE" stroke-width="0.695911" stroke-miterlimit="10"/>
<path d="M1022.26 74.754C1022.26 74.754 1019.98 73.2411 1009.89 61.944C1011.04 57.6175 1015.77 45.0715 1023.73 40.6602C1023.73 40.6602 1027.32 41.4661 1028.7 42.0458" fill="white"/>
<path d="M1022.26 74.754C1022.26 74.754 1019.98 73.2411 1009.89 61.944C1011.04 57.6175 1015.77 45.0715 1023.73 40.6602C1023.73 40.6602 1027.32 41.4661 1028.7 42.0458" stroke="#F8F1EE" stroke-width="0.695911" stroke-miterlimit="10" stroke-linecap="round" stroke-linejoin="round"/>
<path d="M1106.8 146.692L1172.55 175.003C1175.23 176.139 1178.33 175.055 1179.72 172.501L1221.84 93.8975C1223.51 90.8293 1223.43 87.3276 1220.12 86.187C1220.12 86.187 1205.82 73.2263 1180.64 65.9353C1173.34 63.8239 1149.68 61.7549 1149.68 61.7549L1106.8 146.692Z" stroke="#FF9800" stroke-width="0.500179" stroke-miterlimit="10" stroke-linecap="round" stroke-linejoin="round"/>
<path d="M1109.74 147.899L1047.64 111.642C1045.14 110.143 1044.19 106.995 1045.44 104.37L1082.53 25.149C1084.02 21.9913 1087.59 21.732 1090.87 22.9339C1101.22 26.7278 1110.42 24.7813 1131.16 40.8385C1137.17 45.4902 1152.78 63.3996 1152.78 63.3996L1109.74 147.899Z" stroke="#FF9800" stroke-width="0.500179" stroke-miterlimit="10" stroke-linecap="round" stroke-linejoin="round"/>
<path d="M1218.06 87.3379C1218.06 87.3379 1204.3 74.872 1180.08 67.8591C1173.36 65.9126 1152.23 64.0086 1150.43 63.8483C1148.49 61.6426 1135.24 46.5846 1129.89 42.4419C1109.96 27.0068 1101.11 28.8779 1091.17 25.23C1088.01 24.0754 1084.59 24.3252 1083.14 27.3556L1047.5 103.503C1046.29 106.03 1047.21 109.055 1049.61 110.493L1109.18 145.27L1109.26 145.275L1172.3 172.77C1174.88 173.859 1177.86 172.817 1179.2 170.362L1219.71 94.7561C1221.31 91.8011 1221.24 88.436 1218.06 87.3379Z" fill="#FB7260" stroke="white" stroke-width="0.142389" stroke-miterlimit="10"/>
<path d="M1105.59 143.522L1112.37 147.057L1154.41 64.3297C1154.41 64.3297 1150.81 64.325 1147.55 61.2285L1105.59 143.522Z" fill="#1D2B47" stroke="#1D2B47" stroke-width="0.142389" stroke-miterlimit="10"/>
<path d="M1213.49 90.2702C1213.49 90.2702 1185.11 69.7922 1149.45 65.7673C1125.21 39.4735 1092.1 28.6572 1092.1 28.6572L1052.51 105.536C1060.43 107.671 1103.68 136.976 1110.14 142.179L1110.07 142.316C1110.15 142.32 1110.24 142.335 1110.36 142.353C1110.61 142.566 1110.8 142.731 1110.89 142.834L1111.07 142.49C1117.32 143.815 1146.02 152.576 1174.61 167.507L1213.49 90.2702Z" fill="#CFB2A3"/>
<path d="M1129.63 50.1707C1129.63 50.1707 1133.43 38.9868 1141.32 35.7112C1141.77 35.5274 1142.27 35.8244 1142.31 36.3051L1142.55 38.8218L1145.52 39.2224C1146.12 39.3025 1146.36 40.0378 1145.92 40.4478C1142.98 43.1908 1135.18 51.2358 1135.4 54.2145L1129.63 50.1707Z" fill="#FF7F4D" stroke="#FF7F4D" stroke-width="0.280864" stroke-miterlimit="10"/>
<g opacity="0.76">
<g opacity="0.76">
<g opacity="0.76">
<path opacity="0.76" d="M1131.49 50.1993C1131.82 49.3651 1132.03 48.4932 1132.4 47.6731C1132.74 46.9049 1133.16 46.1697 1133.62 45.4675C1134.56 44.0394 1135.66 42.7386 1136.79 41.4567C1137.24 40.9336 1136.48 40.1606 1136.02 40.6885C1134.83 42.0364 1133.66 43.4126 1132.68 44.916C1132.21 45.6418 1131.78 46.4006 1131.43 47.1924C1131.03 48.0785 1130.8 49.0116 1130.44 49.9118C1130.18 50.5622 1131.23 50.8403 1131.49 50.1993Z" fill="#F2FCF9"/>
</g>
</g>
<g opacity="0.76">
<g opacity="0.76">
<path opacity="0.76" d="M1138.39 39.5594C1138.81 39.2012 1139.23 38.8477 1139.65 38.4895C1139.75 38.4047 1139.81 38.235 1139.81 38.1031C1139.81 37.9711 1139.75 37.8109 1139.65 37.7166C1139.55 37.6224 1139.41 37.5517 1139.26 37.5564C1139.11 37.5611 1139 37.6176 1138.88 37.7166C1138.46 38.0748 1138.03 38.4283 1137.61 38.7865C1137.51 38.8713 1137.45 39.041 1137.45 39.1729C1137.45 39.3049 1137.51 39.4651 1137.61 39.5594C1137.72 39.6537 1137.85 39.7244 1138 39.7196C1138.15 39.7102 1138.27 39.6584 1138.39 39.5594Z" fill="#F2FCF9"/>
</g>
</g>
</g>
<path d="M1093.48 31.5116C1098.91 30.1401 1099.06 31.2146 1104.48 32.6097C1109.9 34 1113.77 35.4799 1118.6 38.2841C1123.06 40.8716 1128.46 44.5571 1132.16 48.1531C1138.12 53.9643 1143.49 59.3229 1149.06 65.5158L1109.95 140.735C1109.95 140.735 1072.93 96.3294 1055.99 104.587L1093.48 31.5116Z" fill="white"/>
<path d="M1093.59 31.917C1095.26 31.4975 1097.03 31.0969 1098.75 31.408C1100.41 31.7049 1102 32.3694 1103.62 32.8172C1105.75 33.4063 1107.89 33.9577 1109.99 34.7024C1112.01 35.4187 1113.96 36.2765 1115.86 37.2615C1119.81 39.307 1123.59 41.7577 1127.12 44.4394C1130.84 47.2578 1134.09 50.6181 1137.4 53.9078C1141.28 57.7866 1145.09 61.7408 1148.76 65.8175C1148.73 65.6479 1148.71 65.4782 1148.69 65.3038C1148.34 65.9731 1147.99 66.647 1147.64 67.3163C1146.7 69.1402 1145.74 70.9688 1144.8 72.7928C1143.39 75.4933 1141.99 78.1939 1140.58 80.8944C1138.88 84.1747 1137.17 87.4502 1135.47 90.7304C1133.59 94.3359 1131.72 97.946 1129.84 101.551C1127.95 105.195 1126.06 108.838 1124.17 112.476C1122.4 115.874 1120.63 119.268 1118.87 122.666C1117.38 125.536 1115.88 128.406 1114.39 131.276C1113.32 133.341 1112.25 135.405 1111.18 137.464C1110.85 138.105 1110.51 138.742 1110.18 139.383C1110.01 139.708 1109.78 140.042 1109.66 140.387C1109.64 140.429 1109.61 140.471 1109.59 140.514C1109.81 140.485 1110.04 140.457 1110.26 140.429C1109 138.921 1107.7 137.455 1106.38 135.999C1103.21 132.478 1099.93 129.047 1096.55 125.724C1092.35 121.605 1087.98 117.637 1083.34 114.008C1079.02 110.629 1074.43 107.424 1069.37 105.237C1065.6 103.606 1061.14 102.348 1057.09 103.682C1056.64 103.828 1056.21 104.007 1055.78 104.214C1055.98 104.408 1056.17 104.601 1056.36 104.794C1056.7 104.144 1057.03 103.493 1057.36 102.843C1058.27 101.075 1059.18 99.3081 1060.08 97.536C1061.43 94.9061 1062.78 92.2763 1064.13 89.6464C1065.77 86.451 1067.41 83.2556 1069.05 80.0602C1070.85 76.5632 1072.64 73.0614 1074.44 69.5644C1076.25 66.0296 1078.06 62.4996 1079.87 58.9649C1081.56 55.6705 1083.26 52.3761 1084.94 49.0817C1086.38 46.2822 1087.82 43.4874 1089.25 40.6879C1090.28 38.6848 1091.3 36.6865 1092.33 34.6835C1092.82 33.7362 1093.32 32.7936 1093.79 31.8369C1093.81 31.7944 1093.83 31.7567 1093.85 31.7143C1094.1 31.2289 1093.37 30.8047 1093.12 31.2854C1092.79 31.9358 1092.46 32.5862 1092.12 33.2366C1091.22 35.004 1090.31 36.7714 1089.4 38.5434C1088.05 41.1733 1086.7 43.8032 1085.35 46.433C1083.71 49.6284 1082.08 52.8238 1080.43 56.0192C1078.64 59.5163 1076.85 63.018 1075.05 66.5151C1073.24 70.0498 1071.43 73.5798 1069.61 77.1146C1067.92 80.409 1066.23 83.7034 1064.54 86.9977C1063.11 89.7973 1061.67 92.5921 1060.23 95.3916C1059.21 97.3946 1058.18 99.3929 1057.15 101.396C1056.67 102.343 1056.16 103.286 1055.69 104.243C1055.67 104.285 1055.65 104.323 1055.63 104.365C1055.43 104.752 1055.83 105.129 1056.21 104.945C1059.9 103.163 1064.25 104.115 1067.89 105.534C1072.86 107.466 1077.39 110.53 1081.62 113.739C1086.26 117.269 1090.63 121.172 1094.82 125.225C1098.33 128.613 1101.72 132.125 1105 135.73C1106.05 136.894 1107.11 138.068 1108.14 139.251C1108.62 139.807 1109.07 140.438 1109.6 140.952C1109.62 140.976 1109.64 141.004 1109.66 141.027C1109.83 141.23 1110.21 141.169 1110.33 140.943C1110.68 140.273 1111.03 139.599 1111.37 138.93C1112.32 137.106 1113.28 135.278 1114.22 133.454C1115.63 130.753 1117.03 128.053 1118.44 125.352C1120.14 122.072 1121.85 118.796 1123.55 115.516C1125.42 111.911 1127.3 108.3 1129.17 104.695C1131.07 101.052 1132.96 97.4087 1134.85 93.7703C1136.62 90.3722 1138.39 86.9789 1140.15 83.5808C1141.64 80.7106 1143.14 77.8404 1144.63 74.9702C1145.7 72.9059 1146.77 70.8416 1147.84 68.782C1148.35 67.8064 1148.87 66.8403 1149.36 65.86C1149.38 65.8175 1149.4 65.7751 1149.43 65.7327C1149.52 65.5583 1149.49 65.3651 1149.36 65.219C1146.03 61.5193 1142.59 57.9186 1139.07 54.3885C1135.7 50.9999 1132.38 47.4887 1128.62 44.5289C1125.04 41.7106 1121.19 39.175 1117.18 37.0023C1113.36 34.9333 1109.31 33.444 1105.12 32.3411C1103.93 32.0301 1102.75 31.6955 1101.57 31.3231C1100.78 31.0686 1099.98 30.7953 1099.15 30.6303C1097.21 30.2392 1095.26 30.635 1093.36 31.1063C1092.83 31.2336 1093.06 32.0489 1093.59 31.917Z" fill="#F8F1EE"/>
<path d="M1169.19 160.282C1162.77 156.13 1155.96 152.586 1148.89 149.692C1141.74 146.774 1134.33 144.526 1126.77 142.995C1122.57 142.142 1118.32 141.515 1114.04 141.1C1113.5 141.048 1113.51 141.892 1114.04 141.944C1121.62 142.669 1129.12 144.116 1136.42 146.237C1143.73 148.363 1150.83 151.162 1157.62 154.598C1161.44 156.535 1165.17 158.679 1168.76 161.008C1169.22 161.309 1169.65 160.579 1169.19 160.282Z" fill="#F8F1EE"/>
<path d="M1110.64 142.255C1118.9 143.914 1127.05 146.129 1135.05 148.749C1143.36 151.474 1151.54 154.641 1159.46 158.345C1163.68 160.315 1167.82 162.441 1171.85 164.764C1172.33 165.038 1172.75 164.307 1172.28 164.034C1164.96 159.816 1157.28 156.238 1149.44 153.085C1141.32 149.819 1133 147.02 1124.56 144.701C1120.04 143.457 1115.47 142.359 1110.87 141.435C1110.34 141.331 1110.11 142.147 1110.64 142.255Z" fill="#F8F1EE"/>
<path d="M1058.24 105.02C1062.11 105.614 1065.66 107.306 1069.1 109.106C1072.39 110.831 1075.6 112.693 1078.74 114.687C1085.01 118.669 1090.95 123.17 1096.48 128.133C1099.57 130.909 1102.53 133.836 1105.36 136.885C1105.73 137.285 1106.33 136.687 1105.96 136.286C1100.87 130.781 1095.32 125.71 1089.38 121.125C1083.47 116.558 1077.19 112.481 1070.61 108.951C1066.78 106.901 1062.81 104.869 1058.47 104.205C1057.94 104.12 1057.7 104.935 1058.24 105.02Z" fill="#F8F1EE"/>
<path d="M1056.08 105.422C1063.9 108.844 1071.38 113.01 1078.58 117.577C1086.12 122.361 1093.37 127.606 1100.28 133.257C1103.92 136.236 1107.46 139.332 1110.88 142.565C1111.28 142.938 1111.88 142.344 1111.48 141.967C1105.24 136.075 1098.6 130.618 1091.69 125.532C1084.5 120.244 1077.01 115.348 1069.21 111.016C1065.07 108.721 1060.84 106.586 1056.5 104.692C1056.01 104.475 1055.58 105.205 1056.08 105.422Z" fill="#F8F1EE"/>
<path d="M1210.9 91.2831C1207.07 98.5176 1203.23 105.747 1199.39 112.982C1195.56 120.216 1191.72 127.446 1187.89 134.68C1185.72 138.762 1183.55 142.848 1181.39 146.929C1181.13 147.41 1181.86 147.839 1182.12 147.358C1185.95 140.124 1189.79 132.894 1193.63 125.66C1197.46 118.425 1201.3 111.196 1205.13 103.961C1207.3 99.8796 1209.47 95.7935 1211.63 91.712C1211.89 91.2313 1211.16 90.8024 1210.9 91.2831Z" fill="#F8F1EE"/>
<path d="M1209.72 90.2252C1207.63 85.0315 1206.67 85.5405 1202.35 81.9821C1198.03 78.4285 1194.56 76.1757 1189.45 73.9182C1184.73 71.8398 1178.57 69.6482 1173.49 68.7811C1165.27 67.386 1157.84 66.4575 1149.55 65.6045L1110.04 141.196C1110.04 141.196 1169.93 146.593 1173.22 165.134L1209.72 90.2252Z" fill="white"/>
<path d="M1210.12 90.1127C1209.52 88.6328 1208.88 87.1388 1207.85 85.904C1207.03 84.9331 1205.97 84.212 1204.96 83.4674C1203.28 82.2373 1201.71 80.88 1200.05 79.6263C1198.29 78.2925 1196.45 77.0624 1194.54 75.9737C1190.53 73.7068 1186.18 71.9724 1181.81 70.5161C1179.54 69.762 1177.24 69.0928 1174.89 68.612C1172.38 68.0936 1169.82 67.7401 1167.28 67.3631C1161.39 66.4865 1155.48 65.789 1149.55 65.181C1149.42 65.1668 1149.25 65.2705 1149.19 65.3883C1148.84 66.0623 1148.49 66.7363 1148.13 67.4102C1147.18 69.2436 1146.22 71.0769 1145.26 72.9056C1143.85 75.6156 1142.43 78.3255 1141.01 81.0355C1139.28 84.344 1137.56 87.6478 1135.82 90.9563C1133.93 94.5806 1132.04 98.2002 1130.14 101.825C1128.23 105.482 1126.32 109.139 1124.41 112.796C1122.62 116.209 1120.84 119.616 1119.06 123.028C1117.55 125.913 1116.04 128.792 1114.53 131.677C1113.45 133.75 1112.37 135.824 1111.28 137.898C1110.77 138.883 1110.23 139.858 1109.74 140.848C1109.71 140.891 1109.7 140.933 1109.67 140.975C1109.52 141.277 1109.71 141.583 1110.04 141.612C1112.02 141.791 1113.99 142.031 1115.96 142.281C1120.77 142.889 1125.55 143.633 1130.32 144.515C1136.25 145.618 1142.15 146.933 1147.94 148.643C1153.37 150.251 1158.81 152.169 1163.73 155.011C1167.28 157.061 1171.14 159.874 1172.48 163.937C1172.62 164.361 1172.73 164.8 1172.81 165.238C1172.87 165.587 1173.43 165.657 1173.58 165.337C1173.91 164.672 1174.24 164.003 1174.56 163.339C1175.44 161.524 1176.33 159.709 1177.21 157.895C1178.52 155.213 1179.82 152.527 1181.14 149.845C1182.74 146.556 1184.34 143.261 1185.95 139.971C1187.7 136.385 1189.44 132.794 1191.19 129.207C1192.96 125.583 1194.72 121.963 1196.49 118.339C1198.13 114.96 1199.78 111.585 1201.43 108.206C1202.82 105.35 1204.21 102.494 1205.6 99.6424C1206.6 97.5875 1207.6 95.5327 1208.6 93.4778C1209.08 92.5022 1209.57 91.5313 1210.03 90.551C1210.05 90.5086 1210.07 90.4662 1210.09 90.4238C1210.33 89.9383 1209.6 89.5095 1209.36 89.9949C1209.03 90.6594 1208.71 91.3287 1208.38 91.9932C1207.5 93.8077 1206.61 95.6222 1205.73 97.4367C1204.43 100.118 1203.12 102.805 1201.81 105.486C1200.2 108.776 1198.6 112.071 1197 115.36C1195.25 118.947 1193.5 122.538 1191.75 126.125C1189.99 129.749 1188.22 133.369 1186.46 136.993C1184.81 140.372 1183.16 143.747 1181.52 147.126C1180.13 149.982 1178.74 152.838 1177.34 155.689C1176.34 157.744 1175.34 159.799 1174.34 161.854C1174.03 162.495 1173.71 163.141 1173.4 163.782C1173.25 164.102 1173.02 164.441 1172.92 164.781C1172.9 164.823 1172.87 164.866 1172.85 164.908C1173.11 164.941 1173.37 164.974 1173.63 165.007C1172.86 160.803 1169.44 157.683 1166.04 155.435C1161.36 152.343 1156.01 150.302 1150.7 148.601C1144.85 146.73 1138.87 145.316 1132.85 144.133C1127.77 143.134 1122.66 142.309 1117.52 141.63C1115.86 141.409 1114.19 141.206 1112.53 141.018C1112 140.961 1111.48 140.905 1110.95 140.848C1110.69 140.82 1110.39 140.744 1110.13 140.768C1110.1 140.773 1110.06 140.763 1110.03 140.759C1110.15 140.971 1110.28 141.183 1110.39 141.395C1110.75 140.721 1111.1 140.047 1111.45 139.373C1112.41 137.54 1113.37 135.706 1114.32 133.878C1115.74 131.168 1117.16 128.458 1118.57 125.748C1120.3 122.439 1122.03 119.135 1123.76 115.827C1125.66 112.203 1127.55 108.583 1129.44 104.959C1131.35 101.301 1133.27 97.6441 1135.18 93.9868C1136.96 90.5746 1138.74 87.1671 1140.53 83.7549C1142.04 80.8705 1143.54 77.9909 1145.05 75.1065C1146.14 73.0328 1147.22 70.9591 1148.3 68.8854C1148.64 68.2397 1148.98 67.594 1149.32 66.9484C1149.49 66.6232 1149.72 66.2838 1149.85 65.9351C1149.86 65.8926 1149.89 65.8502 1149.91 65.8078C1149.79 65.8785 1149.67 65.9492 1149.55 66.0152C1154.73 66.5477 1159.91 67.1463 1165.06 67.8768C1169.92 68.5696 1174.8 69.2436 1179.51 70.6622C1183.91 71.9865 1188.28 73.6597 1192.38 75.7617C1194.26 76.7278 1196.07 77.8165 1197.81 79.023C1199.64 80.2956 1201.34 81.7377 1203.1 83.1045C1204.31 84.0471 1205.66 84.8672 1206.75 85.9464C1207.97 87.1482 1208.68 88.7601 1209.31 90.3248C1209.51 90.8385 1210.33 90.617 1210.12 90.1127Z" fill="#F8F1EE"/>
<path opacity="0.42" d="M1148.68 65.6826C1148.68 65.6826 1125.23 104.254 1111.95 109.598C1093.63 116.965 1070.08 105.418 1070.08 105.418C1070.08 105.418 1105.99 128.549 1109.95 140.742L1148.68 65.6826Z" fill="#E0CFC8"/>
<path opacity="0.42" d="M1152.21 65.0215C1152.21 65.0215 1135.58 106.986 1139.34 120.795C1144.51 139.84 1167.94 151.632 1167.94 151.632C1167.94 151.632 1127.81 136.97 1115.69 141.174L1152.21 65.0215Z" fill="#E0CFC8"/>
<g opacity="0.46">
<g opacity="0.46">
<path opacity="0.46" d="M1095.65 40.022C1096.48 39.9513 1097.25 40.0361 1098.01 40.1775C1098.4 40.2341 1098.76 40.3472 1099.13 40.4367C1099.49 40.5451 1099.85 40.6677 1100.22 40.7855C1100.56 40.9316 1100.92 41.0636 1101.27 41.2191C1101.61 41.3935 1101.96 41.5396 1102.29 41.7422C1102.96 42.1193 1103.61 42.5529 1104.2 43.142L1104.16 43.2363C1102.72 42.7555 1101.3 42.2277 1099.87 41.7234C1098.45 41.1861 1097.02 40.6771 1095.61 40.1163L1095.65 40.022Z" fill="#659FEB"/>
</g>
<g opacity="0.46">
<path d="M1108.79 45.9326L1109.96 46.3851L1111.11 46.8705L1113.4 47.9026L1115.63 49.0385C1116.37 49.4391 1117.09 49.8538 1117.82 50.2639C1118.54 50.6927 1119.26 51.1216 1119.97 51.5694L1122.07 52.9503L1124.11 54.4113L1126.12 55.9289L1128.06 57.5313C1128.69 58.0827 1129.33 58.6247 1129.95 59.1856L1131.77 60.9152C1132.37 61.5043 1132.95 62.1029 1133.54 62.7062C1134.1 63.3236 1134.68 63.9315 1135.24 64.5584L1136.85 66.4718L1138.38 68.4607C1138.88 69.13 1139.36 69.8134 1139.83 70.5062L1139.75 70.5721C1135.5 65.4727 1130.72 60.8257 1125.51 56.7207C1120.31 52.5921 1114.69 48.9961 1108.75 46.0316L1108.79 45.9326Z" fill="#CFB2A3"/>
</g>
<g opacity="0.46">
<path d="M1090.3 49.4014L1091.32 49.4108L1092.33 49.4532L1094.37 49.6276L1096.4 49.9481C1097.07 50.0847 1097.73 50.245 1098.4 50.3911C1099.06 50.5655 1099.72 50.7493 1100.38 50.9472L1102.33 51.607C1102.97 51.8568 1103.6 52.1255 1104.23 52.3847L1106.1 53.2519L1107.91 54.2322C1108.5 54.5857 1109.1 54.9297 1109.68 55.2926L1111.37 56.4567C1111.93 56.8668 1112.46 57.2862 1113 57.7104C1113.52 58.1581 1114.05 58.5964 1114.55 59.0536L1116.02 60.4863L1117.38 62.0133C1117.82 62.5365 1118.24 63.0738 1118.64 63.6158L1118.57 63.6865C1114.88 59.77 1110.47 56.5416 1105.65 54.1474C1100.85 51.7249 1095.63 50.1272 1090.28 49.5098L1090.3 49.4014Z" fill="#CFB2A3"/>
</g>
<g opacity="0.46">
<path opacity="0.46" d="M1123.66 69.1626C1124.77 69.6056 1125.76 70.1759 1126.72 70.7933C1127.21 71.0902 1127.66 71.4343 1128.13 71.7547C1128.59 72.0941 1129.03 72.4476 1129.48 72.7916C1129.91 73.1639 1130.35 73.5221 1130.77 73.9039C1131.18 74.2998 1131.61 74.6674 1132.01 75.0868C1132.81 75.8975 1133.57 76.76 1134.23 77.745L1134.17 77.8204L1128.85 73.5645L1123.61 69.2333L1123.66 69.1626Z" fill="#659FEB"/>
</g>
<g opacity="0.46">
<path d="M1082.92 69.6855C1084.03 69.9825 1085.16 70.2605 1086.26 70.6234L1087.92 71.1466C1088.47 71.3257 1089.02 71.5189 1089.57 71.7074C1091.75 72.4945 1093.89 73.3947 1096.01 74.3373C1100.24 76.2602 1104.31 78.5507 1108.17 81.1428C1112.01 83.7633 1115.7 86.6193 1119.05 89.843C1120.75 91.436 1122.36 93.1044 1123.94 94.7964C1124.71 95.6588 1125.47 96.526 1126.23 97.3979C1126.99 98.2651 1127.73 99.1512 1128.47 100.042L1128.4 100.113C1125.2 96.7947 1122 93.4673 1118.54 90.418C1115.11 87.3451 1111.44 84.5409 1107.62 81.9676C1103.81 79.3802 1099.8 77.0849 1095.67 75.0301C1091.54 72.9894 1087.26 71.2455 1082.89 69.7751L1082.92 69.6855Z" fill="#CFB2A3"/>
</g>
<g opacity="0.46">
<path d="M1079.82 78.1025C1081.2 78.2486 1082.53 78.5974 1083.82 79.031C1084.47 79.2337 1085.1 79.5023 1085.73 79.7521C1086.35 80.0207 1086.97 80.3176 1087.59 80.6098C1088.18 80.935 1088.78 81.2508 1089.37 81.5996C1089.95 81.9625 1090.53 82.3112 1091.08 82.7166C1092.2 83.4989 1093.26 84.3661 1094.2 85.3935L1094.15 85.4784C1091.88 84.0315 1089.54 82.7071 1087.14 81.5053C1084.75 80.2752 1082.29 79.1724 1079.79 78.2015L1079.82 78.1025Z" fill="#CFB2A3"/>
</g>
<g opacity="0.46">
<path d="M1100.36 90.5688L1101.08 90.9789L1101.79 91.4172L1103.19 92.2891C1104.11 92.8924 1105.03 93.505 1105.92 94.1413C1106.83 94.7634 1107.7 95.4327 1108.59 96.0783L1111.19 98.0908C1112.04 98.7883 1112.9 99.4717 1113.74 100.174C1114.57 100.89 1115.42 101.588 1116.22 102.332C1117.05 103.058 1117.85 103.812 1118.65 104.571C1119.42 105.363 1120.23 106.112 1120.96 106.942L1120.9 107.022L1110.57 98.8731L1100.3 90.6443L1100.36 90.5688Z" fill="#CFB2A3"/>
</g>
<g opacity="0.46">
<path d="M1085.84 102.601C1086.81 102.483 1087.77 102.657 1088.66 102.949C1089.12 103.081 1089.54 103.289 1089.97 103.477C1090.38 103.689 1090.78 103.925 1091.18 104.165C1091.56 104.434 1091.94 104.698 1092.3 104.99C1092.65 105.297 1093 105.589 1093.32 105.933C1093.96 106.597 1094.54 107.333 1094.97 108.195L1094.9 108.27C1093.55 107.097 1092.15 105.966 1090.64 105.004C1089.89 104.514 1089.12 104.057 1088.32 103.666C1087.51 103.275 1086.68 102.935 1085.82 102.695L1085.84 102.601Z" fill="#CFB2A3"/>
</g>
<g opacity="0.46">
<path d="M1098.02 111.349C1099.26 112.056 1100.39 112.885 1101.47 113.757C1102.02 114.181 1102.53 114.652 1103.06 115.095C1103.57 115.557 1104.08 116.033 1104.58 116.505C1105.07 116.995 1105.56 117.48 1106.04 117.98C1106.51 118.494 1107 118.988 1107.44 119.526C1108.35 120.577 1109.21 121.67 1109.97 122.886L1109.9 122.957L1103.89 117.226L1097.96 111.419L1098.02 111.349Z" fill="#CFB2A3"/>
</g>
</g>
<g opacity="0.46">
<g opacity="0.46">
<path d="M1154.36 75.9411C1155.28 75.7102 1156.19 75.6725 1157.08 75.7149C1157.53 75.7196 1157.97 75.795 1158.41 75.8374C1158.85 75.9081 1159.29 75.9977 1159.72 76.0872C1160.15 76.205 1160.58 76.3181 1161.01 76.4595C1161.43 76.6198 1161.85 76.7517 1162.25 76.9497C1163.07 77.3173 1163.86 77.7603 1164.57 78.3777L1164.54 78.472C1162.87 77.9441 1161.19 77.4493 1159.49 77.0628C1157.79 76.6386 1156.07 76.3276 1154.34 76.0401L1154.36 75.9411Z" fill="#CFB2A3"/>
</g>
<g opacity="0.46">
<path d="M1170.78 80.353C1172.12 80.4897 1173.43 80.7678 1174.75 81.0176L1176.71 81.4983C1177.36 81.6774 1178 81.88 1178.65 82.0686C1179.29 82.2759 1179.92 82.488 1180.56 82.7142L1182.44 83.4353C1183.06 83.6945 1183.68 83.9726 1184.3 84.2365L1186.13 85.0943L1187.91 86.0369C1188.5 86.3715 1189.09 86.692 1189.67 87.0361L1191.38 88.1106C1191.94 88.4782 1192.5 88.8647 1193.04 89.2512C1193.58 89.6518 1194.13 90.0429 1194.66 90.453L1196.22 91.7255C1197.22 92.6304 1198.23 93.5117 1199.14 94.4967L1199.08 94.5721C1194.95 91.2259 1190.44 88.3416 1185.68 85.9851C1180.93 83.5956 1175.91 81.7292 1170.75 80.4426L1170.78 80.353Z" fill="#CFB2A3"/>
</g>
<g opacity="0.46">
<path d="M1149.88 86.1351C1151.68 85.9089 1153.5 85.9655 1155.29 86.187C1156.2 86.286 1157.08 86.4698 1157.97 86.6489C1158.42 86.7525 1158.85 86.8704 1159.29 86.9835L1160.6 87.3652L1161.88 87.8224C1162.3 87.9921 1162.73 88.1429 1163.14 88.322C1163.97 88.699 1164.79 89.0666 1165.59 89.5144C1167.17 90.3815 1168.68 91.3996 1170.01 92.6344L1169.96 92.7192C1166.93 90.867 1163.67 89.3918 1160.29 88.3173C1156.92 87.2144 1153.42 86.5075 1149.88 86.2388V86.1351Z" fill="#CFB2A3"/>
</g>
<g opacity="0.46">
<path d="M1177.12 95.4009C1178.93 95.8298 1180.67 96.4424 1182.38 97.1447C1183.24 97.484 1184.07 97.8846 1184.9 98.2617C1185.73 98.6623 1186.55 99.0864 1187.37 99.5106C1188.17 99.9631 1188.97 100.411 1189.76 100.887C1190.54 101.382 1191.32 101.853 1192.08 102.386C1193.6 103.422 1195.07 104.544 1196.42 105.821L1196.37 105.906C1193.28 103.95 1190.12 102.112 1186.89 100.392C1183.68 98.6434 1180.41 97.008 1177.08 95.4951L1177.12 95.4009Z" fill="#CFB2A3"/>
</g>
<g opacity="0.46">
<path d="M1143.61 98.0966C1144.56 98.0542 1145.45 98.172 1146.32 98.3464C1146.77 98.4171 1147.19 98.549 1147.62 98.648C1148.05 98.7705 1148.47 98.9119 1148.89 99.0439C1149.3 99.2041 1149.71 99.3549 1150.12 99.5246C1150.52 99.7131 1150.93 99.8781 1151.32 100.095C1152.11 100.505 1152.88 100.971 1153.6 101.594L1153.56 101.688C1151.88 101.146 1150.22 100.552 1148.55 99.9865C1146.89 99.3879 1145.23 98.8129 1143.58 98.1908L1143.61 98.0966Z" fill="#CFB2A3"/>
</g>
<g opacity="0.46">
<path opacity="0.46" d="M1157.32 103.393C1157.83 103.309 1158.24 103.342 1158.62 103.398C1159 103.459 1159.35 103.563 1159.68 103.704C1160.01 103.846 1160.32 104.025 1160.63 104.261C1160.94 104.501 1161.24 104.77 1161.53 105.203L1161.51 105.302C1160.74 105.17 1160 104.916 1159.28 104.628C1158.58 104.308 1157.89 103.945 1157.27 103.483L1157.32 103.393Z" fill="#659FEB"/>
</g>
<g opacity="0.46">
<path d="M1134.3 114.893L1135.85 115.082L1137.41 115.303L1140.49 115.84L1143.55 116.538L1146.58 117.33C1147.58 117.622 1148.59 117.919 1149.58 118.239L1152.55 119.267L1155.47 120.412L1158.36 121.651C1162.17 123.4 1165.87 125.375 1169.37 127.67L1171.97 129.428L1174.51 131.261L1176.95 133.227C1177.75 133.901 1178.53 134.589 1179.3 135.286L1179.24 135.366C1172.68 130.272 1165.52 125.973 1157.95 122.561C1150.39 119.121 1142.43 116.561 1134.28 114.992L1134.3 114.893Z" fill="#CFB2A3"/>
</g>
<g opacity="0.46">
<path d="M1146.75 127.784C1147.72 127.351 1148.86 127.379 1149.88 127.582C1150.4 127.667 1150.88 127.846 1151.37 128.011C1151.86 128.194 1152.32 128.421 1152.78 128.642C1153.22 128.897 1153.66 129.146 1154.08 129.425C1154.48 129.721 1154.9 130 1155.28 130.329C1156.05 130.97 1156.77 131.668 1157.4 132.502L1157.34 132.587C1155.69 131.522 1154.05 130.424 1152.31 129.524C1151.45 129.062 1150.55 128.642 1149.63 128.331C1148.71 128.025 1147.73 127.817 1146.76 127.883L1146.75 127.784Z" fill="#CFB2A3"/>
</g>
<g opacity="0.46">
<path d="M1162.04 134.759C1163.33 135.065 1164.53 135.522 1165.71 136.031C1166.31 136.272 1166.87 136.569 1167.45 136.833C1168.02 137.12 1168.59 137.422 1169.15 137.719C1169.7 138.044 1170.26 138.355 1170.8 138.685C1171.34 139.033 1171.88 139.359 1172.4 139.736C1173.46 140.462 1174.48 141.244 1175.43 142.168L1175.38 142.257L1168.67 138.595L1162 134.844L1162.04 134.759Z" fill="#CFB2A3"/>
</g>
</g>
<path d="M1019.99 46.3672C1018.43 67.7831 1052.11 79.74 1052.11 79.74L1059.67 81.7524C1066.36 85.8857 1069.76 86.4371 1069.76 86.4371L1065.35 83.7931L1072.12 85.914C1072.31 85.9658 1071.87 85.4804 1071.7 85.3908L1066.52 82.6149L1073.48 84.3587C1073.64 84.3964 1073.72 84.1796 1073.58 84.1089L1067.05 80.8192C1067.05 80.8192 1073.75 82.3557 1073.19 81.7665C1072.63 81.1774 1066.05 78.5806 1066.05 78.5806C1066.05 78.5806 1068.2 75.3899 1068.01 75.1071C1067.7 74.6452 1065.39 76.0025 1063.03 76.3749C1061.54 76.6105 1050.33 71.8457 1050.33 71.8457C1041.76 67.9999 1030.66 58.3759 1031.93 44.581C1031.93 44.581 1031.4 40.0047 1025.86 39.5428C1020.32 39.0668 1019.99 46.3672 1019.99 46.3672Z" fill="#FFC3A8" stroke="#FFA47A" stroke-width="0.695911" stroke-miterlimit="10" stroke-linecap="round" stroke-linejoin="round"/>
<path d="M1038.97 63.2485C1034.64 58.4459 1033.38 53.1579 1031.94 44.5709C1031.94 44.5709 1031.41 39.9945 1025.87 39.5327C1020.32 39.0661 1019.99 46.3712 1019.99 46.3712C1019.47 53.5774 1019.8 57.8851 1024.62 62.8526L1038.97 63.2485Z" fill="#FF7F4D" stroke="#FF7F4D" stroke-width="0.280864" stroke-miterlimit="10"/>
<path d="M1039.4 63.5601L1028.77 66.0957C1028.77 66.0957 1027.01 64.5922 1026.07 63.249L1039.4 63.5601Z" fill="#EB6B1B"/>
<path d="M1097.64 135.141C1093.33 147.183 1085.02 154.775 1073.09 153.941C1063.51 153.272 1054.63 148.912 1046.03 144.633C1043.09 143.167 1040.07 141.65 1037.86 139.213C1034.6 135.631 1033.56 130.621 1032.63 125.87C1031.71 121.134 1030.8 116.397 1029.88 111.661C1029.18 108.051 1028.43 104.318 1026.31 101.311C1024.2 98.3041 1020.31 96.2163 1016.8 97.3332C1013.3 98.4549 1011.5 103.639 1014.27 106.066C1020.1 102.569 1019.71 94.0153 1017.74 87.5161C1014.44 76.6668 1008.76 66.548 1001.23 58.074C996.059 52.2582 989.39 46.9513 981.612 46.6026C971.542 46.1501 963.072 54.0255 957.28 62.2686C951.276 70.8132 946.64 80.6398 945.989 91.0555C945.663 96.2964 946.682 102.183 950.875 105.35C955.063 108.517 962.779 106.387 962.959 101.137" stroke="#FF9800" stroke-width="1.00036" stroke-miterlimit="10" stroke-linecap="round" stroke-linejoin="round" stroke-dasharray="4.29 4.29"/>
<path d="M1206.72 92.7665C1210.85 94.4836 1215.74 93.5696 1219.56 91.2294C1223.37 88.8891 1226.25 85.2887 1228.66 81.5152C1232.04 76.2185 1234.7 69.9039 1233.38 63.7624C1232.68 60.5429 1230.94 57.6487 1229.03 54.9622C1226.65 51.6111 1223.91 48.4469 1220.52 46.1274C1213.79 41.5369 1204.64 40.7753 1197.25 44.1957C1189.86 47.616 1184.51 55.0938 1183.65 63.2016" stroke="#FF9800" stroke-width="1.00036" stroke-miterlimit="10" stroke-linecap="round" stroke-linejoin="round" stroke-dasharray="3.46 3.46"/>
<path d="M1237.5 122.188C1237.3 123.272 1236.25 123.984 1235.17 123.776C1234.08 123.574 1233.37 122.527 1233.58 121.448C1233.78 120.364 1234.83 119.652 1235.91 119.86C1236.99 120.062 1237.7 121.104 1237.5 122.188Z" fill="#FF9800"/>
<path d="M1214.91 117.197C1216.38 117.197 1217.57 116.007 1217.57 114.538C1217.57 113.07 1216.38 111.88 1214.91 111.88C1213.44 111.88 1212.25 113.07 1212.25 114.538C1212.25 116.007 1213.44 117.197 1214.91 117.197Z" stroke="white" stroke-width="0.500179" stroke-miterlimit="10"/>
<path d="M1126.08 29.2622C1125.82 30.6148 1124.52 31.5056 1123.16 31.2511C1121.81 30.9966 1120.92 29.6911 1121.17 28.3384C1121.43 26.9858 1122.73 26.0951 1124.09 26.3496C1125.45 26.6041 1126.34 27.9096 1126.08 29.2622Z" fill="#FF7F4D"/>
<path d="M1109.96 153.926C1109.68 155.368 1108.29 156.32 1106.85 156.046C1105.4 155.773 1104.45 154.383 1104.73 152.941C1105 151.498 1106.39 150.546 1107.83 150.82C1109.28 151.093 1110.23 152.483 1109.96 153.926Z" stroke="white" stroke-width="0.500179" stroke-miterlimit="10"/>
<path d="M1042.65 92.6759C1042.33 94.3914 1040.68 95.5178 1038.96 95.1926C1037.24 94.8674 1036.12 93.2179 1036.44 91.5023C1036.77 89.7868 1038.42 88.6604 1040.13 88.9856C1041.85 89.3108 1042.98 90.9604 1042.65 92.6759Z" fill="#FF9800"/>
<path d="M984.394 132.718C985.543 132.718 986.474 131.787 986.474 130.639C986.474 129.492 985.543 128.561 984.394 128.561C983.246 128.561 982.314 129.492 982.314 130.639C982.314 131.787 983.246 132.718 984.394 132.718Z" fill="#FF7F4D"/>
<path d="M937.712 114.37C939.063 114.37 940.159 113.275 940.159 111.924C940.159 110.573 939.063 109.478 937.712 109.478C936.36 109.478 935.264 110.573 935.264 111.924C935.264 113.275 936.36 114.37 937.712 114.37Z" stroke="#FF9800" stroke-width="0.447072" stroke-miterlimit="10"/>
<path d="M1240.62 117.424L1230.99 170.642L1270.42 177.774L1280.06 124.555L1240.62 117.424Z" fill="white"/>
<path d="M1270.42 177.779C1270.42 177.779 1270.43 177.69 1270.46 177.521C1270.49 177.353 1270.53 177.101 1270.59 176.775C1270.71 176.117 1270.88 175.143 1271.11 173.877C1271.56 171.346 1272.23 167.646 1273.07 162.959C1274.75 153.595 1277.15 140.299 1279.99 124.547L1280.04 124.624C1268.19 122.481 1254.77 120.058 1240.62 117.497H1240.61L1240.7 117.437C1237.09 137.287 1233.76 155.677 1231.04 170.652L1230.99 170.583C1242.93 172.757 1252.77 174.549 1259.64 175.799C1263.08 176.426 1265.77 176.919 1267.6 177.253C1268.52 177.422 1269.22 177.552 1269.69 177.638C1270.17 177.729 1270.42 177.779 1270.42 177.779C1270.42 177.779 1270.18 177.74 1269.71 177.657C1269.24 177.574 1268.54 177.449 1267.63 177.286C1265.8 176.96 1263.11 176.479 1259.68 175.865C1252.8 174.629 1242.93 172.853 1230.98 170.705L1230.92 170.694L1230.93 170.633C1233.64 155.658 1236.96 137.265 1240.56 117.412L1240.57 117.34L1240.64 117.354H1240.65C1254.81 119.917 1268.22 122.348 1280.07 124.494L1280.14 124.505L1280.13 124.571C1277.26 140.334 1274.83 153.645 1273.13 163.014C1272.27 167.69 1271.6 171.385 1271.14 173.91C1270.91 175.168 1270.73 176.136 1270.61 176.791C1270.55 177.115 1270.5 177.361 1270.47 177.53C1270.43 177.696 1270.42 177.779 1270.42 177.779Z" fill="#E0E0E0"/>
<path d="M1260.7 126.075L1243.96 123.047L1241.32 137.622L1258.06 140.65L1260.7 126.075Z" fill="#FECCB1"/>
<path d="M1274.05 128.492L1263.34 126.553L1262.99 128.455L1273.71 130.394L1274.05 128.492Z" fill="#FECCB1"/>
<path d="M1271.58 146.162L1240.99 140.629L1240.65 142.531L1271.24 148.064L1271.58 146.162Z" fill="#FECCB1"/>
<path d="M1270.98 149.51L1240.38 143.977L1240.04 145.879L1270.63 151.412L1270.98 149.51Z" fill="#FECCB1"/>
<path d="M1270.37 152.858L1239.78 147.325L1239.43 149.227L1270.03 154.76L1270.37 152.858Z" fill="#FECCB1"/>
<path d="M1269.77 156.205L1239.17 150.672L1238.83 152.574L1269.42 158.107L1269.77 156.205Z" fill="#FECCB1"/>
<path d="M1269.16 159.553L1238.56 154.02L1238.22 155.922L1268.81 161.455L1269.16 159.553Z" fill="#FECCB1"/>
<path d="M1267.08 171.027L1236.49 165.494L1236.14 167.396L1266.73 172.929L1267.08 171.027Z" fill="#FECCB1"/>
<path d="M1254.75 160.405L1237.96 157.367L1237.62 159.269L1254.41 162.307L1254.75 160.405Z" fill="#FECCB1"/>
<path d="M1273.5 131.57L1262.78 129.631L1262.43 131.533L1273.15 133.472L1273.5 131.57Z" fill="#FECCB1"/>
<path d="M1272.94 134.648L1262.22 132.709L1261.88 134.612L1272.6 136.55L1272.94 134.648Z" fill="#FECCB1"/>
<path d="M1268.27 136.98L1261.66 135.785L1261.32 137.687L1267.93 138.882L1268.27 136.98Z" fill="#FECCB1"/>
<path d="M936.723 164.421H917.481C915.28 164.421 913.497 162.64 913.497 160.441V158.31C913.497 156.111 915.28 154.329 917.481 154.329H936.723V164.421Z" fill="#FF725E"/>
<path d="M972.278 156.006H931.692V154.331H972.278C972.644 154.331 972.94 154.626 972.94 154.991V155.345C972.937 155.711 972.642 156.006 972.278 156.006Z" fill="#FF725E"/>
<path d="M972.278 164.421H931.692V162.745H972.278C972.644 162.745 972.94 163.041 972.94 163.406V163.76C972.937 164.125 972.642 164.421 972.278 164.421Z" fill="#FF725E"/>
<path d="M971.707 162.746H936.294C934.432 162.746 932.922 161.237 932.922 159.377C932.922 157.516 934.432 156.007 936.294 156.007H971.707C970.759 158.254 970.759 160.5 971.707 162.746Z" fill="#F5F5F5"/>
<path opacity="0.3" d="M932.922 164.421H917.56C915.316 164.421 913.497 162.604 913.497 160.362V158.357C913.497 156.133 915.303 154.329 917.528 154.329H933.306C929.65 156.544 929.923 161.844 932.922 164.421Z" fill="black"/>
<path d="M967.405 159.689C967.405 159.723 960.136 159.75 951.171 159.75C942.205 159.75 934.938 159.723 934.938 159.689C934.938 159.655 942.205 159.628 951.171 159.628C960.136 159.628 967.405 159.655 967.405 159.689Z" fill="#263238"/>
<path d="M970.745 161.186C970.745 161.22 963.476 161.247 954.511 161.247C945.545 161.247 938.277 161.22 938.277 161.186C938.277 161.153 945.545 161.125 954.511 161.125C963.478 161.125 970.745 161.153 970.745 161.186Z" fill="#263238"/>
<path d="M969.762 157.566C969.762 157.6 962.492 157.627 953.528 157.627C944.561 157.627 937.294 157.6 937.294 157.566C937.294 157.532 944.561 157.505 953.528 157.505C962.492 157.505 969.762 157.532 969.762 157.566Z" fill="#263238"/>
<path d="M931.144 163.716C931.144 163.75 927.741 163.777 923.545 163.777C919.347 163.777 915.946 163.75 915.946 163.716C915.946 163.682 919.347 163.655 923.545 163.655C927.741 163.655 931.144 163.682 931.144 163.716Z" fill="#263238"/>
<path d="M931.144 155.168C931.144 155.202 927.741 155.229 923.545 155.229C919.347 155.229 915.946 155.202 915.946 155.168C915.946 155.135 919.347 155.107 923.545 155.107C927.741 155.11 931.144 155.137 931.144 155.168Z" fill="#263238"/>
<path d="M934.913 184.5H908.983C906.783 184.5 905 182.719 905 180.52V175.484C905 173.285 906.783 171.503 908.983 171.503H934.911V184.5H934.913Z" fill="#FF725E"/>
<path d="M980.893 173.662H928.434V171.503H980.891C981.257 171.503 981.552 171.799 981.552 172.164V173.001C981.552 173.366 981.256 173.662 980.893 173.662Z" fill="#FF725E"/>
<path d="M980.893 184.5H928.434V182.341H980.891C981.257 182.341 981.552 182.637 981.552 183.002V183.839C981.552 184.204 981.256 184.5 980.893 184.5Z" fill="#FF725E"/>
<path d="M979.967 182.342H934.36C931.961 182.342 930.018 180.398 930.018 178.003C930.018 175.606 931.963 173.664 934.36 173.664H979.967C978.746 176.555 978.746 179.449 979.967 182.342Z" fill="#F5F5F5"/>
<path opacity="0.3" d="M930.018 184.5H908.932C906.76 184.5 905 182.741 905 180.572V175.572C905 173.326 906.821 171.503 909.071 171.503H930.512C925.804 174.356 926.156 181.181 930.018 184.5Z" fill="black"/>
<path d="M974.427 178.404C974.427 178.438 965.065 178.465 953.521 178.465C941.973 178.465 932.613 178.438 932.613 178.404C932.613 178.37 941.973 178.343 953.521 178.343C965.065 178.346 974.427 178.373 974.427 178.404Z" fill="#263238"/>
<path d="M978.731 180.335C978.731 180.369 969.369 180.396 957.825 180.396C946.276 180.396 936.917 180.369 936.917 180.335C936.917 180.301 946.276 180.274 957.825 180.274C969.369 180.274 978.731 180.301 978.731 180.335Z" fill="#263238"/>
<path d="M977.462 176.616C977.462 176.65 968.101 176.677 956.556 176.677C945.008 176.677 935.648 176.65 935.648 176.616C935.648 176.582 945.008 176.555 956.556 176.555C968.101 176.555 977.462 176.582 977.462 176.616Z" fill="#263238"/>
<path d="M927.73 183.589C927.73 183.623 923.347 183.65 917.944 183.65C912.539 183.65 908.158 183.623 908.158 183.589C908.158 183.555 912.539 183.528 917.944 183.528C923.347 183.528 927.73 183.555 927.73 183.589Z" fill="#263238"/>
<path d="M927.73 172.584C927.73 172.618 923.347 172.645 917.944 172.645C912.539 172.645 908.158 172.618 908.158 172.584C908.158 172.55 912.539 172.523 917.944 172.523C923.347 172.523 927.73 172.55 927.73 172.584Z" fill="#263238"/>
<path d="M942.679 171.553H921.315C919.692 171.553 918.379 170.239 918.379 168.619V167.047C918.379 165.426 919.695 164.113 921.315 164.113H942.679V171.553Z" fill="#455A64"/>
<path d="M979.882 165.866H937.416V164.113H979.882C980.263 164.113 980.575 164.422 980.575 164.806V165.176C980.575 165.557 980.263 165.866 979.882 165.866Z" fill="#455A64"/>
<path d="M979.882 171.554H937.416V169.801H979.882C980.263 169.801 980.575 170.11 980.575 170.494V170.863C980.575 171.245 980.263 171.554 979.882 171.554Z" fill="#455A64"/>
<path d="M979.286 169.801H940.67C939.582 169.801 938.702 168.919 938.702 167.834C938.702 166.747 939.585 165.868 940.67 165.868H979.286C978.293 167.176 978.293 168.488 979.286 169.801Z" fill="#F5F5F5"/>
<path opacity="0.3" d="M938.703 171.553H921.333C919.702 171.553 918.377 170.232 918.377 168.599V167.126C918.377 165.462 919.727 164.113 921.392 164.113H939.104C935.281 165.744 935.566 169.652 938.703 171.553Z" fill="black"/>
<path d="M974.786 167.523C974.786 167.557 967.18 167.584 957.8 167.584C948.416 167.584 940.812 167.557 940.812 167.523C940.812 167.489 948.416 167.462 957.8 167.462C967.18 167.462 974.786 167.489 974.786 167.523Z" fill="#263238"/>
<path d="M978.28 168.581C978.28 168.615 970.674 168.642 961.294 168.642C951.91 168.642 944.307 168.615 944.307 168.581C944.307 168.547 951.91 168.52 961.294 168.52C970.676 168.522 978.28 168.549 978.28 168.581Z" fill="#263238"/>
<path d="M936.843 170.813C936.843 170.847 933.283 170.874 928.892 170.874C924.5 170.874 920.94 170.847 920.94 170.813C920.94 170.779 924.5 170.752 928.892 170.752C933.283 170.752 936.843 170.779 936.843 170.813Z" fill="#263238"/>
<path d="M936.843 164.987C936.843 165.021 933.283 165.048 928.892 165.048C924.5 165.048 920.94 165.021 920.94 164.987C920.94 164.953 924.5 164.926 928.892 164.926C933.283 164.929 936.843 164.953 936.843 164.987Z" fill="#263238"/>
<path d="M980.067 164.113C980.067 164.147 967.006 164.174 950.901 164.174C934.789 164.174 921.732 164.147 921.732 164.113C921.732 164.079 934.789 164.052 950.901 164.052C967.008 164.052 980.067 164.079 980.067 164.113Z" fill="#263238"/>
<path d="M956.646 157.455V161.496L958.048 160.596L959.612 161.496V157.455H956.646Z" fill="#FF725E"/>
<path d="M970.89 117.34L963.832 123.213L953.099 144.405L959.79 147.427L970.231 126.643L970.89 117.34Z" fill="#FF725E"/>
<g opacity="0.7">
<path opacity="0.7" d="M970.231 126.643C969.87 126.69 969.538 126.462 969.565 126.097C969.123 126.611 968.342 126.803 967.714 126.548C967.085 126.295 966.654 125.617 966.694 124.94C966.103 125.258 965.342 125.231 964.774 124.872C964.207 124.514 963.855 123.839 963.889 123.17L970.892 117.34L970.231 126.643Z" fill="white"/>
</g>
<path d="M968.051 119.701C968.051 119.701 968.157 121.456 970.619 121.151L970.89 117.34L968.051 119.701Z" fill="#FF725E"/>
<path opacity="0.3" d="M966.692 124.94L956.344 145.756L953.097 144.405L963.831 123.213L963.885 123.17C963.885 123.17 963.844 123.562 964.031 123.995C964.156 124.284 964.381 124.611 964.727 124.843C965.169 125.143 965.641 125.202 966.011 125.157C966.41 125.107 966.692 124.94 966.692 124.94Z" fill="black"/>
<path opacity="0.3" d="M969.565 126.098L958.933 147.04L959.79 147.428L970.228 126.643C970.228 126.643 969.705 126.734 969.567 126.233C969.558 126.195 969.565 126.147 969.565 126.098Z" fill="black"/>
<path d="M966.64 122.92C966.644 122.922 966.606 122.944 966.604 123.014C966.602 123.077 966.651 123.195 966.784 123.208C966.911 123.224 967.073 123.174 967.229 123.082C967.306 123.035 967.38 122.965 967.419 122.87C967.459 122.778 967.464 122.658 967.398 122.568C967.335 122.475 967.215 122.428 967.094 122.414C966.969 122.399 966.836 122.414 966.701 122.437C966.432 122.484 966.148 122.581 965.895 122.75C965.773 122.838 965.663 122.962 965.647 123.116C965.631 123.269 965.717 123.425 965.846 123.524C966.114 123.718 966.496 123.716 966.834 123.648C967.527 123.497 968.08 122.949 968.213 122.354C968.24 122.205 968.204 122.054 968.107 121.948C968.014 121.839 967.886 121.772 967.762 121.722C967.507 121.627 967.249 121.585 967.017 121.573C966.55 121.548 966.175 121.648 965.929 121.736C965.807 121.783 965.715 121.824 965.651 121.855C965.59 121.887 965.557 121.9 965.557 121.9C965.557 121.9 965.676 121.817 965.922 121.718C966.166 121.625 966.543 121.517 967.019 121.537C967.256 121.548 967.513 121.587 967.777 121.684C967.906 121.736 968.041 121.803 968.143 121.921C968.247 122.033 968.292 122.205 968.26 122.363C968.123 122.983 967.559 123.542 966.845 123.698C966.667 123.738 966.486 123.747 966.31 123.734C966.134 123.718 965.956 123.673 965.816 123.565C965.679 123.459 965.584 123.287 965.602 123.114C965.62 122.938 965.744 122.805 965.87 122.714C966.134 122.538 966.423 122.444 966.696 122.396C966.834 122.374 966.969 122.358 967.1 122.376C967.229 122.392 967.36 122.444 967.43 122.55C967.502 122.653 967.493 122.789 967.45 122.886C967.407 122.987 967.326 123.059 967.245 123.109C967.08 123.202 966.918 123.249 966.782 123.229C966.64 123.208 966.586 123.08 966.595 123.014C966.599 122.94 966.642 122.92 966.64 122.92Z" fill="white"/>
<path d="M970.425 122.793C970.425 122.8 970.321 122.778 970.134 122.784C969.949 122.791 969.678 122.845 969.378 122.987C969.073 123.127 968.75 123.359 968.403 123.637C968.055 123.907 967.667 124.225 967.175 124.397C966.685 124.568 966.171 124.566 965.74 124.453C965.304 124.34 964.957 124.113 964.708 123.885C964.46 123.655 964.311 123.42 964.221 123.256C964.133 123.089 964.104 122.99 964.104 122.99C964.106 122.99 964.117 123.012 964.137 123.057C964.158 123.102 964.192 123.168 964.237 123.247C964.329 123.407 964.483 123.635 964.731 123.86C964.977 124.081 965.32 124.302 965.749 124.41C966.173 124.519 966.676 124.519 967.157 124.352C967.638 124.185 968.021 123.869 968.374 123.603C968.721 123.328 969.053 123.096 969.362 122.958C969.669 122.818 969.944 122.769 970.134 122.769C970.324 122.762 970.425 122.793 970.425 122.793Z" fill="white"/>
<path d="M970.385 124.919C970.381 124.932 970.25 124.722 969.902 124.686C969.564 124.652 969.09 124.749 968.586 124.878C968.081 125.013 967.641 125.196 967.332 125.345C967.176 125.42 967.054 125.485 966.968 125.528C966.885 125.573 966.835 125.598 966.835 125.596C966.833 125.593 966.878 125.562 966.959 125.512C967.04 125.462 967.162 125.393 967.316 125.314C967.623 125.156 968.063 124.966 968.573 124.831C968.828 124.761 969.074 124.711 969.3 124.677C969.525 124.643 969.733 124.627 969.907 124.652C970.08 124.675 970.211 124.745 970.286 124.808C970.358 124.869 970.385 124.919 970.385 124.919Z" fill="white"/>
<path d="M967.455 126.409C967.451 126.404 967.539 126.328 967.692 126.219C967.846 126.113 968.071 125.969 968.36 125.919C968.649 125.865 968.924 125.962 969.064 126.093C969.137 126.156 969.182 126.222 969.204 126.269C969.229 126.316 969.234 126.346 969.231 126.346C969.222 126.35 969.184 126.235 969.04 126.12C968.9 126.003 968.645 125.917 968.367 125.969C968.089 126.016 967.866 126.152 967.71 126.249C967.555 126.35 967.46 126.416 967.455 126.409Z" fill="white"/>
<path d="M970.61 121.531C970.61 121.534 970.599 121.543 970.576 121.558C970.554 121.574 970.52 121.601 970.472 121.631C970.427 121.66 970.366 121.696 970.29 121.712C970.211 121.73 970.118 121.719 970.023 121.696C969.832 121.653 969.617 121.556 969.378 121.473C969.136 121.389 968.863 121.319 968.572 121.272C967.99 121.177 967.45 121.173 967.062 121.17C966.893 121.17 966.742 121.17 966.602 121.17C966.494 121.17 966.433 121.168 966.433 121.163C966.433 121.159 966.494 121.154 966.602 121.15C966.71 121.145 966.868 121.139 967.062 121.134C967.45 121.127 967.992 121.125 968.579 121.222C968.872 121.27 969.148 121.342 969.391 121.43C969.635 121.518 969.843 121.615 970.03 121.662C970.217 121.725 970.371 121.674 970.461 121.615C970.556 121.558 970.608 121.527 970.61 121.531Z" fill="white"/>
<path d="M978.09 140.683C978.09 145.476 978.09 150.266 978.09 155.058C978.09 156.425 978.09 157.792 978.09 159.156C978.09 159.343 978.379 159.343 978.379 159.156C978.379 154.364 978.379 149.574 978.379 144.781C978.379 143.414 978.379 142.048 978.379 140.683C978.381 140.496 978.09 140.496 978.09 140.683Z" fill="#FF725E"/>
<path d="M979.282 155.086C979.282 155.661 978.814 156.128 978.239 156.128C977.663 156.128 977.196 155.661 977.196 155.086C977.196 154.511 977.663 154.044 978.239 154.044C978.817 154.044 979.282 154.511 979.282 155.086Z" fill="#FF725E"/>
<path d="M977.946 155.624C977.946 155.624 977.187 156.382 976.959 158.608C976.731 160.834 976.682 161.946 976.682 161.946L978.731 162.072C978.731 162.072 978.731 160.403 978.731 160.478C978.731 160.554 979.135 161.666 979.135 161.666L980.755 161.134C980.755 161.138 980.173 155.221 977.946 155.624Z" fill="#FF725E"/>
<path d="M967.286 142.195H932.484V154.732H967.286V142.195Z" fill="#263238"/>
<path d="M979.509 140.037H919.983V142.195H979.509V140.037Z" fill="#263238"/>
<path opacity="0.3" d="M932.484 151.175C932.484 151.175 943.058 147.384 949.885 145.986C956.712 144.585 967.286 145.052 967.286 145.052V142.195H932.484V151.175Z" fill="black"/>
<path opacity="0.3" d="M941.514 140.037H919.983V142.195H941.514V140.037Z" fill="black"/>
<path d="M979.078 142.194C979.078 142.228 965.841 142.255 949.519 142.255C933.191 142.255 919.956 142.228 919.956 142.194C919.956 142.16 933.188 142.133 949.519 142.133C965.843 142.133 979.078 142.16 979.078 142.194Z" fill="#455A64"/>
<path d="M941.481 142.213C941.447 142.213 941.42 141.721 941.42 141.117C941.42 140.51 941.447 140.021 941.481 140.021C941.515 140.021 941.542 140.513 941.542 141.117C941.542 141.721 941.515 142.213 941.481 142.213Z" fill="#455A64"/>
<path d="M946.445 154.731C946.411 154.731 946.384 152.284 946.384 149.269C946.384 146.252 946.411 143.805 946.445 143.805C946.479 143.805 946.506 146.249 946.506 149.269C946.503 152.287 946.476 154.731 946.445 154.731Z" fill="#455A64"/>
</g>
</g>
<defs>
<linearGradient id="paint0_linear_240_70003" x1="566.973" y1="-78.6403" x2="566.973" y2="131.922" gradientUnits="userSpaceOnUse">
<stop stop-color="#FECCB1"/>
<stop offset="1" stop-color="#FECCB1" stop-opacity="0.16"/>
</linearGradient>
<linearGradient id="paint1_linear_240_70003" x1="767.259" y1="152.273" x2="767.259" y2="239.245" gradientUnits="userSpaceOnUse">
<stop stop-color="#FECCB1"/>
<stop offset="1" stop-color="#FECCB1" stop-opacity="0"/>
</linearGradient>
<linearGradient id="paint2_linear_240_70003" x1="32.5" y1="88.5" x2="32.5" y2="321.5" gradientUnits="userSpaceOnUse">
<stop stop-color="#FECCB1"/>
<stop offset="1" stop-color="#FECCB1" stop-opacity="0"/>
</linearGradient>
<clipPath id="clip0_240_70003">
<rect y="0.5" width="1288" height="184" rx="8" fill="white"/>
</clipPath>
<clipPath id="clip1_240_70003">
<rect width="383" height="184" fill="white" transform="translate(905 0.5)"/>
</clipPath>
</defs>
</svg>
